<svg width="16" height="16" viewBox="0 0 16 16" fill="none" xmlns="http://www.w3.org/2000/svg">
<path d="M3.33398 2L1.33398 4M14.6673 4L12.6673 2M4.00065 12.6667L2.66732 14M12.0007 12.6667L13.334 14M8.00065 6V8.66667L9.33398 10M8.00065 14C9.41514 14 10.7717 13.4381 11.7719 12.4379C12.7721 11.4377 13.334 10.0812 13.334 8.66667C13.334 7.25218 12.7721 5.89562 11.7719 4.89543C10.7717 3.89524 9.41514 3.33333 8.00065 3.33333C6.58616 3.33333 5.22961 3.89524 4.22942 4.89543C3.22922 5.89562 2.66732 7.25218 2.66732 8.66667C2.66732 10.0812 3.22922 11.4377 4.22942 12.4379C5.22961 13.4381 6.58616 14 8.00065 14Z" stroke="#98A2B3" stroke-width="1.33" stroke-linecap="round" stroke-linejoin="round"/>
</svg>
