<svg width="64" height="44" viewBox="0 0 64 44" fill="none" xmlns="http://www.w3.org/2000/svg">
<rect x="0.55" y="0.55" width="62.9" height="42.9" rx="6.05" fill="#1F72CD"/>
<path fill-rule="evenodd" clip-rule="evenodd" d="M11.2116 15.5833L5.36133 28.8689H12.365L13.2332 26.7507H15.2179L16.0861 28.8689H23.7952V27.2522L24.4821 28.8689H28.4698L29.1567 27.218V28.8689H45.1895L47.139 26.8057L48.9644 28.8689L57.1992 28.886L51.3304 22.2632L57.1992 15.5833H49.0921L47.1944 17.6084L45.4264 15.5833H27.9849L26.4872 19.0124L24.9544 15.5833H17.9653V17.145L17.1879 15.5833H11.2116ZM12.5663 17.4698H15.9802L19.8607 26.479V17.4698H23.6005L26.5978 23.9293L29.3601 17.4698H33.0812V27.0032H30.817L30.7985 19.5329L27.4975 27.0032H25.4721L22.1526 19.5329V27.0032H17.4946L16.6115 24.866H11.8406L10.9594 27.0013H8.46367L12.5663 17.4698ZM44.3605 17.4698H35.1537V26.9976H44.2179L47.1394 23.8399L49.9554 26.9976H52.899L48.6205 22.2613L52.899 17.4698H50.0831L47.1764 20.5912L44.3605 17.4698ZM14.2271 19.0828L12.6553 22.8901H15.7971L14.2271 19.0828ZM37.4268 21.1841V19.4438V19.4421H43.1715L45.6782 22.2253L43.0604 25.0237H37.4268V23.1238H42.4494V21.1841H37.4268Z" fill="white"/>
<rect x="0.55" y="0.55" width="62.9" height="42.9" rx="6.05" stroke="#F2F4F7" stroke-width="1.1"/>
</svg>
