<svg width="30" height="30" viewBox="0 0 30 30" fill="none" xmlns="http://www.w3.org/2000/svg">
<path d="M11.25 8.75H5.75C5.04993 8.75 4.6999 8.75 4.43251 8.88624C4.19731 9.00608 4.00608 9.19731 3.88624 9.43251C3.75 9.6999 3.75 10.0499 3.75 10.75V24.25C3.75 24.9501 3.75 25.3001 3.88624 25.5675C4.00608 25.8027 4.19731 25.9939 4.43251 26.1138C4.6999 26.25 5.04993 26.25 5.75 26.25H11.25M11.25 26.25H18.75M11.25 26.25L11.25 5.75C11.25 5.04993 11.25 4.6999 11.3862 4.43251C11.5061 4.19731 11.6973 4.00608 11.9325 3.88624C12.1999 3.75 12.5499 3.75 13.25 3.75L16.75 3.75C17.4501 3.75 17.8001 3.75 18.0675 3.88624C18.3027 4.00608 18.4939 4.19731 18.6138 4.43251C18.75 4.6999 18.75 5.04993 18.75 5.75V26.25M18.75 13.75H24.25C24.9501 13.75 25.3001 13.75 25.5675 13.8862C25.8027 14.0061 25.9939 14.1973 26.1138 14.4325C26.25 14.6999 26.25 15.0499 26.25 15.75V24.25C26.25 24.9501 26.25 25.3001 26.1138 25.5675C25.9939 25.8027 25.8027 25.9939 25.5675 26.1138C25.3001 26.25 24.9501 26.25 24.25 26.25H18.75" stroke="#344054" stroke-width="2" stroke-linecap="round" stroke-linejoin="round"/>
</svg>
