<svg width="60" height="60" viewBox="0 0 60 60" fill="none" xmlns="http://www.w3.org/2000/svg">
<rect width="60" height="60" rx="13" fill="#ECFDF3"/>
<path d="M21.25 18.75L17.5 22.5M42.5 22.5L38.75 18.75M22.5 38.75L20 41.25M37.5 38.75L40 41.25M30 26.25V31.25L32.5 33.75M30 41.25C32.6522 41.25 35.1957 40.1964 37.0711 38.3211C38.9464 36.4457 40 33.9022 40 31.25C40 28.5978 38.9464 26.0543 37.0711 24.1789C35.1957 22.3036 32.6522 21.25 30 21.25C27.3478 21.25 24.8043 22.3036 22.9289 24.1789C21.0536 26.0543 20 28.5978 20 31.25C20 33.9022 21.0536 36.4457 22.9289 38.3211C24.8043 40.1964 27.3478 41.25 30 41.25Z" stroke="#027A48" stroke-width="2" stroke-linecap="round" stroke-linejoin="round"/>
</svg>
