<svg width="124" height="33" viewBox="0 0 124 33" fill="none" xmlns="http://www.w3.org/2000/svg">
<path fill-rule="evenodd" clip-rule="evenodd" d="M32.8511 21.6401C32.8727 21.4826 32.8906 21.3248 32.9103 21.1673C32.9344 20.9755 32.9597 20.7834 32.9807 20.5914C33.0032 20.3863 33.0214 20.1816 33.0408 19.9771C33.0547 19.828 33.0708 19.6788 33.0831 19.5296C33.101 19.3122 33.1146 19.0948 33.1288 18.8771C33.1381 18.7385 33.1492 18.5998 33.1569 18.4608C33.1683 18.2508 33.1757 18.0408 33.1837 17.8308C33.1896 17.6823 33.1973 17.5338 33.2013 17.3855C33.2066 17.1944 33.2078 17.0035 33.2103 16.813C33.2124 16.6444 33.2164 16.4757 33.2164 16.3074C33.2164 16.1391 33.2124 15.9705 33.2103 15.8019C33.2078 15.6114 33.2066 15.4202 33.2013 15.2294C33.1973 15.0811 33.1896 14.9326 33.1837 14.784C33.1757 14.574 33.1683 14.3637 33.1569 14.1541C33.1492 14.0154 33.1381 13.8764 33.1288 13.7378C33.1146 13.5201 33.101 13.3026 33.0831 13.0852C33.0708 12.9361 33.0547 12.7869 33.0408 12.6378C33.0214 12.4333 33.0032 12.2283 32.9807 12.0235C32.9597 11.8314 32.9344 11.6397 32.9103 11.4476C32.8906 11.2898 32.8727 11.1323 32.8511 10.9748C32.8109 10.6811 32.7656 10.3874 32.7187 10.0934C32.7103 10.0415 32.7035 9.98965 32.6952 9.93808C32.573 9.19197 32.4311 8.44649 32.2663 7.70224C31.4803 4.15084 29.179 1.81093 25.6703 0.980826C25.5154 0.936974 25.3583 0.894975 25.1981 0.856681C25.0534 0.821785 24.9043 0.800785 24.7531 0.784109C22.1458 0.262208 19.5273 -0.00275772 16.9088 2.16401e-05C14.2904 -0.00275772 11.6719 0.262208 9.06458 0.784109C8.91367 0.800785 8.76431 0.821785 8.61958 0.856681C8.45941 0.894975 8.30264 0.936974 8.14773 0.980826C4.63896 1.81093 2.33774 4.15053 1.55174 7.70224C1.38695 8.44649 1.24468 9.19197 1.12279 9.93808C1.11415 9.99027 1.10736 10.0425 1.09872 10.095C1.05212 10.3877 1.00706 10.6811 0.966943 10.9742C0.945033 11.1323 0.927443 11.2898 0.907692 11.4479C0.883622 11.64 0.858317 11.8321 0.837023 12.0241C0.814496 12.2289 0.796288 12.4336 0.777155 12.6387C0.763268 12.7872 0.747221 12.9358 0.734877 13.0849C0.716978 13.302 0.7034 13.5194 0.688896 13.7368C0.679638 13.8758 0.668528 14.0154 0.660813 14.1544C0.649395 14.3637 0.642298 14.5731 0.634274 14.7825C0.628102 14.9313 0.620696 15.0805 0.616375 15.2294C0.611129 15.4202 0.610203 15.6114 0.607734 15.8019C0.605574 15.9705 0.601562 16.1391 0.601562 16.3074C0.601562 16.4757 0.605574 16.6444 0.607734 16.813C0.610203 17.0035 0.611129 17.1944 0.616375 17.3855C0.620696 17.5344 0.628102 17.6832 0.634274 17.8324C0.642298 18.0418 0.649395 18.2511 0.660813 18.4605C0.668528 18.5995 0.679638 18.7388 0.688896 18.878C0.7034 19.0954 0.716978 19.3129 0.734877 19.5299C0.747221 19.6788 0.763268 19.8276 0.777155 19.9762C0.796288 20.1809 0.814496 20.3857 0.837023 20.5907C0.858317 20.7828 0.883622 20.9749 0.907692 21.167C0.927443 21.3248 0.945033 21.4826 0.966943 21.6407C1.00706 21.9338 1.05212 22.2269 1.09872 22.5199C1.10736 22.5724 1.11415 22.6246 1.12279 22.6765C1.24468 23.4226 1.38695 24.1684 1.55174 24.9126C2.33774 28.4643 4.63896 30.8039 8.14773 31.6341C8.30264 31.6779 8.45941 31.7199 8.61958 31.7585C8.76431 31.7931 8.91367 31.8141 9.06458 31.8305C11.6719 32.3524 14.2904 32.6176 16.9088 32.6149C19.5273 32.6176 22.1458 32.3524 24.7531 31.8305C24.9043 31.8141 25.0534 31.7931 25.1981 31.7585C25.3583 31.7199 25.5154 31.6779 25.6703 31.6337C29.179 30.8039 31.4803 28.464 32.2663 24.9126C32.4311 24.1684 32.573 23.4226 32.6952 22.6765C32.7035 22.6249 32.7103 22.573 32.7187 22.5215C32.7656 22.2275 32.8109 21.9338 32.8511 21.6401Z" fill="#81B441"/>
<path d="M16.7919 3.61523C10.1349 3.61523 4.72266 9.24401 4.72266 16.1672C4.72266 23.0904 10.1349 28.7192 16.7919 28.7192C23.4488 28.7192 28.8611 23.0904 28.8611 16.1672C28.8611 9.24401 23.4488 3.61523 16.7919 3.61523Z" fill="#81B441"/>
<path d="M21.1355 8.96582C15.2838 9.36841 13.517 15.046 13.3673 17.9507C13.3673 18.4286 11.8917 17.4613 12.7694 13.2909C12.8447 12.9334 12.7694 12.5064 12.7694 12.5064C9.72208 15.2941 9.98413 20.5646 13.7303 22.7075C16.6343 24.3686 20.4095 23.3115 22.0793 20.2159C24.0395 16.6672 22.2971 9.64535 21.1355 8.96582Z" fill="white"/>
<path d="M46.9176 25V7.54545H57.8608V9.8125H49.5511V15.1307H57.2898V17.3892H49.5511V22.733H57.9631V25H46.9176ZM63.7223 17.2273V25H61.174V11.9091H63.62V14.0398H63.782C64.0831 13.3466 64.5547 12.7898 65.1967 12.3693C65.8445 11.9489 66.6598 11.7386 67.6428 11.7386C68.5348 11.7386 69.3161 11.9261 69.9865 12.3011C70.657 12.6705 71.1768 13.2216 71.5462 13.9545C71.9155 14.6875 72.1001 15.5937 72.1001 16.6733V25H69.5518V16.9801C69.5518 16.0312 69.3047 15.2898 68.8104 14.7557C68.3161 14.2159 67.6371 13.946 66.7734 13.946C66.1825 13.946 65.657 14.0739 65.1967 14.3295C64.7422 14.5852 64.3814 14.9602 64.1143 15.4545C63.853 15.9432 63.7223 16.5341 63.7223 17.2273ZM86.2479 11.9091L81.5007 25H78.7734L74.0178 11.9091H76.7536L80.0689 21.983H80.2053L83.5121 11.9091H86.2479ZM92.0774 25.2898C91.2479 25.2898 90.4979 25.1364 89.8274 24.8295C89.157 24.517 88.6257 24.0653 88.2337 23.4744C87.8473 22.8835 87.6541 22.1591 87.6541 21.3011C87.6541 20.5625 87.7962 19.9545 88.0803 19.4773C88.3643 19 88.7479 18.6222 89.2308 18.3438C89.7138 18.0653 90.2536 17.8551 90.8501 17.7131C91.4467 17.571 92.0547 17.4631 92.674 17.3892C93.4581 17.2983 94.0945 17.2244 94.5831 17.1676C95.0717 17.1051 95.4268 17.0057 95.6484 16.8693C95.87 16.733 95.9808 16.5114 95.9808 16.2045V16.1449C95.9808 15.4006 95.7706 14.8239 95.3501 14.4148C94.9354 14.0057 94.3161 13.8011 93.4922 13.8011C92.6342 13.8011 91.9581 13.9915 91.4638 14.3722C90.9751 14.7472 90.6371 15.1648 90.4496 15.625L88.0547 15.0795C88.3388 14.2841 88.7536 13.642 89.299 13.1534C89.8501 12.6591 90.4837 12.3011 91.1996 12.0795C91.9155 11.8523 92.6683 11.7386 93.4581 11.7386C93.9808 11.7386 94.5348 11.8011 95.12 11.9261C95.7109 12.0455 96.2621 12.267 96.7734 12.5909C97.2905 12.9148 97.7138 13.3778 98.0433 13.9801C98.3729 14.5767 98.5376 15.3523 98.5376 16.3068V25H96.049V23.2102H95.9467C95.782 23.5398 95.5348 23.8636 95.2053 24.1818C94.8757 24.5 94.4524 24.7642 93.9354 24.9744C93.4183 25.1847 92.799 25.2898 92.0774 25.2898ZM92.6314 23.2443C93.3359 23.2443 93.9382 23.1051 94.4382 22.8267C94.9439 22.5483 95.3274 22.1847 95.5888 21.7358C95.8558 21.2812 95.9893 20.7955 95.9893 20.2784V18.5909C95.8984 18.6818 95.7223 18.767 95.4609 18.8466C95.2053 18.9205 94.9126 18.9858 94.5831 19.0426C94.2536 19.0937 93.9325 19.142 93.62 19.1875C93.3075 19.2273 93.0462 19.2614 92.8359 19.2898C92.3416 19.3523 91.8899 19.4574 91.4808 19.6051C91.0774 19.7528 90.7536 19.9659 90.5092 20.2443C90.2706 20.517 90.1513 20.8807 90.1513 21.3352C90.1513 21.9659 90.3842 22.4432 90.8501 22.767C91.3161 23.0852 91.9098 23.2443 92.6314 23.2443ZM108.043 11.9091V13.9545H100.892V11.9091H108.043ZM102.81 8.77273H105.358V21.1562C105.358 21.6506 105.432 22.0227 105.58 22.2727C105.727 22.517 105.918 22.6847 106.151 22.7756C106.389 22.8608 106.648 22.9034 106.926 22.9034C107.131 22.9034 107.31 22.8892 107.463 22.8608C107.616 22.8324 107.736 22.8097 107.821 22.7926L108.281 24.8977C108.134 24.9545 107.923 25.0114 107.651 25.0682C107.378 25.1307 107.037 25.1648 106.628 25.1705C105.957 25.1818 105.332 25.0625 104.753 24.8125C104.173 24.5625 103.705 24.1761 103.347 23.6534C102.989 23.1307 102.81 22.4744 102.81 21.6847V8.77273ZM116.235 25.2642C115.008 25.2642 113.937 24.983 113.022 24.4205C112.107 23.858 111.397 23.071 110.891 22.0597C110.386 21.0483 110.133 19.8665 110.133 18.5142C110.133 17.1562 110.386 15.9687 110.891 14.9517C111.397 13.9347 112.107 13.1449 113.022 12.5824C113.937 12.0199 115.008 11.7386 116.235 11.7386C117.462 11.7386 118.533 12.0199 119.448 12.5824C120.363 13.1449 121.073 13.9347 121.579 14.9517C122.085 15.9687 122.337 17.1562 122.337 18.5142C122.337 19.8665 122.085 21.0483 121.579 22.0597C121.073 23.071 120.363 23.858 119.448 24.4205C118.533 24.983 117.462 25.2642 116.235 25.2642ZM116.244 23.125C117.039 23.125 117.698 22.9148 118.221 22.4943C118.744 22.0739 119.13 21.5142 119.38 20.8153C119.636 20.1165 119.763 19.3466 119.763 18.5057C119.763 17.6705 119.636 16.9034 119.38 16.2045C119.13 15.5 118.744 14.9347 118.221 14.5085C117.698 14.0824 117.039 13.8693 116.244 13.8693C115.442 13.8693 114.778 14.0824 114.249 14.5085C113.727 14.9347 113.337 15.5 113.082 16.2045C112.832 16.9034 112.707 17.6705 112.707 18.5057C112.707 19.3466 112.832 20.1165 113.082 20.8153C113.337 21.5142 113.727 22.0739 114.249 22.4943C114.778 22.9148 115.442 23.125 116.244 23.125Z" fill="#2E3A59"/>
</svg>
