<svg width="24" height="24" viewBox="0 0 24 24" fill="none" xmlns="http://www.w3.org/2000/svg">
<path fill-rule="evenodd" clip-rule="evenodd" d="M17 3.49902C17 3.22302 16.775 2.99902 16.5 2.99902H14C11.238 2.99902 9 5.01402 9 7.49902V10.199H6.5C6.224 10.199 6 10.423 6 10.699V13.299C6 13.575 6.224 13.799 6.5 13.799H9V20.499C9 20.775 9.224 20.999 9.5 20.999H12.5C12.775 20.999 13 20.775 13 20.499V13.799H15.619C15.844 13.799 16.041 13.649 16.102 13.433L16.823 10.833C16.912 10.515 16.672 10.199 16.342 10.199H13V7.49902C13 7.00202 13.447 6.59902 14 6.59902H16.5C16.775 6.59902 17 6.37502 17 6.09902V3.49902Z" fill="#EAECF0"/>
</svg>
