<svg width="31" height="31" viewBox="0 0 31 31" fill="none" xmlns="http://www.w3.org/2000/svg">
<g filter="url(#filter0_d_1638_15443)">
<path d="M7 12.9778C7 11.2354 7 10.3642 7.38753 9.6987C7.72842 9.1133 8.27235 8.63736 8.94137 8.33909C9.70194 8 10.6976 8 12.6889 8H17.3111C19.3024 8 20.2981 8 21.0586 8.33909C21.7277 8.63736 22.2716 9.1133 22.6125 9.6987C23 10.3642 23 11.2354 23 12.9778V17.0222C23 18.7646 23 19.6358 22.6125 20.3013C22.2716 20.8867 21.7277 21.3626 21.0586 21.6609C20.2981 22 19.3024 22 17.3111 22H12.6889C10.6976 22 9.70194 22 8.94137 21.6609C8.27235 21.3626 7.72842 20.8867 7.38753 20.3013C7 19.6358 7 18.7646 7 17.0222V12.9778Z" fill="white"/>
<path d="M26.0429 2H21.8161V8.12474H28.0009V3.72702C28.0026 3.72702 27.6953 2.16702 26.0429 2Z" fill="#1967D2"/>
<path d="M21.8161 27.9717V27.9867V28.0001L28.0009 21.8754H27.9455L21.8161 27.9717Z" fill="#1967D2"/>
<path d="M28.0024 21.8745V21.8203L27.9482 21.8745H28.0024Z" fill="#FBBC05"/>
<path d="M28.0009 8.12366H21.8161V21.8196H28.0009V8.12366Z" fill="#FBBC05"/>
<path d="M27.9455 21.8754H21.8161V27.9717L27.9455 21.8754Z" fill="#EA4335"/>
<path d="M21.8161 21.8752H27.9455L28.0009 21.8203H21.8161V21.8752Z" fill="#EA4335"/>
<path d="M21.8013 27.9843H21.8121V27.9735L21.8013 27.9843Z" fill="#34A853"/>
<path d="M8.04533 21.8203V27.9868H21.8004L21.8155 21.8203H8.04533Z" fill="#34A853"/>
<path d="M21.8162 21.8754V21.8203L21.8013 27.9868L21.8162 27.9718V21.8754Z" fill="#34A853"/>
<path d="M2 21.8203V26.1078C2.05542 27.4991 3.56006 27.9868 3.56006 27.9868H8.04546V21.8203H2Z" fill="#188038"/>
<path d="M8.04545 8.12486H21.8157V2.00012H3.73471C3.73471 2.00012 2.11083 2.16715 2 3.89249V21.8208H8.04545V8.12486Z" fill="#4285F4"/>
<path d="M12.5476 19.0476C12.2325 19.0476 11.9288 19.0066 11.6362 18.9245C11.3512 18.8424 11.0887 18.7193 10.8486 18.5552C10.6086 18.3836 10.3948 18.171 10.2073 17.9173C10.0273 17.6637 9.88853 17.369 9.79102 17.0333L11.1749 16.485C11.2724 16.858 11.4375 17.1415 11.67 17.3354C11.9025 17.5219 12.195 17.6152 12.5476 17.6152C12.7051 17.6152 12.8551 17.5928 12.9976 17.5481C13.1401 17.4958 13.2639 17.425 13.3689 17.3354C13.4739 17.2459 13.5564 17.1415 13.6164 17.0221C13.684 16.8953 13.7177 16.7535 13.7177 16.5969C13.7177 16.2686 13.5939 16.0112 13.3464 15.8247C13.1064 15.6382 12.7726 15.5449 12.3451 15.5449H11.6812V14.2133H12.2888C12.4388 14.2133 12.5851 14.1946 12.7276 14.1573C12.8701 14.12 12.9939 14.0641 13.0989 13.9895C13.2114 13.9074 13.2977 13.8067 13.3577 13.6873C13.4252 13.5605 13.4589 13.415 13.4589 13.2509C13.4589 12.9972 13.3689 12.7921 13.1889 12.6354C13.0089 12.4713 12.7651 12.3892 12.4576 12.3892C12.1275 12.3892 11.8725 12.4787 11.6925 12.6578C11.52 12.8294 11.3999 13.0233 11.3324 13.2397L9.98229 12.6914C10.0498 12.5048 10.1511 12.3146 10.2861 12.1206C10.4211 11.9192 10.5899 11.7402 10.7924 11.5835C11.0024 11.4194 11.2462 11.2888 11.5237 11.1918C11.8012 11.0874 12.12 11.0352 12.4801 11.0352C12.8476 11.0352 13.1814 11.0874 13.4814 11.1918C13.789 11.2963 14.0515 11.4417 14.269 11.6283C14.4865 11.8073 14.6553 12.0237 14.7753 12.2773C14.8953 12.5235 14.9553 12.7921 14.9553 13.083C14.9553 13.3068 14.9253 13.5083 14.8653 13.6873C14.8128 13.8664 14.7416 14.0268 14.6516 14.1685C14.5616 14.3103 14.4565 14.4334 14.3365 14.5378C14.224 14.6348 14.1078 14.7131 13.9877 14.7728V14.8623C14.3478 15.0041 14.6441 15.2316 14.8766 15.5449C15.1166 15.8583 15.2366 16.2537 15.2366 16.7311C15.2366 17.0669 15.1729 17.3765 15.0454 17.66C14.9178 17.936 14.7341 18.1785 14.494 18.3873C14.2615 18.5962 13.9802 18.7566 13.6502 18.8685C13.3202 18.9879 12.9526 19.0476 12.5476 19.0476Z" fill="#4285F4"/>
<path d="M17.9235 18.8685V12.9376L16.5621 13.5083L16.022 12.2661L18.2835 11.2142H19.3974V18.8685H17.9235Z" fill="#4285F4"/>
</g>
<defs>
<filter id="filter0_d_1638_15443" x="-2" y="-1" width="34" height="34" filterUnits="userSpaceOnUse" color-interpolation-filters="sRGB">
<feFlood flood-opacity="0" result="BackgroundImageFix"/>
<feColorMatrix in="SourceAlpha" type="matrix" values="0 0 0 0 0 0 0 0 0 0 0 0 0 0 0 0 0 0 127 0" result="hardAlpha"/>
<feOffset dy="1"/>
<feGaussianBlur stdDeviation="1"/>
<feColorMatrix type="matrix" values="0 0 0 0 0.0627451 0 0 0 0 0.0941176 0 0 0 0 0.156863 0 0 0 0.05 0"/>
<feBlend mode="normal" in2="BackgroundImageFix" result="effect1_dropShadow_1638_15443"/>
<feBlend mode="normal" in="SourceGraphic" in2="effect1_dropShadow_1638_15443" result="shape"/>
</filter>
</defs>
</svg>
