<svg width="24" height="24" viewBox="0 0 24 24" fill="none" xmlns="http://www.w3.org/2000/svg">
<path fill-rule="evenodd" clip-rule="evenodd" d="M11.9995 0.999023C5.92551 0.999023 0.999512 5.81902 0.999512 11.766C0.999512 16.521 4.15151 20.557 8.52251 21.98C9.07351 22.079 9.27351 21.747 9.27351 21.461C9.27351 21.206 9.26451 20.528 9.25951 19.631C6.19951 20.281 5.55451 18.187 5.55451 18.187C5.05351 16.943 4.33251 16.612 4.33251 16.612C3.33351 15.944 4.40851 15.958 4.40851 15.958C5.51251 16.034 6.09251 17.067 6.09251 17.067C7.07351 18.713 8.66651 18.237 9.29451 17.962C9.39451 17.267 9.67751 16.792 9.99251 16.522C7.54951 16.251 4.98151 15.327 4.98151 11.202C4.98151 10.027 5.41051 9.06602 6.11451 8.31302C6.00051 8.04102 5.62351 6.94602 6.22151 5.46402C6.22151 5.46402 7.14551 5.17502 9.24751 6.56702C10.1245 6.32802 11.0655 6.21002 12.0005 6.20502C12.9345 6.21002 13.8755 6.32802 14.7545 6.56702C16.8545 5.17502 17.7765 5.46402 17.7765 5.46402C18.3765 6.94602 17.9995 8.04102 17.8855 8.31302C18.5905 9.06602 19.0165 10.027 19.0165 11.202C19.0165 15.338 16.4445 16.248 13.9945 16.515C14.3895 16.847 14.7405 17.504 14.7405 18.508C14.7405 19.947 14.7275 21.108 14.7275 21.461C14.7275 21.749 14.9255 22.084 15.4835 21.979C19.8505 20.553 22.9995 16.52 22.9995 11.766C22.9995 5.81902 18.0745 0.999023 11.9995 0.999023Z" fill="#EAECF0"/>
</svg>
