<svg width="24" height="24" viewBox="0 0 24 24" fill="none" xmlns="http://www.w3.org/2000/svg">
<path fill-rule="evenodd" clip-rule="evenodd" d="M14.617 19.551C15.666 18.053 16.757 15.85 16.975 12.999H19.93C19.547 16.051 17.441 18.569 14.617 19.551ZM4.069 12.999H7.061C7.267 15.861 8.344 18.055 9.407 19.56C6.57 18.583 4.454 16.06 4.069 12.999ZM9.438 4.42802C8.386 5.92602 7.285 8.13602 7.065 10.999H4.069C4.455 7.92702 6.586 5.39602 9.438 4.42802ZM9.079 10.999C9.385 7.72702 11.059 5.44902 12.026 4.39602C13.026 5.46702 14.674 7.72402 14.959 10.999H9.079ZM9.08 12.999H14.962C14.656 16.276 12.978 18.554 12.012 19.607C10.965 18.497 9.359 16.271 9.08 12.999ZM19.93 10.999H16.978C16.773 8.15002 15.708 5.96302 14.65 4.46002C17.458 5.45002 19.549 7.95902 19.93 10.999ZM22 11.999C22 6.49502 17.529 2.01702 12.028 2.00102C12.024 2.00102 12.02 2.00002 12.015 2.00002C12.011 2.00002 12.005 1.99902 12 1.99902C6.486 1.99902 2 6.48602 2 11.999C2 17.513 6.486 21.999 12 21.999C12.006 21.999 12.011 21.998 12.015 21.998C12.017 21.998 12.018 21.999 12.02 21.999C12.023 21.999 12.026 21.997 12.028 21.997C17.529 21.982 22 17.503 22 11.999Z" fill="#EAECF0"/>
</svg>
