<svg width="37" height="22" viewBox="0 0 37 22" fill="none" xmlns="http://www.w3.org/2000/svg">
<g clip-path="url(#clip0_1638_15279)">
<path fill-rule="evenodd" clip-rule="evenodd" d="M33.3795 0H3.41654C1.52037 0 -0.0146018 1.55007 0.000352488 3.43114V14.8685C0.000352488 16.7647 1.53546 18.2998 3.43163 18.2998H17.6229L24.1093 21.9116L22.6343 18.2998H33.3795C35.2757 18.2998 36.8107 16.7647 36.8107 14.8685V3.43114C36.8107 1.53497 35.2757 0 33.3795 0ZM2.78457 2.64863C2.36327 2.67882 2.04722 2.82923 1.83642 3.11523C1.62576 3.38599 1.55056 3.73209 1.59571 4.12349C2.48362 9.76699 3.31128 13.5743 4.07884 15.5458C4.37979 16.2681 4.7259 16.6143 5.13225 16.5843C5.76435 16.539 6.51681 15.6662 7.40472 13.9657C7.87118 13.0024 8.59358 11.5578 9.57165 9.6314C10.3844 12.4757 11.498 14.6127 12.8975 16.0425C13.2889 16.4487 13.6953 16.6293 14.0864 16.5992C14.4326 16.569 14.7035 16.3886 14.8841 16.0574C15.0346 15.7716 15.0948 15.4404 15.0647 15.0642C14.9744 13.6948 15.1099 11.7835 15.4861 9.33044C15.8773 6.80217 16.3589 4.9812 16.9458 3.89774C17.0662 3.67199 17.1113 3.44624 17.0964 3.17533C17.0662 2.82923 16.9158 2.54337 16.6298 2.31762C16.3439 2.09187 16.0279 1.98647 15.6818 2.01652C15.2453 2.04672 14.9142 2.25737 14.6884 2.67868C13.7554 4.37929 13.0932 7.13332 12.702 10.9557C12.1301 9.51105 11.6487 7.81072 11.2723 5.80915C11.1069 4.92124 10.7004 4.49979 10.0382 4.54494C9.58675 4.57514 9.21059 4.87609 8.90949 5.44795L5.6138 11.7233C5.072 9.5411 4.56039 6.87752 4.09393 3.73224C3.98854 2.94958 3.55213 2.58838 2.78457 2.64863ZM31.7843 3.73224C32.8528 3.95799 33.6504 4.52984 34.1922 5.47786C34.6738 6.29056 34.9145 7.26877 34.9145 8.44268C34.9145 9.99274 34.5234 11.4074 33.7407 12.7015C32.8377 14.2065 31.664 14.959 30.2042 14.959C29.9483 14.959 29.6775 14.9288 29.3915 14.8685C28.3231 14.6428 27.5254 14.0711 26.9836 13.1229C26.502 12.2953 26.2613 11.302 26.2613 10.1432C26.2613 8.59309 26.6526 7.17847 27.4351 5.89931C28.3532 4.39439 29.5269 3.64193 30.9718 3.64193C31.2276 3.64193 31.4985 3.67213 31.7843 3.73224ZM31.1524 11.8737C31.7091 11.3772 32.0853 10.6398 32.2961 9.6465C32.3562 9.30039 32.4013 8.92424 32.4013 8.53298C32.4013 8.09643 32.311 7.62997 32.1304 7.16337C31.9047 6.57656 31.6037 6.26037 31.2425 6.18531C30.7009 6.07991 30.1741 6.38086 29.6775 7.11837C29.2711 7.69022 29.0152 8.29213 28.8799 8.90914C28.8045 9.25524 28.7745 9.63154 28.7745 10.0077C28.7745 10.4441 28.8648 10.9107 29.0454 11.3772C29.2711 11.9641 29.5721 12.2802 29.9333 12.3554C30.3095 12.4306 30.7158 12.2651 31.1524 11.8737ZM24.7564 5.47786C24.2146 4.52984 23.4019 3.95799 22.3485 3.73224C22.0625 3.67199 21.7917 3.64193 21.5358 3.64193C20.0911 3.64193 18.9173 4.39439 17.9992 5.89945C17.2166 7.17847 16.8255 8.59309 16.8255 10.1432C16.8255 11.3021 17.0662 12.2953 17.5477 13.1229C18.0895 14.0711 18.8871 14.6428 19.9557 14.8685C20.2415 14.9288 20.5124 14.9588 20.7684 14.9588C22.2281 14.9588 23.4019 14.2065 24.3049 12.7015C25.0874 11.4074 25.4787 9.9926 25.4787 8.44268C25.4787 7.26877 25.2378 6.29056 24.7564 5.478V5.47786ZM22.8601 9.64664C22.6494 10.6399 22.2731 11.3773 21.7164 11.874C21.28 12.2652 20.8738 12.4307 20.4975 12.3557C20.1362 12.2803 19.8352 11.9643 19.6095 11.3773C19.4289 10.9108 19.3386 10.4442 19.3386 10.0078C19.3386 9.63169 19.3687 9.25539 19.444 8.90928C19.5793 8.29227 19.8352 7.69037 20.2415 7.11851C20.7383 6.38101 21.265 6.08005 21.8067 6.18531C22.1679 6.26065 22.4688 6.57671 22.6946 7.16352C22.8752 7.63012 22.9655 8.09672 22.9655 8.53312C22.9655 8.92424 22.9353 9.30054 22.8601 9.64664Z" fill="#7F54B3"/>
</g>
<defs>
<clipPath id="clip0_1638_15279">
<rect width="36.8105" height="22" fill="white"/>
</clipPath>
</defs>
</svg>
