<svg width="65" height="44" viewBox="0 0 65 44" fill="none" xmlns="http://www.w3.org/2000/svg">
<rect x="1.05" y="0.55" width="62.9" height="42.9" rx="6.05" fill="white"/>
<path fill-rule="evenodd" clip-rule="evenodd" d="M32.0923 30.8537C29.9147 32.6835 27.09 33.7881 24.0034 33.7881C17.1163 33.7881 11.5332 28.2887 11.5332 21.5048C11.5332 14.7209 17.1163 9.22144 24.0034 9.22144C27.09 9.22144 29.9147 10.326 32.0923 12.1558C34.2699 10.326 37.0946 9.22144 40.1812 9.22144C47.0683 9.22144 52.6514 14.7209 52.6514 21.5048C52.6514 28.2887 47.0683 33.7881 40.1812 33.7881C37.0946 33.7881 34.2699 32.6835 32.0923 30.8537Z" fill="#ED0006"/>
<path fill-rule="evenodd" clip-rule="evenodd" d="M32.0918 30.8537C34.773 28.6007 36.4732 25.2483 36.4732 21.5048C36.4732 17.7612 34.773 14.4088 32.0918 12.1558C34.2694 10.326 37.0941 9.22144 40.1807 9.22144C47.0678 9.22144 52.6509 14.7209 52.6509 21.5048C52.6509 28.2887 47.0678 33.7881 40.1807 33.7881C37.0941 33.7881 34.2694 32.6835 32.0918 30.8537Z" fill="#F9A000"/>
<path fill-rule="evenodd" clip-rule="evenodd" d="M32.0923 30.8537C34.7735 28.6007 36.4737 25.2483 36.4737 21.5047C36.4737 17.7612 34.7735 14.4088 32.0923 12.1558C29.4111 14.4088 27.7109 17.7612 27.7109 21.5047C27.7109 25.2483 29.4111 28.6007 32.0923 30.8537Z" fill="#FF5E00"/>
<rect x="1.05" y="0.55" width="62.9" height="42.9" rx="6.05" stroke="#F2F4F7" stroke-width="1.1"/>
</svg>
