<svg width="64" height="44" viewBox="0 0 64 44" fill="none" xmlns="http://www.w3.org/2000/svg">
<rect x="0.55" y="0.55" width="62.9" height="42.9" rx="6.05" fill="white"/>
<path fill-rule="evenodd" clip-rule="evenodd" d="M26.875 33.8218L27.2809 31.1651L26.3766 31.1433H22.0586L25.0595 11.5384C25.0688 11.479 25.0991 11.4239 25.1432 11.3847C25.1875 11.3455 25.2441 11.324 25.3032 11.324H32.5841C35.0014 11.324 36.6695 11.8421 37.5403 12.865C37.9486 13.3449 38.2086 13.8465 38.3345 14.3983C38.4665 14.9774 38.4687 15.6691 38.34 16.513L38.3306 16.5744V17.1152L38.7389 17.3536C39.0827 17.5415 39.356 17.7566 39.5656 18.0028C39.9148 18.4132 40.1407 18.9347 40.2361 19.5528C40.3348 20.1886 40.3022 20.9453 40.1407 21.802C39.9543 22.7873 39.6532 23.6455 39.2464 24.3476C38.8724 24.9946 38.3958 25.5313 37.8299 25.9471C37.2896 26.3423 36.6477 26.6423 35.922 26.8342C35.2186 27.0229 34.4168 27.1181 33.5373 27.1181H32.9707C32.5656 27.1181 32.1721 27.2684 31.8631 27.5379C31.5533 27.813 31.3485 28.1889 31.2856 28.6L31.2428 28.8393L30.5255 33.522L30.4931 33.6939C30.4844 33.7483 30.4696 33.7754 30.4479 33.7938C30.4285 33.8106 30.4007 33.8218 30.3735 33.8218H26.875Z" fill="#28356A"/>
<path fill-rule="evenodd" clip-rule="evenodd" d="M39.1278 16.6367C39.1062 16.7799 39.0812 16.9262 39.0534 17.0765C38.0933 22.156 34.8082 23.9108 30.6128 23.9108H28.4766C27.9635 23.9108 27.531 24.2945 27.4512 24.816L26.0477 33.9887C25.9958 34.3312 26.2519 34.6397 26.5872 34.6397H30.376C30.8245 34.6397 31.2057 34.3039 31.2764 33.848L31.3135 33.6497L32.0269 28.9853L32.0728 28.7295C32.1426 28.2721 32.5246 27.936 32.9731 27.936H33.5397C37.2105 27.936 40.0842 26.4006 40.9241 21.9568C41.2748 20.1006 41.0933 18.5506 40.1649 17.4605C39.884 17.1318 39.5354 16.859 39.1278 16.6367Z" fill="#298FC2"/>
<path fill-rule="evenodd" clip-rule="evenodd" d="M38.1215 16.224C37.9747 16.1798 37.8234 16.14 37.6682 16.1039C37.512 16.0687 37.3522 16.0376 37.1876 16.0103C36.6117 15.9144 35.9805 15.8689 35.3045 15.8689H29.5978C29.4571 15.8689 29.3236 15.9016 29.2043 15.9607C28.941 16.0911 28.7455 16.3479 28.6981 16.6622L27.484 24.585L27.4492 24.8159C27.529 24.2944 27.9615 23.9107 28.4746 23.9107H30.6108C34.8062 23.9107 38.0913 22.155 39.0514 17.0764C39.0801 16.9261 39.1042 16.7798 39.1258 16.6366C38.8829 16.5038 38.6198 16.3902 38.3365 16.2934C38.2665 16.2695 38.1943 16.2464 38.1215 16.224Z" fill="#22284F"/>
<path fill-rule="evenodd" clip-rule="evenodd" d="M28.6989 16.6624C28.7463 16.3481 28.9418 16.0914 29.2051 15.9619C29.3253 15.9025 29.4579 15.8698 29.5986 15.8698H35.3053C35.9813 15.8698 36.6125 15.9155 37.1885 16.0114C37.353 16.0385 37.5128 16.0699 37.669 16.105C37.8242 16.1409 37.9755 16.181 38.1223 16.2249C38.1951 16.2473 38.2673 16.2706 38.338 16.2937C38.6213 16.3904 38.8846 16.5049 39.1274 16.6369C39.4131 14.7598 39.125 13.4817 38.1401 12.3244C37.0541 11.0502 35.0942 10.5049 32.5862 10.5049H25.3051C24.7929 10.5049 24.3559 10.8886 24.2767 11.4111L21.2441 31.2177C21.1843 31.6095 21.4776 31.963 21.8611 31.963H26.3562L28.6989 16.6624Z" fill="#28356A"/>
<rect x="0.55" y="0.55" width="62.9" height="42.9" rx="6.05" stroke="#F2F4F7" stroke-width="1.1"/>
</svg>
