<svg width="65" height="44" viewBox="0 0 65 44" fill="none" xmlns="http://www.w3.org/2000/svg">
<rect x="1.05" y="0.55" width="62.9" height="42.9" rx="6.05" fill="white"/>
<path fill-rule="evenodd" clip-rule="evenodd" d="M39.8647 16.8611C39.8647 15.9322 40.6005 15.1787 41.5065 15.1787C42.4141 15.1787 43.1493 15.9322 43.1493 16.8611C43.1493 17.7906 42.4141 18.5424 41.5065 18.5424C40.6005 18.5424 39.8647 17.7906 39.8647 16.8611ZM44.5859 16.5547L47.9159 15.9443V29.038H44.5859V16.5547ZM49.453 16.5547V29.038H52.7852V15.9443L49.453 16.5547ZM39.8373 19.4603V29.0372H43.1689V19.4603H39.8373ZM33.3205 23.6496C33.3205 20.8367 34.8844 19.4215 37.9626 19.3199C37.9626 19.3199 38.5186 19.298 38.8467 19.3696V22.1689C36.8955 22.2377 36.6799 22.9595 36.6799 24.643V29.0373H33.3205V23.6496ZM28.9221 19.4501C28.9179 19.4609 28.9123 19.476 28.9052 19.4952C28.7859 19.8159 28.243 21.2753 27.0247 22.7843V15.9443L23.5864 16.641V29.038H27.0247V25.2055C28.0203 26.7354 28.5123 29.038 28.5123 29.038H32.6299C32.2227 27.3037 30.4411 24.1066 30.4411 24.1066C32.0408 22.0292 32.7424 19.8168 32.8545 19.4501H28.9221ZM16.4233 19.8241C16.4233 20.723 17.3986 20.788 17.8196 20.8159C20.9074 21.0279 22.7477 22.5759 22.7477 24.9577C22.7477 27.0592 21.1022 29.1787 17.4312 29.1787C15.7291 29.1787 14.2767 29.0071 12.9887 28.6602V25.6014C13.8488 25.9636 15.266 26.3439 16.7258 26.3439C18.0581 26.3439 18.8505 25.8926 18.8505 25.1254C18.8505 24.1999 17.8896 24.1396 17.5211 24.1165L17.5171 24.1162C13.217 23.8162 12.7539 21.2109 12.7539 20.105C12.7539 18.1844 14.0846 15.9446 17.8404 15.9446C20.019 15.9446 21.1934 16.2927 22.205 16.655L22.2557 16.6708V19.6416L22.2178 19.6307C21.8118 19.4548 21.3348 19.2821 21.3348 19.2821C20.4779 19.0193 19.2795 18.7395 18.3532 18.7395C17.8266 18.7395 16.4233 18.7395 16.4233 19.8241Z" fill="#862165"/>
<rect x="1.05" y="0.55" width="62.9" height="42.9" rx="6.05" stroke="#F2F4F7" stroke-width="1.1"/>
</svg>
