<svg width="40" height="40" viewBox="0 0 40 40" fill="none" xmlns="http://www.w3.org/2000/svg">
<g clip-path="url(#clip0_2098_78022)">
<path d="M19.0767 3.21993C19.4183 2.39864 20.5817 2.39864 20.9233 3.21993L25.0555 13.1549C25.1995 13.5011 25.5251 13.7377 25.8989 13.7677L36.6245 14.6275C37.5112 14.6986 37.8707 15.8051 37.1952 16.3838L29.0234 23.3838C28.7386 23.6277 28.6142 24.0105 28.7012 24.3753L31.1978 34.8417C31.4042 35.7069 30.463 36.3908 29.7039 35.9271L20.5213 30.3184C20.2012 30.1229 19.7988 30.1229 19.4787 30.3184L10.2961 35.9271C9.53702 36.3908 8.59577 35.7069 8.80216 34.8417L11.2988 24.3753C11.3858 24.0105 11.2614 23.6277 10.9766 23.3838L2.80483 16.3838C2.12929 15.8051 2.48882 14.6986 3.37547 14.6275L14.1011 13.7677C14.4749 13.7377 14.8005 13.5011 14.9445 13.1549L19.0767 3.21993Z" fill="#F2F4F7"/>
<g clip-path="url(#clip1_2098_78022)">
<path d="M19.0767 3.21993C19.4183 2.39864 20.5817 2.39864 20.9233 3.21993L25.0555 13.1549C25.1995 13.5011 25.5251 13.7377 25.8989 13.7677L36.6245 14.6275C37.5112 14.6986 37.8707 15.8051 37.1952 16.3838L29.0234 23.3838C28.7386 23.6277 28.6142 24.0105 28.7012 24.3753L31.1978 34.8417C31.4042 35.7069 30.463 36.3908 29.7039 35.9271L20.5213 30.3184C20.2012 30.1229 19.7988 30.1229 19.4787 30.3184L10.2961 35.9271C9.53702 36.3908 8.59577 35.7069 8.80216 34.8417L11.2988 24.3753C11.3858 24.0105 11.2614 23.6277 10.9766 23.3838L2.80483 16.3838C2.12929 15.8051 2.48882 14.6986 3.37547 14.6275L14.1011 13.7677C14.4749 13.7377 14.8005 13.5011 14.9445 13.1549L19.0767 3.21993Z" fill="#FFDE56"/>
</g>
</g>
<defs>
<clipPath id="clip0_2098_78022">
<rect width="40" height="40" fill="white"/>
</clipPath>
<clipPath id="clip1_2098_78022">
<rect width="34" height="40" fill="white"/>
</clipPath>
</defs>
</svg>
