<svg width="22" height="21" viewBox="0 0 22 21" fill="none" xmlns="http://www.w3.org/2000/svg">
<path d="M10.1033 1.31699C10.4701 0.573741 11.5299 0.57374 11.8967 1.31699L14.294 6.17446C14.4397 6.4696 14.7213 6.67417 15.047 6.7215L20.4075 7.50043C21.2277 7.61961 21.5552 8.62759 20.9617 9.20612L17.0828 12.9871C16.8471 13.2169 16.7396 13.5479 16.7952 13.8723L17.7109 19.2111C17.851 20.028 16.9936 20.651 16.26 20.2653L11.4653 17.7446C11.174 17.5915 10.826 17.5915 10.5347 17.7446L5.74005 20.2653C5.00642 20.651 4.14899 20.028 4.2891 19.2111L5.20479 13.8723C5.26043 13.5479 5.15288 13.2169 4.91719 12.9871L1.03827 9.20612C0.444756 8.62759 0.772265 7.61961 1.59249 7.50043L6.95302 6.7215C7.27873 6.67417 7.5603 6.4696 7.70596 6.17446L10.1033 1.31699Z" fill="#EAECF0"/>
</svg>
