<svg width="30" height="30" viewBox="0 0 30 30" fill="none" xmlns="http://www.w3.org/2000/svg">
<path d="M14.1033 4.31658C14.3914 3.73291 14.5354 3.44107 14.731 3.34783C14.9012 3.26671 15.0988 3.26671 15.269 3.34783C15.4645 3.44107 15.6086 3.73291 15.8967 4.31658L18.63 9.85404C18.7151 10.0264 18.7576 10.1125 18.8198 10.1794C18.8748 10.2386 18.9408 10.2866 19.0141 10.3207C19.0969 10.3592 19.192 10.3731 19.3821 10.4009L25.4962 11.2946C26.14 11.3887 26.462 11.4357 26.6109 11.593C26.7406 11.7298 26.8015 11.9178 26.7769 12.1047C26.7485 12.3194 26.5154 12.5464 26.0493 13.0004L21.6268 17.308C21.4889 17.4422 21.42 17.5094 21.3755 17.5893C21.3361 17.66 21.3109 17.7377 21.3011 17.8181C21.2901 17.9088 21.3064 18.0037 21.3389 18.1934L22.3824 24.2776C22.4925 24.9193 22.5475 25.2402 22.4441 25.4306C22.3541 25.5962 22.1942 25.7124 22.0088 25.7468C21.7957 25.7863 21.5076 25.6347 20.9314 25.3317L15.4654 22.4572C15.2951 22.3677 15.21 22.3229 15.1203 22.3053C15.0408 22.2897 14.9591 22.2897 14.8797 22.3053C14.79 22.3229 14.7048 22.3677 14.5345 22.4572L9.06862 25.3317C8.49236 25.6348 8.20423 25.7863 7.99118 25.7468C7.80582 25.7124 7.64587 25.5962 7.55589 25.4306C7.45247 25.2402 7.5075 24.9193 7.61756 24.2776L8.66108 18.1934C8.69361 18.0037 8.70988 17.9088 8.69887 17.8181C8.68912 17.7377 8.66386 17.66 8.62448 17.5893C8.58 17.5094 8.51106 17.4422 8.3732 17.308L3.95067 13.0004C3.48455 12.5464 3.25149 12.3194 3.22313 12.1047C3.19845 11.9178 3.25941 11.7298 3.38903 11.593C3.53801 11.4357 3.85993 11.3887 4.50377 11.2946L10.6179 10.4009C10.808 10.3731 10.9031 10.3592 10.9859 10.3207C11.0592 10.2866 11.1252 10.2386 11.1802 10.1794C11.2424 10.1125 11.2849 10.0264 11.3699 9.85404L14.1033 4.31658Z" stroke="#B54708" stroke-width="2" stroke-linecap="round" stroke-linejoin="round"/>
</svg>
