<svg width="30" height="30" viewBox="0 0 30 30" fill="none" xmlns="http://www.w3.org/2000/svg">
<path d="M26.25 13.75L16.7574 4.25736C16.1088 3.60879 15.7845 3.28451 15.4061 3.0526C15.0705 2.84699 14.7048 2.69548 14.3221 2.60361C13.8905 2.5 13.4319 2.5 12.5147 2.5L7.5 2.5M3.75 10.875L3.75 13.3431C3.75 13.9546 3.75 14.2604 3.81908 14.5481C3.88032 14.8032 3.98133 15.047 4.1184 15.2707C4.273 15.523 4.48919 15.7392 4.92157 16.1716L14.6716 25.9216C15.6616 26.9116 16.1566 27.4066 16.7275 27.5921C17.2296 27.7553 17.7704 27.7553 18.2725 27.5921C18.8434 27.4066 19.3384 26.9116 20.3284 25.9216L23.4216 22.8284C24.4116 21.8384 24.9066 21.3434 25.0921 20.7725C25.2553 20.2704 25.2553 19.7296 25.0921 19.2275C24.9066 18.6566 24.4116 18.1616 23.4216 17.1716L14.2966 8.04657C13.8642 7.61419 13.648 7.398 13.3957 7.2434C13.172 7.10633 12.9282 7.00532 12.6731 6.94408C12.3854 6.875 12.0796 6.875 11.4681 6.875H7.75C6.34987 6.875 5.6498 6.875 5.11502 7.14748C4.64462 7.38717 4.26217 7.76962 4.02248 8.24002C3.75 8.7748 3.75 9.47487 3.75 10.875Z" stroke="#B54708" stroke-width="2" stroke-linecap="round" stroke-linejoin="round"/>
</svg>
