<svg width="20" height="20" viewBox="0 0 20 20" fill="none" xmlns="http://www.w3.org/2000/svg">
<path d="M13.0262 6.35943C12.6962 6.02942 12.5311 5.86441 12.4693 5.67414C12.4149 5.50677 12.4149 5.32648 12.4693 5.15911C12.5311 4.96884 12.6962 4.80383 13.0262 4.47382L15.3915 2.10851C14.7638 1.82465 14.067 1.66663 13.3334 1.66663C10.5719 1.66663 8.33336 3.9052 8.33336 6.66663C8.33336 7.07583 8.38252 7.47354 8.47524 7.8542C8.57454 8.26183 8.62419 8.46564 8.61538 8.5944C8.60615 8.7292 8.58605 8.80092 8.52389 8.92089C8.46451 9.03548 8.35074 9.14924 8.12321 9.37678L2.91669 14.5833C2.22634 15.2736 2.22634 16.3929 2.91669 17.0833C3.60705 17.7736 4.72634 17.7736 5.41669 17.0833L10.6232 11.8768C10.8507 11.6492 10.9645 11.5355 11.0791 11.4761C11.1991 11.4139 11.2708 11.3938 11.4056 11.3846C11.5343 11.3758 11.7382 11.4254 12.1458 11.5247C12.5264 11.6175 12.9242 11.6666 13.3334 11.6666C16.0948 11.6666 18.3334 9.42805 18.3334 6.66663C18.3334 5.93295 18.1753 5.23619 17.8915 4.60851L15.5262 6.97382C15.1962 7.30383 15.0311 7.46884 14.8409 7.53066C14.6735 7.58504 14.4932 7.58504 14.3258 7.53066C14.1356 7.46884 13.9706 7.30383 13.6405 6.97382L13.0262 6.35943Z" stroke="#F79009" stroke-width="2" stroke-linecap="round" stroke-linejoin="round"/>
</svg>
