<svg width="24" height="24" viewBox="0 0 24 24" fill="none" xmlns="http://www.w3.org/2000/svg">
<path fill-rule="evenodd" clip-rule="evenodd" d="M8.07693 19.9993C15.3229 19.9993 19.5149 14.3733 19.5149 9.0343C19.5149 8.8873 20.5449 8.0033 20.9859 6.1603C21.0759 5.7863 20.7119 5.4913 20.3689 5.6483C19.4889 6.0523 18.5959 5.7323 18.2079 5.2723C16.7159 3.6453 14.2209 3.5673 12.6339 5.0973C11.6109 6.0843 11.1769 7.5543 11.4939 8.9573C8.14293 9.1963 5.84193 7.6083 3.94993 5.4313C3.70593 5.1483 3.25293 5.2973 3.20193 5.6713C2.92193 7.7533 2.83393 12.8153 7.84993 15.7223C6.97893 16.9743 5.27393 17.7133 3.37593 18.0303C2.95593 18.1013 2.85593 18.6833 3.23993 18.8713C4.74393 19.6113 6.39693 19.9983 8.07693 19.9963" fill="#EAECF0"/>
</svg>
