<svg width="64" height="44" viewBox="0 0 64 44" fill="none" xmlns="http://www.w3.org/2000/svg">
<rect x="0.55" y="0.55" width="62.9" height="42.9" rx="6.05" fill="white"/>
<path fill-rule="evenodd" clip-rule="evenodd" d="M19.7711 29.0736H15.9831L13.1425 17.9528C13.0077 17.4412 12.7214 16.989 12.3003 16.7758C11.2494 16.2402 10.0914 15.8139 8.82812 15.5989V15.1708H14.9303C15.7725 15.1708 16.4042 15.8139 16.5095 16.5608L17.9833 24.5826L21.7695 15.1708H25.4522L19.7711 29.0736ZM27.5585 29.0736H23.9811L26.9269 15.1708H30.5044L27.5585 29.0736ZM35.1321 19.0222C35.2374 18.2734 35.869 17.8453 36.6059 17.8453C37.764 17.7378 39.0254 17.9528 40.0781 18.4866L40.7098 15.4932C39.657 15.0651 38.499 14.8501 37.4481 14.8501C33.9759 14.8501 31.4493 16.7758 31.4493 19.4485C31.4493 21.4818 33.239 22.5494 34.5023 23.1925C35.869 23.8338 36.3954 24.262 36.2901 24.9033C36.2901 25.8652 35.2374 26.2934 34.1865 26.2934C32.9232 26.2934 31.6599 25.9727 30.5037 25.4371L29.8721 28.4323C31.1354 28.9661 32.5021 29.1811 33.7654 29.1811C37.6587 29.2867 40.0781 27.3628 40.0781 24.4751C40.0781 20.8386 35.1321 20.6255 35.1321 19.0222ZM52.5974 29.0736L49.7569 15.1708H46.7057C46.0741 15.1708 45.4425 15.5989 45.2319 16.2402L39.9719 29.0736H43.6546L44.3897 27.0422H48.9147L49.3358 29.0736H52.5974ZM47.2336 18.9147L48.2845 24.1544H45.3387L47.2336 18.9147Z" fill="#172B85"/>
<rect x="0.55" y="0.55" width="62.9" height="42.9" rx="6.05" stroke="#F2F4F7" stroke-width="1.1"/>
</svg>
