<svg width="30" height="30" viewBox="0 0 30 30" fill="none" xmlns="http://www.w3.org/2000/svg">
<path d="M1.875 10.875C1.875 7.72471 1.875 6.14956 2.48809 4.9463C3.02738 3.88789 3.88789 3.02738 4.9463 2.48809C6.14956 1.875 7.7247 1.875 10.875 1.875H19.125C22.2753 1.875 23.8504 1.875 25.0537 2.48809C26.1121 3.02738 26.9726 3.88789 27.5119 4.9463C28.125 6.14956 28.125 7.7247 28.125 10.875V19.125C28.125 22.2753 28.125 23.8504 27.5119 25.0537C26.9726 26.1121 26.1121 26.9726 25.0537 27.5119C23.8504 28.125 22.2753 28.125 19.125 28.125H10.875C7.72471 28.125 6.14956 28.125 4.9463 27.5119C3.88789 26.9726 3.02738 26.1121 2.48809 25.0537C1.875 23.8504 1.875 22.2753 1.875 19.125V10.875Z" fill="#4087FC"/>
<path d="M8.26667 10C7.56711 10 7 10.6396 7 11.4286V18.3571C7 20.369 8.44612 22 10.23 22L17.7333 21.9286C18.4329 21.9286 19 21.289 19 20.5V13.5C19 11.4881 17.2839 10 15.5 10L8.26667 10Z" fill="white"/>
<path d="M20.7122 12.7276C20.2596 13.1752 20 13.8211 20 14.5V17.3993C20 18.0782 20.2596 18.7242 20.7122 19.1717L23.5288 21.6525C24.1019 22.2191 25 21.7601 25 20.9005V11.1352C25 10.2755 24.1019 9.81654 23.5288 10.3832L20.7122 12.7276Z" fill="white"/>
</svg>
