<svg width="660" height="645" viewBox="0 0 660 645" fill="none" xmlns="http://www.w3.org/2000/svg">
<g filter="url(#filter0_d_2455_86619)">
<rect x="50" y="50" width="560" height="434" rx="35.4429" fill="white"/>
</g>
<rect x="259" y="163" width="187.848" height="18" rx="9" fill="#D0D5DD"/>
<rect x="259" y="121" width="282.835" height="18" rx="9" fill="#D0D5DD"/>
<g clip-path="url(#clip0_2455_86619)">
<path fill-rule="evenodd" clip-rule="evenodd" d="M213.675 173.625C213.755 173.045 213.821 172.465 213.893 171.885C213.982 171.18 214.075 170.473 214.152 169.766C214.235 169.012 214.302 168.258 214.373 167.506C214.425 166.957 214.484 166.408 214.529 165.86C214.595 165.06 214.645 164.26 214.697 163.459C214.731 162.949 214.772 162.438 214.8 161.927C214.842 161.155 214.87 160.382 214.899 159.609C214.921 159.063 214.949 158.516 214.964 157.971C214.983 157.267 214.988 156.565 214.997 155.864C215.005 155.244 215.02 154.623 215.02 154.004C215.02 153.385 215.005 152.765 214.997 152.144C214.988 151.443 214.983 150.74 214.964 150.038C214.949 149.492 214.921 148.946 214.899 148.399C214.87 147.626 214.842 146.853 214.8 146.081C214.772 145.571 214.731 145.06 214.697 144.55C214.645 143.748 214.595 142.949 214.529 142.149C214.484 141.6 214.425 141.051 214.373 140.502C214.302 139.75 214.235 138.996 214.152 138.242C214.075 137.536 213.982 136.83 213.893 136.123C213.821 135.543 213.755 134.963 213.675 134.384C213.528 133.303 213.361 132.222 213.188 131.141C213.157 130.95 213.132 130.759 213.102 130.569C212.652 127.824 212.13 125.081 211.524 122.343C208.632 109.276 200.165 100.667 187.255 97.6127C186.685 97.4513 186.107 97.2968 185.518 97.1559C184.985 97.0275 184.437 96.9503 183.88 96.8889C174.287 94.9687 164.653 93.9938 155.019 94.004C145.385 93.9938 135.751 94.9687 126.158 96.8889C125.602 96.9503 125.053 97.0275 124.52 97.1559C123.931 97.2968 123.354 97.4513 122.784 97.6127C109.874 100.667 101.407 109.275 98.5155 122.343C97.9092 125.081 97.3858 127.824 96.9373 130.569C96.9055 130.761 96.8805 130.953 96.8487 131.146C96.6773 132.224 96.5115 133.303 96.3639 134.381C96.2833 134.963 96.2185 135.543 96.1459 136.124C96.0573 136.831 95.9642 137.538 95.8859 138.245C95.803 138.998 95.736 139.751 95.6656 140.506C95.6145 141.052 95.5555 141.599 95.51 142.148C95.4442 142.946 95.3942 143.746 95.3409 144.546C95.3068 145.057 95.2659 145.571 95.2375 146.082C95.1955 146.853 95.1694 147.623 95.1399 148.393C95.1172 148.941 95.0899 149.49 95.074 150.038C95.0547 150.74 95.0513 151.443 95.0422 152.144C95.0343 152.765 95.0195 153.385 95.0195 154.004C95.0195 154.623 95.0343 155.244 95.0422 155.864C95.0513 156.565 95.0547 157.267 95.074 157.971C95.0899 158.518 95.1172 159.066 95.1399 159.615C95.1694 160.385 95.1955 161.156 95.2375 161.926C95.2659 162.437 95.3068 162.95 95.3409 163.462C95.3942 164.262 95.4442 165.062 95.51 165.861C95.5555 166.408 95.6145 166.956 95.6656 167.503C95.736 168.256 95.803 169.009 95.8859 169.764C95.9642 170.471 96.0573 171.177 96.1459 171.884C96.2185 172.465 96.2833 173.045 96.3639 173.627C96.5115 174.705 96.6773 175.784 96.8487 176.862C96.8805 177.055 96.9055 177.247 96.9373 177.438C97.3858 180.183 97.9092 182.927 98.5155 185.665C101.407 198.733 109.874 207.341 122.784 210.396C123.354 210.557 123.931 210.712 124.52 210.854C125.053 210.981 125.602 211.058 126.158 211.118C135.751 213.039 145.385 214.015 155.019 214.004C164.653 214.015 174.287 213.039 183.88 211.118C184.437 211.058 184.985 210.981 185.518 210.854C186.107 210.712 186.685 210.557 187.255 210.395C200.165 207.341 208.632 198.732 211.524 185.665C212.13 182.927 212.652 180.183 213.102 177.438C213.132 177.248 213.157 177.057 213.188 176.868C213.361 175.786 213.528 174.705 213.675 173.625Z" fill="#F9F5FF"/>
<g filter="url(#filter1_d_2455_86619)">
<g clip-path="url(#clip1_2455_86619)">
<path d="M167.979 163.64V172.415C167.979 174.105 143.019 173.537 143.019 171.1C143.019 168.807 143.066 158.415 143.019 147.723C137.43 140.478 137.43 135.95 141.849 131.27C146.269 126.59 177.729 124.25 177.729 124.25C177.729 124.25 180.089 146.952 180.459 153.11C180.608 155.586 182.214 163.64 175.974 163.64H167.979Z" fill="url(#paint0_linear_2455_86619)"/>
<g style="mix-blend-mode:multiply">
<path d="M167.971 162.892C162.89 162.338 157.98 160.734 153.551 158.182C153.551 158.182 156.671 165.592 167.971 167.602V162.892Z" fill="#FFD7B8"/>
</g>
<path d="M196.449 189.89C198.924 194.922 200.874 203.242 202.299 214.85H108.699C110.125 203.241 112.075 194.921 114.549 189.89C117.016 184.874 139.899 175.222 139.899 175.222C139.899 175.222 140.355 170.81 141.459 170.177C142.564 169.545 168.224 169.545 169.539 170.177C170.855 170.81 171.099 175.22 171.099 175.22C171.099 175.22 193.988 184.885 196.449 189.89Z" fill="url(#paint1_linear_2455_86619)"/>
<path d="M148.098 136.031C146.857 134.966 145.35 134.249 143.22 135.356C138.17 137.978 141.522 148.093 147.173 147.896C149.123 147.828 148.229 151.714 143.02 154.281C143.02 150.186 136.78 140.046 136.234 130.814C129.955 128.476 131.515 119.121 135.825 119.121C135.138 110.544 148.87 106.115 154.187 111.036C159.595 104.555 173.245 107.87 174.069 113.493C183.455 108.482 189.625 122.885 180.836 128.476C177.22 130.777 168.76 131.652 156.548 131.652C150.688 131.652 154.058 145.368 155.89 149.796C158.23 155.451 171.295 156.231 175.39 155.646C178.588 155.189 180.265 153.891 180.46 153.111C183.385 160.911 179.68 165.591 173.83 165.591C163.885 165.591 153.94 162.666 152.38 155.451C151.138 149.709 151.206 140.442 148.098 136.031Z" fill="url(#paint2_linear_2455_86619)"/>
</g>
</g>
</g>
<g filter="url(#filter2_d_2455_86619)">
<rect x="95" y="273" width="471" height="66.6667" rx="8.88889" fill="white"/>
<path d="M113.168 317.925C112.884 317.925 112.631 317.901 112.408 317.854C112.186 317.811 112.032 317.769 111.947 317.726L112.373 316.249C112.78 316.353 113.14 316.391 113.452 316.362C113.765 316.334 114.042 316.194 114.283 315.943C114.53 315.697 114.754 315.297 114.958 314.743L115.271 313.891L111.237 302.925H113.055L116.066 311.618H116.18L119.191 302.925H121.009L116.379 315.425C116.17 315.988 115.912 316.455 115.604 316.824C115.297 317.198 114.939 317.475 114.532 317.655C114.129 317.835 113.675 317.925 113.168 317.925ZM127.263 314.061C126.278 314.061 125.414 313.827 124.67 313.358C123.932 312.889 123.354 312.234 122.938 311.391C122.526 310.548 122.32 309.563 122.32 308.436C122.32 307.3 122.526 306.308 122.938 305.46C123.354 304.613 123.932 303.955 124.67 303.486C125.414 303.017 126.278 302.783 127.263 302.783C128.248 302.783 129.109 303.017 129.848 303.486C130.591 303.955 131.169 304.613 131.581 305.46C131.998 306.308 132.206 307.3 132.206 308.436C132.206 309.563 131.998 310.548 131.581 311.391C131.169 312.234 130.591 312.889 129.848 313.358C129.109 313.827 128.248 314.061 127.263 314.061ZM127.263 312.556C128.011 312.556 128.626 312.364 129.109 311.98C129.592 311.597 129.95 311.093 130.182 310.468C130.414 309.843 130.53 309.165 130.53 308.436C130.53 307.707 130.414 307.028 130.182 306.398C129.95 305.768 129.592 305.259 129.109 304.871C128.626 304.483 128.011 304.289 127.263 304.289C126.515 304.289 125.899 304.483 125.416 304.871C124.933 305.259 124.576 305.768 124.344 306.398C124.112 307.028 123.996 307.707 123.996 308.436C123.996 309.165 124.112 309.843 124.344 310.468C124.576 311.093 124.933 311.597 125.416 311.98C125.899 312.364 126.515 312.556 127.263 312.556ZM141.64 309.374V302.925H143.316V313.834H141.64V311.987H141.526C141.27 312.541 140.873 313.012 140.333 313.401C139.793 313.784 139.111 313.976 138.287 313.976C137.605 313.976 136.999 313.827 136.469 313.529C135.939 313.226 135.522 312.771 135.219 312.165C134.916 311.554 134.765 310.785 134.765 309.857V302.925H136.441V309.743C136.441 310.539 136.663 311.173 137.108 311.646C137.558 312.12 138.131 312.357 138.827 312.357C139.244 312.357 139.667 312.25 140.098 312.037C140.534 311.824 140.899 311.497 141.192 311.057C141.49 310.617 141.64 310.056 141.64 309.374ZM150.505 314.061C149.596 314.061 148.793 313.832 148.097 313.372C147.401 312.908 146.857 312.255 146.464 311.412C146.071 310.565 145.874 309.563 145.874 308.408C145.874 307.262 146.071 306.268 146.464 305.425C146.857 304.582 147.404 303.931 148.104 303.472C148.805 303.012 149.615 302.783 150.533 302.783C151.244 302.783 151.805 302.901 152.217 303.138C152.633 303.37 152.951 303.635 153.168 303.933C153.391 304.227 153.564 304.468 153.687 304.658H153.829V299.289H155.505V313.834H153.886V312.158H153.687C153.564 312.357 153.388 312.608 153.161 312.911C152.934 313.209 152.61 313.477 152.188 313.713C151.767 313.945 151.206 314.061 150.505 314.061ZM150.732 312.556C151.405 312.556 151.973 312.38 152.437 312.03C152.901 311.675 153.254 311.185 153.495 310.56C153.737 309.93 153.857 309.203 153.857 308.379C153.857 307.565 153.739 306.852 153.502 306.242C153.265 305.626 152.915 305.148 152.451 304.807C151.987 304.461 151.414 304.289 150.732 304.289C150.022 304.289 149.43 304.471 148.957 304.835C148.488 305.195 148.135 305.685 147.898 306.306C147.666 306.921 147.55 307.612 147.55 308.379C147.55 309.156 147.669 309.861 147.906 310.496C148.147 311.126 148.502 311.628 148.971 312.002C149.444 312.371 150.031 312.556 150.732 312.556ZM163.239 314.061C162.254 314.061 161.39 313.827 160.647 313.358C159.908 312.889 159.331 312.234 158.914 311.391C158.502 310.548 158.296 309.563 158.296 308.436C158.296 307.3 158.502 306.308 158.914 305.46C159.331 304.613 159.908 303.955 160.647 303.486C161.39 303.017 162.254 302.783 163.239 302.783C164.224 302.783 165.086 303.017 165.825 303.486C166.568 303.955 167.146 304.613 167.558 305.46C167.974 306.308 168.183 307.3 168.183 308.436C168.183 309.563 167.974 310.548 167.558 311.391C167.146 312.234 166.568 312.889 165.825 313.358C165.086 313.827 164.224 314.061 163.239 314.061ZM163.239 312.556C163.987 312.556 164.603 312.364 165.086 311.98C165.569 311.597 165.926 311.093 166.158 310.468C166.39 309.843 166.506 309.165 166.506 308.436C166.506 307.707 166.39 307.028 166.158 306.398C165.926 305.768 165.569 305.259 165.086 304.871C164.603 304.483 163.987 304.289 163.239 304.289C162.491 304.289 161.876 304.483 161.393 304.871C160.91 305.259 160.552 305.768 160.32 306.398C160.088 307.028 159.972 307.707 159.972 308.436C159.972 309.165 160.088 309.843 160.32 310.468C160.552 311.093 160.91 311.597 161.393 311.98C161.876 312.364 162.491 312.556 163.239 312.556ZM170.741 313.834V302.925H172.36V304.629H172.502C172.73 304.047 173.097 303.595 173.603 303.273C174.11 302.946 174.718 302.783 175.429 302.783C176.148 302.783 176.747 302.946 177.225 303.273C177.708 303.595 178.085 304.047 178.355 304.629H178.468C178.748 304.066 179.167 303.619 179.725 303.287C180.284 302.951 180.954 302.783 181.735 302.783C182.711 302.783 183.509 303.088 184.129 303.699C184.749 304.305 185.059 305.25 185.059 306.533V313.834H183.383V306.533C183.383 305.728 183.163 305.153 182.723 304.807C182.282 304.461 181.764 304.289 181.167 304.289C180.4 304.289 179.806 304.521 179.385 304.985C178.963 305.444 178.752 306.026 178.752 306.732V313.834H177.048V306.362C177.048 305.742 176.847 305.243 176.444 304.864C176.042 304.48 175.523 304.289 174.889 304.289C174.453 304.289 174.046 304.405 173.667 304.637C173.293 304.869 172.99 305.191 172.758 305.602C172.531 306.01 172.417 306.481 172.417 307.016V313.834H170.741ZM191.334 314.09C190.643 314.09 190.016 313.959 189.452 313.699C188.889 313.434 188.441 313.053 188.11 312.556C187.778 312.054 187.613 311.448 187.613 310.737C187.613 310.112 187.736 309.606 187.982 309.218C188.228 308.825 188.557 308.517 188.969 308.294C189.381 308.072 189.836 307.906 190.333 307.797C190.835 307.683 191.339 307.593 191.846 307.527C192.508 307.442 193.046 307.378 193.458 307.335C193.874 307.288 194.177 307.21 194.367 307.101C194.561 306.992 194.658 306.803 194.658 306.533V306.476C194.658 305.775 194.466 305.231 194.083 304.843C193.704 304.454 193.129 304.26 192.357 304.26C191.557 304.26 190.929 304.435 190.475 304.786C190.02 305.136 189.701 305.51 189.516 305.908L187.925 305.34C188.209 304.677 188.588 304.161 189.061 303.791C189.54 303.417 190.06 303.157 190.624 303.01C191.192 302.859 191.751 302.783 192.3 302.783C192.65 302.783 193.053 302.825 193.507 302.911C193.967 302.991 194.409 303.159 194.836 303.415C195.266 303.671 195.624 304.057 195.908 304.573C196.192 305.089 196.334 305.78 196.334 306.646V313.834H194.658V312.357H194.573C194.459 312.593 194.27 312.847 194.005 313.117C193.739 313.387 193.387 313.616 192.946 313.806C192.506 313.995 191.969 314.09 191.334 314.09ZM191.59 312.584C192.253 312.584 192.811 312.454 193.266 312.193C193.725 311.933 194.071 311.597 194.303 311.185C194.54 310.773 194.658 310.34 194.658 309.885V308.351C194.587 308.436 194.431 308.514 194.189 308.585C193.953 308.652 193.678 308.711 193.365 308.763C193.058 308.81 192.757 308.853 192.463 308.891C192.175 308.924 191.94 308.952 191.76 308.976C191.325 309.033 190.917 309.125 190.539 309.253C190.165 309.376 189.862 309.563 189.63 309.814C189.402 310.06 189.289 310.396 189.289 310.823C189.289 311.405 189.504 311.845 189.935 312.144C190.371 312.437 190.922 312.584 191.59 312.584ZM199.393 313.834V302.925H201.07V313.834H199.393ZM200.246 301.107C199.919 301.107 199.637 300.995 199.401 300.773C199.169 300.55 199.053 300.283 199.053 299.97C199.053 299.658 199.169 299.39 199.401 299.168C199.637 298.945 199.919 298.834 200.246 298.834C200.572 298.834 200.852 298.945 201.084 299.168C201.321 299.39 201.439 299.658 201.439 299.97C201.439 300.283 201.321 300.55 201.084 300.773C200.852 300.995 200.572 301.107 200.246 301.107ZM205.816 307.271V313.834H204.14V302.925H205.759V304.629H205.901C206.157 304.075 206.545 303.63 207.066 303.294C207.587 302.953 208.259 302.783 209.083 302.783C209.821 302.783 210.468 302.934 211.022 303.237C211.576 303.536 212.007 303.99 212.314 304.601C212.622 305.207 212.776 305.974 212.776 306.902V313.834H211.1V307.016C211.1 306.159 210.877 305.491 210.432 305.013C209.987 304.53 209.376 304.289 208.6 304.289C208.065 304.289 207.587 304.405 207.165 304.637C206.748 304.869 206.419 305.207 206.178 305.652C205.936 306.097 205.816 306.637 205.816 307.271ZM217.06 313.948C216.71 313.948 216.409 313.822 216.158 313.571C215.907 313.32 215.782 313.02 215.782 312.669C215.782 312.319 215.907 312.018 216.158 311.767C216.409 311.516 216.71 311.391 217.06 311.391C217.411 311.391 217.711 311.516 217.962 311.767C218.213 312.018 218.339 312.319 218.339 312.669C218.339 312.901 218.28 313.114 218.161 313.308C218.048 313.503 217.894 313.659 217.7 313.777C217.51 313.891 217.297 313.948 217.06 313.948ZM225.778 314.061C224.756 314.061 223.875 313.82 223.136 313.337C222.398 312.854 221.83 312.189 221.432 311.341C221.034 310.494 220.835 309.525 220.835 308.436C220.835 307.328 221.039 306.351 221.446 305.503C221.858 304.651 222.431 303.985 223.165 303.507C223.903 303.024 224.765 302.783 225.75 302.783C226.517 302.783 227.208 302.925 227.824 303.209C228.439 303.493 228.944 303.891 229.337 304.402C229.73 304.914 229.973 305.51 230.068 306.192H228.392C228.264 305.695 227.98 305.254 227.54 304.871C227.104 304.483 226.517 304.289 225.778 304.289C225.125 304.289 224.552 304.459 224.06 304.8C223.572 305.136 223.191 305.612 222.916 306.227C222.646 306.838 222.511 307.556 222.511 308.379C222.511 309.222 222.644 309.956 222.909 310.581C223.179 311.206 223.558 311.691 224.045 312.037C224.538 312.383 225.116 312.556 225.778 312.556C226.214 312.556 226.609 312.48 226.964 312.328C227.32 312.177 227.62 311.959 227.866 311.675C228.113 311.391 228.288 311.05 228.392 310.652H230.068C229.973 311.296 229.739 311.876 229.365 312.392C228.996 312.904 228.506 313.311 227.895 313.614C227.289 313.912 226.583 314.061 225.778 314.061ZM236.95 314.061C235.965 314.061 235.101 313.827 234.358 313.358C233.619 312.889 233.042 312.234 232.625 311.391C232.213 310.548 232.007 309.563 232.007 308.436C232.007 307.3 232.213 306.308 232.625 305.46C233.042 304.613 233.619 303.955 234.358 303.486C235.101 303.017 235.965 302.783 236.95 302.783C237.935 302.783 238.797 303.017 239.536 303.486C240.279 303.955 240.857 304.613 241.268 305.46C241.685 306.308 241.893 307.3 241.893 308.436C241.893 309.563 241.685 310.548 241.268 311.391C240.857 312.234 240.279 312.889 239.536 313.358C238.797 313.827 237.935 314.061 236.95 314.061ZM236.95 312.556C237.698 312.556 238.314 312.364 238.797 311.98C239.28 311.597 239.637 311.093 239.869 310.468C240.101 309.843 240.217 309.165 240.217 308.436C240.217 307.707 240.101 307.028 239.869 306.398C239.637 305.768 239.28 305.259 238.797 304.871C238.314 304.483 237.698 304.289 236.95 304.289C236.202 304.289 235.587 304.483 235.104 304.871C234.621 305.259 234.263 305.768 234.031 306.398C233.799 307.028 233.683 307.707 233.683 308.436C233.683 309.165 233.799 309.843 234.031 310.468C234.263 311.093 234.621 311.597 235.104 311.98C235.587 312.364 236.202 312.556 236.95 312.556ZM244.452 313.834V302.925H246.071V304.629H246.213C246.441 304.047 246.808 303.595 247.314 303.273C247.821 302.946 248.429 302.783 249.14 302.783C249.859 302.783 250.458 302.946 250.936 303.273C251.419 303.595 251.796 304.047 252.066 304.629H252.179C252.459 304.066 252.878 303.619 253.436 303.287C253.995 302.951 254.665 302.783 255.446 302.783C256.422 302.783 257.22 303.088 257.84 303.699C258.46 304.305 258.77 305.25 258.77 306.533V313.834H257.094V306.533C257.094 305.728 256.874 305.153 256.434 304.807C255.993 304.461 255.475 304.289 254.878 304.289C254.111 304.289 253.517 304.521 253.096 304.985C252.674 305.444 252.463 306.026 252.463 306.732V313.834H250.759V306.362C250.759 305.742 250.558 305.243 250.155 304.864C249.753 304.48 249.234 304.289 248.6 304.289C248.164 304.289 247.757 304.405 247.378 304.637C247.004 304.869 246.701 305.191 246.469 305.602C246.242 306.01 246.128 306.481 246.128 307.016V313.834H244.452ZM266.977 298.607L262.289 316.021H260.755L265.443 298.607H266.977ZM269.191 313.834V299.289H270.867V304.658H271.009C271.132 304.468 271.303 304.227 271.521 303.933C271.743 303.635 272.06 303.37 272.472 303.138C272.889 302.901 273.452 302.783 274.163 302.783C275.081 302.783 275.891 303.012 276.592 303.472C277.292 303.931 277.839 304.582 278.232 305.425C278.625 306.268 278.822 307.262 278.822 308.408C278.822 309.563 278.625 310.565 278.232 311.412C277.839 312.255 277.295 312.908 276.599 313.372C275.903 313.832 275.1 314.061 274.191 314.061C273.49 314.061 272.929 313.945 272.508 313.713C272.086 313.477 271.762 313.209 271.535 312.911C271.308 312.608 271.132 312.357 271.009 312.158H270.81V313.834H269.191ZM270.839 308.379C270.839 309.203 270.96 309.93 271.201 310.56C271.442 311.185 271.795 311.675 272.259 312.03C272.723 312.38 273.291 312.556 273.964 312.556C274.665 312.556 275.249 312.371 275.718 312.002C276.192 311.628 276.547 311.126 276.783 310.496C277.025 309.861 277.146 309.156 277.146 308.379C277.146 307.612 277.027 306.921 276.79 306.306C276.558 305.685 276.206 305.195 275.732 304.835C275.263 304.471 274.674 304.289 273.964 304.289C273.282 304.289 272.709 304.461 272.245 304.807C271.781 305.148 271.431 305.626 271.194 306.242C270.957 306.852 270.839 307.565 270.839 308.379ZM284.596 314.09C283.905 314.09 283.277 313.959 282.714 313.699C282.15 313.434 281.703 313.053 281.371 312.556C281.04 312.054 280.874 311.448 280.874 310.737C280.874 310.112 280.997 309.606 281.244 309.218C281.49 308.825 281.819 308.517 282.231 308.294C282.643 308.072 283.097 307.906 283.594 307.797C284.096 307.683 284.601 307.593 285.107 307.527C285.77 307.442 286.308 307.378 286.719 307.335C287.136 307.288 287.439 307.21 287.629 307.101C287.823 306.992 287.92 306.803 287.92 306.533V306.476C287.92 305.775 287.728 305.231 287.344 304.843C286.966 304.454 286.39 304.26 285.619 304.26C284.818 304.26 284.191 304.435 283.737 304.786C283.282 305.136 282.962 305.51 282.778 305.908L281.187 305.34C281.471 304.677 281.85 304.161 282.323 303.791C282.801 303.417 283.322 303.157 283.886 303.01C284.454 302.859 285.013 302.783 285.562 302.783C285.912 302.783 286.315 302.825 286.769 302.911C287.228 302.991 287.671 303.159 288.097 303.415C288.528 303.671 288.886 304.057 289.17 304.573C289.454 305.089 289.596 305.78 289.596 306.646V313.834H287.92V312.357H287.835C287.721 312.593 287.531 312.847 287.266 313.117C287.001 313.387 286.648 313.616 286.208 313.806C285.768 313.995 285.23 314.09 284.596 314.09ZM284.852 312.584C285.514 312.584 286.073 312.454 286.528 312.193C286.987 311.933 287.333 311.597 287.565 311.185C287.801 310.773 287.92 310.34 287.92 309.885V308.351C287.849 308.436 287.692 308.514 287.451 308.585C287.214 308.652 286.94 308.711 286.627 308.763C286.319 308.81 286.019 308.853 285.725 308.891C285.436 308.924 285.202 308.952 285.022 308.976C284.586 309.033 284.179 309.125 283.8 309.253C283.426 309.376 283.123 309.563 282.891 309.814C282.664 310.06 282.55 310.396 282.55 310.823C282.55 311.405 282.766 311.845 283.197 312.144C283.632 312.437 284.184 312.584 284.852 312.584ZM292.655 313.834V302.925H294.275V304.573H294.388C294.587 304.033 294.947 303.595 295.468 303.259C295.989 302.923 296.576 302.754 297.229 302.754C297.352 302.754 297.506 302.757 297.691 302.762C297.875 302.766 298.015 302.773 298.11 302.783V304.487C298.053 304.473 297.923 304.452 297.719 304.423C297.52 304.39 297.31 304.374 297.087 304.374C296.557 304.374 296.083 304.485 295.667 304.708C295.255 304.925 294.928 305.228 294.686 305.617C294.45 306 294.331 306.438 294.331 306.931V313.834H292.655ZM300.324 313.834V299.289H302V304.658H302.142C302.265 304.468 302.436 304.227 302.653 303.933C302.876 303.635 303.193 303.37 303.605 303.138C304.022 302.901 304.585 302.783 305.295 302.783C306.214 302.783 307.024 303.012 307.724 303.472C308.425 303.931 308.972 304.582 309.365 305.425C309.758 306.268 309.955 307.262 309.955 308.408C309.955 309.563 309.758 310.565 309.365 311.412C308.972 312.255 308.428 312.908 307.732 313.372C307.036 313.832 306.233 314.061 305.324 314.061C304.623 314.061 304.062 313.945 303.641 313.713C303.219 313.477 302.895 313.209 302.668 312.911C302.44 312.608 302.265 312.357 302.142 312.158H301.943V313.834H300.324ZM301.972 308.379C301.972 309.203 302.092 309.93 302.334 310.56C302.575 311.185 302.928 311.675 303.392 312.03C303.856 312.38 304.424 312.556 305.097 312.556C305.797 312.556 306.382 312.371 306.851 312.002C307.324 311.628 307.679 311.126 307.916 310.496C308.158 309.861 308.278 309.156 308.278 308.379C308.278 307.612 308.16 306.921 307.923 306.306C307.691 305.685 307.339 305.195 306.865 304.835C306.396 304.471 305.807 304.289 305.097 304.289C304.415 304.289 303.842 304.461 303.378 304.807C302.914 305.148 302.563 305.626 302.327 306.242C302.09 306.852 301.972 307.565 301.972 308.379ZM317.092 314.061C316.041 314.061 315.134 313.829 314.372 313.365C313.615 312.896 313.03 312.243 312.618 311.405C312.211 310.562 312.007 309.582 312.007 308.465C312.007 307.347 312.211 306.362 312.618 305.51C313.03 304.653 313.603 303.985 314.337 303.507C315.075 303.024 315.937 302.783 316.922 302.783C317.49 302.783 318.051 302.878 318.605 303.067C319.159 303.256 319.663 303.564 320.118 303.99C320.572 304.412 320.935 304.97 321.205 305.666C321.474 306.362 321.609 307.219 321.609 308.237V308.948H313.2V307.499H319.905C319.905 306.883 319.782 306.334 319.536 305.851C319.294 305.368 318.948 304.987 318.499 304.708C318.054 304.428 317.528 304.289 316.922 304.289C316.254 304.289 315.677 304.454 315.189 304.786C314.706 305.112 314.334 305.539 314.074 306.064C313.813 306.59 313.683 307.153 313.683 307.754V308.72C313.683 309.544 313.825 310.243 314.109 310.816C314.398 311.384 314.798 311.817 315.31 312.115C315.821 312.409 316.415 312.556 317.092 312.556C317.533 312.556 317.93 312.494 318.286 312.371C318.645 312.243 318.955 312.054 319.216 311.803C319.476 311.547 319.678 311.23 319.82 310.851L321.439 311.306C321.268 311.855 320.982 312.338 320.58 312.754C320.177 313.166 319.68 313.488 319.088 313.72C318.496 313.948 317.831 314.061 317.092 314.061ZM324.159 313.834V302.925H325.778V304.573H325.892C326.091 304.033 326.451 303.595 326.972 303.259C327.492 302.923 328.08 302.754 328.733 302.754C328.856 302.754 329.01 302.757 329.195 302.762C329.379 302.766 329.519 302.773 329.614 302.783V304.487C329.557 304.473 329.427 304.452 329.223 304.423C329.024 304.39 328.813 304.374 328.591 304.374C328.061 304.374 327.587 304.485 327.17 304.708C326.759 304.925 326.432 305.228 326.19 305.617C325.954 306 325.835 306.438 325.835 306.931V313.834H324.159ZM336.316 314.033C335.246 314.033 334.335 313.742 333.582 313.159C332.829 312.572 332.254 311.722 331.856 310.61C331.458 309.492 331.26 308.143 331.26 306.561C331.26 304.989 331.458 303.647 331.856 302.534C332.259 301.417 332.836 300.565 333.589 299.977C334.347 299.386 335.256 299.09 336.316 299.09C337.377 299.09 338.284 299.386 339.037 299.977C339.794 300.565 340.372 301.417 340.77 302.534C341.172 303.647 341.373 304.989 341.373 306.561C341.373 308.143 341.174 309.492 340.777 310.61C340.379 311.722 339.804 312.572 339.051 313.159C338.298 313.742 337.386 314.033 336.316 314.033ZM336.316 312.47C337.377 312.47 338.201 311.959 338.788 310.936C339.375 309.914 339.669 308.455 339.669 306.561C339.669 305.302 339.534 304.229 339.264 303.344C338.999 302.459 338.615 301.784 338.113 301.32C337.616 300.856 337.017 300.624 336.316 300.624C335.265 300.624 334.444 301.142 333.852 302.179C333.26 303.211 332.964 304.672 332.964 306.561C332.964 307.821 333.097 308.891 333.362 309.771C333.627 310.652 334.008 311.322 334.505 311.781C335.007 312.241 335.611 312.47 336.316 312.47ZM344.136 313.834L350.642 300.965V300.851H343.142V299.289H352.46V300.936L345.983 313.834H344.136Z" fill="#2E3A59"/>
<rect x="95.5556" y="273.556" width="469.889" height="65.5555" rx="8.33333" stroke="#EAECF0" stroke-width="1.11111"/>
</g>
<g filter="url(#filter3_d_2455_86619)">
<rect x="215" y="380" width="231" height="60" rx="8" fill="#6D2FFD"/>
<rect x="280" y="402" width="102" height="16" rx="8" fill="white"/>
<rect x="215.5" y="380.5" width="230" height="59" rx="7.5" stroke="#6D2FFD"/>
</g>
<path d="M344.692 505.662C340.712 526.304 338.798 542.348 347.379 561.424C352.765 573.396 363.657 583.968 373.135 592.886C383.489 602.628 392.061 611.999 398.491 624.688C399.4 626.481 403.994 640.824 402.911 640.271C399.264 638.411 393.351 633.88 391.061 630.435C388.901 627.186 396.671 635.89 399.564 638.527C402.205 640.934 403.236 644.92 404.679 640.346C406.149 635.688 407.586 631.008 409.588 626.573" stroke="#7A5AF8" stroke-width="4" stroke-linecap="round"/>
<path d="M385.312 545.344C384.76 545.656 384.16 545.8 383.512 545.776C382.864 545.752 382.252 545.608 381.676 545.344C381.076 545.08 380.584 544.744 380.2 544.336C380.032 544.144 379.972 543.784 380.02 543.256C380.044 542.752 380.104 542.344 380.2 542.032C380.32 541.6 380.476 541.384 380.668 541.384C380.932 541.384 381.232 541.612 381.568 542.068C382.24 542.668 382.9 542.836 383.548 542.572C384.22 542.308 384.928 541.6 385.672 540.448C385.816 540.088 386.044 539.572 386.356 538.9C386.668 538.228 386.992 537.508 387.328 536.74C387.688 535.972 388.012 535.264 388.3 534.616C388.588 533.944 388.78 533.464 388.876 533.176C388.876 533.176 388.876 533.14 388.876 533.068C388.9 532.972 388.96 532.876 389.056 532.78C389.08 532.684 389.14 532.492 389.236 532.204C389.332 531.916 389.428 531.58 389.524 531.196C389.62 530.932 389.752 530.536 389.92 530.008C390.112 529.48 390.304 528.928 390.496 528.352C390.712 527.776 390.892 527.296 391.036 526.912C391.156 526.408 391.3 525.868 391.468 525.292C391.66 524.692 391.816 524.236 391.936 523.924C392.032 523.732 392.176 523.348 392.368 522.772C392.56 522.172 392.776 521.524 393.016 520.828C393.304 519.892 393.556 519.076 393.772 518.38C394.012 517.684 394.18 517.132 394.276 516.724C394.396 516.292 394.432 516.04 394.384 515.968C394.384 515.968 394.168 516.004 393.736 516.076C393.328 516.148 392.872 516.232 392.368 516.328C391.96 516.496 391.54 516.604 391.108 516.652C390.7 516.7 390.532 516.568 390.604 516.256C390.604 516.16 390.604 516.076 390.604 516.004C390.604 515.908 390.604 515.86 390.604 515.86C390.532 515.908 390.436 515.86 390.316 515.716C390.196 515.572 390.088 515.392 389.992 515.176C389.896 514.936 389.848 514.756 389.848 514.636C389.848 514.444 390.124 514.228 390.676 513.988C391.252 513.724 391.912 513.544 392.656 513.448C393.136 513.376 393.712 513.316 394.384 513.268C395.08 513.196 395.584 513.136 395.896 513.088C395.992 513.016 396.208 513.04 396.544 513.16C396.88 513.28 397.228 513.424 397.588 513.592C397.948 513.76 398.188 513.916 398.308 514.06C398.452 514.252 398.536 514.456 398.56 514.672C398.608 514.888 398.584 515.188 398.488 515.572C398.392 515.956 398.212 516.508 397.948 517.228C397.708 517.924 397.36 518.884 396.904 520.108C396.376 521.596 395.908 522.952 395.5 524.176C395.092 525.376 394.72 526.372 394.384 527.164C394.312 527.428 394.18 527.812 393.988 528.316C393.82 528.82 393.652 529.336 393.484 529.864C393.316 530.368 393.184 530.788 393.088 531.124C392.896 531.58 392.716 532.072 392.548 532.6C392.38 533.128 392.248 533.548 392.152 533.86C392.152 534.052 392.104 534.268 392.008 534.508C391.912 534.748 391.804 534.928 391.684 535.048C391.684 535.048 391.6 535.264 391.432 535.696C391.264 536.104 391.06 536.596 390.82 537.172C390.628 537.652 390.412 538.18 390.172 538.756C389.956 539.356 389.752 539.812 389.56 540.124C389.44 540.412 389.296 540.676 389.128 540.916C388.96 541.18 388.876 541.36 388.876 541.456C388.876 541.456 388.864 541.492 388.84 541.564C388.84 541.636 388.792 541.672 388.696 541.672C388.696 541.672 388.66 541.696 388.588 541.744C388.516 541.816 388.48 541.912 388.48 542.032C388.432 542.176 388.276 542.404 388.012 542.716C387.748 543.028 387.448 543.364 387.112 543.724C386.776 544.108 386.44 544.444 386.104 544.732C385.768 545.02 385.504 545.224 385.312 545.344ZM404.748 537.928C404.508 537.688 404.316 537.364 404.172 536.956C404.028 536.524 403.884 536.032 403.74 535.48C403.692 535.288 403.668 535.072 403.668 534.832C403.692 534.592 403.692 534.4 403.668 534.256C403.596 534.424 403.476 534.64 403.308 534.904C403.164 535.168 403.02 535.36 402.876 535.48C402.78 535.576 402.564 535.768 402.228 536.056C401.892 536.32 401.556 536.536 401.22 536.704C400.428 537.208 399.72 537.448 399.096 537.424C398.496 537.376 397.968 537.064 397.512 536.488C397.128 536.176 396.816 535.78 396.576 535.3C396.336 534.82 396.288 534.244 396.432 533.572C396.48 532.732 396.6 531.916 396.792 531.124C396.984 530.308 397.38 529.228 397.98 527.884C398.484 526.9 398.868 526.132 399.132 525.58C399.396 525.028 399.564 524.704 399.636 524.608C399.996 524.488 400.44 524.5 400.968 524.644C401.496 524.764 401.784 524.992 401.832 525.328C401.976 525.568 401.976 526.024 401.832 526.696C401.688 527.344 401.4 528.088 400.968 528.928C400.632 529.744 400.308 530.536 399.996 531.304C399.708 532.072 399.528 532.72 399.456 533.248C399.408 533.776 399.552 534.1 399.888 534.22C400.104 534.34 400.416 534.328 400.824 534.184C401.256 534.04 401.76 533.608 402.336 532.888C402.912 532.168 403.524 531.028 404.172 529.468C404.364 528.988 404.508 528.568 404.604 528.208C404.7 527.824 404.76 527.404 404.784 526.948C404.736 526.66 404.808 526.36 405 526.048C405.216 525.736 405.468 525.496 405.756 525.328C405.852 525.208 405.984 525.1 406.152 525.004C406.32 524.884 406.428 524.884 406.476 525.004L407.052 524.968C407.148 524.944 407.256 525.04 407.376 525.256C407.496 525.472 407.616 525.628 407.736 525.724C408 525.94 408.12 526.408 408.096 527.128C408.072 527.848 407.784 528.856 407.232 530.152C406.776 531.136 406.464 531.88 406.296 532.384C406.152 532.888 406.068 533.38 406.044 533.86C406.044 534.292 406.08 534.664 406.152 534.976C406.224 535.264 406.44 535.564 406.8 535.876C407.064 536.044 407.208 536.332 407.232 536.74C407.28 537.124 407.292 537.46 407.268 537.748C407.22 537.964 407.028 538.108 406.692 538.18C406.38 538.276 406.032 538.3 405.648 538.252C405.288 538.204 404.988 538.096 404.748 537.928ZM411.485 538.216C410.669 537.88 410.069 537.532 409.685 537.172C409.325 536.788 409.181 536.452 409.253 536.164C409.301 536.02 409.385 535.888 409.505 535.768C409.625 535.648 409.889 535.6 410.297 535.624C410.729 535.624 411.389 535.732 412.277 535.948C412.541 535.948 412.805 535.936 413.069 535.912C413.333 535.888 413.573 535.852 413.789 535.804C414.029 535.756 414.221 535.696 414.365 535.624C414.485 535.576 414.521 535.516 414.473 535.444C414.425 535.348 414.341 535.252 414.221 535.156C414.125 535.036 414.017 534.964 413.897 534.94C413.777 534.892 413.669 534.868 413.573 534.868C413.525 534.748 413.417 534.628 413.249 534.508C413.105 534.388 412.925 534.256 412.709 534.112C412.181 533.68 411.701 533.296 411.269 532.96C410.837 532.624 410.669 532.372 410.765 532.204C410.765 532.108 410.765 532.06 410.765 532.06C410.765 532.036 410.765 532.024 410.765 532.024C410.597 532.024 410.441 531.796 410.297 531.34C410.153 530.86 410.081 530.428 410.081 530.044C410.081 529.564 410.177 529.084 410.369 528.604C410.585 528.124 410.849 527.668 411.161 527.236C411.497 526.804 411.833 526.42 412.169 526.084C412.625 525.652 413.105 525.232 413.609 524.824C414.137 524.392 414.701 524.008 415.301 523.672C415.925 523.336 416.609 523.072 417.353 522.88C417.689 522.808 418.073 522.772 418.505 522.772C418.937 522.772 419.249 522.832 419.441 522.952C419.633 522.832 419.873 522.868 420.161 523.06C420.449 523.228 420.737 523.468 421.025 523.78C421.313 524.092 421.529 524.404 421.673 524.716C421.673 525.004 421.661 525.364 421.637 525.796C421.637 526.204 421.613 526.564 421.565 526.876C421.517 527.188 421.409 527.344 421.241 527.344C421.241 527.344 421.205 527.356 421.133 527.38C421.085 527.38 421.061 527.44 421.061 527.56C421.061 527.8 420.881 528.076 420.521 528.388C420.065 528.7 419.633 528.952 419.225 529.144C418.817 529.336 418.505 529.348 418.289 529.18C418.145 529.084 418.013 528.988 417.893 528.892C417.773 528.796 417.665 528.676 417.569 528.532C417.569 528.532 417.533 528.484 417.461 528.388C417.413 528.268 417.389 528.16 417.389 528.064C417.389 527.968 417.425 527.884 417.497 527.812C417.569 527.716 417.605 527.668 417.605 527.668C417.941 527.356 418.193 527.068 418.361 526.804C418.553 526.54 418.685 526.312 418.757 526.12C418.829 525.904 418.865 525.736 418.865 525.616C418.865 525.472 418.829 525.388 418.757 525.364C418.709 525.316 418.589 525.292 418.397 525.292C418.277 525.292 418.013 525.388 417.605 525.58C417.221 525.772 416.813 526.012 416.381 526.3C415.949 526.564 415.613 526.804 415.373 527.02C415.277 527.188 415.205 527.296 415.157 527.344C415.133 527.392 415.073 527.416 414.977 527.416C414.977 527.32 414.917 527.332 414.797 527.452C414.677 527.572 414.533 527.74 414.365 527.956C414.197 528.172 414.029 528.4 413.861 528.64C413.693 528.88 413.561 529.072 413.465 529.216C413.441 529.432 413.381 529.636 413.285 529.828C413.213 529.996 413.189 530.176 413.213 530.368C413.237 530.608 413.357 530.836 413.573 531.052C413.789 531.268 414.101 531.544 414.509 531.88C415.349 532.504 415.973 532.996 416.381 533.356C416.813 533.716 417.113 534.004 417.281 534.22C417.449 534.436 417.557 534.652 417.605 534.868C418.013 535.612 418.061 536.26 417.749 536.812C417.437 537.34 416.957 537.748 416.309 538.036C416.069 538.156 415.649 538.264 415.049 538.36C414.449 538.48 413.813 538.528 413.141 538.504C412.493 538.504 411.941 538.408 411.485 538.216ZM426.843 538.216C426.507 538.12 426.171 537.952 425.835 537.712C425.499 537.472 425.151 537.196 424.791 536.884C424.503 536.5 424.299 536.152 424.179 535.84C424.059 535.504 423.987 535.12 423.963 534.688C423.963 534.232 423.963 533.656 423.963 532.96C423.963 532.672 424.011 532.264 424.107 531.736C424.227 531.208 424.347 530.656 424.467 530.08C424.611 529.504 424.743 529 424.863 528.568C424.983 528.112 425.055 527.812 425.079 527.668C425.151 527.356 425.031 527.176 424.719 527.128C424.407 527.08 424.059 527.068 423.675 527.092C423.315 527.092 423.075 527.056 422.955 526.984C422.859 526.96 422.811 526.84 422.811 526.624C422.811 526.384 422.811 526.264 422.811 526.264C422.811 526.168 422.763 526.108 422.667 526.084C422.571 526.036 422.487 525.952 422.415 525.832C422.367 525.736 422.427 525.556 422.595 525.292C422.763 525.028 422.979 524.872 423.243 524.824C423.459 524.776 423.783 524.74 424.215 524.716C424.647 524.668 425.079 524.584 425.511 524.464C425.967 524.32 426.315 524.104 426.555 523.816C426.771 523.288 427.011 522.724 427.275 522.124C427.539 521.5 427.791 520.96 428.031 520.504C428.271 520.024 428.439 519.724 428.535 519.604C428.943 519.388 429.363 519.304 429.795 519.352C430.227 519.376 430.563 519.58 430.803 519.964C430.923 520.132 431.019 520.252 431.091 520.324C431.187 520.396 431.223 520.504 431.199 520.648C431.199 520.792 431.103 521.056 430.911 521.44C430.743 521.8 430.455 522.364 430.047 523.132C429.927 523.372 429.819 523.588 429.723 523.78C429.627 523.948 429.579 524.032 429.579 524.032C429.675 524.056 429.819 524.068 430.011 524.068C430.203 524.068 430.443 524.056 430.731 524.032C430.995 523.984 431.283 523.948 431.595 523.924C431.907 523.876 432.183 523.876 432.423 523.924C432.975 523.924 433.383 524.08 433.647 524.392C433.911 524.704 434.055 525.1 434.079 525.58C434.127 525.844 434.031 526.072 433.791 526.264C433.551 526.456 433.107 526.552 432.459 526.552C432.243 526.552 431.931 526.564 431.523 526.588C431.115 526.612 430.695 526.636 430.263 526.66C429.831 526.684 429.459 526.72 429.146 526.768C428.859 526.792 428.715 526.828 428.715 526.876C428.643 526.924 428.523 527.116 428.355 527.452C428.211 527.764 428.055 528.148 427.887 528.604C427.743 529.06 427.611 529.492 427.491 529.9C427.323 530.716 427.203 531.508 427.131 532.276C427.059 533.044 427.047 533.716 427.095 534.292C427.167 534.844 427.311 535.24 427.527 535.48C427.743 535.696 428.067 535.696 428.499 535.48C428.955 535.24 429.375 534.964 429.759 534.652C430.191 534.292 430.563 534.184 430.875 534.328C431.187 534.448 431.379 534.712 431.451 535.12C431.547 535.504 431.439 535.924 431.127 536.38C430.839 536.836 430.431 537.22 429.903 537.532C429.375 537.844 428.835 538.06 428.283 538.18C427.731 538.324 427.251 538.336 426.843 538.216ZM413.664 576.216C412.848 575.88 412.248 575.532 411.864 575.172C411.504 574.788 411.36 574.452 411.432 574.164C411.48 574.02 411.564 573.888 411.684 573.768C411.804 573.648 412.068 573.6 412.476 573.624C412.908 573.624 413.568 573.732 414.456 573.948C414.72 573.948 414.984 573.936 415.248 573.912C415.512 573.888 415.752 573.852 415.968 573.804C416.208 573.756 416.4 573.696 416.544 573.624C416.664 573.576 416.7 573.516 416.652 573.444C416.604 573.348 416.52 573.252 416.4 573.156C416.304 573.036 416.196 572.964 416.076 572.94C415.956 572.892 415.848 572.868 415.752 572.868C415.704 572.748 415.596 572.628 415.428 572.508C415.284 572.388 415.104 572.256 414.888 572.112C414.36 571.68 413.88 571.296 413.448 570.96C413.016 570.624 412.848 570.372 412.944 570.204C412.944 570.108 412.944 570.06 412.944 570.06C412.944 570.036 412.944 570.024 412.944 570.024C412.776 570.024 412.62 569.796 412.476 569.34C412.332 568.86 412.26 568.428 412.26 568.044C412.26 567.564 412.356 567.084 412.548 566.604C412.764 566.124 413.028 565.668 413.34 565.236C413.676 564.804 414.012 564.42 414.348 564.084C414.804 563.652 415.284 563.232 415.788 562.824C416.316 562.392 416.88 562.008 417.48 561.672C418.104 561.336 418.788 561.072 419.532 560.88C419.868 560.808 420.252 560.772 420.684 560.772C421.116 560.772 421.428 560.832 421.62 560.952C421.812 560.832 422.052 560.868 422.34 561.06C422.628 561.228 422.916 561.468 423.204 561.78C423.492 562.092 423.708 562.404 423.852 562.716C423.852 563.004 423.84 563.364 423.816 563.796C423.816 564.204 423.792 564.564 423.744 564.876C423.696 565.188 423.588 565.344 423.42 565.344C423.42 565.344 423.384 565.356 423.312 565.38C423.264 565.38 423.24 565.44 423.24 565.56C423.24 565.8 423.06 566.076 422.7 566.388C422.244 566.7 421.812 566.952 421.404 567.144C420.996 567.336 420.684 567.348 420.468 567.18C420.324 567.084 420.192 566.988 420.072 566.892C419.952 566.796 419.844 566.676 419.748 566.532C419.748 566.532 419.712 566.484 419.64 566.388C419.592 566.268 419.568 566.16 419.568 566.064C419.568 565.968 419.604 565.884 419.676 565.812C419.748 565.716 419.784 565.668 419.784 565.668C420.12 565.356 420.372 565.068 420.54 564.804C420.732 564.54 420.864 564.312 420.936 564.12C421.008 563.904 421.044 563.736 421.044 563.616C421.044 563.472 421.008 563.388 420.936 563.364C420.888 563.316 420.768 563.292 420.576 563.292C420.456 563.292 420.192 563.388 419.784 563.58C419.4 563.772 418.992 564.012 418.56 564.3C418.128 564.564 417.792 564.804 417.552 565.02C417.456 565.188 417.384 565.296 417.336 565.344C417.312 565.392 417.252 565.416 417.156 565.416C417.156 565.32 417.096 565.332 416.976 565.452C416.856 565.572 416.712 565.74 416.544 565.956C416.376 566.172 416.208 566.4 416.04 566.64C415.872 566.88 415.74 567.072 415.644 567.216C415.62 567.432 415.56 567.636 415.464 567.828C415.392 567.996 415.368 568.176 415.392 568.368C415.416 568.608 415.536 568.836 415.752 569.052C415.968 569.268 416.28 569.544 416.688 569.88C417.528 570.504 418.152 570.996 418.56 571.356C418.992 571.716 419.292 572.004 419.46 572.22C419.628 572.436 419.736 572.652 419.784 572.868C420.192 573.612 420.24 574.26 419.928 574.812C419.616 575.34 419.136 575.748 418.488 576.036C418.248 576.156 417.828 576.264 417.228 576.36C416.628 576.48 415.992 576.528 415.32 576.504C414.672 576.504 414.12 576.408 413.664 576.216ZM435.898 575.424C435.298 575.712 434.71 575.82 434.134 575.748C433.582 575.652 433.114 575.352 432.73 574.848C432.37 574.32 432.19 573.552 432.19 572.544C432.19 572.28 432.202 571.968 432.226 571.608C432.274 571.224 432.346 570.828 432.442 570.42C432.538 569.988 432.658 569.556 432.802 569.124C432.874 568.908 432.97 568.692 433.09 568.476C433.234 568.26 433.258 568.152 433.162 568.152C433.066 568.152 432.946 568.212 432.802 568.332C432.682 568.452 432.586 568.548 432.514 568.62C431.914 569.148 431.362 569.7 430.858 570.276C430.378 570.828 429.946 571.38 429.562 571.932C429.202 572.46 428.914 572.952 428.698 573.408C428.506 573.864 428.41 574.248 428.41 574.56C428.41 574.92 428.23 575.172 427.87 575.316C427.51 575.46 427.198 575.448 426.934 575.28C426.478 575.016 426.058 574.608 425.674 574.056C425.314 573.504 425.17 572.784 425.242 571.896C425.314 570.768 425.41 569.76 425.53 568.872C425.65 567.984 425.842 567.024 426.106 565.992C426.394 564.936 426.766 563.652 427.222 562.14C427.534 561.3 427.822 560.508 428.086 559.764C428.35 558.996 428.578 558.348 428.77 557.82C428.986 557.292 429.118 556.968 429.166 556.848C429.286 556.728 429.442 556.44 429.634 555.984C429.826 555.504 429.994 555.024 430.138 554.544C430.306 554.064 430.39 553.776 430.39 553.68C430.39 553.488 430.426 553.32 430.498 553.176C430.594 553.032 430.678 552.9 430.75 552.78C430.894 552.444 431.014 552.216 431.11 552.096C431.23 551.952 431.338 551.88 431.434 551.88C431.554 551.88 431.746 551.94 432.01 552.06C432.298 552.18 432.562 552.336 432.802 552.528C433.066 552.696 433.222 552.876 433.27 553.068C433.438 553.404 433.534 553.752 433.558 554.112C433.582 554.448 433.498 554.868 433.306 555.372C433.114 555.876 432.778 556.572 432.298 557.46C431.914 558.204 431.566 558.972 431.254 559.764C430.942 560.556 430.642 561.384 430.354 562.248C430.234 562.608 430.078 563.088 429.886 563.688C429.694 564.264 429.502 564.864 429.31 565.488C429.142 566.088 428.998 566.628 428.878 567.108C428.758 567.588 428.698 567.9 428.698 568.044C428.698 568.212 428.794 568.296 428.986 568.296C429.178 568.272 429.37 568.128 429.562 567.864C429.658 567.672 429.814 567.492 430.03 567.324C430.246 567.132 430.438 566.94 430.606 566.748C430.798 566.508 431.026 566.232 431.29 565.92C431.578 565.584 431.878 565.272 432.19 564.984C432.526 564.672 432.826 564.42 433.09 564.228C433.378 564.036 433.618 563.94 433.81 563.94C434.266 563.94 434.65 564.072 434.962 564.336C435.274 564.6 435.538 565.008 435.754 565.56C435.826 565.632 435.898 565.728 435.97 565.848C436.042 565.944 436.09 566.016 436.114 566.064C436.234 566.16 436.294 566.544 436.294 567.216C436.294 567.864 436.102 568.764 435.718 569.916C435.502 570.804 435.37 571.464 435.322 571.896C435.298 572.328 435.382 572.544 435.574 572.544C435.574 572.544 435.694 572.472 435.934 572.328C436.198 572.184 436.474 572.028 436.762 571.86C437.458 571.404 437.962 571.26 438.274 571.428C438.586 571.596 438.742 571.812 438.742 572.076C438.742 572.292 438.658 572.544 438.49 572.832C438.346 573.12 438.274 573.312 438.274 573.408C438.274 573.408 438.274 573.42 438.274 573.444C438.274 573.444 438.274 573.492 438.274 573.588C438.274 573.636 438.118 573.804 437.806 574.092C437.494 574.38 437.146 574.668 436.762 574.956C436.402 575.22 436.114 575.376 435.898 575.424ZM441.87 575.244C441.774 575.052 441.558 574.86 441.222 574.668C440.91 574.476 440.754 574.332 440.754 574.236C440.754 574.14 440.694 573.996 440.574 573.804C440.478 573.588 440.382 573.432 440.286 573.336C440.166 573.192 440.202 572.844 440.394 572.292C440.586 571.716 440.874 571.02 441.258 570.204C441.642 569.388 442.062 568.56 442.518 567.72C442.71 567.528 442.902 567.276 443.094 566.964C443.286 566.652 443.43 566.448 443.526 566.352C443.526 566.256 443.562 566.172 443.634 566.1C443.706 566.004 443.79 565.956 443.886 565.956L444.174 565.38C444.222 565.284 444.366 565.092 444.606 564.804C444.87 564.516 445.182 564.204 445.542 563.868C445.902 563.508 446.262 563.172 446.622 562.86C447.006 562.548 447.318 562.32 447.558 562.176C448.062 561.84 448.578 561.684 449.106 561.708C449.658 561.732 450.126 561.9 450.51 562.212C450.582 562.284 450.738 562.428 450.978 562.644C451.242 562.86 451.53 563.1 451.842 563.364C452.178 563.628 452.466 563.868 452.706 564.084L454.038 565.272L453.426 567.072C453.114 568.032 453.03 568.872 453.174 569.592C453.318 570.312 453.546 570.936 453.858 571.464C453.978 571.728 454.134 571.932 454.326 572.076C454.542 572.22 454.818 572.316 455.154 572.364C455.346 572.388 455.526 572.46 455.694 572.58C455.862 572.7 455.946 572.892 455.946 573.156C455.946 573.732 455.838 574.152 455.622 574.416C455.43 574.656 455.214 574.8 454.974 574.848C454.182 574.944 453.426 574.86 452.706 574.596C451.986 574.332 451.338 573.648 450.762 572.544C450.666 572.4 450.534 572.136 450.366 571.752C450.222 571.344 450.138 571.08 450.114 570.96C450.018 571.08 449.886 571.236 449.718 571.428C449.574 571.596 449.43 571.752 449.286 571.896C447.582 573.624 446.118 574.752 444.894 575.28C443.694 575.784 442.686 575.772 441.87 575.244ZM443.85 572.256C444.018 572.28 444.282 572.196 444.642 572.004C445.002 571.788 445.482 571.44 446.082 570.96C446.898 570.264 447.57 569.688 448.098 569.232C448.626 568.776 449.142 568.188 449.646 567.468L450.438 566.172C450.198 565.62 449.982 565.26 449.79 565.092C449.598 564.924 449.406 564.84 449.214 564.84C448.902 564.84 448.53 565.044 448.098 565.452C447.666 565.836 447.174 566.412 446.622 567.18C446.094 567.924 445.494 568.86 444.822 569.988C444.51 570.516 444.27 571.032 444.102 571.536C443.934 572.016 443.85 572.256 443.85 572.256ZM458.153 575.46C457.985 575.46 457.757 575.34 457.469 575.1C457.205 574.86 457.049 574.644 457.001 574.452C456.929 574.26 456.929 573.984 457.001 573.624C457.097 573.24 457.229 572.796 457.397 572.292C457.589 571.5 457.721 570.924 457.793 570.564C457.865 570.204 457.937 569.892 458.009 569.628C458.081 569.364 458.177 568.98 458.297 568.476C458.441 568.164 458.549 567.864 458.621 567.576C458.717 567.264 458.813 566.952 458.909 566.64C459.029 566.328 459.161 566.016 459.305 565.704C459.473 565.08 459.677 564.492 459.917 563.94C460.181 563.364 460.433 562.884 460.673 562.5C460.721 562.428 460.829 562.296 460.997 562.104C461.165 561.912 461.297 561.816 461.393 561.816C461.585 561.624 461.849 561.564 462.185 561.636C462.521 561.684 462.809 561.804 463.049 561.996C463.337 562.308 463.493 562.68 463.517 563.112C463.565 563.52 463.397 564.096 463.013 564.84C462.725 565.584 462.449 566.172 462.185 566.604C461.945 567.012 461.705 567.492 461.465 568.044C461.729 567.66 462.053 567.264 462.437 566.856C462.821 566.448 463.121 566.124 463.337 565.884C463.649 565.548 463.937 565.284 464.201 565.092C464.489 564.876 464.873 564.612 465.353 564.3C465.761 564.012 466.169 563.748 466.577 563.508C467.009 563.268 467.525 563.196 468.125 563.292C468.365 563.268 468.617 563.388 468.881 563.652C469.169 563.916 469.385 564.264 469.529 564.696C469.697 565.104 469.697 565.548 469.529 566.028C468.977 565.908 468.485 565.932 468.053 566.1C467.621 566.244 467.249 566.424 466.937 566.64C466.649 566.856 466.421 567.024 466.253 567.144C466.013 567.288 465.737 567.48 465.425 567.72C465.113 567.936 464.777 568.188 464.417 568.476C464.057 568.74 463.673 569.04 463.265 569.376C462.689 569.856 462.257 570.276 461.969 570.636C461.681 570.996 461.453 571.38 461.285 571.788C461.141 572.148 460.961 572.58 460.745 573.084C460.529 573.588 460.325 574.044 460.133 574.452C459.941 574.836 459.785 575.076 459.665 575.172C459.545 575.412 459.293 575.544 458.909 575.568C458.549 575.592 458.297 575.556 458.153 575.46ZM473.681 576.648C472.361 576.648 471.341 576.264 470.621 575.496C469.925 574.728 469.577 573.552 469.577 571.968C469.577 571.104 469.733 570.156 470.045 569.124C470.381 568.092 470.813 567.084 471.341 566.1C471.893 565.116 472.493 564.264 473.141 563.544C473.789 562.8 474.437 562.284 475.085 561.996C475.325 561.876 475.577 561.792 475.841 561.744C476.129 561.672 476.405 561.636 476.669 561.636C476.957 561.636 477.269 561.66 477.605 561.708C477.965 561.732 478.301 561.804 478.613 561.924C479.165 562.092 479.645 562.416 480.053 562.896C480.485 563.376 480.701 564.072 480.701 564.984C480.701 565.224 480.677 565.488 480.629 565.776C480.581 566.04 480.497 566.304 480.377 566.568C480.065 567.36 479.585 568.116 478.937 568.836C478.313 569.556 477.653 570.06 476.957 570.348C476.765 570.444 476.573 570.516 476.381 570.564C476.213 570.588 476.033 570.6 475.841 570.6C475.337 570.6 474.881 570.528 474.473 570.384C474.089 570.24 473.729 570.048 473.393 569.808L473.105 569.556L472.925 569.916C472.757 570.372 472.637 570.756 472.565 571.068C472.517 571.38 472.493 571.608 472.493 571.752C472.493 572.04 472.505 572.34 472.529 572.652C472.553 572.94 472.625 573.18 472.745 573.372C472.841 573.492 472.961 573.588 473.105 573.66C473.273 573.732 473.477 573.768 473.717 573.768C473.861 573.768 473.993 573.768 474.113 573.768C474.257 573.744 474.377 573.72 474.473 573.696C474.905 573.6 475.253 573.444 475.517 573.228C475.805 572.988 476.105 572.784 476.417 572.616L476.561 572.544L476.525 572.436C476.933 572.22 477.209 572.088 477.353 572.04C477.497 571.968 477.605 571.908 477.677 571.86C477.773 571.764 477.881 571.716 478.001 571.716C478.337 571.668 478.661 571.764 478.973 572.004C479.309 572.22 479.477 572.496 479.477 572.832C479.477 572.976 479.369 573.204 479.153 573.516C478.961 573.828 478.709 574.14 478.397 574.452C478.109 574.74 477.809 574.968 477.497 575.136C477.425 575.16 477.353 575.196 477.281 575.244C477.209 575.268 477.137 575.304 477.065 575.352H477.101C476.885 575.64 476.669 575.784 476.453 575.784H476.165C476.069 575.952 475.757 576.132 475.229 576.324C474.701 576.54 474.185 576.648 473.681 576.648ZM475.553 567.972C475.769 567.972 475.961 567.936 476.129 567.864C476.321 567.792 476.501 567.708 476.669 567.612C477.245 567.204 477.617 566.676 477.785 566.028C477.953 565.38 477.893 564.888 477.605 564.552C477.557 564.48 477.497 564.432 477.425 564.408C477.353 564.36 477.269 564.336 477.173 564.336C476.909 564.336 476.609 564.42 476.273 564.588C475.961 564.756 475.649 564.996 475.337 565.308C475.025 565.62 474.737 565.992 474.473 566.424L474.005 567.18C474.053 567.156 474.089 567.144 474.113 567.144C474.161 567.12 474.197 567.108 474.221 567.108C474.437 567.108 474.581 567.18 474.653 567.324C474.725 567.468 474.809 567.612 474.905 567.756C475.025 567.9 475.241 567.972 475.553 567.972ZM438.021 613.388C437.829 613.196 437.685 612.908 437.589 612.524C437.517 612.14 437.493 611.768 437.517 611.408C437.541 611.024 437.601 610.736 437.697 610.544C437.697 610.352 437.721 610.208 437.769 610.112C437.841 609.992 437.865 609.884 437.841 609.788C437.817 609.692 437.841 609.524 437.913 609.284C437.985 609.044 438.057 608.816 438.129 608.6C438.297 608.216 438.489 607.724 438.705 607.124C438.921 606.5 439.137 605.876 439.353 605.252C439.569 604.604 439.749 604.052 439.893 603.596C440.037 603.116 440.121 602.828 440.145 602.732C440.145 602.444 440.337 602.288 440.721 602.264C441.009 602.168 441.357 602.288 441.765 602.624C442.173 602.96 442.497 603.32 442.737 603.704C442.929 603.896 443.001 604.148 442.953 604.46C442.905 604.772 442.749 605.216 442.485 605.792C442.389 605.984 442.269 606.308 442.125 606.764C442.005 607.196 441.921 607.556 441.873 607.844C441.777 608.036 441.657 608.312 441.513 608.672C441.393 609.008 441.285 609.332 441.189 609.644C441.141 609.764 441.093 609.992 441.045 610.328C440.997 610.64 440.937 610.964 440.865 611.3C440.793 611.636 440.697 611.9 440.577 612.092C440.361 613.076 439.977 613.652 439.425 613.82C438.897 613.988 438.429 613.844 438.021 613.388ZM441.909 598.952C441.645 598.76 441.441 598.532 441.297 598.268C441.177 597.98 441.105 597.728 441.081 597.512C441.081 597.296 441.105 597.164 441.153 597.116C441.393 596.852 441.597 596.504 441.765 596.072C441.957 595.64 442.161 595.244 442.377 594.884C442.425 594.812 442.485 594.716 442.557 594.596C442.653 594.452 442.749 594.368 442.845 594.344C443.133 594.152 443.529 594.164 444.033 594.38C444.561 594.596 444.945 594.896 445.185 595.28C445.401 595.736 445.461 596.204 445.365 596.684C445.293 597.164 445.041 597.668 444.609 598.196C444.249 598.676 443.793 598.988 443.241 599.132C442.689 599.252 442.245 599.192 441.909 598.952ZM447.535 614.036C447.271 613.988 446.983 613.832 446.671 613.568C446.359 613.28 446.071 612.968 445.807 612.632C445.567 612.272 445.411 611.972 445.339 611.732C445.339 611.684 445.303 611.624 445.231 611.552C445.183 611.48 445.159 611.444 445.159 611.444C445.063 611.372 445.003 611.06 444.979 610.508C444.979 609.932 445.015 609.296 445.087 608.6C445.159 607.904 445.243 607.352 445.339 606.944C445.459 606.56 445.639 606.044 445.879 605.396C446.119 604.724 446.323 604.124 446.491 603.596L447.463 601.508L446.023 601.112C445.855 601.064 445.711 600.968 445.591 600.824C445.495 600.68 445.447 600.56 445.447 600.464C445.447 600.272 445.555 599.996 445.771 599.636C445.987 599.276 446.143 599.096 446.239 599.096C446.359 599.12 446.575 599.132 446.887 599.132C447.223 599.132 447.547 599.12 447.859 599.096C448.171 599.072 448.363 599.048 448.435 599.024C448.531 598.976 448.627 598.916 448.723 598.844C448.819 598.748 448.891 598.616 448.939 598.448C449.059 598.184 449.167 597.98 449.263 597.836C449.359 597.692 449.491 597.476 449.659 597.188C449.827 596.876 449.959 596.612 450.055 596.396C450.175 596.18 450.355 595.88 450.595 595.496C450.715 595.328 450.847 595.124 450.991 594.884C451.135 594.644 451.315 594.44 451.531 594.272C451.747 594.08 452.095 593.948 452.575 593.876C453.079 593.78 453.511 593.888 453.871 594.2C454.063 594.44 454.171 594.668 454.195 594.884C454.219 595.1 454.123 595.376 453.907 595.712C453.715 596.12 453.487 596.492 453.223 596.828C452.983 597.14 452.755 597.5 452.539 597.908C452.155 598.436 452.083 598.736 452.323 598.808C452.563 598.88 453.235 598.832 454.339 598.664C455.035 598.544 455.539 598.616 455.851 598.88C456.163 599.144 456.343 599.48 456.391 599.888C456.463 600.464 456.403 600.812 456.211 600.932C456.019 601.052 455.467 601.112 454.555 601.112C453.979 601.208 453.487 601.268 453.079 601.292C452.671 601.292 452.371 601.292 452.179 601.292C451.867 601.316 451.663 601.328 451.567 601.328C451.471 601.328 451.327 601.352 451.135 601.4C450.943 601.448 450.799 601.532 450.703 601.652C450.631 601.748 450.547 601.892 450.451 602.084C450.355 602.18 450.211 602.432 450.019 602.84C449.827 603.248 449.587 603.692 449.299 604.172C448.963 605.18 448.675 606.152 448.435 607.088C448.219 608 448.027 608.912 447.859 609.824C447.787 610.28 447.799 610.616 447.895 610.832C448.015 611.024 448.327 611.144 448.831 611.192C449.095 611.216 449.479 611.216 449.983 611.192C450.487 611.144 450.907 611.072 451.243 610.976C451.507 610.856 451.783 610.736 452.071 610.616C452.359 610.472 452.623 610.328 452.863 610.184C453.079 610.064 453.295 609.944 453.511 609.824C453.727 609.68 453.835 609.608 453.835 609.608C453.955 609.416 454.123 609.452 454.339 609.716C454.579 609.956 454.747 610.22 454.843 610.508C454.843 610.796 454.783 611.144 454.663 611.552C454.543 611.936 454.099 612.344 453.331 612.776C452.251 613.448 451.171 613.856 450.091 614C449.011 614.144 448.159 614.156 447.535 614.036Z" fill="#7A5AF8"/>
<defs>
<filter id="filter0_d_2455_86619" x="0.379929" y="0.379929" width="659.24" height="533.24" filterUnits="userSpaceOnUse" color-interpolation-filters="sRGB">
<feFlood flood-opacity="0" result="BackgroundImageFix"/>
<feColorMatrix in="SourceAlpha" type="matrix" values="0 0 0 0 0 0 0 0 0 0 0 0 0 0 0 0 0 0 127 0" result="hardAlpha"/>
<feOffset/>
<feGaussianBlur stdDeviation="24.81"/>
<feColorMatrix type="matrix" values="0 0 0 0 0 0 0 0 0 0 0 0 0 0 0 0 0 0 0.05 0"/>
<feBlend mode="normal" in2="BackgroundImageFix" result="effect1_dropShadow_2455_86619"/>
<feBlend mode="normal" in="SourceGraphic" in2="effect1_dropShadow_2455_86619" result="shape"/>
</filter>
<filter id="filter1_d_2455_86619" x="87" y="85" width="137" height="137" filterUnits="userSpaceOnUse" color-interpolation-filters="sRGB">
<feFlood flood-opacity="0" result="BackgroundImageFix"/>
<feColorMatrix in="SourceAlpha" type="matrix" values="0 0 0 0 0 0 0 0 0 0 0 0 0 0 0 0 0 0 127 0" result="hardAlpha"/>
<feOffset/>
<feGaussianBlur stdDeviation="5"/>
<feColorMatrix type="matrix" values="0 0 0 0 0 0 0 0 0 0 0 0 0 0 0 0 0 0 0.25 0"/>
<feBlend mode="normal" in2="BackgroundImageFix" result="effect1_dropShadow_2455_86619"/>
<feBlend mode="normal" in="SourceGraphic" in2="effect1_dropShadow_2455_86619" result="shape"/>
</filter>
<filter id="filter2_d_2455_86619" x="92.7778" y="271.889" width="475.444" height="71.1105" filterUnits="userSpaceOnUse" color-interpolation-filters="sRGB">
<feFlood flood-opacity="0" result="BackgroundImageFix"/>
<feColorMatrix in="SourceAlpha" type="matrix" values="0 0 0 0 0 0 0 0 0 0 0 0 0 0 0 0 0 0 127 0" result="hardAlpha"/>
<feOffset dy="1.11111"/>
<feGaussianBlur stdDeviation="1.11111"/>
<feColorMatrix type="matrix" values="0 0 0 0 0.0627451 0 0 0 0 0.0941176 0 0 0 0 0.156863 0 0 0 0.05 0"/>
<feBlend mode="normal" in2="BackgroundImageFix" result="effect1_dropShadow_2455_86619"/>
<feBlend mode="normal" in="SourceGraphic" in2="effect1_dropShadow_2455_86619" result="shape"/>
</filter>
<filter id="filter3_d_2455_86619" x="213" y="379" width="235" height="64" filterUnits="userSpaceOnUse" color-interpolation-filters="sRGB">
<feFlood flood-opacity="0" result="BackgroundImageFix"/>
<feColorMatrix in="SourceAlpha" type="matrix" values="0 0 0 0 0 0 0 0 0 0 0 0 0 0 0 0 0 0 127 0" result="hardAlpha"/>
<feOffset dy="1"/>
<feGaussianBlur stdDeviation="1"/>
<feColorMatrix type="matrix" values="0 0 0 0 0.0627451 0 0 0 0 0.0941176 0 0 0 0 0.156863 0 0 0 0.05 0"/>
<feBlend mode="normal" in2="BackgroundImageFix" result="effect1_dropShadow_2455_86619"/>
<feBlend mode="normal" in="SourceGraphic" in2="effect1_dropShadow_2455_86619" result="shape"/>
</filter>
<linearGradient id="paint0_linear_2455_86619" x1="159.71" y1="124.25" x2="159.71" y2="173.385" gradientUnits="userSpaceOnUse">
<stop stop-color="#FFD4B3"/>
<stop offset="1" stop-color="#FFDCC2"/>
</linearGradient>
<linearGradient id="paint1_linear_2455_86619" x1="155.499" y1="169.703" x2="155.499" y2="214.85" gradientUnits="userSpaceOnUse">
<stop stop-color="#806A6A"/>
<stop offset="1" stop-color="#665654"/>
</linearGradient>
<linearGradient id="paint2_linear_2455_86619" x1="158.561" y1="165.591" x2="158.561" y2="107.479" gradientUnits="userSpaceOnUse">
<stop stop-color="#E6864E"/>
<stop offset="1" stop-color="#E67240"/>
</linearGradient>
<clipPath id="clip0_2455_86619">
<rect x="95" y="94" width="120" height="114.286" rx="57.1431" fill="white"/>
</clipPath>
<clipPath id="clip1_2455_86619">
<rect x="97" y="95" width="117" height="117" rx="58.5" fill="white"/>
</clipPath>
</defs>
</svg>
