<svg width="539" height="479" viewBox="0 0 539 479" fill="none" xmlns="http://www.w3.org/2000/svg">
<g clip-path="url(#clip0_1588_54193)">
<path opacity="0.3" d="M3.19532 444.62C9.3406 458.633 22.9922 467.209 36.9704 474.181C38.9222 475.154 40.8708 476.1 42.8163 477.018C42.8292 477.021 42.8432 477.031 42.8562 477.035C42.9498 477.079 43.0435 477.123 43.1312 477.168C43.5327 477.357 43.9343 477.546 44.3324 477.732L44.1429 477.849L43.5516 478.21C43.7564 478.093 43.9589 477.98 44.1637 477.864C44.2246 477.828 44.2889 477.795 44.3496 477.76C51.4044 473.779 58.5624 469.561 63.5286 463.193C68.6795 456.581 70.9283 446.979 66.7037 439.743C66.1489 438.796 65.4898 437.913 64.7386 437.111C64.4291 436.774 64.1017 436.455 63.7636 436.145C61.7082 434.225 59.177 432.885 56.4302 432.264C53.6835 431.643 50.8204 431.762 48.1353 432.61C45.4502 433.458 43.04 435.003 41.1526 437.088C39.2651 439.172 37.9685 441.721 37.3962 444.47C35.2925 435.845 41.5557 427.561 47.8015 421.234C54.0507 414.91 61.1855 407.979 61.3776 399.1C61.373 396.686 60.8559 394.299 59.8602 392.098C58.8646 389.898 57.413 387.932 55.6008 386.33C55.4904 386.228 55.3802 386.127 55.2673 386.028C50.9413 382.135 45.3017 380.013 39.475 380.086C28.6459 380.388 19.0179 387.395 12.2403 395.825C1.33114 409.388 -3.79106 428.686 3.19532 444.62Z" fill="#98A2B3"/>
<path d="M20.7451 422.914C19.1171 426.365 18.0024 430.034 17.4364 433.806C16.9809 437.17 17.0324 440.584 17.5893 443.933C18.7937 450.817 21.6386 457.312 25.8846 462.872C29.0873 467.092 32.8121 470.892 36.9704 474.18C38.9222 475.154 40.8708 476.1 42.8164 477.017C42.8292 477.021 42.8432 477.031 42.8562 477.035C42.9498 477.079 43.0435 477.122 43.1312 477.167C43.5327 477.356 43.9343 477.546 44.3324 477.732L44.1429 477.849L43.5516 478.21C43.7564 478.093 43.9589 477.98 44.1637 477.863C44.2246 477.828 44.2889 477.795 44.3496 477.759C42.957 472.387 42.8761 466.76 44.1136 461.35C45.3512 455.94 47.8711 450.905 51.4623 446.666C55.0708 442.482 59.6199 439.208 64.7386 437.111C64.4291 436.774 64.1017 436.455 63.7636 436.145C61.791 436.988 59.897 438.003 58.1038 439.179C51.691 443.362 46.7991 449.492 44.1523 456.662C41.7866 463.168 41.3316 470.212 42.8408 476.967C42.4979 476.731 42.1538 476.489 41.8193 476.248C35.3484 471.831 29.7475 466.264 25.2959 459.827C21.5589 454.31 19.2396 447.962 18.5423 441.342C17.8655 434.112 19.8557 427.07 23.2477 420.72C26.9877 413.93 31.6413 407.682 37.0792 402.149C42.5444 396.46 48.6872 391.46 55.3707 387.259C55.5213 387.163 55.6291 387.013 55.672 386.84C55.7148 386.667 55.6893 386.485 55.6008 386.33C55.5339 386.189 55.414 386.081 55.2673 386.028C55.1927 386.007 55.1142 386.003 55.0378 386.016C54.9613 386.03 54.8889 386.06 54.8259 386.105C54.0008 386.625 53.1826 387.149 52.3736 387.689C45.6361 392.193 39.4858 397.515 34.064 403.531C28.6757 409.29 24.186 415.824 20.7451 422.914Z" fill="white"/>
<path d="M239.482 325.442C234.984 325.442 230.587 324.112 226.846 321.62C223.106 319.128 220.191 315.586 218.469 311.442C216.748 307.298 216.298 302.738 217.175 298.339C218.053 293.94 220.219 289.899 223.4 286.728C226.581 283.556 230.633 281.396 235.045 280.521C239.457 279.646 244.03 280.095 248.186 281.811C252.342 283.528 255.894 286.435 258.393 290.164C260.892 293.894 262.226 298.278 262.226 302.764C262.22 308.776 259.821 314.541 255.557 318.792C251.293 323.044 245.512 325.435 239.482 325.442ZM239.482 281.843C235.333 281.843 231.276 283.07 227.826 285.369C224.375 287.668 221.686 290.935 220.098 294.758C218.51 298.58 218.095 302.787 218.904 306.845C219.714 310.903 221.712 314.631 224.646 317.557C227.581 320.483 231.319 322.475 235.389 323.282C239.459 324.089 243.678 323.675 247.511 322.092C251.345 320.508 254.622 317.827 256.928 314.387C259.233 310.946 260.464 306.901 260.464 302.764C260.457 297.217 258.245 291.899 254.311 287.977C250.378 284.055 245.045 281.849 239.482 281.843Z" fill="#6D2FFD"/>
<path d="M237.316 311.079C236.824 311.08 236.345 310.921 235.952 310.627L235.927 310.609L230.789 306.69C230.551 306.508 230.352 306.281 230.202 306.022C230.052 305.763 229.954 305.478 229.915 305.181C229.876 304.885 229.895 304.584 229.973 304.295C230.05 304.006 230.184 303.735 230.366 303.498C230.549 303.261 230.776 303.062 231.036 302.912C231.296 302.762 231.582 302.665 231.88 302.626C232.177 302.587 232.479 302.607 232.769 302.684C233.058 302.761 233.33 302.894 233.568 303.076L236.896 305.621L244.76 295.391C244.942 295.154 245.17 294.955 245.429 294.805C245.689 294.656 245.975 294.558 246.272 294.519C246.57 294.48 246.872 294.5 247.161 294.577C247.451 294.654 247.722 294.788 247.96 294.969L247.961 294.97L247.912 295.038L247.962 294.97C248.442 295.338 248.756 295.88 248.835 296.479C248.914 297.077 248.752 297.682 248.384 298.161L239.134 310.189C238.92 310.466 238.645 310.69 238.33 310.844C238.015 310.998 237.669 311.078 237.318 311.077L237.316 311.079Z" fill="#6D2FFD"/>
<path d="M158.983 189.099C170.94 189.099 180.633 179.434 180.633 167.512C180.633 155.59 170.94 145.926 158.983 145.926C147.027 145.926 137.334 155.59 137.334 167.512C137.334 179.434 147.027 189.099 158.983 189.099Z" fill="#A0616A"/>
<path d="M151.167 295.245C150.894 295.245 150.621 295.233 150.345 295.209C148.984 295.095 147.662 294.696 146.465 294.038C145.269 293.38 144.226 292.477 143.404 291.388C142.582 290.3 142.001 289.051 141.697 287.722C141.393 286.394 141.374 285.017 141.641 283.681C141.704 283.37 141.784 283.064 141.879 282.761L109.927 245.08C108.886 243.843 108.272 242.304 108.178 240.691C108.084 239.079 108.513 237.479 109.403 236.129L109.461 236.059L138.222 207.781C139.004 207.013 139.931 206.406 140.949 205.996C141.968 205.587 143.057 205.383 144.155 205.395C145.253 205.408 146.338 205.638 147.347 206.071C148.355 206.504 149.268 207.132 150.032 207.919C150.796 208.705 151.396 209.635 151.797 210.654C152.198 211.673 152.393 212.762 152.371 213.857C152.348 214.951 152.108 216.031 151.664 217.032C151.221 218.034 150.583 218.938 149.787 219.693L128.956 239.439L151.761 275.934C152.192 275.956 152.622 276.009 153.047 276.092C155.406 276.561 157.505 277.888 158.938 279.814C160.371 281.741 161.035 284.129 160.8 286.516C160.566 288.903 159.451 291.118 157.67 292.731C155.89 294.344 153.572 295.24 151.167 295.245L151.167 295.245Z" fill="#A0616A"/>
<path d="M194.64 467.945L205.446 467.944L210.587 426.383L194.638 426.384L194.64 467.945Z" fill="#A0616A"/>
<path d="M191.883 464.427L213.165 464.426H213.166C214.947 464.426 216.71 464.776 218.356 465.455C220.001 466.135 221.496 467.131 222.756 468.387C224.015 469.642 225.014 471.133 225.696 472.774C226.377 474.415 226.728 476.173 226.728 477.949V478.388L191.884 478.39L191.883 464.427Z" fill="#2E3A59"/>
<path d="M87.2304 453.047L96.5155 458.559L122.258 425.472L108.554 417.336L87.2304 453.047Z" fill="#A0616A"/>
<path d="M86.6673 448.618L104.953 459.474L104.954 459.474C106.484 460.383 107.82 461.583 108.885 463.006C109.95 464.43 110.724 466.048 111.161 467.77C111.599 469.491 111.693 471.282 111.436 473.039C111.18 474.796 110.579 476.486 109.668 478.012L109.443 478.39L79.5036 460.616L86.6673 448.618Z" fill="#2E3A59"/>
<path d="M207.996 453.265H195.895C194.915 453.267 193.97 452.906 193.241 452.253C192.513 451.6 192.053 450.7 191.951 449.728L179.752 335.386C179.721 335.099 179.596 334.829 179.396 334.619C179.197 334.409 178.933 334.27 178.647 334.224C178.36 334.178 178.066 334.228 177.81 334.365C177.555 334.502 177.351 334.719 177.232 334.983L155.224 383.574L116.261 446.925C115.756 447.737 114.976 448.341 114.061 448.626C113.147 448.911 112.16 448.858 111.282 448.477L95.7163 441.648C95.2017 441.422 94.741 441.09 94.365 440.673C93.9889 440.256 93.7061 439.764 93.5352 439.23C93.3642 438.696 93.3092 438.131 93.3735 437.574C93.4379 437.017 93.6203 436.48 93.9087 435.999L129.727 376.198L140.712 325.812C137.257 303.962 152.068 271.476 152.219 271.15L152.292 270.991L196.827 253.227L197.032 253.477C223.495 285.687 219.189 364.647 211.95 449.642C211.861 450.628 211.406 451.545 210.675 452.215C209.944 452.885 208.989 453.26 207.996 453.265Z" fill="#2E3A59"/>
<path d="M150.648 276.315L150.458 275.917C150.367 275.726 141.296 256.648 134.302 236.257C132.958 232.314 132.45 228.135 132.81 223.986C133.17 219.837 134.391 215.808 136.394 212.153C138.423 208.461 141.199 205.23 144.547 202.663C147.894 200.097 151.739 198.251 155.839 197.244C162.956 195.543 170.45 196.448 176.954 199.794C183.458 203.141 188.541 208.706 191.275 215.475C196.822 229.307 198.791 242.207 197.127 253.817L197.094 254.05L196.882 254.151L150.648 276.315Z" fill="#6D2FFD"/>
<path d="M226.824 307.266C225.905 308.413 224.742 309.343 223.42 309.989C222.098 310.635 220.648 310.981 219.176 311.002C217.833 311.02 216.5 310.768 215.258 310.26C214.015 309.752 212.888 308.999 211.945 308.045C211.001 307.092 210.261 305.959 209.768 304.713C209.275 303.467 209.039 302.135 209.076 300.796C209.091 300.307 209.144 299.819 209.234 299.337L166.605 220.17C166.047 219.281 165.671 218.291 165.499 217.256C165.326 216.222 165.361 215.163 165.6 214.142C165.839 213.121 166.278 212.157 166.893 211.306C167.507 210.455 168.284 209.733 169.178 209.182C170.073 208.631 171.069 208.262 172.107 208.096C173.145 207.93 174.207 207.971 175.229 208.215C176.252 208.459 177.216 208.903 178.066 209.52C178.917 210.137 179.636 210.916 180.183 211.812L221.829 291.534C223.4 291.99 224.835 292.824 226.005 293.964C227.176 295.104 228.047 296.514 228.541 298.07C229.035 299.625 229.137 301.278 228.837 302.882C228.538 304.486 227.846 305.992 226.824 307.266V307.266Z" fill="#A0616A"/>
<path d="M185.232 155.319H150.856V140.377C158.401 137.388 165.785 134.846 170.248 140.377C174.222 140.377 178.033 141.951 180.844 144.753C183.654 147.555 185.232 151.356 185.232 155.319Z" fill="#2E3A59"/>
<path d="M148.953 137.741C128.402 137.741 122.65 163.426 122.65 177.916C122.65 185.997 126.315 188.888 132.075 189.866L134.109 179.049L138.873 190.331C140.491 190.339 142.19 190.308 143.952 190.275L145.567 186.959L149.169 190.216C163.596 190.237 175.256 192.334 175.256 177.916C175.256 163.426 170.211 137.741 148.953 137.741Z" fill="#2E3A59"/>
<path opacity="0.3" d="M335.386 139.745C339.281 139.745 342.438 136.597 342.438 132.714C342.438 128.831 339.281 125.683 335.386 125.683C331.492 125.683 328.335 128.831 328.335 132.714C328.335 136.597 331.492 139.745 335.386 139.745Z" fill="#98A2B3"/>
<path d="M516.256 218.216C511.758 218.216 507.36 216.886 503.62 214.394C499.88 211.902 496.965 208.361 495.243 204.217C493.522 200.073 493.071 195.513 493.949 191.114C494.826 186.714 496.993 182.673 500.173 179.502C503.354 176.33 507.407 174.17 511.819 173.295C516.231 172.42 520.804 172.869 524.96 174.586C529.116 176.302 532.668 179.209 535.167 182.938C537.666 186.668 539 191.053 539 195.538C538.993 201.551 536.595 207.315 532.331 211.567C528.067 215.818 522.286 218.21 516.256 218.216ZM516.256 174.617C512.106 174.617 508.05 175.844 504.599 178.143C501.149 180.442 498.46 183.709 496.872 187.532C495.284 191.355 494.868 195.561 495.678 199.619C496.487 203.678 498.486 207.405 501.42 210.331C504.354 213.257 508.093 215.249 512.163 216.057C516.233 216.864 520.451 216.449 524.285 214.866C528.119 213.283 531.396 210.601 533.701 207.161C536.007 203.72 537.237 199.676 537.237 195.538C537.231 189.991 535.018 184.674 531.085 180.752C527.152 176.83 521.819 174.624 516.256 174.617Z" fill="#6D2FFD"/>
<path d="M514.089 203.854C513.598 203.854 513.119 203.696 512.725 203.402L512.701 203.383L507.563 199.464C507.082 199.097 506.768 198.554 506.689 197.956C506.609 197.357 506.772 196.751 507.14 196.272C507.509 195.793 508.053 195.479 508.653 195.4C509.254 195.321 509.861 195.483 510.341 195.851L513.669 198.395L521.534 188.165C521.716 187.928 521.943 187.729 522.203 187.579C522.462 187.43 522.749 187.333 523.046 187.294C523.343 187.255 523.645 187.274 523.935 187.351C524.224 187.429 524.496 187.562 524.733 187.744L524.734 187.744L524.685 187.812L524.735 187.744C525.215 188.112 525.529 188.655 525.608 189.253C525.688 189.851 525.525 190.456 525.158 190.936L515.908 202.963C515.694 203.24 515.418 203.464 515.104 203.618C514.789 203.772 514.442 203.852 514.092 203.851L514.089 203.854Z" fill="#6D2FFD"/>
<path d="M513.438 133.593H358.304C358.07 133.593 357.846 133.5 357.681 133.335C357.515 133.17 357.422 132.947 357.422 132.714C357.422 132.481 357.515 132.257 357.681 132.092C357.846 131.927 358.07 131.835 358.304 131.835H513.438C513.672 131.835 513.896 131.927 514.061 132.092C514.227 132.257 514.32 132.481 514.32 132.714C514.32 132.947 514.227 133.17 514.061 133.335C513.896 133.5 513.672 133.593 513.438 133.593Z" fill="#2E3A59"/>
<path d="M513.438 150.292H358.304C358.07 150.292 357.846 150.199 357.681 150.034C357.515 149.869 357.422 149.646 357.422 149.413C357.422 149.18 357.515 148.956 357.681 148.791C357.846 148.627 358.07 148.534 358.304 148.534H513.438C513.672 148.534 513.896 148.627 514.061 148.791C514.227 148.956 514.32 149.18 514.32 149.413C514.32 149.646 514.227 149.869 514.061 150.034C513.896 150.199 513.672 150.292 513.438 150.292Z" fill="#2E3A59"/>
<path d="M513.438 166.991H358.304C358.07 166.991 357.846 166.898 357.681 166.733C357.515 166.569 357.422 166.345 357.422 166.112C357.422 165.879 357.515 165.655 357.681 165.49C357.846 165.326 358.07 165.233 358.304 165.233H513.438C513.672 165.233 513.896 165.326 514.061 165.49C514.227 165.655 514.32 165.879 514.32 166.112C514.32 166.345 514.227 166.569 514.061 166.733C513.896 166.898 513.672 166.991 513.438 166.991Z" fill="#2E3A59"/>
<path d="M478.18 183.69H358.304C358.07 183.69 357.846 183.597 357.681 183.432C357.515 183.268 357.422 183.044 357.422 182.811C357.422 182.578 357.515 182.354 357.681 182.19C357.846 182.025 358.07 181.932 358.304 181.932H478.18C478.414 181.932 478.638 182.025 478.804 182.19C478.969 182.354 479.062 182.578 479.062 182.811C479.062 183.044 478.969 183.268 478.804 183.432C478.638 183.597 478.414 183.69 478.18 183.69Z" fill="#2E3A59"/>
<path d="M477.299 200.389H358.304C358.07 200.389 357.846 200.296 357.681 200.132C357.515 199.967 357.422 199.743 357.422 199.51C357.422 199.277 357.515 199.053 357.681 198.889C357.846 198.724 358.07 198.631 358.304 198.631H477.299C477.533 198.631 477.757 198.724 477.922 198.889C478.087 199.053 478.18 199.277 478.18 199.51C478.18 199.743 478.087 199.967 477.922 200.132C477.757 200.296 477.533 200.389 477.299 200.389Z" fill="#2E3A59"/>
<path opacity="0.3" d="M335.386 14.0624C339.281 14.0624 342.438 10.9144 342.438 7.03119C342.438 3.14797 339.281 0 335.386 0C331.492 0 328.335 3.14797 328.335 7.03119C328.335 10.9144 331.492 14.0624 335.386 14.0624Z" fill="#98A2B3"/>
<path d="M516.256 92.5337C511.758 92.5337 507.36 91.2037 503.62 88.7117C499.88 86.2198 496.965 82.6779 495.243 78.534C493.522 74.39 493.071 69.8302 493.949 65.431C494.826 61.0318 496.993 56.9909 500.173 53.8192C503.354 50.6476 507.407 48.4877 511.819 47.6126C516.231 46.7376 520.804 47.1867 524.96 48.9032C529.116 50.6197 532.668 53.5264 535.167 57.2559C537.666 60.9853 539 65.3699 539 69.8553C538.993 75.8679 536.595 81.6324 532.331 85.8839C528.067 90.1355 522.286 92.527 516.256 92.5337ZM516.256 48.9347C512.106 48.9347 508.05 50.1617 504.599 52.4604C501.149 54.7592 498.46 58.0266 496.872 61.8493C495.284 65.6721 494.868 69.8785 495.678 73.9367C496.487 77.9949 498.486 81.7226 501.42 84.6484C504.354 87.5742 508.093 89.5667 512.163 90.374C516.233 91.1812 520.451 90.7669 524.285 89.1835C528.119 87.6 531.396 84.9186 533.701 81.4782C536.007 78.0378 537.237 73.993 537.237 69.8553C537.231 64.3087 535.018 58.9911 531.085 55.0691C527.152 51.1471 521.819 48.941 516.256 48.9347Z" fill="#6D2FFD"/>
<path d="M514.089 78.1711C513.598 78.1719 513.119 78.0132 512.725 77.719L512.701 77.7008L507.563 73.7818C507.082 73.4144 506.768 72.8717 506.689 72.2731C506.609 71.6745 506.772 71.0689 507.14 70.5897C507.509 70.1105 508.053 69.7969 508.653 69.7178C509.254 69.6388 509.861 69.8008 510.341 70.1681L513.669 72.7128L521.534 62.4827C521.716 62.2455 521.943 62.0465 522.203 61.8969C522.462 61.7474 522.749 61.6503 523.046 61.6112C523.343 61.572 523.645 61.5916 523.935 61.6688C524.224 61.7461 524.496 61.8794 524.733 62.0612L524.734 62.0617L524.685 62.1293L524.735 62.0617C525.215 62.4295 525.529 62.9721 525.608 63.5704C525.688 64.1687 525.525 64.7738 525.158 65.2531L515.908 77.2805C515.694 77.5576 515.418 77.7819 515.104 77.9358C514.789 78.0898 514.442 78.1694 514.092 78.1683L514.089 78.1711Z" fill="#6D2FFD"/>
<path d="M513.438 7.91014H358.304C358.07 7.91014 357.846 7.81754 357.681 7.65272C357.515 7.48789 357.422 7.26434 357.422 7.03124C357.422 6.79814 357.515 6.57459 357.681 6.40977C357.846 6.24494 358.07 6.15234 358.304 6.15234H513.438C513.672 6.15234 513.896 6.24494 514.061 6.40977C514.227 6.57459 514.32 6.79814 514.32 7.03124C514.32 7.26434 514.227 7.48789 514.061 7.65272C513.896 7.81754 513.672 7.91014 513.438 7.91014Z" fill="#2E3A59"/>
<path d="M513.438 24.6091H358.304C358.07 24.6091 357.846 24.5165 357.681 24.3517C357.515 24.1869 357.422 23.9633 357.422 23.7302C357.422 23.4971 357.515 23.2736 357.681 23.1087C357.846 22.9439 358.07 22.8513 358.304 22.8513H513.438C513.672 22.8513 513.896 22.9439 514.061 23.1087C514.227 23.2736 514.32 23.4971 514.32 23.7302C514.32 23.9633 514.227 24.1869 514.061 24.3517C513.896 24.5165 513.672 24.6091 513.438 24.6091Z" fill="#2E3A59"/>
<path d="M513.438 41.3082H358.304C358.07 41.3082 357.846 41.2156 357.681 41.0508C357.515 40.886 357.422 40.6624 357.422 40.4293C357.422 40.1962 357.515 39.9727 357.681 39.8078C357.846 39.643 358.07 39.5504 358.304 39.5504H513.438C513.672 39.5504 513.896 39.643 514.061 39.8078C514.227 39.9727 514.32 40.1962 514.32 40.4293C514.32 40.6624 514.227 40.886 514.061 41.0508C513.896 41.2156 513.672 41.3082 513.438 41.3082Z" fill="#2E3A59"/>
<path d="M478.18 58.0073H358.304C358.07 58.0073 357.846 57.9147 357.681 57.7499C357.515 57.5851 357.422 57.3615 357.422 57.1284C357.422 56.8953 357.515 56.6718 357.681 56.5069C357.846 56.3421 358.07 56.2495 358.304 56.2495H478.18C478.414 56.2495 478.638 56.3421 478.804 56.5069C478.969 56.6718 479.062 56.8953 479.062 57.1284C479.062 57.3615 478.969 57.5851 478.804 57.7499C478.638 57.9147 478.414 58.0073 478.18 58.0073Z" fill="#2E3A59"/>
<path d="M477.299 74.7064H358.304C358.07 74.7064 357.846 74.6138 357.681 74.449C357.515 74.2841 357.422 74.0606 357.422 73.8275C357.422 73.5944 357.515 73.3709 357.681 73.206C357.846 73.0412 358.07 72.9486 358.304 72.9486H477.299C477.533 72.9486 477.757 73.0412 477.922 73.206C478.087 73.3709 478.18 73.5944 478.18 73.8275C478.18 74.0606 478.087 74.2841 477.922 74.449C477.757 74.6138 477.533 74.7064 477.299 74.7064Z" fill="#2E3A59"/>
<path opacity="0.3" d="M335.386 264.549C339.281 264.549 342.438 261.401 342.438 257.517C342.438 253.634 339.281 250.486 335.386 250.486C331.492 250.486 328.335 253.634 328.335 257.517C328.335 261.401 331.492 264.549 335.386 264.549Z" fill="#98A2B3"/>
<path opacity="0.3" d="M516.256 343.02C511.758 343.02 507.36 341.69 503.62 339.198C499.88 336.706 496.965 333.164 495.243 329.02C493.522 324.876 493.071 320.316 493.949 315.917C494.826 311.518 496.993 307.477 500.173 304.305C503.354 301.134 507.407 298.974 511.819 298.099C516.231 297.224 520.804 297.673 524.96 299.389C529.116 301.106 532.668 304.013 535.167 307.742C537.666 311.472 539 315.856 539 320.342C538.993 326.354 536.595 332.119 532.331 336.37C528.067 340.622 522.286 343.013 516.256 343.02ZM516.256 299.421C512.106 299.421 508.05 300.648 504.599 302.947C501.149 305.245 498.46 308.513 496.872 312.336C495.284 316.158 494.868 320.365 495.678 324.423C496.487 328.481 498.486 332.209 501.42 335.135C504.354 338.06 508.093 340.053 512.163 340.86C516.233 341.667 520.451 341.253 524.285 339.67C528.119 338.086 531.396 335.405 533.701 331.964C536.007 328.524 537.237 324.479 537.237 320.342C537.231 314.795 535.018 309.477 531.085 305.555C527.152 301.633 521.819 299.427 516.256 299.421Z" fill="#98A2B3"/>
<path opacity="0.3" d="M514.09 328.657C513.598 328.658 513.119 328.499 512.725 328.205L512.701 328.187L507.563 324.268C507.325 324.086 507.125 323.859 506.975 323.6C506.825 323.341 506.728 323.056 506.689 322.759C506.649 322.463 506.669 322.162 506.746 321.873C506.824 321.584 506.958 321.313 507.14 321.076C507.323 320.839 507.55 320.64 507.81 320.49C508.069 320.34 508.356 320.243 508.653 320.204C508.951 320.165 509.253 320.185 509.542 320.262C509.832 320.339 510.103 320.472 510.341 320.654L513.669 323.199L521.534 312.969C521.716 312.732 521.943 312.533 522.203 312.383C522.462 312.234 522.749 312.136 523.046 312.097C523.343 312.058 523.645 312.078 523.935 312.155C524.224 312.232 524.496 312.366 524.734 312.547L524.734 312.548L524.685 312.616L524.736 312.548C525.215 312.916 525.529 313.458 525.609 314.057C525.688 314.655 525.526 315.26 525.158 315.739L515.908 327.767C515.694 328.044 515.419 328.268 515.104 328.422C514.789 328.576 514.442 328.656 514.092 328.655L514.09 328.657Z" fill="#98A2B3"/>
<path d="M513.438 258.396H358.304C358.07 258.396 357.846 258.304 357.681 258.139C357.515 257.974 357.422 257.751 357.422 257.517C357.422 257.284 357.515 257.061 357.681 256.896C357.846 256.731 358.07 256.639 358.304 256.639H513.438C513.672 256.639 513.896 256.731 514.061 256.896C514.227 257.061 514.32 257.284 514.32 257.517C514.32 257.751 514.227 257.974 514.061 258.139C513.896 258.304 513.672 258.396 513.438 258.396Z" fill="#2E3A59"/>
<path d="M513.438 275.095H358.304C358.07 275.095 357.846 275.003 357.681 274.838C357.515 274.673 357.422 274.45 357.422 274.217C357.422 273.983 357.515 273.76 357.681 273.595C357.846 273.43 358.07 273.338 358.304 273.338H513.438C513.672 273.338 513.896 273.43 514.061 273.595C514.227 273.76 514.32 273.983 514.32 274.217C514.32 274.45 514.227 274.673 514.061 274.838C513.896 275.003 513.672 275.095 513.438 275.095Z" fill="#2E3A59"/>
<path d="M513.438 291.794H358.304C358.07 291.794 357.846 291.702 357.681 291.537C357.515 291.372 357.422 291.149 357.422 290.916C357.422 290.682 357.515 290.459 357.681 290.294C357.846 290.129 358.07 290.037 358.304 290.037H513.438C513.672 290.037 513.896 290.129 514.061 290.294C514.227 290.459 514.32 290.682 514.32 290.916C514.32 291.149 514.227 291.372 514.061 291.537C513.896 291.702 513.672 291.794 513.438 291.794Z" fill="#2E3A59"/>
<path d="M478.18 308.494H358.304C358.07 308.494 357.846 308.401 357.681 308.236C357.515 308.071 357.422 307.848 357.422 307.615C357.422 307.382 357.515 307.158 357.681 306.993C357.846 306.828 358.07 306.736 358.304 306.736H478.18C478.414 306.736 478.638 306.828 478.804 306.993C478.969 307.158 479.062 307.382 479.062 307.615C479.062 307.848 478.969 308.071 478.804 308.236C478.638 308.401 478.414 308.494 478.18 308.494Z" fill="#2E3A59"/>
<path d="M477.299 325.193H358.304C358.07 325.193 357.846 325.1 357.681 324.935C357.515 324.77 357.422 324.547 357.422 324.314C357.422 324.081 357.515 323.857 357.681 323.692C357.846 323.527 358.07 323.435 358.304 323.435H477.299C477.533 323.435 477.757 323.527 477.922 323.692C478.087 323.857 478.18 324.081 478.18 324.314C478.18 324.547 478.087 324.77 477.922 324.935C477.757 325.1 477.533 325.193 477.299 325.193Z" fill="#2E3A59"/>
<path d="M340.47 479H4.63984C4.40606 479 4.18188 478.907 4.01657 478.743C3.85127 478.578 3.75839 478.354 3.75839 478.121C3.75839 477.888 3.85127 477.664 4.01657 477.5C4.18188 477.335 4.40606 477.242 4.63984 477.242H340.47C340.704 477.242 340.928 477.335 341.094 477.5C341.259 477.664 341.352 477.888 341.352 478.121C341.352 478.354 341.259 478.578 341.094 478.743C340.928 478.907 340.704 479 340.47 479Z" fill="#2E3A59"/>
</g>
<defs>
<clipPath id="clip0_1588_54193">
<rect width="539" height="479" fill="white"/>
</clipPath>
</defs>
</svg>
