<svg width="960" height="144" viewBox="0 0 960 144" fill="none" xmlns="http://www.w3.org/2000/svg">
<rect x="776" width="184" height="144" rx="8" fill="#6D2FFD"/>
<rect x="836" y="86.8574" width="64" height="3.08571" rx="1.54286" fill="white"/>
<rect x="819" y="97.9434" width="98" height="3.08571" rx="1.54286" fill="white"/>
<rect x="833.5" y="109.029" width="69" height="3.08571" rx="1.54286" fill="white"/>
<rect x="809" y="120.114" width="118" height="3.08571" rx="1.54286" fill="white"/>
<rect x="844" y="24" width="48" height="48" rx="24" fill="white"/>
<path d="M867.999 51.9997L863.999 47.9997M867.999 51.9997C869.861 51.2913 871.648 50.398 873.332 49.333M867.999 51.9997V58.6663C867.999 58.6663 872.039 57.933 873.332 55.9997C874.772 53.8397 873.332 49.333 873.332 49.333M863.999 47.9997C864.708 46.1589 865.602 44.3944 866.665 42.733C868.219 40.249 870.382 38.2037 872.949 36.7918C875.517 35.3799 878.402 34.6482 881.332 34.6663C881.332 38.293 880.292 44.6663 873.332 49.333M863.999 47.9997H857.332C857.332 47.9997 858.065 43.9597 859.999 42.6663C862.159 41.2263 866.665 42.6663 866.665 42.6663M857.999 53.9997C855.999 55.6797 855.332 60.6663 855.332 60.6663C855.332 60.6663 860.319 59.9997 861.999 57.9997C862.945 56.8797 862.932 55.1597 861.879 54.1197C861.36 53.625 860.678 53.3392 859.962 53.317C859.246 53.2949 858.547 53.538 857.999 53.9997Z" stroke="#6D2FFD" stroke-width="2.4" stroke-linecap="round" stroke-linejoin="round"/>
<path d="M323 32V32C335.15 32 345 41.8497 345 54V86C345 98.1503 354.85 108 367 108V108" stroke="#D0D5DD" stroke-width="2" stroke-linecap="round" stroke-dasharray="6 8"/>
<path d="M132 32L323 32" stroke="#D0D5DD" stroke-width="2" stroke-linecap="round" stroke-dasharray="6 8"/>
<path d="M370.5 100C370.5 100 373 104.667 379 108C373 111.333 370.5 116 370.5 116" stroke="#D0D5DD" stroke-width="2" stroke-linecap="round" stroke-linejoin="round"/>
<path d="M379 108H367" stroke="#D0D5DD" stroke-width="2" stroke-linecap="round"/>
<path d="M711 108V108C723.15 108 733 98.1503 733 86V54C733 41.8497 742.85 32 755 32V32" stroke="#D0D5DD" stroke-width="2" stroke-linecap="round" stroke-dasharray="6 8"/>
<path d="M520 108L711 108" stroke="#D0D5DD" stroke-width="2" stroke-linecap="round" stroke-dasharray="6 8"/>
<path d="M758.5 40C758.5 40 761 35.3333 767 32C761 28.6667 758.5 24 758.5 24" stroke="#D0D5DD" stroke-width="2" stroke-linecap="round" stroke-linejoin="round"/>
<path d="M767 32H755" stroke="#D0D5DD" stroke-width="2" stroke-linecap="round"/>
<rect width="184" height="90.5142" rx="8" fill="white"/>
<rect y="98.7432" width="184" height="45.2571" rx="8" fill="#6D2FFD"/>
<rect x="60" y="20.5713" width="64" height="3.08571" rx="1.54286" fill="#D0D5DD"/>
<rect x="70" y="43.2002" width="44" height="3.08571" rx="1.54286" fill="#D0D5DD"/>
<rect x="58" y="54.5146" width="69" height="3.08571" rx="1.54286" fill="#D0D5DD"/>
<rect x="43" y="31.8857" width="98" height="3.08571" rx="1.54286" fill="#D0D5DD"/>
<rect x="33" y="65.8281" width="118" height="3.08571" rx="1.54286" fill="#D0D5DD"/>
<rect x="56" y="106.972" width="71" height="28.8" rx="6" fill="white"/>
<path d="M70.1733 126.972V115.612H72.0453V126.972H70.1733ZM74.5278 126.972V118.972H76.2878V120.06C76.7891 119.228 77.5998 118.812 78.7198 118.812C79.6478 118.812 80.3891 119.116 80.9438 119.724C81.4984 120.332 81.7758 121.142 81.7758 122.156V126.972H80.0158V122.444C80.0158 121.804 79.8664 121.308 79.5678 120.956C79.2691 120.593 78.8638 120.412 78.3518 120.412C77.7438 120.412 77.2478 120.641 76.8638 121.1C76.4798 121.558 76.2878 122.204 76.2878 123.036V126.972H74.5278ZM86.8438 127.132C85.8944 127.132 85.0944 126.897 84.4438 126.428C83.8038 125.958 83.4624 125.329 83.4198 124.54H85.2438C85.3718 125.329 85.9211 125.724 86.8918 125.724C87.2864 125.724 87.6011 125.654 87.8358 125.516C88.0704 125.366 88.1878 125.153 88.1878 124.876C88.1878 124.598 88.0971 124.38 87.9158 124.22C87.7344 124.06 87.4304 123.926 87.0038 123.82L85.6918 123.468C84.3264 123.105 83.6438 122.3 83.6438 121.052C83.6438 120.38 83.9158 119.841 84.4598 119.436C85.0038 119.02 85.7238 118.812 86.6198 118.812C87.4838 118.812 88.1931 119.03 88.7478 119.468C89.3024 119.905 89.6118 120.486 89.6758 121.212H87.9158C87.7451 120.55 87.3078 120.22 86.6038 120.22C86.2518 120.22 85.9691 120.294 85.7558 120.444C85.5424 120.582 85.4358 120.78 85.4358 121.036C85.4358 121.494 85.7931 121.814 86.5078 121.996L87.8518 122.348C89.2704 122.71 89.9798 123.516 89.9798 124.764C89.9798 125.521 89.6864 126.108 89.0998 126.524C88.5238 126.929 87.7718 127.132 86.8438 127.132ZM95.0779 127.052C94.2672 127.052 93.6059 126.828 93.0939 126.38C92.5925 125.921 92.3419 125.26 92.3419 124.396V120.54H90.6779V118.972H92.3419V116.748H94.1019V118.972H96.3899V120.54H94.1019V124.108C94.1019 124.598 94.2085 124.95 94.4219 125.164C94.6352 125.366 94.9765 125.468 95.4459 125.468C95.8299 125.468 96.1445 125.414 96.3899 125.308V126.876C96.0059 126.993 95.5685 127.052 95.0779 127.052ZM101.23 127.132C100.142 127.132 99.2243 126.726 98.4776 125.916C97.7416 125.105 97.3736 124.124 97.3736 122.972C97.3736 121.82 97.7416 120.838 98.4776 120.028C99.2243 119.217 100.142 118.812 101.23 118.812C101.774 118.812 102.275 118.934 102.734 119.18C103.192 119.414 103.544 119.702 103.79 120.044V118.972H105.55V126.972H103.79V125.9C103.544 126.241 103.192 126.534 102.734 126.78C102.275 127.014 101.774 127.132 101.23 127.132ZM99.8376 124.796C100.286 125.286 100.856 125.532 101.55 125.532C102.243 125.532 102.814 125.286 103.262 124.796C103.71 124.305 103.934 123.697 103.934 122.972C103.934 122.246 103.71 121.638 103.262 121.148C102.814 120.657 102.243 120.412 101.55 120.412C100.856 120.412 100.286 120.657 99.8376 121.148C99.3896 121.638 99.1656 122.246 99.1656 122.972C99.1656 123.697 99.3896 124.305 99.8376 124.796ZM107.934 126.972V114.972H109.694V126.972H107.934ZM112.059 126.972V114.972H113.819V126.972H112.059Z" fill="#2E3A59"/>
<path d="M121.056 140.424L120.8 114.171L139.89 131.663L128.919 132.428L121.056 140.424Z" fill="#2E3A59" stroke="#E4E9F2" stroke-width="1.81063" stroke-linecap="square"/>
<rect x="380" width="184" height="144" rx="8" fill="#EBE9FE"/>
<rect x="396" y="16.457" width="152" height="115.2" rx="8" fill="white"/>
<path d="M396 41.1426H548V24.4569C548 20.0386 544.418 16.4569 540 16.4569H404C399.582 16.4569 396 20.0386 396 24.4569V41.1426Z" fill="#6D2FFD"/>
<circle cx="408.002" cy="28.6855" r="4" fill="#FF3D71"/>
<circle cx="424.002" cy="28.6855" r="4" fill="#FFAA00"/>
<circle cx="440.002" cy="28.6855" r="4" fill="#00B887"/>
<path d="M535.502 61.7144C535.502 64.86 533.026 67.3858 530.002 67.3858C526.978 67.3858 524.502 64.86 524.502 61.7144C524.502 58.5688 526.978 56.043 530.002 56.043C533.026 56.043 535.502 58.5688 535.502 61.7144Z" fill="#00D68F" stroke="#00D68F"/>
<path d="M532.669 59.9746L529.003 63.4559L527.336 61.8735" stroke="white" stroke-width="1.5" stroke-linecap="round" stroke-linejoin="round"/>
<path d="M409.776 65.4863V58.2743H408.06L409.068 56.9663H411.096V65.4863H409.776ZM413.732 65.5823C413.452 65.5823 413.208 65.4823 413 65.2823C412.8 65.0743 412.7 64.8263 412.7 64.5383C412.7 64.2583 412.8 64.0143 413 63.8063C413.208 63.5983 413.452 63.4943 413.732 63.4943C414.02 63.4943 414.264 63.5983 414.464 63.8063C414.672 64.0143 414.776 64.2583 414.776 64.5383C414.776 64.8263 414.672 65.0743 414.464 65.2823C414.264 65.4823 414.02 65.5823 413.732 65.5823ZM423.092 65.6303C421.82 65.6303 420.76 65.2103 419.912 64.3703C419.072 63.5223 418.652 62.4743 418.652 61.2263C418.652 59.9783 419.072 58.9343 419.912 58.0943C420.76 57.2463 421.82 56.8223 423.092 56.8223C424.1 56.8223 424.98 57.1103 425.732 57.6863C426.492 58.2543 426.98 58.9663 427.196 59.8223H425.684C425.5 59.3343 425.172 58.9383 424.7 58.6343C424.228 58.3303 423.692 58.1783 423.092 58.1783C422.212 58.1783 421.488 58.4703 420.92 59.0543C420.352 59.6383 420.068 60.3623 420.068 61.2263C420.068 62.0903 420.352 62.8143 420.92 63.3983C421.488 63.9823 422.212 64.2743 423.092 64.2743C423.692 64.2743 424.228 64.1223 424.7 63.8183C425.172 63.5143 425.5 63.1183 425.684 62.6303H427.196C426.98 63.4863 426.492 64.2023 425.732 64.7783C424.98 65.3463 424.1 65.6303 423.092 65.6303ZM433.402 64.7063C432.802 65.3063 432.058 65.6063 431.17 65.6063C430.282 65.6063 429.534 65.3063 428.926 64.7063C428.326 64.0983 428.026 63.3583 428.026 62.4863C428.026 61.6143 428.326 60.8783 428.926 60.2783C429.534 59.6703 430.282 59.3663 431.17 59.3663C432.058 59.3663 432.802 59.6703 433.402 60.2783C434.01 60.8783 434.314 61.6143 434.314 62.4863C434.314 63.3583 434.01 64.0983 433.402 64.7063ZM431.17 64.3823C431.69 64.3823 432.118 64.2023 432.454 63.8423C432.798 63.4743 432.97 63.0223 432.97 62.4863C432.97 61.9503 432.798 61.5023 432.454 61.1423C432.118 60.7743 431.69 60.5903 431.17 60.5903C430.642 60.5903 430.206 60.7743 429.862 61.1423C429.526 61.5023 429.358 61.9503 429.358 62.4863C429.358 63.0223 429.526 63.4743 429.862 63.8423C430.206 64.2023 430.642 64.3823 431.17 64.3823ZM443.286 65.4863V62.1143C443.286 61.6263 443.194 61.2463 443.01 60.9743C442.834 60.7023 442.57 60.5663 442.218 60.5663C441.794 60.5663 441.454 60.7303 441.198 61.0583C440.942 61.3863 440.806 61.8463 440.79 62.4383V65.4863H439.47V62.1143C439.47 61.6263 439.378 61.2463 439.194 60.9743C439.018 60.7023 438.754 60.5663 438.402 60.5663C437.962 60.5663 437.61 60.7383 437.346 61.0823C437.09 61.4263 436.962 61.9103 436.962 62.5343V65.4863H435.642V59.4863H436.962V60.3023C437.33 59.6783 437.898 59.3663 438.666 59.3663C439.57 59.3663 440.19 59.7623 440.526 60.5543C440.694 60.1783 440.95 59.8863 441.294 59.6783C441.646 59.4703 442.03 59.3663 442.446 59.3663C443.118 59.3663 443.646 59.5943 444.03 60.0503C444.414 60.5063 444.606 61.1223 444.606 61.8983V65.4863H443.286ZM447.614 67.9943H446.294V59.4863H447.614V60.2903C447.798 60.0343 448.062 59.8183 448.406 59.6423C448.758 59.4583 449.138 59.3663 449.546 59.3663C450.362 59.3663 451.046 59.6703 451.598 60.2783C452.158 60.8863 452.438 61.6223 452.438 62.4863C452.438 63.3503 452.158 64.0863 451.598 64.6943C451.046 65.3023 450.362 65.6063 449.546 65.6063C449.138 65.6063 448.758 65.5183 448.406 65.3423C448.062 65.1583 447.798 64.9383 447.614 64.6823V67.9943ZM449.306 64.4063C449.826 64.4063 450.254 64.2223 450.59 63.8543C450.926 63.4863 451.094 63.0303 451.094 62.4863C451.094 61.9423 450.926 61.4863 450.59 61.1183C450.254 60.7503 449.826 60.5663 449.306 60.5663C448.778 60.5663 448.346 60.7503 448.01 61.1183C447.674 61.4863 447.506 61.9423 447.506 62.4863C447.506 63.0303 447.674 63.4863 448.01 63.8543C448.346 64.2223 448.778 64.4063 449.306 64.4063ZM456.243 65.6063C455.427 65.6063 454.739 65.3023 454.179 64.6943C453.627 64.0863 453.351 63.3503 453.351 62.4863C453.351 61.6223 453.627 60.8863 454.179 60.2783C454.739 59.6703 455.427 59.3663 456.243 59.3663C456.651 59.3663 457.027 59.4583 457.371 59.6423C457.715 59.8183 457.979 60.0343 458.163 60.2903V59.4863H459.483V65.4863H458.163V64.6823C457.979 64.9383 457.715 65.1583 457.371 65.3423C457.027 65.5183 456.651 65.6063 456.243 65.6063ZM455.199 63.8543C455.535 64.2223 455.963 64.4063 456.483 64.4063C457.003 64.4063 457.431 64.2223 457.767 63.8543C458.103 63.4863 458.271 63.0303 458.271 62.4863C458.271 61.9423 458.103 61.4863 457.767 61.1183C457.431 60.7503 457.003 60.5663 456.483 60.5663C455.963 60.5663 455.535 60.7503 455.199 61.1183C454.863 61.4863 454.695 61.9423 454.695 62.4863C454.695 63.0303 454.863 63.4863 455.199 63.8543ZM461.271 65.4863V59.4863H462.591V60.3023C462.967 59.6783 463.575 59.3663 464.415 59.3663C465.111 59.3663 465.667 59.5943 466.083 60.0503C466.499 60.5063 466.707 61.1143 466.707 61.8743V65.4863H465.387V62.0903C465.387 61.6103 465.275 61.2383 465.051 60.9743C464.827 60.7023 464.523 60.5663 464.139 60.5663C463.683 60.5663 463.311 60.7383 463.023 61.0823C462.735 61.4263 462.591 61.9103 462.591 62.5343V65.4863H461.271ZM470.175 67.9943H468.723L470.007 65.1623L467.427 59.4863H468.879L470.715 63.7343L472.563 59.4863H474.027L470.175 67.9943ZM479.961 65.6063C479.145 65.6063 478.457 65.3023 477.897 64.6943C477.345 64.0863 477.069 63.3503 477.069 62.4863C477.069 61.6223 477.345 60.8863 477.897 60.2783C478.457 59.6703 479.145 59.3663 479.961 59.3663C480.369 59.3663 480.745 59.4583 481.089 59.6423C481.433 59.8183 481.697 60.0343 481.881 60.2903V56.4863H483.201V65.4863H481.881V64.6823C481.697 64.9383 481.433 65.1583 481.089 65.3423C480.745 65.5183 480.369 65.6063 479.961 65.6063ZM478.917 63.8543C479.253 64.2223 479.681 64.4063 480.201 64.4063C480.721 64.4063 481.149 64.2223 481.485 63.8543C481.821 63.4863 481.989 63.0303 481.989 62.4863C481.989 61.9423 481.821 61.4863 481.485 61.1183C481.149 60.7503 480.721 60.5663 480.201 60.5663C479.681 60.5663 479.253 60.7503 478.917 61.1183C478.581 61.4863 478.413 61.9423 478.413 62.4863C478.413 63.0303 478.581 63.4863 478.917 63.8543ZM487.642 65.6063C486.746 65.6063 486.01 65.3143 485.434 64.7303C484.858 64.1383 484.57 63.3903 484.57 62.4863C484.57 61.5823 484.854 60.8383 485.422 60.2543C485.99 59.6623 486.734 59.3663 487.654 59.3663C488.582 59.3663 489.33 59.6903 489.898 60.3383C490.466 60.9783 490.718 61.8023 490.654 62.8103H485.878C485.894 63.2743 486.07 63.6623 486.406 63.9743C486.742 64.2863 487.17 64.4423 487.69 64.4423C488.426 64.4423 488.93 64.1623 489.202 63.6023H490.582C490.398 64.1863 490.046 64.6663 489.526 65.0423C489.006 65.4183 488.378 65.6063 487.642 65.6063ZM487.618 60.4703C487.186 60.4703 486.814 60.5943 486.502 60.8423C486.198 61.0823 486.002 61.4263 485.914 61.8743H489.238C489.142 61.4103 488.946 61.0623 488.65 60.8303C488.354 60.5903 488.01 60.4703 487.618 60.4703ZM494.508 65.5463C493.9 65.5463 493.404 65.3783 493.02 65.0423C492.644 64.6983 492.456 64.2023 492.456 63.5543V60.6623H491.208V59.4863H492.456V57.8183H493.776V59.4863H495.492V60.6623H493.776V63.3383C493.776 63.7063 493.856 63.9703 494.016 64.1303C494.176 64.2823 494.432 64.3583 494.784 64.3583C495.072 64.3583 495.308 64.3183 495.492 64.2383V65.4143C495.204 65.5023 494.876 65.5463 494.508 65.5463ZM499.121 65.6063C498.305 65.6063 497.617 65.3023 497.057 64.6943C496.505 64.0863 496.229 63.3503 496.229 62.4863C496.229 61.6223 496.505 60.8863 497.057 60.2783C497.617 59.6703 498.305 59.3663 499.121 59.3663C499.529 59.3663 499.905 59.4583 500.249 59.6423C500.593 59.8183 500.857 60.0343 501.041 60.2903V59.4863H502.361V65.4863H501.041V64.6823C500.857 64.9383 500.593 65.1583 500.249 65.3423C499.905 65.5183 499.529 65.6063 499.121 65.6063ZM498.077 63.8543C498.413 64.2223 498.841 64.4063 499.361 64.4063C499.881 64.4063 500.309 64.2223 500.645 63.8543C500.981 63.4863 501.149 63.0303 501.149 62.4863C501.149 61.9423 500.981 61.4863 500.645 61.1183C500.309 60.7503 499.881 60.5663 499.361 60.5663C498.841 60.5663 498.413 60.7503 498.077 61.1183C497.741 61.4863 497.573 61.9423 497.573 62.4863C497.573 63.0303 497.741 63.4863 498.077 63.8543ZM504.81 58.1783C504.57 58.1783 504.362 58.0943 504.186 57.9263C504.01 57.7503 503.922 57.5383 503.922 57.2903C503.922 57.0503 504.01 56.8463 504.186 56.6783C504.362 56.5023 504.57 56.4143 504.81 56.4143C505.058 56.4143 505.266 56.5023 505.434 56.6783C505.602 56.8463 505.686 57.0503 505.686 57.2903C505.686 57.5383 505.602 57.7503 505.434 57.9263C505.266 58.0943 505.058 58.1783 504.81 58.1783ZM504.15 65.4863V59.4863H505.47V65.4863H504.15ZM507.243 65.4863V56.4863H508.563V65.4863H507.243ZM512.449 65.6063C511.737 65.6063 511.137 65.4303 510.649 65.0783C510.169 64.7263 509.913 64.2543 509.881 63.6623H511.249C511.345 64.2543 511.757 64.5503 512.485 64.5503C512.781 64.5503 513.017 64.4983 513.193 64.3943C513.369 64.2823 513.457 64.1223 513.457 63.9143C513.457 63.7063 513.389 63.5423 513.253 63.4223C513.117 63.3023 512.889 63.2023 512.569 63.1223L511.585 62.8583C510.561 62.5863 510.049 61.9823 510.049 61.0463C510.049 60.5423 510.253 60.1383 510.661 59.8343C511.069 59.5223 511.609 59.3663 512.281 59.3663C512.929 59.3663 513.461 59.5303 513.877 59.8583C514.293 60.1863 514.525 60.6223 514.573 61.1663H513.253C513.125 60.6703 512.797 60.4223 512.269 60.4223C512.005 60.4223 511.793 60.4783 511.633 60.5903C511.473 60.6943 511.393 60.8423 511.393 61.0343C511.393 61.3783 511.661 61.6183 512.197 61.7543L513.205 62.0183C514.269 62.2903 514.801 62.8943 514.801 63.8303C514.801 64.3983 514.581 64.8383 514.141 65.1503C513.709 65.4543 513.145 65.6063 512.449 65.6063Z" fill="#2E3A59"/>
<path d="M414.192 88.8749V90.1709H408.552V89.6909C408.552 89.3869 408.596 89.0989 408.684 88.8269C408.78 88.5469 408.88 88.3149 408.984 88.1309C409.088 87.9469 409.26 87.7429 409.5 87.5189C409.74 87.2869 409.924 87.1229 410.052 87.0269C410.18 86.9229 410.404 86.7549 410.724 86.5229C411.052 86.2909 411.26 86.1429 411.348 86.0789C411.852 85.7109 412.216 85.3869 412.44 85.1069C412.664 84.8269 412.776 84.4909 412.776 84.0989C412.776 83.7069 412.656 83.3949 412.416 83.1629C412.176 82.9229 411.844 82.8029 411.42 82.8029C410.98 82.8029 410.616 82.9349 410.328 83.1989C410.04 83.4549 409.892 83.8069 409.884 84.2549H408.552C408.552 83.4469 408.824 82.7869 409.368 82.2749C409.92 81.7629 410.608 81.5069 411.432 81.5069C412.192 81.5069 412.828 81.7309 413.34 82.1789C413.852 82.6269 414.108 83.2549 414.108 84.0629C414.108 84.7029 413.96 85.2429 413.664 85.6829C413.376 86.1149 412.896 86.5709 412.224 87.0509C412.12 87.1309 411.928 87.2669 411.648 87.4589C411.368 87.6509 411.16 87.7989 411.024 87.9029C410.896 88.0069 410.756 88.1509 410.604 88.3349C410.452 88.5109 410.348 88.6909 410.292 88.8749H414.192ZM416.369 90.2669C416.089 90.2669 415.845 90.1669 415.637 89.9669C415.437 89.7589 415.337 89.5109 415.337 89.2229C415.337 88.9429 415.437 88.6989 415.637 88.4909C415.845 88.2829 416.089 88.1789 416.369 88.1789C416.657 88.1789 416.901 88.2829 417.101 88.4909C417.309 88.6989 417.413 88.9429 417.413 89.2229C417.413 89.5109 417.309 89.7589 417.101 89.9669C416.901 90.1669 416.657 90.2669 416.369 90.2669ZM421.829 90.1709V81.6509H424.769C425.513 81.6509 426.121 81.8789 426.593 82.3349C427.073 82.7909 427.313 83.3469 427.313 84.0029C427.313 84.7069 427.049 85.2549 426.521 85.6469C427.433 86.0229 427.889 86.6989 427.889 87.6749C427.889 88.3869 427.629 88.9829 427.109 89.4629C426.597 89.9349 425.941 90.1709 425.141 90.1709H421.829ZM423.233 88.8869H425.105C425.553 88.8869 425.901 88.7749 426.149 88.5509C426.397 88.3269 426.521 88.0309 426.521 87.6629C426.521 87.3029 426.397 87.0109 426.149 86.7869C425.901 86.5549 425.553 86.4389 425.105 86.4389H423.233V88.8869ZM423.233 85.2389H424.697C425.073 85.2389 425.373 85.1309 425.597 84.9149C425.821 84.6989 425.933 84.4229 425.933 84.0869C425.933 83.7669 425.821 83.4949 425.597 83.2709C425.373 83.0469 425.073 82.9349 424.697 82.9349H423.233V85.2389ZM431.356 90.2909C430.668 90.2909 430.124 90.0629 429.724 89.6069C429.324 89.1429 429.124 88.5269 429.124 87.7589V84.1709H430.444V87.5429C430.444 88.0229 430.548 88.4029 430.756 88.6829C430.964 88.9549 431.26 89.0909 431.644 89.0909C432.092 89.0909 432.448 88.9229 432.712 88.5869C432.976 88.2429 433.108 87.7549 433.108 87.1229V84.1709H434.428V90.1709H433.108V89.3549C432.756 89.9789 432.172 90.2909 431.356 90.2909ZM438.316 90.2909C437.604 90.2909 437.004 90.1149 436.516 89.7629C436.036 89.4109 435.78 88.9389 435.748 88.3469H437.116C437.212 88.9389 437.624 89.2349 438.352 89.2349C438.648 89.2349 438.884 89.1829 439.06 89.0789C439.236 88.9669 439.324 88.8069 439.324 88.5989C439.324 88.3909 439.256 88.2269 439.12 88.1069C438.984 87.9869 438.756 87.8869 438.436 87.8069L437.452 87.5429C436.428 87.2709 435.916 86.6669 435.916 85.7309C435.916 85.2269 436.12 84.8229 436.528 84.5189C436.936 84.2069 437.476 84.0509 438.148 84.0509C438.796 84.0509 439.328 84.2149 439.744 84.5429C440.16 84.8709 440.392 85.3069 440.44 85.8509H439.12C438.992 85.3549 438.664 85.1069 438.136 85.1069C437.872 85.1069 437.66 85.1629 437.5 85.2749C437.34 85.3789 437.26 85.5269 437.26 85.7189C437.26 86.0629 437.528 86.3029 438.064 86.4389L439.072 86.7029C440.136 86.9749 440.668 87.5789 440.668 88.5149C440.668 89.0829 440.448 89.5229 440.008 89.8349C439.576 90.1389 439.012 90.2909 438.316 90.2909ZM442.665 82.8629C442.425 82.8629 442.217 82.7789 442.041 82.6109C441.865 82.4349 441.777 82.2229 441.777 81.9749C441.777 81.7349 441.865 81.5309 442.041 81.3629C442.217 81.1869 442.425 81.0989 442.665 81.0989C442.913 81.0989 443.121 81.1869 443.289 81.3629C443.457 81.5309 443.541 81.7349 443.541 81.9749C443.541 82.2229 443.457 82.4349 443.289 82.6109C443.121 82.7789 442.913 82.8629 442.665 82.8629ZM442.005 90.1709V84.1709H443.325V90.1709H442.005ZM445.099 90.1709V84.1709H446.419V84.9869C446.795 84.3629 447.403 84.0509 448.243 84.0509C448.939 84.0509 449.495 84.2789 449.911 84.7349C450.327 85.1909 450.535 85.7989 450.535 86.5589V90.1709H449.215V86.7749C449.215 86.2949 449.103 85.9229 448.879 85.6589C448.655 85.3869 448.351 85.2509 447.967 85.2509C447.511 85.2509 447.139 85.4229 446.851 85.7669C446.563 86.1109 446.419 86.5949 446.419 87.2189V90.1709H445.099ZM454.876 90.2909C453.98 90.2909 453.244 89.9989 452.668 89.4149C452.092 88.8229 451.804 88.0749 451.804 87.1709C451.804 86.2669 452.088 85.5229 452.656 84.9389C453.224 84.3469 453.968 84.0509 454.888 84.0509C455.816 84.0509 456.564 84.3749 457.132 85.0229C457.7 85.6629 457.952 86.4869 457.888 87.4949H453.112C453.128 87.9589 453.304 88.3469 453.64 88.6589C453.976 88.9709 454.404 89.1269 454.924 89.1269C455.66 89.1269 456.164 88.8469 456.436 88.2869H457.816C457.632 88.8709 457.28 89.3509 456.76 89.7269C456.24 90.1029 455.612 90.2909 454.876 90.2909ZM454.852 85.1549C454.42 85.1549 454.048 85.2789 453.736 85.5269C453.432 85.7669 453.236 86.1109 453.148 86.5589H456.472C456.376 86.0949 456.18 85.7469 455.884 85.5149C455.588 85.2749 455.244 85.1549 454.852 85.1549ZM461.355 90.2909C460.643 90.2909 460.043 90.1149 459.555 89.7629C459.075 89.4109 458.819 88.9389 458.787 88.3469H460.155C460.251 88.9389 460.663 89.2349 461.391 89.2349C461.687 89.2349 461.923 89.1829 462.099 89.0789C462.275 88.9669 462.363 88.8069 462.363 88.5989C462.363 88.3909 462.295 88.2269 462.159 88.1069C462.023 87.9869 461.795 87.8869 461.475 87.8069L460.491 87.5429C459.467 87.2709 458.955 86.6669 458.955 85.7309C458.955 85.2269 459.159 84.8229 459.567 84.5189C459.975 84.2069 460.515 84.0509 461.187 84.0509C461.835 84.0509 462.367 84.2149 462.783 84.5429C463.199 84.8709 463.431 85.3069 463.479 85.8509H462.159C462.031 85.3549 461.703 85.1069 461.175 85.1069C460.911 85.1069 460.699 85.1629 460.539 85.2749C460.379 85.3789 460.299 85.5269 460.299 85.7189C460.299 86.0629 460.567 86.3029 461.103 86.4389L462.111 86.7029C463.175 86.9749 463.707 87.5789 463.707 88.5149C463.707 89.0829 463.487 89.5229 463.047 89.8349C462.615 90.1389 462.051 90.2909 461.355 90.2909ZM467.156 90.2909C466.444 90.2909 465.844 90.1149 465.356 89.7629C464.876 89.4109 464.62 88.9389 464.588 88.3469H465.956C466.052 88.9389 466.464 89.2349 467.192 89.2349C467.488 89.2349 467.724 89.1829 467.9 89.0789C468.076 88.9669 468.164 88.8069 468.164 88.5989C468.164 88.3909 468.096 88.2269 467.96 88.1069C467.824 87.9869 467.596 87.8869 467.276 87.8069L466.292 87.5429C465.268 87.2709 464.756 86.6669 464.756 85.7309C464.756 85.2269 464.96 84.8229 465.368 84.5189C465.776 84.2069 466.316 84.0509 466.988 84.0509C467.636 84.0509 468.168 84.2149 468.584 84.5429C469 84.8709 469.232 85.3069 469.28 85.8509H467.96C467.832 85.3549 467.504 85.1069 466.976 85.1069C466.712 85.1069 466.5 85.1629 466.34 85.2749C466.18 85.3789 466.1 85.5269 466.1 85.7189C466.1 86.0629 466.368 86.3029 466.904 86.4389L467.912 86.7029C468.976 86.9749 469.508 87.5789 469.508 88.5149C469.508 89.0829 469.288 89.5229 468.848 89.8349C468.416 90.1389 467.852 90.2909 467.156 90.2909ZM474.989 90.1709H473.669V81.1709H474.989V84.9869C475.365 84.3629 475.973 84.0509 476.813 84.0509C477.509 84.0509 478.065 84.2789 478.481 84.7349C478.897 85.1909 479.105 85.7989 479.105 86.5589V90.1709H477.785V86.7749C477.785 86.2949 477.673 85.9229 477.449 85.6589C477.225 85.3869 476.921 85.2509 476.537 85.2509C476.081 85.2509 475.709 85.4229 475.421 85.7669C475.133 86.1109 474.989 86.5949 474.989 87.2189V90.1709ZM485.738 89.3909C485.138 89.9909 484.394 90.2909 483.506 90.2909C482.618 90.2909 481.87 89.9909 481.262 89.3909C480.662 88.7829 480.362 88.0429 480.362 87.1709C480.362 86.2989 480.662 85.5629 481.262 84.9629C481.87 84.3549 482.618 84.0509 483.506 84.0509C484.394 84.0509 485.138 84.3549 485.738 84.9629C486.346 85.5629 486.65 86.2989 486.65 87.1709C486.65 88.0429 486.346 88.7829 485.738 89.3909ZM483.506 89.0669C484.026 89.0669 484.454 88.8869 484.79 88.5269C485.134 88.1589 485.306 87.7069 485.306 87.1709C485.306 86.6349 485.134 86.1869 484.79 85.8269C484.454 85.4589 484.026 85.2749 483.506 85.2749C482.978 85.2749 482.542 85.4589 482.198 85.8269C481.862 86.1869 481.694 86.6349 481.694 87.1709C481.694 87.7069 481.862 88.1589 482.198 88.5269C482.542 88.8869 482.978 89.0669 483.506 89.0669ZM490.126 90.2909C489.438 90.2909 488.894 90.0629 488.494 89.6069C488.094 89.1429 487.894 88.5269 487.894 87.7589V84.1709H489.214V87.5429C489.214 88.0229 489.318 88.4029 489.526 88.6829C489.734 88.9549 490.03 89.0909 490.414 89.0909C490.862 89.0909 491.218 88.9229 491.482 88.5869C491.746 88.2429 491.878 87.7549 491.878 87.1229V84.1709H493.198V90.1709H491.878V89.3549C491.526 89.9789 490.942 90.2909 490.126 90.2909ZM494.974 90.1709V84.1709H496.294V85.2389C496.406 84.9029 496.61 84.6309 496.906 84.4229C497.21 84.2149 497.534 84.1109 497.878 84.1109C498.086 84.1109 498.258 84.1269 498.394 84.1589V85.5149C498.202 85.4429 497.982 85.4069 497.734 85.4069C497.334 85.4069 496.994 85.5709 496.714 85.8989C496.434 86.2189 496.294 86.6669 496.294 87.2429V90.1709H494.974ZM501.539 90.2909C500.827 90.2909 500.227 90.1149 499.739 89.7629C499.259 89.4109 499.003 88.9389 498.971 88.3469H500.339C500.435 88.9389 500.847 89.2349 501.575 89.2349C501.871 89.2349 502.107 89.1829 502.283 89.0789C502.459 88.9669 502.547 88.8069 502.547 88.5989C502.547 88.3909 502.479 88.2269 502.343 88.1069C502.207 87.9869 501.979 87.8869 501.659 87.8069L500.675 87.5429C499.651 87.2709 499.139 86.6669 499.139 85.7309C499.139 85.2269 499.343 84.8229 499.751 84.5189C500.159 84.2069 500.699 84.0509 501.371 84.0509C502.019 84.0509 502.551 84.2149 502.967 84.5429C503.383 84.8709 503.615 85.3069 503.663 85.8509H502.343C502.215 85.3549 501.887 85.1069 501.359 85.1069C501.095 85.1069 500.883 85.1629 500.723 85.2749C500.563 85.3789 500.483 85.5269 500.483 85.7189C500.483 86.0629 500.751 86.3029 501.287 86.4389L502.295 86.7029C503.359 86.9749 503.891 87.5789 503.891 88.5149C503.891 89.0829 503.671 89.5229 503.231 89.8349C502.799 90.1389 502.235 90.2909 501.539 90.2909Z" fill="#2E3A59"/>
<path d="M535.752 86.3999C535.752 89.6769 533.171 92.3214 530.002 92.3214C526.833 92.3214 524.252 89.6769 524.252 86.3999C524.252 83.1229 526.833 80.4785 530.002 80.4785C533.171 80.4785 535.752 83.1229 535.752 86.3999Z" fill="white" stroke="#E4E9F2" stroke-width="0.5"/>
<path d="M532.669 84.6592L529.003 88.1405L527.336 86.5581" stroke="#8F9BB3" stroke-width="0.75" stroke-linecap="round" stroke-linejoin="round"/>
<path d="M411.576 114.976C410.72 114.976 409.992 114.72 409.392 114.208C408.8 113.696 408.496 113.02 408.48 112.18H409.8C409.832 112.636 410.012 113 410.34 113.272C410.676 113.544 411.088 113.68 411.576 113.68C412.016 113.68 412.376 113.564 412.656 113.332C412.944 113.1 413.092 112.78 413.1 112.372C413.1 111.924 412.952 111.588 412.656 111.364C412.368 111.132 411.968 111.016 411.456 111.016H410.784V109.888H411.456C411.88 109.888 412.216 109.776 412.464 109.552C412.72 109.328 412.852 109.036 412.86 108.676C412.86 108.324 412.732 108.04 412.476 107.824C412.22 107.6 411.904 107.488 411.528 107.488C411.08 107.488 410.708 107.62 410.412 107.884C410.116 108.14 409.968 108.492 409.968 108.94H408.636C408.636 108.108 408.916 107.444 409.476 106.948C410.044 106.444 410.728 106.192 411.528 106.192C412.32 106.192 412.96 106.416 413.448 106.864C413.944 107.312 414.192 107.888 414.192 108.592C414.192 108.984 414.092 109.348 413.892 109.684C413.692 110.012 413.444 110.264 413.148 110.44C413.54 110.608 413.852 110.868 414.084 111.22C414.316 111.572 414.432 111.984 414.432 112.456C414.432 113.2 414.164 113.808 413.628 114.28C413.1 114.744 412.416 114.976 411.576 114.976ZM416.592 114.952C416.312 114.952 416.068 114.852 415.86 114.652C415.66 114.444 415.56 114.196 415.56 113.908C415.56 113.628 415.66 113.384 415.86 113.176C416.068 112.968 416.312 112.864 416.592 112.864C416.88 112.864 417.124 112.968 417.324 113.176C417.532 113.384 417.636 113.628 417.636 113.908C417.636 114.196 417.532 114.444 417.324 114.652C417.124 114.852 416.88 114.952 416.592 114.952ZM425.952 115C424.68 115 423.62 114.58 422.772 113.74C421.932 112.892 421.512 111.844 421.512 110.596C421.512 109.348 421.932 108.304 422.772 107.464C423.62 106.616 424.68 106.192 425.952 106.192C426.96 106.192 427.84 106.48 428.592 107.056C429.352 107.624 429.84 108.336 430.056 109.192H428.544C428.36 108.704 428.032 108.308 427.56 108.004C427.088 107.7 426.552 107.548 425.952 107.548C425.072 107.548 424.348 107.84 423.78 108.424C423.212 109.008 422.928 109.732 422.928 110.596C422.928 111.46 423.212 112.184 423.78 112.768C424.348 113.352 425.072 113.644 425.952 113.644C426.552 113.644 427.088 113.492 427.56 113.188C428.032 112.884 428.36 112.488 428.544 112H430.056C429.84 112.856 429.352 113.572 428.592 114.148C427.84 114.716 426.96 115 425.952 115ZM431.318 114.856V108.856H432.638V109.924C432.75 109.588 432.954 109.316 433.25 109.108C433.554 108.9 433.878 108.796 434.222 108.796C434.43 108.796 434.602 108.812 434.738 108.844V110.2C434.546 110.128 434.326 110.092 434.078 110.092C433.678 110.092 433.338 110.256 433.058 110.584C432.778 110.904 432.638 111.352 432.638 111.928V114.856H431.318ZM438.317 114.976C437.421 114.976 436.685 114.684 436.109 114.1C435.533 113.508 435.245 112.76 435.245 111.856C435.245 110.952 435.529 110.208 436.097 109.624C436.665 109.032 437.409 108.736 438.329 108.736C439.257 108.736 440.005 109.06 440.573 109.708C441.141 110.348 441.393 111.172 441.329 112.18H436.553C436.569 112.644 436.745 113.032 437.081 113.344C437.417 113.656 437.845 113.812 438.365 113.812C439.101 113.812 439.605 113.532 439.877 112.972H441.257C441.073 113.556 440.721 114.036 440.201 114.412C439.681 114.788 439.053 114.976 438.317 114.976ZM438.293 109.84C437.861 109.84 437.489 109.964 437.177 110.212C436.873 110.452 436.677 110.796 436.589 111.244H439.913C439.817 110.78 439.621 110.432 439.325 110.2C439.029 109.96 438.685 109.84 438.293 109.84ZM445.145 114.976C444.329 114.976 443.641 114.672 443.081 114.064C442.529 113.456 442.253 112.72 442.253 111.856C442.253 110.992 442.529 110.256 443.081 109.648C443.641 109.04 444.329 108.736 445.145 108.736C445.553 108.736 445.929 108.828 446.273 109.012C446.617 109.188 446.881 109.404 447.065 109.66V108.856H448.385V114.856H447.065V114.052C446.881 114.308 446.617 114.528 446.273 114.712C445.929 114.888 445.553 114.976 445.145 114.976ZM444.101 113.224C444.437 113.592 444.865 113.776 445.385 113.776C445.905 113.776 446.333 113.592 446.669 113.224C447.005 112.856 447.173 112.4 447.173 111.856C447.173 111.312 447.005 110.856 446.669 110.488C446.333 110.12 445.905 109.936 445.385 109.936C444.865 109.936 444.437 110.12 444.101 110.488C443.765 110.856 443.597 111.312 443.597 111.856C443.597 112.4 443.765 112.856 444.101 113.224ZM452.777 114.916C452.169 114.916 451.673 114.748 451.289 114.412C450.913 114.068 450.725 113.572 450.725 112.924V110.032H449.477V108.856H450.725V107.188H452.045V108.856H453.761V110.032H452.045V112.708C452.045 113.076 452.125 113.34 452.285 113.5C452.445 113.652 452.701 113.728 453.053 113.728C453.341 113.728 453.577 113.688 453.761 113.608V114.784C453.473 114.872 453.145 114.916 452.777 114.916ZM457.583 114.976C456.687 114.976 455.951 114.684 455.375 114.1C454.799 113.508 454.511 112.76 454.511 111.856C454.511 110.952 454.795 110.208 455.363 109.624C455.931 109.032 456.675 108.736 457.595 108.736C458.523 108.736 459.271 109.06 459.839 109.708C460.407 110.348 460.659 111.172 460.595 112.18H455.819C455.835 112.644 456.011 113.032 456.347 113.344C456.683 113.656 457.111 113.812 457.631 113.812C458.367 113.812 458.871 113.532 459.143 112.972H460.523C460.339 113.556 459.987 114.036 459.467 114.412C458.947 114.788 458.319 114.976 457.583 114.976ZM457.559 109.84C457.127 109.84 456.755 109.964 456.443 110.212C456.139 110.452 455.943 110.796 455.855 111.244H459.179C459.083 110.78 458.887 110.432 458.591 110.2C458.295 109.96 457.951 109.84 457.559 109.84ZM466.887 114.976C466.175 114.976 465.575 114.8 465.087 114.448C464.607 114.096 464.351 113.624 464.319 113.032H465.687C465.783 113.624 466.195 113.92 466.923 113.92C467.219 113.92 467.455 113.868 467.631 113.764C467.807 113.652 467.895 113.492 467.895 113.284C467.895 113.076 467.827 112.912 467.691 112.792C467.555 112.672 467.327 112.572 467.007 112.492L466.023 112.228C464.999 111.956 464.487 111.352 464.487 110.416C464.487 109.912 464.691 109.508 465.099 109.204C465.507 108.892 466.047 108.736 466.719 108.736C467.367 108.736 467.899 108.9 468.315 109.228C468.731 109.556 468.963 109.992 469.011 110.536H467.691C467.563 110.04 467.235 109.792 466.707 109.792C466.443 109.792 466.231 109.848 466.071 109.96C465.911 110.064 465.831 110.212 465.831 110.404C465.831 110.748 466.099 110.988 466.635 111.124L467.643 111.388C468.707 111.66 469.239 112.264 469.239 113.2C469.239 113.768 469.019 114.208 468.579 114.52C468.147 114.824 467.583 114.976 466.887 114.976ZM473.228 114.976C472.332 114.976 471.596 114.684 471.02 114.1C470.444 113.508 470.156 112.76 470.156 111.856C470.156 110.952 470.44 110.208 471.008 109.624C471.576 109.032 472.32 108.736 473.24 108.736C474.168 108.736 474.916 109.06 475.484 109.708C476.052 110.348 476.304 111.172 476.24 112.18H471.464C471.48 112.644 471.656 113.032 471.992 113.344C472.328 113.656 472.756 113.812 473.276 113.812C474.012 113.812 474.516 113.532 474.788 112.972H476.168C475.984 113.556 475.632 114.036 475.112 114.412C474.592 114.788 473.964 114.976 473.228 114.976ZM473.204 109.84C472.772 109.84 472.4 109.964 472.088 110.212C471.784 110.452 471.588 110.796 471.5 111.244H474.824C474.728 110.78 474.532 110.432 474.236 110.2C473.94 109.96 473.596 109.84 473.204 109.84ZM477.595 114.856V108.856H478.915V109.924C479.027 109.588 479.231 109.316 479.527 109.108C479.831 108.9 480.155 108.796 480.499 108.796C480.707 108.796 480.879 108.812 481.015 108.844V110.2C480.823 110.128 480.603 110.092 480.355 110.092C479.955 110.092 479.615 110.256 479.335 110.584C479.055 110.904 478.915 111.352 478.915 111.928V114.856H477.595ZM484.026 114.856L481.314 108.856H482.778L484.602 113.068L486.438 108.856H487.914L485.19 114.856H484.026ZM489.493 107.548C489.253 107.548 489.045 107.464 488.869 107.296C488.693 107.12 488.605 106.908 488.605 106.66C488.605 106.42 488.693 106.216 488.869 106.048C489.045 105.872 489.253 105.784 489.493 105.784C489.741 105.784 489.949 105.872 490.117 106.048C490.285 106.216 490.369 106.42 490.369 106.66C490.369 106.908 490.285 107.12 490.117 107.296C489.949 107.464 489.741 107.548 489.493 107.548ZM488.833 114.856V108.856H490.153V114.856H488.833ZM494.639 114.976C493.735 114.976 492.983 114.676 492.383 114.076C491.791 113.468 491.495 112.728 491.495 111.856C491.495 110.984 491.791 110.248 492.383 109.648C492.983 109.04 493.735 108.736 494.639 108.736C495.415 108.736 496.075 108.952 496.619 109.384C497.171 109.816 497.527 110.372 497.687 111.052H496.295C496.175 110.716 495.967 110.448 495.671 110.248C495.383 110.04 495.039 109.936 494.639 109.936C494.111 109.936 493.679 110.116 493.343 110.476C493.007 110.836 492.839 111.296 492.839 111.856C492.839 112.416 493.007 112.876 493.343 113.236C493.679 113.596 494.111 113.776 494.639 113.776C495.039 113.776 495.383 113.676 495.671 113.476C495.967 113.268 496.175 112.996 496.295 112.66H497.687C497.527 113.34 497.171 113.896 496.619 114.328C496.075 114.76 495.415 114.976 494.639 114.976ZM501.587 114.976C500.691 114.976 499.955 114.684 499.379 114.1C498.803 113.508 498.515 112.76 498.515 111.856C498.515 110.952 498.799 110.208 499.367 109.624C499.935 109.032 500.679 108.736 501.599 108.736C502.527 108.736 503.275 109.06 503.843 109.708C504.411 110.348 504.663 111.172 504.599 112.18H499.823C499.839 112.644 500.015 113.032 500.351 113.344C500.687 113.656 501.115 113.812 501.635 113.812C502.371 113.812 502.875 113.532 503.147 112.972H504.527C504.343 113.556 503.991 114.036 503.471 114.412C502.951 114.788 502.323 114.976 501.587 114.976ZM501.563 109.84C501.131 109.84 500.759 109.964 500.447 110.212C500.143 110.452 499.947 110.796 499.859 111.244H503.183C503.087 110.78 502.891 110.432 502.595 110.2C502.299 109.96 501.955 109.84 501.563 109.84Z" fill="#2E3A59"/>
<path d="M535.752 111.085C535.752 114.362 533.171 117.007 530.002 117.007C526.833 117.007 524.252 114.362 524.252 111.085C524.252 107.808 526.833 105.164 530.002 105.164C533.171 105.164 535.752 107.808 535.752 111.085Z" fill="white" stroke="#E4E9F2" stroke-width="0.5"/>
<path d="M532.669 109.345L529.003 112.826L527.336 111.244" stroke="#8F9BB3" stroke-width="0.75" stroke-linecap="round" stroke-linejoin="round"/>
</svg>
