<svg width="343" height="682" viewBox="0 0 343 682" fill="none" xmlns="http://www.w3.org/2000/svg">
<path d="M25.2945 7.90909V21H22.923V7.90909H25.2945ZM30.0741 15.2472V21H27.7602V11.1818H29.9719V12.8501H30.0869C30.3128 12.3004 30.6729 11.8636 31.1672 11.5398C31.6657 11.2159 32.2815 11.054 33.0145 11.054C33.692 11.054 34.2822 11.1989 34.7851 11.4886C35.2922 11.7784 35.6842 12.1982 35.9612 12.7479C36.2425 13.2976 36.3809 13.9645 36.3767 14.7486V21H34.0628V15.1065C34.0628 14.4503 33.8923 13.9368 33.5514 13.5661C33.2148 13.1953 32.7481 13.0099 32.1515 13.0099C31.7467 13.0099 31.3866 13.0994 31.0713 13.2784C30.7602 13.4531 30.5152 13.7067 30.3362 14.0391C30.1615 14.3714 30.0741 14.7741 30.0741 15.2472ZM46.4889 13.777L44.3795 14.0071C44.3199 13.794 44.2155 13.5938 44.0663 13.4062C43.9214 13.2188 43.7254 13.0675 43.4782 12.9524C43.2311 12.8374 42.9285 12.7798 42.5706 12.7798C42.089 12.7798 41.6842 12.8842 41.3561 13.093C41.0322 13.3018 40.8724 13.5724 40.8767 13.9048C40.8724 14.1903 40.9768 14.4226 41.1899 14.6016C41.4072 14.7805 41.7652 14.9276 42.2638 15.0426L43.9385 15.4006C44.8675 15.6009 45.5578 15.9183 46.0095 16.353C46.4655 16.7876 46.6956 17.3565 46.6998 18.0597C46.6956 18.6776 46.5145 19.223 46.1565 19.696C45.8028 20.1648 45.3106 20.5312 44.68 20.7955C44.0493 21.0597 43.3248 21.1918 42.5067 21.1918C41.305 21.1918 40.3376 20.9403 39.6047 20.4375C38.8717 19.9304 38.4349 19.2251 38.2943 18.3217L40.5507 18.1044C40.653 18.5476 40.8703 18.8821 41.2027 19.108C41.5351 19.3338 41.9676 19.4467 42.5003 19.4467C43.05 19.4467 43.491 19.3338 43.8234 19.108C44.1601 18.8821 44.3284 18.603 44.3284 18.2706C44.3284 17.9893 44.2197 17.7571 44.0024 17.5739C43.7893 17.3906 43.4569 17.25 43.0052 17.152L41.3305 16.8004C40.3888 16.6044 39.692 16.2741 39.2403 15.8097C38.7886 15.3409 38.5649 14.7486 38.5692 14.0327C38.5649 13.4276 38.729 12.9034 39.0613 12.4602C39.398 12.0128 39.8646 11.6676 40.4612 11.4247C41.0621 11.1776 41.7545 11.054 42.5386 11.054C43.6892 11.054 44.5947 11.299 45.2552 11.7891C45.92 12.2791 46.3312 12.9418 46.4889 13.777ZM53.5106 11.1818V12.9716H47.8664V11.1818H53.5106ZM49.2599 8.82955H51.5738V18.0469C51.5738 18.358 51.6207 18.5966 51.7144 18.7628C51.8124 18.9247 51.9403 19.0355 52.0979 19.0952C52.2556 19.1548 52.4303 19.1847 52.6221 19.1847C52.767 19.1847 52.8991 19.174 53.0184 19.1527C53.142 19.1314 53.2357 19.1122 53.2996 19.0952L53.6895 20.9041C53.566 20.9467 53.3891 20.9936 53.159 21.0447C52.9332 21.0959 52.6562 21.1257 52.328 21.1342C51.7485 21.1513 51.2265 21.0639 50.762 20.8722C50.2975 20.6761 49.9289 20.3736 49.6562 19.9645C49.3877 19.5554 49.2556 19.044 49.2599 18.4304V8.82955ZM58.271 21.1982C57.6489 21.1982 57.0885 21.0874 56.5899 20.8658C56.0956 20.6399 55.7036 20.3075 55.4138 19.8686C55.1283 19.4297 54.9855 18.8885 54.9855 18.245C54.9855 17.6911 55.0878 17.233 55.2923 16.8707C55.4969 16.5085 55.776 16.2188 56.1297 16.0014C56.4834 15.7841 56.8818 15.62 57.325 15.5092C57.7725 15.3942 58.2348 15.3111 58.7121 15.2599C59.2874 15.2003 59.754 15.147 60.1119 15.1001C60.4699 15.049 60.7298 14.9723 60.8918 14.87C61.058 14.7635 61.1411 14.5994 61.1411 14.3778V14.3395C61.1411 13.858 60.9983 13.4851 60.7128 13.2209C60.4273 12.9567 60.0161 12.8246 59.4791 12.8246C58.9124 12.8246 58.4628 12.9482 58.1304 13.1953C57.8023 13.4425 57.5807 13.7344 57.4656 14.071L55.3051 13.7642C55.4756 13.1676 55.7568 12.669 56.1489 12.2685C56.5409 11.8636 57.0203 11.5611 57.5871 11.3608C58.1539 11.1562 58.7803 11.054 59.4664 11.054C59.9394 11.054 60.4102 11.1094 60.879 11.2202C61.3477 11.331 61.776 11.5142 62.1638 11.7699C62.5516 12.0213 62.8627 12.3643 63.097 12.799C63.3357 13.2337 63.455 13.777 63.455 14.429V21H61.2306V19.6513H61.1539C61.0132 19.924 60.8151 20.1797 60.5594 20.4183C60.308 20.6527 59.9905 20.8423 59.607 20.9872C59.2277 21.1278 58.7824 21.1982 58.271 21.1982ZM58.8719 19.4979C59.3364 19.4979 59.7391 19.4062 60.08 19.223C60.4209 19.0355 60.683 18.7884 60.8662 18.4815C61.0537 18.1747 61.1475 17.8402 61.1475 17.478V16.321C61.075 16.3807 60.9514 16.4361 60.7767 16.4872C60.6063 16.5384 60.4145 16.5831 60.2014 16.6214C59.9884 16.6598 59.7774 16.6939 59.5686 16.7237C59.3598 16.7536 59.1787 16.7791 59.0253 16.8004C58.6801 16.8473 58.3712 16.924 58.0985 17.0305C57.8257 17.1371 57.6105 17.2862 57.4529 17.478C57.2952 17.6655 57.2164 17.9084 57.2164 18.2067C57.2164 18.6328 57.3719 18.9545 57.683 19.1719C57.9941 19.3892 58.3904 19.4979 58.8719 19.4979ZM68.0956 7.90909V21H65.7817V7.90909H68.0956ZM72.789 7.90909V21H70.4751V7.90909H72.789ZM79.7355 21V7.90909H84.7469C85.6929 7.90909 86.4791 8.05824 87.1056 8.35653C87.7362 8.65057 88.2071 9.05327 88.5182 9.56463C88.8335 10.076 88.9912 10.6555 88.9912 11.3033C88.9912 11.8359 88.8889 12.2919 88.6844 12.6712C88.4798 13.0462 88.205 13.3509 87.8598 13.5852C87.5146 13.8196 87.129 13.9879 86.7029 14.0902V14.218C87.1673 14.2436 87.6127 14.3864 88.0388 14.6463C88.4692 14.902 88.8208 15.2642 89.0935 15.733C89.3662 16.2017 89.5026 16.7685 89.5026 17.4332C89.5026 18.1108 89.3385 18.7202 89.0104 19.2614C88.6823 19.7983 88.1879 20.2223 87.5274 20.5334C86.8669 20.8445 86.036 21 85.0345 21H79.7355ZM82.107 19.0185H84.6574C85.5182 19.0185 86.1382 18.8544 86.5175 18.5263C86.901 18.1939 87.0928 17.7678 87.0928 17.2479C87.0928 16.8601 86.9969 16.5107 86.8051 16.1996C86.6134 15.8842 86.3406 15.6371 85.9869 15.4581C85.6333 15.2749 85.2114 15.1832 84.7213 15.1832H82.107V19.0185ZM82.107 13.4766H84.4529C84.8619 13.4766 85.2306 13.402 85.5587 13.2528C85.8868 13.0994 86.1446 12.8842 86.3321 12.6072C86.5239 12.326 86.6198 11.9936 86.6198 11.6101C86.6198 11.103 86.4408 10.6854 86.0828 10.3572C85.7291 10.0291 85.2029 9.86506 84.504 9.86506H82.107V13.4766ZM95.746 21.1918C94.7872 21.1918 93.9562 20.9808 93.2531 20.5589C92.55 20.1371 92.0045 19.5469 91.6167 18.7884C91.2332 18.0298 91.0415 17.1435 91.0415 16.1293C91.0415 15.1151 91.2332 14.2266 91.6167 13.4638C92.0045 12.701 92.55 12.1087 93.2531 11.6868C93.9562 11.2649 94.7872 11.054 95.746 11.054C96.7048 11.054 97.5358 11.2649 98.2389 11.6868C98.942 12.1087 99.4854 12.701 99.8689 13.4638C100.257 14.2266 100.451 15.1151 100.451 16.1293C100.451 17.1435 100.257 18.0298 99.8689 18.7884C99.4854 19.5469 98.942 20.1371 98.2389 20.5589C97.5358 20.9808 96.7048 21.1918 95.746 21.1918ZM95.7588 19.3381C96.2787 19.3381 96.7133 19.1953 97.0628 18.9098C97.4122 18.62 97.6721 18.2322 97.8426 17.7464C98.0173 17.2607 98.1047 16.7195 98.1047 16.1229C98.1047 15.522 98.0173 14.9787 97.8426 14.4929C97.6721 14.0028 97.4122 13.6129 97.0628 13.3232C96.7133 13.0334 96.2787 12.8885 95.7588 12.8885C95.2261 12.8885 94.7829 13.0334 94.4292 13.3232C94.0798 13.6129 93.8177 14.0028 93.643 14.4929C93.4726 14.9787 93.3873 15.522 93.3873 16.1229C93.3873 16.7195 93.4726 17.2607 93.643 17.7464C93.8177 18.2322 94.0798 18.62 94.4292 18.9098C94.7829 19.1953 95.2261 19.3381 95.7588 19.3381ZM106.697 21.1918C105.738 21.1918 104.907 20.9808 104.204 20.5589C103.501 20.1371 102.956 19.5469 102.568 18.7884C102.184 18.0298 101.993 17.1435 101.993 16.1293C101.993 15.1151 102.184 14.2266 102.568 13.4638C102.956 12.701 103.501 12.1087 104.204 11.6868C104.907 11.2649 105.738 11.054 106.697 11.054C107.656 11.054 108.487 11.2649 109.19 11.6868C109.893 12.1087 110.437 12.701 110.82 13.4638C111.208 14.2266 111.402 15.1151 111.402 16.1293C111.402 17.1435 111.208 18.0298 110.82 18.7884C110.437 19.5469 109.893 20.1371 109.19 20.5589C108.487 20.9808 107.656 21.1918 106.697 21.1918ZM106.71 19.3381C107.23 19.3381 107.665 19.1953 108.014 18.9098C108.363 18.62 108.623 18.2322 108.794 17.7464C108.968 17.2607 109.056 16.7195 109.056 16.1229C109.056 15.522 108.968 14.9787 108.794 14.4929C108.623 14.0028 108.363 13.6129 108.014 13.3232C107.665 13.0334 107.23 12.8885 106.71 12.8885C106.177 12.8885 105.734 13.0334 105.38 13.3232C105.031 13.6129 104.769 14.0028 104.594 14.4929C104.424 14.9787 104.339 15.522 104.339 16.1229C104.339 16.7195 104.424 17.2607 104.594 17.7464C104.769 18.2322 105.031 18.62 105.38 18.9098C105.734 19.1953 106.177 19.3381 106.71 19.3381ZM115.475 17.919L115.469 15.1257H115.839L119.368 11.1818H122.072L117.731 16.0142H117.252L115.475 17.919ZM113.366 21V7.90909H115.68V21H113.366ZM119.528 21L116.332 16.532L117.891 14.902L122.295 21H119.528ZM125.928 15.2472V21H123.614V11.1818H125.825V12.8501H125.94C126.166 12.3004 126.526 11.8636 127.021 11.5398C127.519 11.2159 128.135 11.054 128.868 11.054C129.546 11.054 130.136 11.1989 130.639 11.4886C131.146 11.7784 131.538 12.1982 131.815 12.7479C132.096 13.2976 132.234 13.9645 132.23 14.7486V21H129.916V15.1065C129.916 14.4503 129.746 13.9368 129.405 13.5661C129.068 13.1953 128.602 13.0099 128.005 13.0099C127.6 13.0099 127.24 13.0994 126.925 13.2784C126.614 13.4531 126.369 13.7067 126.19 14.0391C126.015 14.3714 125.928 14.7741 125.928 15.2472ZM138.929 21.1918C137.945 21.1918 137.095 20.9872 136.379 20.5781C135.667 20.1648 135.119 19.581 134.736 18.8267C134.352 18.0682 134.161 17.1754 134.161 16.1484C134.161 15.1385 134.352 14.2521 134.736 13.4893C135.124 12.7223 135.665 12.1257 136.359 11.6996C137.054 11.2692 137.87 11.054 138.808 11.054C139.413 11.054 139.984 11.152 140.521 11.348C141.062 11.5398 141.539 11.8381 141.953 12.2429C142.37 12.6477 142.698 13.1634 142.937 13.7898C143.176 14.4119 143.295 15.1534 143.295 16.0142V16.7237H135.247V15.1641H141.077C141.073 14.7209 140.977 14.3267 140.789 13.9815C140.602 13.6321 140.34 13.3572 140.003 13.157C139.671 12.9567 139.283 12.8565 138.84 12.8565C138.367 12.8565 137.951 12.9716 137.593 13.2017C137.235 13.4276 136.956 13.7259 136.756 14.0966C136.56 14.4631 136.46 14.8658 136.455 15.3047V16.6662C136.455 17.2372 136.56 17.7273 136.769 18.1364C136.977 18.5412 137.269 18.8523 137.644 19.0696C138.019 19.2827 138.458 19.3892 138.961 19.3892C139.298 19.3892 139.602 19.3423 139.875 19.2486C140.148 19.1506 140.384 19.0078 140.585 18.8203C140.785 18.6328 140.936 18.4006 141.038 18.1236L143.199 18.3665C143.063 18.9375 142.803 19.4361 142.419 19.8622C142.04 20.2841 141.554 20.6122 140.962 20.8466C140.369 21.0767 139.692 21.1918 138.929 21.1918ZM150.155 11.1818V12.9716H144.511V11.1818H150.155ZM145.904 8.82955H148.218V18.0469C148.218 18.358 148.265 18.5966 148.359 18.7628C148.457 18.9247 148.585 19.0355 148.742 19.0952C148.9 19.1548 149.075 19.1847 149.267 19.1847C149.411 19.1847 149.544 19.174 149.663 19.1527C149.786 19.1314 149.88 19.1122 149.944 19.0952L150.334 20.9041C150.21 20.9467 150.034 20.9936 149.804 21.0447C149.578 21.0959 149.301 21.1257 148.973 21.1342C148.393 21.1513 147.871 21.0639 147.407 20.8722C146.942 20.6761 146.573 20.3736 146.301 19.9645C146.032 19.5554 145.9 19.044 145.904 18.4304V8.82955ZM152.09 21V11.1818H154.404V21H152.09ZM153.254 9.78835C152.887 9.78835 152.572 9.6669 152.308 9.42401C152.043 9.17685 151.911 8.88068 151.911 8.53551C151.911 8.18608 152.043 7.88991 152.308 7.64702C152.572 7.39986 152.887 7.27628 153.254 7.27628C153.624 7.27628 153.94 7.39986 154.2 7.64702C154.464 7.88991 154.596 8.18608 154.596 8.53551C154.596 8.88068 154.464 9.17685 154.2 9.42401C153.94 9.6669 153.624 9.78835 153.254 9.78835ZM161.066 21.1918C160.086 21.1918 159.245 20.9766 158.541 20.5462C157.843 20.1158 157.304 19.5213 156.924 18.7628C156.549 18 156.362 17.1222 156.362 16.1293C156.362 15.1321 156.554 14.2521 156.937 13.4893C157.321 12.7223 157.862 12.1257 158.561 11.6996C159.264 11.2692 160.095 11.054 161.054 11.054C161.85 11.054 162.556 11.201 163.169 11.495C163.787 11.7848 164.279 12.196 164.646 12.7287C165.012 13.2571 165.221 13.875 165.272 14.5824H163.061C162.971 14.1094 162.758 13.7152 162.421 13.3999C162.089 13.0803 161.644 12.9205 161.085 12.9205C160.612 12.9205 160.197 13.0483 159.839 13.304C159.481 13.5554 159.202 13.9176 159.002 14.3906C158.806 14.8636 158.708 15.4304 158.708 16.0909C158.708 16.7599 158.806 17.3352 159.002 17.8168C159.198 18.294 159.473 18.6626 159.826 18.9226C160.184 19.1783 160.604 19.3061 161.085 19.3061C161.426 19.3061 161.731 19.2422 162 19.1143C162.272 18.9822 162.5 18.7926 162.684 18.5455C162.867 18.2983 162.992 17.9979 163.061 17.6442H165.272C165.217 18.3388 165.012 18.9545 164.659 19.4915C164.305 20.0241 163.823 20.4418 163.214 20.7443C162.605 21.0426 161.889 21.1918 161.066 21.1918ZM175.92 21.1918C174.961 21.1918 174.13 20.9808 173.427 20.5589C172.724 20.1371 172.178 19.5469 171.791 18.7884C171.407 18.0298 171.215 17.1435 171.215 16.1293C171.215 15.1151 171.407 14.2266 171.791 13.4638C172.178 12.701 172.724 12.1087 173.427 11.6868C174.13 11.2649 174.961 11.054 175.92 11.054C176.879 11.054 177.71 11.2649 178.413 11.6868C179.116 12.1087 179.659 12.701 180.043 13.4638C180.43 14.2266 180.624 15.1151 180.624 16.1293C180.624 17.1435 180.43 18.0298 180.043 18.7884C179.659 19.5469 179.116 20.1371 178.413 20.5589C177.71 20.9808 176.879 21.1918 175.92 21.1918ZM175.933 19.3381C176.453 19.3381 176.887 19.1953 177.237 18.9098C177.586 18.62 177.846 18.2322 178.016 17.7464C178.191 17.2607 178.278 16.7195 178.278 16.1229C178.278 15.522 178.191 14.9787 178.016 14.4929C177.846 14.0028 177.586 13.6129 177.237 13.3232C176.887 13.0334 176.453 12.8885 175.933 12.8885C175.4 12.8885 174.957 13.0334 174.603 13.3232C174.254 13.6129 173.992 14.0028 173.817 14.4929C173.646 14.9787 173.561 15.522 173.561 16.1229C173.561 16.7195 173.646 17.2607 173.817 17.7464C173.992 18.2322 174.254 18.62 174.603 18.9098C174.957 19.1953 175.4 19.3381 175.933 19.3381ZM184.902 15.2472V21H182.588V11.1818H184.8V12.8501H184.915C185.141 12.3004 185.501 11.8636 185.995 11.5398C186.494 11.2159 187.11 11.054 187.843 11.054C188.52 11.054 189.11 11.1989 189.613 11.4886C190.12 11.7784 190.512 12.1982 190.789 12.7479C191.071 13.2976 191.209 13.9645 191.205 14.7486V21H188.891V15.1065C188.891 14.4503 188.72 13.9368 188.38 13.5661C188.043 13.1953 187.576 13.0099 186.98 13.0099C186.575 13.0099 186.215 13.0994 185.899 13.2784C185.588 13.4531 185.343 13.7067 185.164 14.0391C184.99 14.3714 184.902 14.7741 184.902 15.2472ZM63.6028 49L59.9082 35.9091H62.4586L64.8173 45.5291H64.9387L67.4572 35.9091H69.7775L72.3024 45.5355H72.4174L74.7761 35.9091H77.3265L73.6319 49H71.2924L68.6717 39.8146H68.5694L65.9423 49H63.6028ZM82.1493 49.1918C81.1905 49.1918 80.3596 48.9808 79.6564 48.5589C78.9533 48.1371 78.4078 47.5469 78.0201 46.7884C77.6365 46.0298 77.4448 45.1435 77.4448 44.1293C77.4448 43.1151 77.6365 42.2266 78.0201 41.4638C78.4078 40.701 78.9533 40.1087 79.6564 39.6868C80.3596 39.2649 81.1905 39.054 82.1493 39.054C83.1081 39.054 83.9391 39.2649 84.6422 39.6868C85.3453 40.1087 85.8887 40.701 86.2722 41.4638C86.66 42.2266 86.8539 43.1151 86.8539 44.1293C86.8539 45.1435 86.66 46.0298 86.2722 46.7884C85.8887 47.5469 85.3453 48.1371 84.6422 48.5589C83.9391 48.9808 83.1081 49.1918 82.1493 49.1918ZM82.1621 47.3381C82.682 47.3381 83.1167 47.1953 83.4661 46.9098C83.8155 46.62 84.0755 46.2322 84.2459 45.7464C84.4206 45.2607 84.508 44.7195 84.508 44.1229C84.508 43.522 84.4206 42.9787 84.2459 42.4929C84.0755 42.0028 83.8155 41.6129 83.4661 41.3232C83.1167 41.0334 82.682 40.8885 82.1621 40.8885C81.6294 40.8885 81.1863 41.0334 80.8326 41.3232C80.4831 41.6129 80.2211 42.0028 80.0463 42.4929C79.8759 42.9787 79.7907 43.522 79.7907 44.1229C79.7907 44.7195 79.8759 45.2607 80.0463 45.7464C80.2211 46.2322 80.4831 46.62 80.8326 46.9098C81.1863 47.1953 81.6294 47.3381 82.1621 47.3381ZM88.8178 49V39.1818H91.0614V40.8182H91.1637C91.3427 40.2514 91.6495 39.8146 92.0842 39.5078C92.5231 39.1967 93.0238 39.0412 93.5863 39.0412C93.7141 39.0412 93.8569 39.0476 94.0146 39.0604C94.1765 39.0689 94.3107 39.0838 94.4173 39.1051V41.2337C94.3192 41.1996 94.1637 41.1697 93.9506 41.1442C93.7418 41.1143 93.5394 41.0994 93.3434 41.0994C92.9215 41.0994 92.5423 41.1911 92.2056 41.3743C91.8732 41.5533 91.6112 41.8026 91.4194 42.1222C91.2276 42.4418 91.1317 42.8104 91.1317 43.228V49H88.8178ZM99.1937 49.1726C98.4224 49.1726 97.7321 48.9744 97.1227 48.5781C96.5133 48.1818 96.0318 47.6065 95.6781 46.8523C95.3244 46.098 95.1475 45.1818 95.1475 44.1037C95.1475 43.0128 95.3265 42.0923 95.6845 41.3423C96.0467 40.5881 96.5346 40.0192 97.1483 39.6357C97.7619 39.2479 98.4458 39.054 99.2001 39.054C99.7754 39.054 100.248 39.152 100.619 39.348C100.99 39.5398 101.284 39.772 101.501 40.0447C101.719 40.3132 101.887 40.5668 102.006 40.8054H102.102V35.9091H104.422V49H102.147V47.4531H102.006C101.887 47.6918 101.714 47.9453 101.488 48.2138C101.263 48.478 100.964 48.7038 100.594 48.8913C100.223 49.0788 99.7562 49.1726 99.1937 49.1726ZM99.8393 47.2741C100.329 47.2741 100.747 47.142 101.092 46.8778C101.437 46.6094 101.699 46.2365 101.878 45.7592C102.057 45.282 102.147 44.7259 102.147 44.0909C102.147 43.456 102.057 42.9041 101.878 42.4354C101.704 41.9666 101.444 41.6023 101.099 41.3423C100.758 41.0824 100.338 40.9524 99.8393 40.9524C99.3237 40.9524 98.8933 41.0866 98.5481 41.3551C98.2029 41.6236 97.943 41.9943 97.7683 42.4673C97.5936 42.9403 97.5062 43.4815 97.5062 44.0909C97.5062 44.7045 97.5936 45.2521 97.7683 45.7337C97.9473 46.2109 98.2093 46.5881 98.5545 46.8651C98.9039 47.1378 99.3322 47.2741 99.8393 47.2741ZM106.99 49V35.9091H111.9C112.905 35.9091 113.749 36.0966 114.431 36.4716C115.117 36.8466 115.635 37.3622 115.984 38.0185C116.338 38.6705 116.515 39.4119 116.515 40.2429C116.515 41.0824 116.338 41.8281 115.984 42.4801C115.63 43.1321 115.108 43.6456 114.418 44.0206C113.728 44.3913 112.877 44.5767 111.868 44.5767H108.614V42.6271H111.548C112.136 42.6271 112.618 42.5249 112.993 42.3203C113.368 42.1158 113.645 41.8345 113.824 41.4766C114.007 41.1186 114.098 40.7074 114.098 40.2429C114.098 39.7784 114.007 39.3693 113.824 39.0156C113.645 38.6619 113.365 38.3871 112.986 38.1911C112.611 37.9908 112.127 37.8906 111.535 37.8906H109.362V49H106.99ZM118.472 49V39.1818H120.716V40.8182H120.818C120.997 40.2514 121.304 39.8146 121.738 39.5078C122.177 39.1967 122.678 39.0412 123.241 39.0412C123.368 39.0412 123.511 39.0476 123.669 39.0604C123.831 39.0689 123.965 39.0838 124.072 39.1051V41.2337C123.974 41.1996 123.818 41.1697 123.605 41.1442C123.396 41.1143 123.194 41.0994 122.998 41.0994C122.576 41.0994 122.197 41.1911 121.86 41.3743C121.528 41.5533 121.265 41.8026 121.074 42.1222C120.882 42.4418 120.786 42.8104 120.786 43.228V49H118.472ZM129.551 49.1918C128.567 49.1918 127.717 48.9872 127.001 48.5781C126.289 48.1648 125.741 47.581 125.358 46.8267C124.974 46.0682 124.783 45.1754 124.783 44.1484C124.783 43.1385 124.974 42.2521 125.358 41.4893C125.746 40.7223 126.287 40.1257 126.982 39.6996C127.676 39.2692 128.492 39.054 129.43 39.054C130.035 39.054 130.606 39.152 131.143 39.348C131.684 39.5398 132.161 39.8381 132.575 40.2429C132.992 40.6477 133.32 41.1634 133.559 41.7898C133.798 42.4119 133.917 43.1534 133.917 44.0142V44.7237H125.869V43.1641H131.699C131.695 42.7209 131.599 42.3267 131.411 41.9815C131.224 41.6321 130.962 41.3572 130.625 41.157C130.293 40.9567 129.905 40.8565 129.462 40.8565C128.989 40.8565 128.573 40.9716 128.215 41.2017C127.857 41.4276 127.578 41.7259 127.378 42.0966C127.182 42.4631 127.082 42.8658 127.077 43.3047V44.6662C127.077 45.2372 127.182 45.7273 127.391 46.1364C127.599 46.5412 127.891 46.8523 128.266 47.0696C128.641 47.2827 129.08 47.3892 129.583 47.3892C129.92 47.3892 130.224 47.3423 130.497 47.2486C130.77 47.1506 131.006 47.0078 131.207 46.8203C131.407 46.6328 131.558 46.4006 131.661 46.1236L133.821 46.3665C133.685 46.9375 133.425 47.4361 133.041 47.8622C132.662 48.2841 132.176 48.6122 131.584 48.8466C130.991 49.0767 130.314 49.1918 129.551 49.1918ZM143.634 41.777L141.525 42.0071C141.465 41.794 141.361 41.5938 141.212 41.4062C141.067 41.2188 140.871 41.0675 140.624 40.9524C140.377 40.8374 140.074 40.7798 139.716 40.7798C139.235 40.7798 138.83 40.8842 138.502 41.093C138.178 41.3018 138.018 41.5724 138.022 41.9048C138.018 42.1903 138.122 42.4226 138.335 42.6016C138.553 42.7805 138.911 42.9276 139.409 43.0426L141.084 43.4006C142.013 43.6009 142.703 43.9183 143.155 44.353C143.611 44.7876 143.841 45.3565 143.845 46.0597C143.841 46.6776 143.66 47.223 143.302 47.696C142.948 48.1648 142.456 48.5312 141.825 48.7955C141.195 49.0597 140.47 49.1918 139.652 49.1918C138.45 49.1918 137.483 48.9403 136.75 48.4375C136.017 47.9304 135.58 47.2251 135.44 46.3217L137.696 46.1044C137.798 46.5476 138.016 46.8821 138.348 47.108C138.681 47.3338 139.113 47.4467 139.646 47.4467C140.195 47.4467 140.637 47.3338 140.969 47.108C141.306 46.8821 141.474 46.603 141.474 46.2706C141.474 45.9893 141.365 45.7571 141.148 45.5739C140.935 45.3906 140.602 45.25 140.151 45.152L138.476 44.8004C137.534 44.6044 136.838 44.2741 136.386 43.8097C135.934 43.3409 135.71 42.7486 135.715 42.0327C135.71 41.4276 135.874 40.9034 136.207 40.4602C136.544 40.0128 137.01 39.6676 137.607 39.4247C138.208 39.1776 138.9 39.054 139.684 39.054C140.835 39.054 141.74 39.299 142.401 39.7891C143.066 40.2791 143.477 40.9418 143.634 41.777ZM153.513 41.777L151.404 42.0071C151.344 41.794 151.24 41.5938 151.091 41.4062C150.946 41.2188 150.75 41.0675 150.503 40.9524C150.256 40.8374 149.953 40.7798 149.595 40.7798C149.113 40.7798 148.709 40.8842 148.381 41.093C148.057 41.3018 147.897 41.5724 147.901 41.9048C147.897 42.1903 148.001 42.4226 148.214 42.6016C148.432 42.7805 148.79 42.9276 149.288 43.0426L150.963 43.4006C151.892 43.6009 152.582 43.9183 153.034 44.353C153.49 44.7876 153.72 45.3565 153.724 46.0597C153.72 46.6776 153.539 47.223 153.181 47.696C152.827 48.1648 152.335 48.5312 151.704 48.7955C151.074 49.0597 150.349 49.1918 149.531 49.1918C148.329 49.1918 147.362 48.9403 146.629 48.4375C145.896 47.9304 145.459 47.2251 145.319 46.3217L147.575 46.1044C147.677 46.5476 147.895 46.8821 148.227 47.108C148.559 47.3338 148.992 47.4467 149.525 47.4467C150.074 47.4467 150.515 47.3338 150.848 47.108C151.184 46.8821 151.353 46.603 151.353 46.2706C151.353 45.9893 151.244 45.7571 151.027 45.5739C150.814 45.3906 150.481 45.25 150.03 45.152L148.355 44.8004C147.413 44.6044 146.716 44.2741 146.265 43.8097C145.813 43.3409 145.589 42.7486 145.594 42.0327C145.589 41.4276 145.753 40.9034 146.086 40.4602C146.422 40.0128 146.889 39.6676 147.486 39.4247C148.086 39.1776 148.779 39.054 149.563 39.054C150.714 39.054 151.619 39.299 152.28 39.7891C152.944 40.2791 153.356 40.9418 153.513 41.777Z" fill="#2E3A59"/>
<rect x="14.9922" y="76" width="184" height="90.1225" rx="7.99999" fill="white"/>
<rect x="75.2557" y="96.9229" width="64" height="3.08571" rx="1.54285" fill="#D0D5DD"/>
<rect x="85.2559" y="119.549" width="44" height="3.08571" rx="1.54285" fill="#D0D5DD"/>
<rect x="73.2559" y="130.866" width="69" height="3.08571" rx="1.54285" fill="#D0D5DD"/>
<rect x="58.2539" y="108.235" width="98" height="3.08571" rx="1.54285" fill="#D0D5DD"/>
<rect x="48.2539" y="142.179" width="118" height="3.08571" rx="1.54285" fill="#D0D5DD"/>
<rect x="14.9922" y="172.56" width="184" height="45.0612" rx="7.99999" fill="#6D2FFD"/>
<rect x="71.8555" y="180.604" width="70.8105" height="28.9679" rx="6" fill="white"/>
<path d="M83.0134 199.68V189.015H84.7708V199.68H83.0134ZM87.1013 199.68V192.169H88.7536V193.191C89.2242 192.41 89.9853 192.019 91.0367 192.019C91.9079 192.019 92.6038 192.305 93.1245 192.875C93.6452 193.446 93.9056 194.207 93.9056 195.159V199.68H92.2533V195.429C92.2533 194.828 92.1132 194.362 91.8328 194.032C91.5524 193.692 91.1719 193.521 90.6912 193.521C90.1204 193.521 89.6548 193.737 89.2943 194.167C88.9338 194.598 88.7536 195.204 88.7536 195.985V199.68H87.1013ZM98.6633 199.83C97.7721 199.83 97.0211 199.61 96.4102 199.169C95.8094 198.728 95.489 198.138 95.4489 197.397H97.1613C97.2814 198.138 97.7971 198.508 98.7084 198.508C99.0789 198.508 99.3743 198.443 99.5946 198.313C99.8149 198.173 99.925 197.972 99.925 197.712C99.925 197.452 99.8399 197.246 99.6697 197.096C99.4994 196.946 99.2141 196.821 98.8135 196.721L97.5818 196.39C96.3001 196.05 95.6592 195.294 95.6592 194.122C95.6592 193.491 95.9146 192.986 96.4253 192.605C96.936 192.215 97.6119 192.019 98.453 192.019C99.2641 192.019 99.93 192.225 100.451 192.635C100.971 193.046 101.262 193.591 101.322 194.272H99.6697C99.5095 193.651 99.0989 193.341 98.438 193.341C98.1076 193.341 97.8422 193.411 97.6419 193.551C97.4416 193.682 97.3415 193.867 97.3415 194.107C97.3415 194.538 97.677 194.838 98.3479 195.008L99.6096 195.339C100.941 195.679 101.607 196.435 101.607 197.607C101.607 198.318 101.332 198.869 100.781 199.259C100.24 199.64 99.5345 199.83 98.6633 199.83ZM106.393 199.755C105.632 199.755 105.011 199.545 104.531 199.124C104.06 198.693 103.825 198.073 103.825 197.261V193.641H102.263V192.169H103.825V190.082H105.477V192.169H107.625V193.641H105.477V196.991C105.477 197.452 105.577 197.782 105.777 197.982C105.978 198.173 106.298 198.268 106.739 198.268C107.099 198.268 107.395 198.218 107.625 198.118V199.59C107.264 199.7 106.854 199.755 106.393 199.755ZM112.168 199.83C111.147 199.83 110.286 199.449 109.585 198.688C108.894 197.927 108.548 197.006 108.548 195.925C108.548 194.843 108.894 193.922 109.585 193.161C110.286 192.4 111.147 192.019 112.168 192.019C112.679 192.019 113.15 192.134 113.58 192.365C114.011 192.585 114.341 192.855 114.572 193.176V192.169H116.224V199.68H114.572V198.673C114.341 198.994 114.011 199.269 113.58 199.499C113.15 199.72 112.679 199.83 112.168 199.83ZM110.862 197.637C111.282 198.098 111.818 198.328 112.469 198.328C113.12 198.328 113.655 198.098 114.076 197.637C114.497 197.176 114.707 196.606 114.707 195.925C114.707 195.244 114.497 194.673 114.076 194.212C113.655 193.752 113.12 193.521 112.469 193.521C111.818 193.521 111.282 193.752 110.862 194.212C110.441 194.673 110.231 195.244 110.231 195.925C110.231 196.606 110.441 197.176 110.862 197.637ZM118.462 199.68V188.414H120.115V199.68H118.462ZM122.335 199.68V188.414H123.987V199.68H122.335Z" fill="#2E3A59"/>
<path d="M136.051 214.277L135.794 188.024L154.885 205.515L143.913 206.281L136.051 214.277Z" fill="#2E3A59" stroke="#E4E9F2" stroke-width="1.81062" stroke-linecap="square"/>
<path d="M223.492 182.54L223.807 182.152L223.492 182.54ZM258.603 237.878L259.097 237.958L259.097 237.958L258.603 237.878ZM255.452 255.09C255.614 255.314 255.926 255.365 256.15 255.203L259.801 252.572C260.025 252.41 260.076 252.098 259.914 251.874C259.753 251.65 259.44 251.599 259.216 251.761L255.971 254.1L253.632 250.855C253.471 250.631 253.158 250.58 252.934 250.741C252.71 250.903 252.66 251.215 252.821 251.439L255.452 255.09ZM244.672 216.653L244.795 216.168L244.672 216.653ZM230.508 197.841L230.008 197.827L230.508 197.841ZM211.436 173.419L214.371 175.797L215.001 175.02L212.065 172.642L211.436 173.419ZM220.242 180.551L223.177 182.929L223.807 182.152L220.871 179.774L220.242 180.551ZM223.177 182.929C224.287 183.828 225.277 184.846 226.136 185.956L226.927 185.345C226.022 184.174 224.978 183.1 223.807 182.152L223.177 182.929ZM229.64 193.608C229.921 194.984 230.048 196.399 230.008 197.827L231.008 197.854C231.049 196.349 230.916 194.858 230.62 193.408L229.64 193.608ZM230.008 197.827C229.978 198.929 230.041 200.016 230.192 201.081L231.182 200.941C231.039 199.931 230.979 198.9 231.008 197.854L230.008 197.827ZM232.167 207.268C233.168 209.204 234.488 210.962 236.068 212.461L236.756 211.735C235.257 210.314 234.005 208.646 233.056 206.809L232.167 207.268ZM241.469 216.071C242.451 216.508 243.48 216.867 244.549 217.138L244.795 216.168C243.781 215.911 242.806 215.571 241.875 215.157L241.469 216.071ZM244.549 217.138C245.665 217.421 246.732 217.801 247.743 218.269L248.162 217.361C247.096 216.868 245.971 216.467 244.795 216.168L244.549 217.138ZM253.234 222.183C254.805 223.817 256.061 225.732 256.936 227.823L257.858 227.437C256.936 225.232 255.611 223.214 253.955 221.49L253.234 222.183ZM258.343 234.418C258.369 235.531 258.294 236.662 258.109 237.798L259.097 237.958C259.291 236.761 259.37 235.569 259.342 234.395L258.343 234.418ZM258.109 237.798L257.423 242.028L258.41 242.188L259.097 237.958L258.109 237.798ZM256.051 250.488L255.364 254.717L256.352 254.878L257.038 250.648L256.051 250.488ZM223.492 182.54L224.121 181.763L223.492 182.54ZM258.603 237.878L259.59 238.038L258.603 237.878ZM255.047 255.382C255.37 255.83 255.995 255.932 256.443 255.609L263.744 250.346C264.192 250.023 264.293 249.398 263.97 248.95C263.647 248.502 263.022 248.401 262.574 248.724L256.084 253.402L251.407 246.912C251.084 246.464 250.459 246.362 250.011 246.685C249.563 247.008 249.461 247.633 249.784 248.081L255.047 255.382ZM244.672 216.653L244.918 215.684L244.672 216.653ZM230.508 197.841L229.509 197.813L230.508 197.841ZM211.121 173.808L214.057 176.185L215.315 174.631L212.38 172.254L211.121 173.808ZM219.927 180.94L222.863 183.317L224.121 181.763L221.186 179.386L219.927 180.94ZM222.863 183.317C223.942 184.192 224.905 185.182 225.741 186.262L227.323 185.039C226.394 183.838 225.323 182.736 224.121 181.763L222.863 183.317ZM229.15 193.708C229.424 195.047 229.547 196.424 229.509 197.813L231.508 197.868C231.55 196.325 231.413 194.795 231.11 193.308L229.15 193.708ZM229.509 197.813C229.477 198.943 229.543 200.059 229.697 201.151L231.677 200.871C231.538 199.889 231.48 198.885 231.508 197.868L229.509 197.813ZM231.723 207.498C232.749 209.484 234.103 211.286 235.724 212.823L237.1 211.372C235.642 209.989 234.424 208.367 233.5 206.579L231.723 207.498ZM241.265 216.528C242.273 216.976 243.329 217.344 244.426 217.622L244.918 215.684C243.932 215.434 242.983 215.103 242.079 214.7L241.265 216.528ZM244.426 217.622C245.512 217.898 246.55 218.268 247.533 218.722L248.372 216.907C247.278 216.401 246.124 215.99 244.918 215.684L244.426 217.622ZM252.874 222.53C254.401 224.119 255.624 225.982 256.474 228.016L258.319 227.244C257.374 224.982 256.015 222.912 254.316 221.144L252.874 222.53ZM257.843 234.43C257.868 235.513 257.795 236.612 257.616 237.718L259.59 238.038C259.789 236.81 259.871 235.588 259.842 234.383L257.843 234.43ZM257.616 237.718L256.93 241.948L258.904 242.268L259.59 238.038L257.616 237.718ZM255.557 250.408L254.871 254.637L256.845 254.958L257.531 250.728L255.557 250.408Z" fill="#D0D5DD"/>
<path d="M113.961 446.724L113.937 446.225L113.961 446.724ZM96.9539 447.547L96.9781 448.046L96.966 448.047L96.9538 448.047L96.9539 447.547ZM75.5423 473.301L76.0339 473.21L76.0339 473.21L75.5423 473.301ZM77.3978 481.349C77.2415 481.576 76.9303 481.634 76.7026 481.478L72.9927 478.931C72.7651 478.775 72.7072 478.463 72.8635 478.236C73.0198 478.008 73.331 477.95 73.5587 478.106L76.8564 480.37L79.1203 477.073C79.2766 476.845 79.5878 476.787 79.8155 476.943C80.0431 477.1 80.101 477.411 79.9447 477.639L77.3978 481.349ZM130.039 409.302L129.712 408.923L130.039 409.302ZM126.12 426.913L126.577 426.709L126.577 426.709L126.12 426.913ZM136.382 404.495L134.878 405.791L134.225 405.034L135.729 403.737L136.382 404.495ZM131.869 408.384L130.365 409.681L129.712 408.923L131.217 407.627L131.869 408.384ZM130.365 409.681C129.767 410.196 129.22 410.752 128.724 411.341L127.959 410.697C128.489 410.067 129.074 409.474 129.712 408.923L130.365 409.681ZM126.335 415.335C125.757 416.785 125.416 418.32 125.324 419.879L124.325 419.82C124.424 418.155 124.789 416.515 125.406 414.965L126.335 415.335ZM125.794 424.509C125.993 425.253 126.254 425.988 126.577 426.709L125.664 427.118C125.319 426.349 125.041 425.563 124.828 424.768L125.794 424.509ZM126.577 426.709C127.075 427.82 127.422 428.95 127.63 430.081L126.646 430.262C126.453 429.21 126.13 428.156 125.664 427.118L126.577 426.709ZM127.174 437.082C126.451 439.336 125.188 441.394 123.505 443.059L122.802 442.348C124.371 440.797 125.548 438.878 126.221 436.776L127.174 437.082ZM117.47 446.636C116.367 446.962 115.202 447.165 113.986 447.223L113.937 446.225C115.074 446.17 116.16 445.981 117.185 445.677L117.47 446.636ZM113.986 447.223L109.734 447.429L109.685 446.43L113.937 446.225L113.986 447.223ZM101.23 447.84L96.9781 448.046L96.9298 447.047L101.182 446.841L101.23 447.84ZM96.9538 448.047C95.8966 448.046 94.8605 448.122 93.8498 448.269L93.7063 447.279C94.7645 447.126 95.8487 447.046 96.954 447.047L96.9538 448.047ZM87.9125 450.049C86.0167 450.94 84.2796 452.102 82.7467 453.48L82.0782 452.736C83.6826 451.294 85.5014 450.077 87.4873 449.144L87.9125 450.049ZM78.7813 458.249C77.7064 460.008 76.8817 461.928 76.3521 463.955L75.3846 463.702C75.9393 461.579 76.803 459.569 77.928 457.728L78.7813 458.249ZM75.6857 470.117C75.7262 471.138 75.8407 472.17 76.0339 473.21L75.0507 473.392C74.8487 472.306 74.7289 471.225 74.6865 470.157L75.6857 470.117ZM76.0339 473.21L76.3947 475.151L75.4116 475.334L75.0507 473.392L76.0339 473.21ZM77.1164 479.033L77.4772 480.974L76.494 481.157L76.1332 479.216L77.1164 479.033ZM113.961 446.724L113.913 445.725L113.913 445.725L113.961 446.724ZM96.9539 447.547L97.0022 448.545L96.978 448.547L96.9538 448.547L96.9539 447.547ZM75.5423 473.301L76.5255 473.118L75.5423 473.301ZM77.81 481.631C77.4975 482.087 76.875 482.203 76.4196 481.89L68.9998 476.796C68.5445 476.484 68.4288 475.861 68.7414 475.406C69.0539 474.951 69.6764 474.835 70.1318 475.147L76.7272 479.675L81.2549 473.08C81.5675 472.624 82.19 472.509 82.6453 472.821C83.1006 473.134 83.2163 473.756 82.9038 474.212L77.81 481.631ZM130.039 409.302L129.386 408.544L129.386 408.544L130.039 409.302ZM126.12 426.913L127.033 426.504L126.12 426.913ZM136.708 404.873L135.204 406.17L133.898 404.655L135.402 403.358L136.708 404.873ZM132.196 408.763L130.692 410.059L129.386 408.544L130.89 407.248L132.196 408.763ZM130.692 410.059C130.114 410.557 129.585 411.094 129.106 411.663L127.576 410.375C128.123 409.725 128.727 409.112 129.386 408.544L130.692 410.059ZM126.799 415.52C126.242 416.921 125.912 418.403 125.823 419.908L123.826 419.79C123.928 418.072 124.305 416.38 124.941 414.78L126.799 415.52ZM126.277 424.379C126.469 425.098 126.721 425.808 127.033 426.504L125.208 427.322C124.852 426.529 124.565 425.718 124.345 424.897L126.277 424.379ZM127.033 426.504C127.547 427.652 127.907 428.821 128.122 429.991L126.154 430.352C125.969 429.339 125.657 428.324 125.208 427.322L127.033 426.504ZM127.65 437.234C126.903 439.566 125.597 441.693 123.857 443.415L122.45 441.993C123.962 440.498 125.096 438.649 125.745 436.624L127.65 437.234ZM117.612 447.115C116.471 447.453 115.266 447.662 114.01 447.723L113.913 445.725C115.01 445.672 116.056 445.49 117.043 445.197L117.612 447.115ZM114.01 447.723L109.758 447.928L109.661 445.931L113.913 445.725L114.01 447.723ZM101.254 448.34L97.0022 448.545L96.9056 446.548L101.157 446.342L101.254 448.34ZM96.9538 448.547C95.9206 448.546 94.9084 448.621 93.9216 448.764L93.6345 446.784C94.7165 446.628 95.8247 446.546 96.9541 446.547L96.9538 448.547ZM88.1251 450.502C86.2743 451.372 84.5781 452.506 83.081 453.851L81.7439 452.364C83.3841 450.89 85.2437 449.646 87.2747 448.692L88.1251 450.502ZM79.2079 458.51C78.1581 460.228 77.3529 462.103 76.8359 464.081L74.9009 463.575C75.4681 461.404 76.3512 459.349 77.5014 457.467L79.2079 458.51ZM76.1853 470.097C76.2249 471.094 76.3366 472.103 76.5255 473.118L74.5591 473.484C74.3528 472.373 74.2302 471.269 74.1869 470.177L76.1853 470.097ZM76.5255 473.118L76.8863 475.059L74.92 475.425L74.5591 473.484L76.5255 473.118ZM77.6079 478.942L77.9688 480.883L76.0025 481.248L75.6416 479.307L77.6079 478.942Z" fill="#D0D5DD"/>
<path d="M137.406 269.508C137.346 268.95 137.094 268.515 136.651 268.204C136.212 267.893 135.641 267.737 134.938 267.737C134.444 267.737 134.02 267.812 133.666 267.961C133.313 268.11 133.042 268.312 132.854 268.568C132.667 268.824 132.571 269.116 132.567 269.444C132.567 269.717 132.629 269.953 132.752 270.153C132.88 270.354 133.053 270.524 133.27 270.665C133.487 270.801 133.728 270.916 133.992 271.01C134.256 271.104 134.523 271.183 134.791 271.246L136.018 271.553C136.513 271.668 136.988 271.824 137.444 272.02C137.904 272.216 138.315 272.463 138.678 272.761C139.044 273.06 139.334 273.42 139.547 273.842C139.76 274.263 139.866 274.758 139.866 275.325C139.866 276.092 139.67 276.767 139.278 277.351C138.886 277.93 138.32 278.384 137.578 278.712C136.841 279.036 135.948 279.198 134.9 279.198C133.881 279.198 132.997 279.04 132.247 278.725C131.501 278.41 130.918 277.95 130.496 277.344C130.078 276.739 129.852 276.002 129.818 275.133H132.151C132.185 275.589 132.326 275.968 132.573 276.271C132.82 276.573 133.142 276.799 133.538 276.948C133.939 277.097 134.386 277.172 134.881 277.172C135.396 277.172 135.848 277.095 136.236 276.942C136.628 276.784 136.935 276.567 137.156 276.29C137.378 276.009 137.491 275.68 137.495 275.305C137.491 274.964 137.391 274.683 137.195 274.462C136.999 274.236 136.724 274.048 136.37 273.899C136.021 273.746 135.612 273.609 135.143 273.49L133.653 273.107C132.575 272.83 131.723 272.41 131.097 271.847C130.474 271.281 130.163 270.528 130.163 269.591C130.163 268.82 130.372 268.144 130.79 267.565C131.212 266.985 131.785 266.536 132.509 266.216C133.234 265.892 134.054 265.73 134.97 265.73C135.899 265.73 136.713 265.892 137.412 266.216C138.115 266.536 138.667 266.981 139.067 267.552C139.468 268.119 139.675 268.771 139.688 269.508H137.406ZM146.225 279.192C145.241 279.192 144.39 278.987 143.675 278.578C142.963 278.165 142.415 277.581 142.032 276.827C141.648 276.068 141.456 275.175 141.456 274.148C141.456 273.138 141.648 272.252 142.032 271.489C142.42 270.722 142.961 270.126 143.655 269.7C144.35 269.269 145.166 269.054 146.104 269.054C146.709 269.054 147.28 269.152 147.817 269.348C148.358 269.54 148.835 269.838 149.248 270.243C149.666 270.648 149.994 271.163 150.233 271.79C150.471 272.412 150.591 273.153 150.591 274.014V274.724H142.543V273.164H148.373C148.368 272.721 148.273 272.327 148.085 271.982C147.898 271.632 147.635 271.357 147.299 271.157C146.966 270.957 146.579 270.857 146.135 270.857C145.662 270.857 145.247 270.972 144.889 271.202C144.531 271.428 144.252 271.726 144.052 272.097C143.856 272.463 143.756 272.866 143.751 273.305V274.666C143.751 275.237 143.856 275.727 144.064 276.136C144.273 276.541 144.565 276.852 144.94 277.07C145.315 277.283 145.754 277.389 146.257 277.389C146.594 277.389 146.898 277.342 147.171 277.249C147.444 277.151 147.68 277.008 147.881 276.82C148.081 276.633 148.232 276.401 148.334 276.124L150.495 276.366C150.358 276.937 150.099 277.436 149.715 277.862C149.336 278.284 148.85 278.612 148.258 278.847C147.665 279.077 146.988 279.192 146.225 279.192ZM157.451 269.182V270.972H151.807V269.182H157.451ZM153.2 266.83H155.514V276.047C155.514 276.358 155.561 276.597 155.655 276.763C155.753 276.925 155.881 277.036 156.038 277.095C156.196 277.155 156.371 277.185 156.562 277.185C156.707 277.185 156.839 277.174 156.959 277.153C157.082 277.131 157.176 277.112 157.24 277.095L157.63 278.904C157.506 278.947 157.33 278.994 157.099 279.045C156.874 279.096 156.597 279.126 156.268 279.134C155.689 279.151 155.167 279.064 154.702 278.872C154.238 278.676 153.869 278.374 153.597 277.964C153.328 277.555 153.196 277.044 153.2 276.43V266.83ZM165.644 274.871V269.182H167.958V279H165.714V277.255H165.612C165.39 277.805 165.026 278.254 164.519 278.604C164.016 278.953 163.396 279.128 162.659 279.128C162.015 279.128 161.447 278.985 160.952 278.7C160.462 278.41 160.079 277.99 159.802 277.44C159.525 276.886 159.386 276.217 159.386 275.433V269.182H161.7V275.075C161.7 275.697 161.871 276.192 162.211 276.558C162.552 276.925 163 277.108 163.554 277.108C163.895 277.108 164.225 277.025 164.545 276.859C164.864 276.692 165.126 276.445 165.331 276.117C165.54 275.785 165.644 275.369 165.644 274.871ZM170.337 282.682V269.182H172.613V270.805H172.747C172.866 270.567 173.035 270.313 173.252 270.045C173.469 269.772 173.763 269.54 174.134 269.348C174.505 269.152 174.978 269.054 175.553 269.054C176.312 269.054 176.996 269.248 177.605 269.636C178.219 270.019 178.705 270.588 179.062 271.342C179.425 272.092 179.606 273.013 179.606 274.104C179.606 275.182 179.429 276.098 179.075 276.852C178.722 277.607 178.24 278.182 177.631 278.578C177.021 278.974 176.331 279.173 175.56 279.173C174.997 279.173 174.531 279.079 174.16 278.891C173.789 278.704 173.491 278.478 173.265 278.214C173.043 277.945 172.871 277.692 172.747 277.453H172.651V282.682H170.337ZM172.607 274.091C172.607 274.726 172.696 275.282 172.875 275.759C173.058 276.237 173.32 276.609 173.661 276.878C174.006 277.142 174.424 277.274 174.914 277.274C175.425 277.274 175.854 277.138 176.199 276.865C176.544 276.588 176.804 276.211 176.979 275.734C177.158 275.252 177.247 274.705 177.247 274.091C177.247 273.482 177.16 272.94 176.985 272.467C176.81 271.994 176.55 271.624 176.205 271.355C175.86 271.087 175.43 270.952 174.914 270.952C174.42 270.952 174 271.082 173.655 271.342C173.31 271.602 173.048 271.967 172.869 272.435C172.694 272.904 172.607 273.456 172.607 274.091ZM188.078 279L185.304 269.182H187.663L189.389 276.085H189.478L191.243 269.182H193.576L195.34 276.047H195.436L197.136 269.182H199.501L196.721 279H194.311L192.47 272.365H192.336L190.495 279H188.078ZM201.117 279V269.182H203.431V279H201.117ZM202.28 267.788C201.914 267.788 201.598 267.667 201.334 267.424C201.07 267.177 200.938 266.881 200.938 266.536C200.938 266.186 201.07 265.89 201.334 265.647C201.598 265.4 201.914 265.276 202.28 265.276C202.651 265.276 202.966 265.4 203.226 265.647C203.49 265.89 203.622 266.186 203.622 266.536C203.622 266.881 203.49 267.177 203.226 267.424C202.966 267.667 202.651 267.788 202.28 267.788ZM210.713 269.182V270.972H205.069V269.182H210.713ZM206.462 266.83H208.776V276.047C208.776 276.358 208.823 276.597 208.917 276.763C209.015 276.925 209.142 277.036 209.3 277.095C209.458 277.155 209.632 277.185 209.824 277.185C209.969 277.185 210.101 277.174 210.221 277.153C210.344 277.131 210.438 277.112 210.502 277.095L210.892 278.904C210.768 278.947 210.591 278.994 210.361 279.045C210.135 279.096 209.858 279.126 209.53 279.134C208.951 279.151 208.429 279.064 207.964 278.872C207.5 278.676 207.131 278.374 206.858 277.964C206.59 277.555 206.458 277.044 206.462 276.43V266.83ZM215.173 273.247V279H212.859V265.909H215.122V270.85H215.237C215.467 270.296 215.823 269.859 216.304 269.54C216.79 269.216 217.408 269.054 218.158 269.054C218.84 269.054 219.434 269.197 219.941 269.482C220.448 269.768 220.84 270.185 221.117 270.735C221.399 271.285 221.539 271.956 221.539 272.749V279H219.225V273.107C219.225 272.446 219.055 271.933 218.714 271.566C218.377 271.195 217.904 271.01 217.295 271.01C216.886 271.01 216.519 271.099 216.195 271.278C215.876 271.453 215.624 271.707 215.441 272.039C215.262 272.371 215.173 272.774 215.173 273.247ZM231.188 279.198C230.566 279.198 230.006 279.087 229.507 278.866C229.013 278.64 228.621 278.308 228.331 277.869C228.045 277.43 227.903 276.888 227.903 276.245C227.903 275.691 228.005 275.233 228.209 274.871C228.414 274.509 228.693 274.219 229.047 274.001C229.4 273.784 229.799 273.62 230.242 273.509C230.689 273.394 231.152 273.311 231.629 273.26C232.204 273.2 232.671 273.147 233.029 273.1C233.387 273.049 233.647 272.972 233.809 272.87C233.975 272.763 234.058 272.599 234.058 272.378V272.339C234.058 271.858 233.915 271.485 233.63 271.221C233.344 270.957 232.933 270.825 232.396 270.825C231.829 270.825 231.38 270.948 231.047 271.195C230.719 271.442 230.498 271.734 230.383 272.071L228.222 271.764C228.393 271.168 228.674 270.669 229.066 270.268C229.458 269.864 229.937 269.561 230.504 269.361C231.071 269.156 231.697 269.054 232.383 269.054C232.856 269.054 233.327 269.109 233.796 269.22C234.265 269.331 234.693 269.514 235.081 269.77C235.469 270.021 235.78 270.364 236.014 270.799C236.253 271.234 236.372 271.777 236.372 272.429V279H234.148V277.651H234.071C233.93 277.924 233.732 278.18 233.476 278.418C233.225 278.653 232.907 278.842 232.524 278.987C232.145 279.128 231.699 279.198 231.188 279.198ZM231.789 277.498C232.253 277.498 232.656 277.406 232.997 277.223C233.338 277.036 233.6 276.788 233.783 276.482C233.971 276.175 234.064 275.84 234.064 275.478V274.321C233.992 274.381 233.868 274.436 233.694 274.487C233.523 274.538 233.331 274.583 233.118 274.621C232.905 274.66 232.694 274.694 232.486 274.724C232.277 274.754 232.096 274.779 231.942 274.8C231.597 274.847 231.288 274.924 231.015 275.031C230.743 275.137 230.528 275.286 230.37 275.478C230.212 275.665 230.133 275.908 230.133 276.207C230.133 276.633 230.289 276.955 230.6 277.172C230.911 277.389 231.307 277.498 231.789 277.498ZM249.715 282.682V277.453H249.619C249.5 277.692 249.328 277.945 249.102 278.214C248.876 278.478 248.578 278.704 248.207 278.891C247.836 279.079 247.369 279.173 246.807 279.173C246.036 279.173 245.345 278.974 244.736 278.578C244.127 278.182 243.645 277.607 243.291 276.852C242.938 276.098 242.761 275.182 242.761 274.104C242.761 273.013 242.94 272.092 243.298 271.342C243.66 270.588 244.148 270.019 244.762 269.636C245.375 269.248 246.059 269.054 246.813 269.054C247.389 269.054 247.862 269.152 248.232 269.348C248.603 269.54 248.897 269.772 249.115 270.045C249.332 270.313 249.5 270.567 249.619 270.805H249.76V269.182H252.036V282.682H249.715ZM247.453 277.274C247.943 277.274 248.36 277.142 248.705 276.878C249.051 276.609 249.313 276.237 249.492 275.759C249.671 275.282 249.76 274.726 249.76 274.091C249.76 273.456 249.671 272.904 249.492 272.435C249.317 271.967 249.057 271.602 248.712 271.342C248.371 271.082 247.951 270.952 247.453 270.952C246.937 270.952 246.507 271.087 246.161 271.355C245.816 271.624 245.556 271.994 245.382 272.467C245.207 272.94 245.119 273.482 245.119 274.091C245.119 274.705 245.207 275.252 245.382 275.734C245.561 276.211 245.823 276.588 246.168 276.865C246.517 277.138 246.945 277.274 247.453 277.274ZM260.671 274.871V269.182H262.985V279H260.742V277.255H260.639C260.418 277.805 260.053 278.254 259.546 278.604C259.044 278.953 258.423 279.128 257.686 279.128C257.043 279.128 256.474 278.985 255.98 278.7C255.49 278.41 255.106 277.99 254.829 277.44C254.552 276.886 254.414 276.217 254.414 275.433V269.182H256.727V275.075C256.727 275.697 256.898 276.192 257.239 276.558C257.58 276.925 258.027 277.108 258.581 277.108C258.922 277.108 259.252 277.025 259.572 276.859C259.892 276.692 260.154 276.445 260.358 276.117C260.567 275.785 260.671 275.369 260.671 274.871ZM265.365 279V269.182H267.679V279H265.365ZM266.528 267.788C266.162 267.788 265.846 267.667 265.582 267.424C265.318 267.177 265.186 266.881 265.186 266.536C265.186 266.186 265.318 265.89 265.582 265.647C265.846 265.4 266.162 265.276 266.528 265.276C266.899 265.276 267.214 265.4 267.474 265.647C267.738 265.89 267.87 266.186 267.87 266.536C267.87 266.881 267.738 267.177 267.474 267.424C267.214 267.667 266.899 267.788 266.528 267.788ZM274.341 279.192C273.361 279.192 272.519 278.977 271.816 278.546C271.117 278.116 270.578 277.521 270.199 276.763C269.824 276 269.636 275.122 269.636 274.129C269.636 273.132 269.828 272.252 270.211 271.489C270.595 270.722 271.136 270.126 271.835 269.7C272.538 269.269 273.369 269.054 274.328 269.054C275.125 269.054 275.83 269.201 276.444 269.495C277.062 269.785 277.554 270.196 277.92 270.729C278.287 271.257 278.496 271.875 278.547 272.582H276.335C276.246 272.109 276.032 271.715 275.696 271.4C275.363 271.08 274.918 270.92 274.36 270.92C273.887 270.92 273.471 271.048 273.113 271.304C272.756 271.555 272.476 271.918 272.276 272.391C272.08 272.864 271.982 273.43 271.982 274.091C271.982 274.76 272.08 275.335 272.276 275.817C272.472 276.294 272.747 276.663 273.101 276.923C273.459 277.178 273.878 277.306 274.36 277.306C274.701 277.306 275.006 277.242 275.274 277.114C275.547 276.982 275.775 276.793 275.958 276.545C276.141 276.298 276.267 275.998 276.335 275.644H278.547C278.491 276.339 278.287 276.955 277.933 277.491C277.579 278.024 277.098 278.442 276.488 278.744C275.879 279.043 275.163 279.192 274.341 279.192ZM282.556 275.919L282.55 273.126H282.92L286.449 269.182H289.153L284.812 274.014H284.333L282.556 275.919ZM280.447 279V265.909H282.761V279H280.447ZM286.609 279L283.413 274.532L284.972 272.902L289.376 279H286.609ZM299.43 282.886C298.599 282.886 297.885 282.773 297.288 282.548C296.692 282.326 296.212 282.028 295.85 281.653C295.488 281.278 295.236 280.862 295.096 280.406L297.18 279.901C297.273 280.093 297.41 280.283 297.589 280.47C297.768 280.662 298.008 280.82 298.311 280.943C298.618 281.071 299.003 281.135 299.468 281.135C300.124 281.135 300.667 280.975 301.098 280.656C301.528 280.34 301.743 279.82 301.743 279.096V277.236H301.628C301.509 277.474 301.334 277.719 301.104 277.971C300.878 278.222 300.578 278.433 300.203 278.604C299.832 278.774 299.366 278.859 298.803 278.859C298.049 278.859 297.365 278.683 296.751 278.329C296.142 277.971 295.656 277.438 295.294 276.731C294.936 276.019 294.757 275.129 294.757 274.059C294.757 272.981 294.936 272.071 295.294 271.33C295.656 270.584 296.144 270.019 296.758 269.636C297.371 269.248 298.055 269.054 298.809 269.054C299.385 269.054 299.858 269.152 300.229 269.348C300.604 269.54 300.902 269.772 301.123 270.045C301.345 270.313 301.513 270.567 301.628 270.805H301.756V269.182H304.038V279.16C304.038 279.999 303.838 280.694 303.437 281.244C303.037 281.793 302.489 282.205 301.795 282.477C301.1 282.75 300.312 282.886 299.43 282.886ZM299.449 277.044C299.939 277.044 300.356 276.925 300.702 276.686C301.047 276.447 301.309 276.104 301.488 275.657C301.667 275.21 301.756 274.673 301.756 274.046C301.756 273.428 301.667 272.887 301.488 272.423C301.313 271.958 301.053 271.598 300.708 271.342C300.367 271.082 299.947 270.952 299.449 270.952C298.933 270.952 298.503 271.087 298.157 271.355C297.812 271.624 297.552 271.992 297.378 272.461C297.203 272.925 297.116 273.454 297.116 274.046C297.116 274.647 297.203 275.173 297.378 275.625C297.557 276.072 297.819 276.422 298.164 276.673C298.513 276.92 298.942 277.044 299.449 277.044ZM312.667 274.871V269.182H314.981V279H312.738V277.255H312.635C312.414 277.805 312.05 278.254 311.542 278.604C311.04 278.953 310.42 279.128 309.682 279.128C309.039 279.128 308.47 278.985 307.976 278.7C307.486 278.41 307.102 277.99 306.825 277.44C306.548 276.886 306.41 276.217 306.41 275.433V269.182H308.724V275.075C308.724 275.697 308.894 276.192 309.235 276.558C309.576 276.925 310.023 277.108 310.577 277.108C310.918 277.108 311.248 277.025 311.568 276.859C311.888 276.692 312.15 276.445 312.354 276.117C312.563 275.785 312.667 275.369 312.667 274.871ZM317.361 279V269.182H319.675V279H317.361ZM318.524 267.788C318.158 267.788 317.842 267.667 317.578 267.424C317.314 267.177 317.182 266.881 317.182 266.536C317.182 266.186 317.314 265.89 317.578 265.647C317.842 265.4 318.158 265.276 318.524 265.276C318.895 265.276 319.21 265.4 319.47 265.647C319.734 265.89 319.866 266.186 319.866 266.536C319.866 266.881 319.734 267.177 319.47 267.424C319.21 267.667 318.895 267.788 318.524 267.788ZM325.698 279.173C324.926 279.173 324.236 278.974 323.627 278.578C323.017 278.182 322.536 277.607 322.182 276.852C321.828 276.098 321.651 275.182 321.651 274.104C321.651 273.013 321.83 272.092 322.188 271.342C322.551 270.588 323.039 270.019 323.652 269.636C324.266 269.248 324.95 269.054 325.704 269.054C326.279 269.054 326.752 269.152 327.123 269.348C327.494 269.54 327.788 269.772 328.005 270.045C328.222 270.313 328.391 270.567 328.51 270.805H328.606V265.909H330.926V279H328.651V277.453H328.51C328.391 277.692 328.218 277.945 327.992 278.214C327.767 278.478 327.468 278.704 327.097 278.891C326.727 279.079 326.26 279.173 325.698 279.173ZM326.343 277.274C326.833 277.274 327.251 277.142 327.596 276.878C327.941 276.609 328.203 276.237 328.382 275.759C328.561 275.282 328.651 274.726 328.651 274.091C328.651 273.456 328.561 272.904 328.382 272.435C328.208 271.967 327.948 271.602 327.602 271.342C327.262 271.082 326.842 270.952 326.343 270.952C325.828 270.952 325.397 271.087 325.052 271.355C324.707 271.624 324.447 271.994 324.272 272.467C324.097 272.94 324.01 273.482 324.01 274.091C324.01 274.705 324.097 275.252 324.272 275.734C324.451 276.211 324.713 276.588 325.058 276.865C325.408 277.138 325.836 277.274 326.343 277.274ZM337.739 279.192C336.754 279.192 335.904 278.987 335.188 278.578C334.477 278.165 333.929 277.581 333.545 276.827C333.162 276.068 332.97 275.175 332.97 274.148C332.97 273.138 333.162 272.252 333.545 271.489C333.933 270.722 334.474 270.126 335.169 269.7C335.864 269.269 336.68 269.054 337.617 269.054C338.222 269.054 338.793 269.152 339.33 269.348C339.871 269.54 340.349 269.838 340.762 270.243C341.18 270.648 341.508 271.163 341.746 271.79C341.985 272.412 342.104 273.153 342.104 274.014V274.724H334.057V273.164H339.886C339.882 272.721 339.786 272.327 339.599 271.982C339.411 271.632 339.149 271.357 338.812 271.157C338.48 270.957 338.092 270.857 337.649 270.857C337.176 270.857 336.761 270.972 336.403 271.202C336.045 271.428 335.766 271.726 335.565 272.097C335.369 272.463 335.269 272.866 335.265 273.305V274.666C335.265 275.237 335.369 275.727 335.578 276.136C335.787 276.541 336.079 276.852 336.454 277.07C336.829 277.283 337.268 277.389 337.771 277.389C338.107 277.389 338.412 277.342 338.685 277.249C338.957 277.151 339.194 277.008 339.394 276.82C339.594 276.633 339.746 276.401 339.848 276.124L342.009 276.366C341.872 276.937 341.612 277.436 341.229 277.862C340.849 278.284 340.364 278.612 339.771 278.847C339.179 279.077 338.501 279.192 337.739 279.192Z" fill="#2E3A59"/>
<rect x="143.996" y="305.999" width="184" height="144" rx="8" fill="#EBE9FE"/>
<rect x="160.09" y="320.484" width="152" height="115.2" rx="8" fill="white"/>
<path d="M299.594 365.742C299.594 368.887 297.118 371.413 294.094 371.413C291.069 371.413 288.594 368.887 288.594 365.742C288.594 362.596 291.069 360.07 294.094 360.07C297.118 360.07 299.594 362.596 299.594 365.742Z" fill="#00D68F" stroke="#00D68F"/>
<path d="M296.762 364.001L293.096 367.482L291.429 365.9" stroke="white" stroke-width="1.5" stroke-linecap="round" stroke-linejoin="round"/>
<path d="M173.866 369.513V362.301H172.15L173.158 360.993H175.186V369.513H173.866ZM177.822 369.609C177.542 369.609 177.298 369.509 177.09 369.309C176.89 369.101 176.79 368.853 176.79 368.565C176.79 368.285 176.89 368.041 177.09 367.833C177.298 367.625 177.542 367.521 177.822 367.521C178.11 367.521 178.354 367.625 178.554 367.833C178.762 368.041 178.866 368.285 178.866 368.565C178.866 368.853 178.762 369.101 178.554 369.309C178.354 369.509 178.11 369.609 177.822 369.609ZM187.182 369.657C185.91 369.657 184.85 369.237 184.002 368.397C183.162 367.549 182.742 366.501 182.742 365.253C182.742 364.005 183.162 362.961 184.002 362.121C184.85 361.273 185.91 360.849 187.182 360.849C188.19 360.849 189.07 361.137 189.822 361.713C190.582 362.281 191.07 362.993 191.286 363.849H189.774C189.59 363.361 189.262 362.965 188.79 362.661C188.318 362.357 187.782 362.205 187.182 362.205C186.302 362.205 185.578 362.497 185.01 363.081C184.442 363.665 184.158 364.389 184.158 365.253C184.158 366.117 184.442 366.841 185.01 367.425C185.578 368.009 186.302 368.301 187.182 368.301C187.782 368.301 188.318 368.149 188.79 367.845C189.262 367.541 189.59 367.145 189.774 366.657H191.286C191.07 367.513 190.582 368.229 189.822 368.805C189.07 369.373 188.19 369.657 187.182 369.657ZM197.492 368.733C196.892 369.333 196.148 369.633 195.26 369.633C194.372 369.633 193.624 369.333 193.016 368.733C192.416 368.125 192.116 367.385 192.116 366.513C192.116 365.641 192.416 364.905 193.016 364.305C193.624 363.697 194.372 363.393 195.26 363.393C196.148 363.393 196.892 363.697 197.492 364.305C198.1 364.905 198.404 365.641 198.404 366.513C198.404 367.385 198.1 368.125 197.492 368.733ZM195.26 368.409C195.78 368.409 196.208 368.229 196.544 367.869C196.888 367.501 197.06 367.049 197.06 366.513C197.06 365.977 196.888 365.529 196.544 365.169C196.208 364.801 195.78 364.617 195.26 364.617C194.732 364.617 194.296 364.801 193.952 365.169C193.616 365.529 193.448 365.977 193.448 366.513C193.448 367.049 193.616 367.501 193.952 367.869C194.296 368.229 194.732 368.409 195.26 368.409ZM207.376 369.513V366.141C207.376 365.653 207.284 365.273 207.1 365.001C206.924 364.729 206.66 364.593 206.308 364.593C205.884 364.593 205.544 364.757 205.288 365.085C205.032 365.413 204.896 365.873 204.88 366.465V369.513H203.56V366.141C203.56 365.653 203.468 365.273 203.284 365.001C203.108 364.729 202.844 364.593 202.492 364.593C202.052 364.593 201.7 364.765 201.436 365.109C201.18 365.453 201.052 365.937 201.052 366.561V369.513H199.732V363.513H201.052V364.329C201.42 363.705 201.988 363.393 202.756 363.393C203.66 363.393 204.28 363.789 204.616 364.581C204.784 364.205 205.04 363.913 205.384 363.705C205.736 363.497 206.12 363.393 206.536 363.393C207.208 363.393 207.736 363.621 208.12 364.077C208.504 364.533 208.696 365.149 208.696 365.925V369.513H207.376ZM211.704 372.021H210.384V363.513H211.704V364.317C211.888 364.061 212.152 363.845 212.496 363.669C212.848 363.485 213.228 363.393 213.636 363.393C214.452 363.393 215.136 363.697 215.688 364.305C216.248 364.913 216.528 365.649 216.528 366.513C216.528 367.377 216.248 368.113 215.688 368.721C215.136 369.329 214.452 369.633 213.636 369.633C213.228 369.633 212.848 369.545 212.496 369.369C212.152 369.185 211.888 368.965 211.704 368.709V372.021ZM213.396 368.433C213.916 368.433 214.344 368.249 214.68 367.881C215.016 367.513 215.184 367.057 215.184 366.513C215.184 365.969 215.016 365.513 214.68 365.145C214.344 364.777 213.916 364.593 213.396 364.593C212.868 364.593 212.436 364.777 212.1 365.145C211.764 365.513 211.596 365.969 211.596 366.513C211.596 367.057 211.764 367.513 212.1 367.881C212.436 368.249 212.868 368.433 213.396 368.433ZM220.332 369.633C219.516 369.633 218.828 369.329 218.268 368.721C217.716 368.113 217.44 367.377 217.44 366.513C217.44 365.649 217.716 364.913 218.268 364.305C218.828 363.697 219.516 363.393 220.332 363.393C220.74 363.393 221.116 363.485 221.46 363.669C221.804 363.845 222.068 364.061 222.252 364.317V363.513H223.572V369.513H222.252V368.709C222.068 368.965 221.804 369.185 221.46 369.369C221.116 369.545 220.74 369.633 220.332 369.633ZM219.288 367.881C219.624 368.249 220.052 368.433 220.572 368.433C221.092 368.433 221.52 368.249 221.856 367.881C222.192 367.513 222.36 367.057 222.36 366.513C222.36 365.969 222.192 365.513 221.856 365.145C221.52 364.777 221.092 364.593 220.572 364.593C220.052 364.593 219.624 364.777 219.288 365.145C218.952 365.513 218.784 365.969 218.784 366.513C218.784 367.057 218.952 367.513 219.288 367.881ZM225.361 369.513V363.513H226.681V364.329C227.057 363.705 227.665 363.393 228.505 363.393C229.201 363.393 229.757 363.621 230.173 364.077C230.589 364.533 230.797 365.141 230.797 365.901V369.513H229.477V366.117C229.477 365.637 229.365 365.265 229.141 365.001C228.917 364.729 228.613 364.593 228.229 364.593C227.773 364.593 227.401 364.765 227.113 365.109C226.825 365.453 226.681 365.937 226.681 366.561V369.513H225.361ZM234.265 372.021H232.813L234.097 369.189L231.517 363.513H232.969L234.805 367.761L236.653 363.513H238.117L234.265 372.021ZM244.051 369.633C243.235 369.633 242.547 369.329 241.987 368.721C241.435 368.113 241.159 367.377 241.159 366.513C241.159 365.649 241.435 364.913 241.987 364.305C242.547 363.697 243.235 363.393 244.051 363.393C244.459 363.393 244.835 363.485 245.179 363.669C245.523 363.845 245.787 364.061 245.971 364.317V360.513H247.291V369.513H245.971V368.709C245.787 368.965 245.523 369.185 245.179 369.369C244.835 369.545 244.459 369.633 244.051 369.633ZM243.007 367.881C243.343 368.249 243.771 368.433 244.291 368.433C244.811 368.433 245.239 368.249 245.575 367.881C245.911 367.513 246.079 367.057 246.079 366.513C246.079 365.969 245.911 365.513 245.575 365.145C245.239 364.777 244.811 364.593 244.291 364.593C243.771 364.593 243.343 364.777 243.007 365.145C242.671 365.513 242.503 365.969 242.503 366.513C242.503 367.057 242.671 367.513 243.007 367.881ZM251.731 369.633C250.835 369.633 250.099 369.341 249.523 368.757C248.947 368.165 248.659 367.417 248.659 366.513C248.659 365.609 248.943 364.865 249.511 364.281C250.079 363.689 250.823 363.393 251.743 363.393C252.671 363.393 253.419 363.717 253.987 364.365C254.555 365.005 254.807 365.829 254.743 366.837H249.967C249.983 367.301 250.159 367.689 250.495 368.001C250.831 368.313 251.259 368.469 251.779 368.469C252.515 368.469 253.019 368.189 253.291 367.629H254.671C254.487 368.213 254.135 368.693 253.615 369.069C253.095 369.445 252.467 369.633 251.731 369.633ZM251.707 364.497C251.275 364.497 250.903 364.621 250.591 364.869C250.287 365.109 250.091 365.453 250.003 365.901H253.327C253.231 365.437 253.035 365.089 252.739 364.857C252.443 364.617 252.099 364.497 251.707 364.497ZM258.597 369.573C257.989 369.573 257.493 369.405 257.109 369.069C256.733 368.725 256.545 368.229 256.545 367.581V364.689H255.297V363.513H256.545V361.845H257.865V363.513H259.581V364.689H257.865V367.365C257.865 367.733 257.945 367.997 258.105 368.157C258.265 368.309 258.521 368.385 258.873 368.385C259.161 368.385 259.397 368.345 259.581 368.265V369.441C259.293 369.529 258.965 369.573 258.597 369.573ZM263.211 369.633C262.395 369.633 261.707 369.329 261.147 368.721C260.595 368.113 260.319 367.377 260.319 366.513C260.319 365.649 260.595 364.913 261.147 364.305C261.707 363.697 262.395 363.393 263.211 363.393C263.619 363.393 263.995 363.485 264.339 363.669C264.683 363.845 264.947 364.061 265.131 364.317V363.513H266.451V369.513H265.131V368.709C264.947 368.965 264.683 369.185 264.339 369.369C263.995 369.545 263.619 369.633 263.211 369.633ZM262.167 367.881C262.503 368.249 262.931 368.433 263.451 368.433C263.971 368.433 264.399 368.249 264.735 367.881C265.071 367.513 265.239 367.057 265.239 366.513C265.239 365.969 265.071 365.513 264.735 365.145C264.399 364.777 263.971 364.593 263.451 364.593C262.931 364.593 262.503 364.777 262.167 365.145C261.831 365.513 261.663 365.969 261.663 366.513C261.663 367.057 261.831 367.513 262.167 367.881ZM268.899 362.205C268.659 362.205 268.451 362.121 268.275 361.953C268.099 361.777 268.011 361.565 268.011 361.317C268.011 361.077 268.099 360.873 268.275 360.705C268.451 360.529 268.659 360.441 268.899 360.441C269.147 360.441 269.355 360.529 269.523 360.705C269.691 360.873 269.775 361.077 269.775 361.317C269.775 361.565 269.691 361.777 269.523 361.953C269.355 362.121 269.147 362.205 268.899 362.205ZM268.239 369.513V363.513H269.559V369.513H268.239ZM271.333 369.513V360.513H272.653V369.513H271.333ZM276.539 369.633C275.827 369.633 275.227 369.457 274.739 369.105C274.259 368.753 274.003 368.281 273.971 367.689H275.339C275.435 368.281 275.847 368.577 276.575 368.577C276.871 368.577 277.107 368.525 277.283 368.421C277.459 368.309 277.547 368.149 277.547 367.941C277.547 367.733 277.479 367.569 277.343 367.449C277.207 367.329 276.979 367.229 276.659 367.149L275.675 366.885C274.651 366.613 274.139 366.009 274.139 365.073C274.139 364.569 274.343 364.165 274.751 363.861C275.159 363.549 275.699 363.393 276.371 363.393C277.019 363.393 277.551 363.557 277.967 363.885C278.383 364.213 278.615 364.649 278.663 365.193H277.343C277.215 364.697 276.887 364.449 276.359 364.449C276.095 364.449 275.883 364.505 275.723 364.617C275.563 364.721 275.483 364.869 275.483 365.061C275.483 365.405 275.751 365.645 276.287 365.781L277.295 366.045C278.359 366.317 278.891 366.921 278.891 367.857C278.891 368.425 278.671 368.865 278.231 369.177C277.799 369.481 277.235 369.633 276.539 369.633Z" fill="#2E3A59"/>
<path d="M160.09 345.169H312.09V328.483C312.09 324.065 308.508 320.483 304.09 320.483H168.09C163.672 320.483 160.09 324.065 160.09 328.483V345.169Z" fill="#6D2FFD"/>
<circle cx="172.09" cy="332.712" r="4" fill="#FF3D71"/>
<circle cx="188.09" cy="332.712" r="4" fill="#FFAA00"/>
<circle cx="204.09" cy="332.712" r="4" fill="#00B887"/>
<path d="M178.282 392.9V394.196H172.642V393.716C172.642 393.412 172.686 393.124 172.774 392.852C172.87 392.572 172.97 392.34 173.074 392.156C173.178 391.972 173.35 391.768 173.59 391.544C173.83 391.312 174.014 391.148 174.142 391.052C174.27 390.948 174.494 390.78 174.814 390.548C175.142 390.316 175.35 390.168 175.438 390.104C175.942 389.736 176.306 389.412 176.53 389.132C176.754 388.852 176.866 388.516 176.866 388.124C176.866 387.732 176.746 387.42 176.506 387.188C176.266 386.948 175.934 386.828 175.51 386.828C175.07 386.828 174.706 386.96 174.418 387.224C174.13 387.48 173.982 387.832 173.974 388.28H172.642C172.642 387.472 172.914 386.812 173.458 386.3C174.01 385.788 174.698 385.532 175.522 385.532C176.282 385.532 176.918 385.756 177.43 386.204C177.942 386.652 178.198 387.28 178.198 388.088C178.198 388.728 178.05 389.268 177.754 389.708C177.466 390.14 176.986 390.596 176.314 391.076C176.21 391.156 176.018 391.292 175.738 391.484C175.458 391.676 175.25 391.824 175.114 391.928C174.986 392.032 174.846 392.176 174.694 392.36C174.542 392.536 174.438 392.716 174.382 392.9H178.282ZM180.459 394.292C180.179 394.292 179.935 394.192 179.727 393.992C179.527 393.784 179.427 393.536 179.427 393.248C179.427 392.968 179.527 392.724 179.727 392.516C179.935 392.308 180.179 392.204 180.459 392.204C180.747 392.204 180.991 392.308 181.191 392.516C181.399 392.724 181.503 392.968 181.503 393.248C181.503 393.536 181.399 393.784 181.191 393.992C180.991 394.192 180.747 394.292 180.459 394.292ZM185.919 394.196V385.676H188.859C189.603 385.676 190.211 385.904 190.683 386.36C191.163 386.816 191.403 387.372 191.403 388.028C191.403 388.732 191.139 389.28 190.611 389.672C191.523 390.048 191.979 390.724 191.979 391.7C191.979 392.412 191.719 393.008 191.199 393.488C190.687 393.96 190.031 394.196 189.231 394.196H185.919ZM187.323 392.912H189.195C189.643 392.912 189.991 392.8 190.239 392.576C190.487 392.352 190.611 392.056 190.611 391.688C190.611 391.328 190.487 391.036 190.239 390.812C189.991 390.58 189.643 390.464 189.195 390.464H187.323V392.912ZM187.323 389.264H188.787C189.163 389.264 189.463 389.156 189.687 388.94C189.911 388.724 190.023 388.448 190.023 388.112C190.023 387.792 189.911 387.52 189.687 387.296C189.463 387.072 189.163 386.96 188.787 386.96H187.323V389.264ZM195.446 394.316C194.758 394.316 194.214 394.088 193.814 393.632C193.414 393.168 193.214 392.552 193.214 391.784V388.196H194.534V391.568C194.534 392.048 194.638 392.428 194.846 392.708C195.054 392.98 195.35 393.116 195.734 393.116C196.182 393.116 196.538 392.948 196.802 392.612C197.066 392.268 197.198 391.78 197.198 391.148V388.196H198.518V394.196H197.198V393.38C196.846 394.004 196.262 394.316 195.446 394.316ZM202.406 394.316C201.694 394.316 201.094 394.14 200.606 393.788C200.126 393.436 199.87 392.964 199.838 392.372H201.206C201.302 392.964 201.714 393.26 202.442 393.26C202.738 393.26 202.974 393.208 203.15 393.104C203.326 392.992 203.414 392.832 203.414 392.624C203.414 392.416 203.346 392.252 203.21 392.132C203.074 392.012 202.846 391.912 202.526 391.832L201.542 391.568C200.518 391.296 200.006 390.692 200.006 389.756C200.006 389.252 200.21 388.848 200.618 388.544C201.026 388.232 201.566 388.076 202.238 388.076C202.886 388.076 203.418 388.24 203.834 388.568C204.25 388.896 204.482 389.332 204.53 389.876H203.21C203.082 389.38 202.754 389.132 202.226 389.132C201.962 389.132 201.75 389.188 201.59 389.3C201.43 389.404 201.35 389.552 201.35 389.744C201.35 390.088 201.618 390.328 202.154 390.464L203.162 390.728C204.226 391 204.758 391.604 204.758 392.54C204.758 393.108 204.538 393.548 204.098 393.86C203.666 394.164 203.102 394.316 202.406 394.316ZM206.755 386.888C206.515 386.888 206.307 386.804 206.131 386.636C205.955 386.46 205.867 386.248 205.867 386C205.867 385.76 205.955 385.556 206.131 385.388C206.307 385.212 206.515 385.124 206.755 385.124C207.003 385.124 207.211 385.212 207.379 385.388C207.547 385.556 207.631 385.76 207.631 386C207.631 386.248 207.547 386.46 207.379 386.636C207.211 386.804 207.003 386.888 206.755 386.888ZM206.095 394.196V388.196H207.415V394.196H206.095ZM209.189 394.196V388.196H210.509V389.012C210.885 388.388 211.493 388.076 212.333 388.076C213.029 388.076 213.585 388.304 214.001 388.76C214.417 389.216 214.625 389.824 214.625 390.584V394.196H213.305V390.8C213.305 390.32 213.193 389.948 212.969 389.684C212.745 389.412 212.441 389.276 212.057 389.276C211.601 389.276 211.229 389.448 210.941 389.792C210.653 390.136 210.509 390.62 210.509 391.244V394.196H209.189ZM218.966 394.316C218.07 394.316 217.334 394.024 216.758 393.44C216.182 392.848 215.894 392.1 215.894 391.196C215.894 390.292 216.178 389.548 216.746 388.964C217.314 388.372 218.058 388.076 218.978 388.076C219.906 388.076 220.654 388.4 221.222 389.048C221.79 389.688 222.042 390.512 221.978 391.52H217.202C217.218 391.984 217.394 392.372 217.73 392.684C218.066 392.996 218.494 393.152 219.014 393.152C219.75 393.152 220.254 392.872 220.526 392.312H221.906C221.722 392.896 221.37 393.376 220.85 393.752C220.33 394.128 219.702 394.316 218.966 394.316ZM218.942 389.18C218.51 389.18 218.138 389.304 217.826 389.552C217.522 389.792 217.326 390.136 217.238 390.584H220.562C220.466 390.12 220.27 389.772 219.974 389.54C219.678 389.3 219.334 389.18 218.942 389.18ZM225.445 394.316C224.733 394.316 224.133 394.14 223.645 393.788C223.165 393.436 222.909 392.964 222.877 392.372H224.245C224.341 392.964 224.753 393.26 225.481 393.26C225.777 393.26 226.013 393.208 226.189 393.104C226.365 392.992 226.453 392.832 226.453 392.624C226.453 392.416 226.385 392.252 226.249 392.132C226.113 392.012 225.885 391.912 225.565 391.832L224.581 391.568C223.557 391.296 223.045 390.692 223.045 389.756C223.045 389.252 223.249 388.848 223.657 388.544C224.065 388.232 224.605 388.076 225.277 388.076C225.925 388.076 226.457 388.24 226.873 388.568C227.289 388.896 227.521 389.332 227.569 389.876H226.249C226.121 389.38 225.793 389.132 225.265 389.132C225.001 389.132 224.789 389.188 224.629 389.3C224.469 389.404 224.389 389.552 224.389 389.744C224.389 390.088 224.657 390.328 225.193 390.464L226.201 390.728C227.265 391 227.797 391.604 227.797 392.54C227.797 393.108 227.577 393.548 227.137 393.86C226.705 394.164 226.141 394.316 225.445 394.316ZM231.246 394.316C230.534 394.316 229.934 394.14 229.446 393.788C228.966 393.436 228.71 392.964 228.678 392.372H230.046C230.142 392.964 230.554 393.26 231.282 393.26C231.578 393.26 231.814 393.208 231.99 393.104C232.166 392.992 232.254 392.832 232.254 392.624C232.254 392.416 232.186 392.252 232.05 392.132C231.914 392.012 231.686 391.912 231.366 391.832L230.382 391.568C229.358 391.296 228.846 390.692 228.846 389.756C228.846 389.252 229.05 388.848 229.458 388.544C229.866 388.232 230.406 388.076 231.078 388.076C231.726 388.076 232.258 388.24 232.674 388.568C233.09 388.896 233.322 389.332 233.37 389.876H232.05C231.922 389.38 231.594 389.132 231.066 389.132C230.802 389.132 230.59 389.188 230.43 389.3C230.27 389.404 230.19 389.552 230.19 389.744C230.19 390.088 230.458 390.328 230.994 390.464L232.002 390.728C233.066 391 233.598 391.604 233.598 392.54C233.598 393.108 233.378 393.548 232.938 393.86C232.506 394.164 231.942 394.316 231.246 394.316ZM239.079 394.196H237.759V385.196H239.079V389.012C239.455 388.388 240.063 388.076 240.903 388.076C241.599 388.076 242.155 388.304 242.571 388.76C242.987 389.216 243.195 389.824 243.195 390.584V394.196H241.875V390.8C241.875 390.32 241.763 389.948 241.539 389.684C241.315 389.412 241.011 389.276 240.627 389.276C240.171 389.276 239.799 389.448 239.511 389.792C239.223 390.136 239.079 390.62 239.079 391.244V394.196ZM249.828 393.416C249.228 394.016 248.484 394.316 247.596 394.316C246.708 394.316 245.96 394.016 245.352 393.416C244.752 392.808 244.452 392.068 244.452 391.196C244.452 390.324 244.752 389.588 245.352 388.988C245.96 388.38 246.708 388.076 247.596 388.076C248.484 388.076 249.228 388.38 249.828 388.988C250.436 389.588 250.74 390.324 250.74 391.196C250.74 392.068 250.436 392.808 249.828 393.416ZM247.596 393.092C248.116 393.092 248.544 392.912 248.88 392.552C249.224 392.184 249.396 391.732 249.396 391.196C249.396 390.66 249.224 390.212 248.88 389.852C248.544 389.484 248.116 389.3 247.596 389.3C247.068 389.3 246.632 389.484 246.288 389.852C245.952 390.212 245.784 390.66 245.784 391.196C245.784 391.732 245.952 392.184 246.288 392.552C246.632 392.912 247.068 393.092 247.596 393.092ZM254.216 394.316C253.528 394.316 252.984 394.088 252.584 393.632C252.184 393.168 251.984 392.552 251.984 391.784V388.196H253.304V391.568C253.304 392.048 253.408 392.428 253.616 392.708C253.824 392.98 254.12 393.116 254.504 393.116C254.952 393.116 255.308 392.948 255.572 392.612C255.836 392.268 255.968 391.78 255.968 391.148V388.196H257.288V394.196H255.968V393.38C255.616 394.004 255.032 394.316 254.216 394.316ZM259.064 394.196V388.196H260.384V389.264C260.496 388.928 260.7 388.656 260.996 388.448C261.3 388.24 261.624 388.136 261.968 388.136C262.176 388.136 262.348 388.152 262.484 388.184V389.54C262.292 389.468 262.072 389.432 261.824 389.432C261.424 389.432 261.084 389.596 260.804 389.924C260.524 390.244 260.384 390.692 260.384 391.268V394.196H259.064ZM265.629 394.316C264.917 394.316 264.317 394.14 263.829 393.788C263.349 393.436 263.093 392.964 263.061 392.372H264.429C264.525 392.964 264.937 393.26 265.665 393.26C265.961 393.26 266.197 393.208 266.373 393.104C266.549 392.992 266.637 392.832 266.637 392.624C266.637 392.416 266.569 392.252 266.433 392.132C266.297 392.012 266.069 391.912 265.749 391.832L264.765 391.568C263.741 391.296 263.229 390.692 263.229 389.756C263.229 389.252 263.433 388.848 263.841 388.544C264.249 388.232 264.789 388.076 265.461 388.076C266.109 388.076 266.641 388.24 267.057 388.568C267.473 388.896 267.705 389.332 267.753 389.876H266.433C266.305 389.38 265.977 389.132 265.449 389.132C265.185 389.132 264.973 389.188 264.813 389.3C264.653 389.404 264.573 389.552 264.573 389.744C264.573 390.088 264.841 390.328 265.377 390.464L266.385 390.728C267.449 391 267.981 391.604 267.981 392.54C267.981 393.108 267.761 393.548 267.321 393.86C266.889 394.164 266.325 394.316 265.629 394.316Z" fill="#2E3A59"/>
<path d="M299.842 390.427C299.842 393.704 297.261 396.349 294.092 396.349C290.923 396.349 288.342 393.704 288.342 390.427C288.342 387.15 290.923 384.506 294.092 384.506C297.261 384.506 299.842 387.15 299.842 390.427Z" fill="white" stroke="#E4E9F2" stroke-width="0.5"/>
<path d="M296.758 388.686L293.091 392.167L291.425 390.584" stroke="#8F9BB3" stroke-width="0.75" stroke-linecap="round" stroke-linejoin="round"/>
<path d="M175.666 419C174.81 419 174.082 418.744 173.482 418.232C172.89 417.72 172.586 417.044 172.57 416.204H173.89C173.922 416.66 174.102 417.024 174.43 417.296C174.766 417.568 175.178 417.704 175.666 417.704C176.106 417.704 176.466 417.588 176.746 417.356C177.034 417.124 177.182 416.804 177.19 416.396C177.19 415.948 177.042 415.612 176.746 415.388C176.458 415.156 176.058 415.04 175.546 415.04H174.874V413.912H175.546C175.97 413.912 176.306 413.8 176.554 413.576C176.81 413.352 176.942 413.06 176.95 412.7C176.95 412.348 176.822 412.064 176.566 411.848C176.31 411.624 175.994 411.512 175.618 411.512C175.17 411.512 174.798 411.644 174.502 411.908C174.206 412.164 174.058 412.516 174.058 412.964H172.726C172.726 412.132 173.006 411.468 173.566 410.972C174.134 410.468 174.818 410.216 175.618 410.216C176.41 410.216 177.05 410.44 177.538 410.888C178.034 411.336 178.282 411.912 178.282 412.616C178.282 413.008 178.182 413.372 177.982 413.708C177.782 414.036 177.534 414.288 177.238 414.464C177.63 414.632 177.942 414.892 178.174 415.244C178.406 415.596 178.522 416.008 178.522 416.48C178.522 417.224 178.254 417.832 177.718 418.304C177.19 418.768 176.506 419 175.666 419ZM180.682 418.976C180.402 418.976 180.158 418.876 179.95 418.676C179.75 418.468 179.65 418.22 179.65 417.932C179.65 417.652 179.75 417.408 179.95 417.2C180.158 416.992 180.402 416.888 180.682 416.888C180.97 416.888 181.214 416.992 181.414 417.2C181.622 417.408 181.726 417.652 181.726 417.932C181.726 418.22 181.622 418.468 181.414 418.676C181.214 418.876 180.97 418.976 180.682 418.976ZM190.042 419.024C188.77 419.024 187.71 418.604 186.862 417.764C186.022 416.916 185.602 415.868 185.602 414.62C185.602 413.372 186.022 412.328 186.862 411.488C187.71 410.64 188.77 410.216 190.042 410.216C191.05 410.216 191.93 410.504 192.682 411.08C193.442 411.648 193.93 412.36 194.146 413.216H192.634C192.45 412.728 192.122 412.332 191.65 412.028C191.178 411.724 190.642 411.572 190.042 411.572C189.162 411.572 188.438 411.864 187.87 412.448C187.302 413.032 187.018 413.756 187.018 414.62C187.018 415.484 187.302 416.208 187.87 416.792C188.438 417.376 189.162 417.668 190.042 417.668C190.642 417.668 191.178 417.516 191.65 417.212C192.122 416.908 192.45 416.512 192.634 416.024H194.146C193.93 416.88 193.442 417.596 192.682 418.172C191.93 418.74 191.05 419.024 190.042 419.024ZM195.407 418.88V412.88H196.727V413.948C196.839 413.612 197.043 413.34 197.339 413.132C197.643 412.924 197.967 412.82 198.311 412.82C198.519 412.82 198.691 412.836 198.827 412.868V414.224C198.635 414.152 198.415 414.116 198.167 414.116C197.767 414.116 197.427 414.28 197.147 414.608C196.867 414.928 196.727 415.376 196.727 415.952V418.88H195.407ZM202.407 419C201.511 419 200.775 418.708 200.199 418.124C199.623 417.532 199.335 416.784 199.335 415.88C199.335 414.976 199.619 414.232 200.187 413.648C200.755 413.056 201.499 412.76 202.419 412.76C203.347 412.76 204.095 413.084 204.663 413.732C205.231 414.372 205.483 415.196 205.419 416.204H200.643C200.659 416.668 200.835 417.056 201.171 417.368C201.507 417.68 201.935 417.836 202.455 417.836C203.191 417.836 203.695 417.556 203.967 416.996H205.347C205.163 417.58 204.811 418.06 204.291 418.436C203.771 418.812 203.143 419 202.407 419ZM202.383 413.864C201.951 413.864 201.579 413.988 201.267 414.236C200.963 414.476 200.767 414.82 200.679 415.268H204.003C203.907 414.804 203.711 414.456 203.415 414.224C203.119 413.984 202.775 413.864 202.383 413.864ZM209.235 419C208.419 419 207.731 418.696 207.171 418.088C206.619 417.48 206.343 416.744 206.343 415.88C206.343 415.016 206.619 414.28 207.171 413.672C207.731 413.064 208.419 412.76 209.235 412.76C209.643 412.76 210.019 412.852 210.363 413.036C210.707 413.212 210.971 413.428 211.155 413.684V412.88H212.475V418.88H211.155V418.076C210.971 418.332 210.707 418.552 210.363 418.736C210.019 418.912 209.643 419 209.235 419ZM208.191 417.248C208.527 417.616 208.955 417.8 209.475 417.8C209.995 417.8 210.423 417.616 210.759 417.248C211.095 416.88 211.263 416.424 211.263 415.88C211.263 415.336 211.095 414.88 210.759 414.512C210.423 414.144 209.995 413.96 209.475 413.96C208.955 413.96 208.527 414.144 208.191 414.512C207.855 414.88 207.687 415.336 207.687 415.88C207.687 416.424 207.855 416.88 208.191 417.248ZM216.867 418.94C216.259 418.94 215.763 418.772 215.379 418.436C215.003 418.092 214.815 417.596 214.815 416.948V414.056H213.567V412.88H214.815V411.212H216.135V412.88H217.851V414.056H216.135V416.732C216.135 417.1 216.215 417.364 216.375 417.524C216.535 417.676 216.791 417.752 217.143 417.752C217.431 417.752 217.667 417.712 217.851 417.632V418.808C217.563 418.896 217.235 418.94 216.867 418.94ZM221.673 419C220.777 419 220.041 418.708 219.465 418.124C218.889 417.532 218.601 416.784 218.601 415.88C218.601 414.976 218.885 414.232 219.453 413.648C220.021 413.056 220.765 412.76 221.685 412.76C222.613 412.76 223.361 413.084 223.929 413.732C224.497 414.372 224.749 415.196 224.685 416.204H219.909C219.925 416.668 220.101 417.056 220.437 417.368C220.773 417.68 221.201 417.836 221.721 417.836C222.457 417.836 222.961 417.556 223.233 416.996H224.613C224.429 417.58 224.077 418.06 223.557 418.436C223.037 418.812 222.409 419 221.673 419ZM221.649 413.864C221.217 413.864 220.845 413.988 220.533 414.236C220.229 414.476 220.033 414.82 219.945 415.268H223.269C223.173 414.804 222.977 414.456 222.681 414.224C222.385 413.984 222.041 413.864 221.649 413.864ZM230.976 419C230.264 419 229.664 418.824 229.176 418.472C228.696 418.12 228.44 417.648 228.408 417.056H229.776C229.872 417.648 230.284 417.944 231.012 417.944C231.308 417.944 231.544 417.892 231.72 417.788C231.896 417.676 231.984 417.516 231.984 417.308C231.984 417.1 231.916 416.936 231.78 416.816C231.644 416.696 231.416 416.596 231.096 416.516L230.112 416.252C229.088 415.98 228.576 415.376 228.576 414.44C228.576 413.936 228.78 413.532 229.188 413.228C229.596 412.916 230.136 412.76 230.808 412.76C231.456 412.76 231.988 412.924 232.404 413.252C232.82 413.58 233.052 414.016 233.1 414.56H231.78C231.652 414.064 231.324 413.816 230.796 413.816C230.532 413.816 230.32 413.872 230.16 413.984C230 414.088 229.92 414.236 229.92 414.428C229.92 414.772 230.188 415.012 230.724 415.148L231.732 415.412C232.796 415.684 233.328 416.288 233.328 417.224C233.328 417.792 233.108 418.232 232.668 418.544C232.236 418.848 231.672 419 230.976 419ZM237.317 419C236.421 419 235.685 418.708 235.109 418.124C234.533 417.532 234.245 416.784 234.245 415.88C234.245 414.976 234.529 414.232 235.097 413.648C235.665 413.056 236.409 412.76 237.329 412.76C238.257 412.76 239.005 413.084 239.573 413.732C240.141 414.372 240.393 415.196 240.329 416.204H235.553C235.569 416.668 235.745 417.056 236.081 417.368C236.417 417.68 236.845 417.836 237.365 417.836C238.101 417.836 238.605 417.556 238.877 416.996H240.257C240.073 417.58 239.721 418.06 239.201 418.436C238.681 418.812 238.053 419 237.317 419ZM237.293 413.864C236.861 413.864 236.489 413.988 236.177 414.236C235.873 414.476 235.677 414.82 235.589 415.268H238.913C238.817 414.804 238.621 414.456 238.325 414.224C238.029 413.984 237.685 413.864 237.293 413.864ZM241.685 418.88V412.88H243.005V413.948C243.117 413.612 243.321 413.34 243.617 413.132C243.921 412.924 244.245 412.82 244.589 412.82C244.797 412.82 244.969 412.836 245.105 412.868V414.224C244.913 414.152 244.693 414.116 244.445 414.116C244.045 414.116 243.705 414.28 243.425 414.608C243.145 414.928 243.005 415.376 243.005 415.952V418.88H241.685ZM248.115 418.88L245.403 412.88H246.867L248.691 417.092L250.527 412.88H252.003L249.279 418.88H248.115ZM253.583 411.572C253.343 411.572 253.135 411.488 252.959 411.32C252.783 411.144 252.695 410.932 252.695 410.684C252.695 410.444 252.783 410.24 252.959 410.072C253.135 409.896 253.343 409.808 253.583 409.808C253.831 409.808 254.039 409.896 254.207 410.072C254.375 410.24 254.459 410.444 254.459 410.684C254.459 410.932 254.375 411.144 254.207 411.32C254.039 411.488 253.831 411.572 253.583 411.572ZM252.923 418.88V412.88H254.243V418.88H252.923ZM258.729 419C257.825 419 257.073 418.7 256.473 418.1C255.881 417.492 255.585 416.752 255.585 415.88C255.585 415.008 255.881 414.272 256.473 413.672C257.073 413.064 257.825 412.76 258.729 412.76C259.505 412.76 260.165 412.976 260.709 413.408C261.261 413.84 261.617 414.396 261.777 415.076H260.385C260.265 414.74 260.057 414.472 259.761 414.272C259.473 414.064 259.129 413.96 258.729 413.96C258.201 413.96 257.769 414.14 257.433 414.5C257.097 414.86 256.929 415.32 256.929 415.88C256.929 416.44 257.097 416.9 257.433 417.26C257.769 417.62 258.201 417.8 258.729 417.8C259.129 417.8 259.473 417.7 259.761 417.5C260.057 417.292 260.265 417.02 260.385 416.684H261.777C261.617 417.364 261.261 417.92 260.709 418.352C260.165 418.784 259.505 419 258.729 419ZM265.677 419C264.781 419 264.045 418.708 263.469 418.124C262.893 417.532 262.605 416.784 262.605 415.88C262.605 414.976 262.889 414.232 263.457 413.648C264.025 413.056 264.769 412.76 265.689 412.76C266.617 412.76 267.365 413.084 267.933 413.732C268.501 414.372 268.753 415.196 268.689 416.204H263.913C263.929 416.668 264.105 417.056 264.441 417.368C264.777 417.68 265.205 417.836 265.725 417.836C266.461 417.836 266.965 417.556 267.237 416.996H268.617C268.433 417.58 268.081 418.06 267.561 418.436C267.041 418.812 266.413 419 265.677 419ZM265.653 413.864C265.221 413.864 264.849 413.988 264.537 414.236C264.233 414.476 264.037 414.82 263.949 415.268H267.273C267.177 414.804 266.981 414.456 266.685 414.224C266.389 413.984 266.045 413.864 265.653 413.864Z" fill="#2E3A59"/>
<path d="M299.842 415.108C299.842 418.385 297.261 421.029 294.092 421.029C290.923 421.029 288.342 418.385 288.342 415.108C288.342 411.831 290.923 409.187 294.092 409.187C297.261 409.187 299.842 411.831 299.842 415.108Z" fill="white" stroke="#E4E9F2" stroke-width="0.5"/>
<path d="M296.758 413.366L293.091 416.848L291.425 415.265" stroke="#8F9BB3" stroke-width="0.75" stroke-linecap="round" stroke-linejoin="round"/>
<path d="M48.6838 511V497.909H53.5929C54.5985 497.909 55.4423 498.084 56.1241 498.433C56.8102 498.783 57.3279 499.273 57.6774 499.903C58.0311 500.53 58.2079 501.261 58.2079 502.096C58.2079 502.935 58.0289 503.664 57.671 504.282C57.3173 504.896 56.7953 505.371 56.1049 505.707C55.4146 506.04 54.5666 506.206 53.5609 506.206H50.0645V504.237H53.2413C53.8294 504.237 54.3109 504.156 54.6859 503.994C55.0609 503.828 55.3379 503.587 55.5169 503.272C55.7001 502.952 55.7917 502.56 55.7917 502.096C55.7917 501.631 55.7001 501.235 55.5169 500.907C55.3336 500.575 55.0545 500.323 54.6795 500.153C54.3045 499.978 53.8208 499.891 53.2285 499.891H51.0552V511H48.6838ZM55.4466 505.068L58.6873 511H56.041L52.8578 505.068H55.4466ZM64.4945 511.192C63.5101 511.192 62.66 510.987 61.9441 510.578C61.2324 510.165 60.6848 509.581 60.3013 508.827C59.9178 508.068 59.726 507.175 59.726 506.148C59.726 505.138 59.9178 504.252 60.3013 503.489C60.6891 502.722 61.2303 502.126 61.9249 501.7C62.6195 501.269 63.4355 501.054 64.373 501.054C64.9782 501.054 65.5492 501.152 66.0861 501.348C66.6273 501.54 67.1046 501.838 67.5179 502.243C67.9355 502.648 68.2637 503.163 68.5023 503.79C68.7409 504.412 68.8603 505.153 68.8603 506.014V506.724H60.8127V505.164H66.6422C66.638 504.721 66.5421 504.327 66.3546 503.982C66.1671 503.632 65.905 503.357 65.5684 503.157C65.236 502.957 64.8482 502.857 64.405 502.857C63.932 502.857 63.5165 502.972 63.1586 503.202C62.8006 503.428 62.5215 503.726 62.3212 504.097C62.1252 504.463 62.025 504.866 62.0208 505.305V506.666C62.0208 507.237 62.1252 507.727 62.334 508.136C62.5428 508.541 62.8347 508.852 63.2097 509.07C63.5847 509.283 64.0236 509.389 64.5265 509.389C64.8631 509.389 65.1678 509.342 65.4405 509.249C65.7132 509.151 65.9498 509.008 66.15 508.82C66.3503 508.633 66.5016 508.401 66.6039 508.124L68.7644 508.366C68.628 508.937 68.3681 509.436 67.9846 509.862C67.6053 510.284 67.1195 510.612 66.5272 510.847C65.9348 511.077 65.2573 511.192 64.4945 511.192ZM73.6431 511.198C73.021 511.198 72.4606 511.087 71.962 510.866C71.4677 510.64 71.0756 510.308 70.7859 509.869C70.5004 509.43 70.3576 508.888 70.3576 508.245C70.3576 507.691 70.4599 507.233 70.6644 506.871C70.869 506.509 71.1481 506.219 71.5018 506.001C71.8555 505.784 72.2539 505.62 72.6971 505.509C73.1445 505.394 73.6069 505.311 74.0842 505.26C74.6594 505.2 75.1261 505.147 75.484 505.1C75.842 505.049 76.1019 504.972 76.2638 504.87C76.43 504.763 76.5131 504.599 76.5131 504.378V504.339C76.5131 503.858 76.3704 503.485 76.0849 503.221C75.7994 502.957 75.3881 502.825 74.8512 502.825C74.2844 502.825 73.8349 502.948 73.5025 503.195C73.1744 503.442 72.9528 503.734 72.8377 504.071L70.6772 503.764C70.8477 503.168 71.1289 502.669 71.521 502.268C71.913 501.864 72.3924 501.561 72.9592 501.361C73.5259 501.156 74.1523 501.054 74.8384 501.054C75.3114 501.054 75.7823 501.109 76.2511 501.22C76.7198 501.331 77.1481 501.514 77.5359 501.77C77.9237 502.021 78.2347 502.364 78.4691 502.799C78.7077 503.234 78.8271 503.777 78.8271 504.429V511H76.6026V509.651H76.5259C76.3853 509.924 76.1871 510.18 75.9315 510.418C75.68 510.653 75.3626 510.842 74.979 510.987C74.5998 511.128 74.1545 511.198 73.6431 511.198ZM74.244 509.498C74.7085 509.498 75.1112 509.406 75.4521 509.223C75.793 509.036 76.055 508.788 76.2383 508.482C76.4258 508.175 76.5195 507.84 76.5195 507.478V506.321C76.4471 506.381 76.3235 506.436 76.1488 506.487C75.9783 506.538 75.7866 506.583 75.5735 506.621C75.3604 506.66 75.1495 506.694 74.9407 506.724C74.7319 506.754 74.5508 506.779 74.3974 506.8C74.0522 506.847 73.7433 506.924 73.4705 507.031C73.1978 507.137 72.9826 507.286 72.8249 507.478C72.6673 507.665 72.5884 507.908 72.5884 508.207C72.5884 508.633 72.744 508.955 73.055 509.172C73.3661 509.389 73.7624 509.498 74.244 509.498ZM84.7972 511.173C84.0259 511.173 83.3356 510.974 82.7262 510.578C82.1168 510.182 81.6353 509.607 81.2816 508.852C80.9279 508.098 80.7511 507.182 80.7511 506.104C80.7511 505.013 80.93 504.092 81.288 503.342C81.6502 502.588 82.1381 502.019 82.7518 501.636C83.3654 501.248 84.0494 501.054 84.8036 501.054C85.3789 501.054 85.8519 501.152 86.2227 501.348C86.5934 501.54 86.8874 501.772 87.1048 502.045C87.3221 502.313 87.4904 502.567 87.6097 502.805H87.7056V497.909H90.0259V511H87.7504V509.453H87.6097C87.4904 509.692 87.3178 509.945 87.092 510.214C86.8661 510.478 86.5678 510.704 86.1971 510.891C85.8263 511.079 85.3597 511.173 84.7972 511.173ZM85.4428 509.274C85.9329 509.274 86.3505 509.142 86.6957 508.878C87.0408 508.609 87.3029 508.237 87.4819 507.759C87.6609 507.282 87.7504 506.726 87.7504 506.091C87.7504 505.456 87.6609 504.904 87.4819 504.435C87.3072 503.967 87.0472 503.602 86.7021 503.342C86.3612 503.082 85.9414 502.952 85.4428 502.952C84.9272 502.952 84.4968 503.087 84.1516 503.355C83.8065 503.624 83.5465 503.994 83.3718 504.467C83.1971 504.94 83.1097 505.482 83.1097 506.091C83.1097 506.705 83.1971 507.252 83.3718 507.734C83.5508 508.211 83.8129 508.588 84.158 508.865C84.5075 509.138 84.9357 509.274 85.4428 509.274ZM93.9299 514.682C93.6145 514.682 93.3226 514.656 93.0542 514.605C92.79 514.558 92.579 514.503 92.4213 514.439L92.9583 512.636C93.2949 512.734 93.5953 512.781 93.8596 512.777C94.1238 512.773 94.356 512.69 94.5563 512.528C94.7608 512.37 94.9334 512.106 95.074 511.735L95.2722 511.205L91.7118 501.182H94.1664L96.4292 508.597H96.5314L98.8006 501.182H101.262L97.3304 512.189C97.1472 512.709 96.9043 513.154 96.6017 513.525C96.2992 513.9 95.9284 514.185 95.4895 514.381C95.0549 514.582 94.535 514.682 93.9299 514.682ZM112.23 501.182V502.972H106.586V501.182H112.23ZM107.98 498.83H110.294V508.047C110.294 508.358 110.34 508.597 110.434 508.763C110.532 508.925 110.66 509.036 110.818 509.095C110.975 509.155 111.15 509.185 111.342 509.185C111.487 509.185 111.619 509.174 111.738 509.153C111.862 509.131 111.955 509.112 112.019 509.095L112.409 510.904C112.286 510.947 112.109 510.994 111.879 511.045C111.653 511.096 111.376 511.126 111.048 511.134C110.468 511.151 109.946 511.064 109.482 510.872C109.017 510.676 108.649 510.374 108.376 509.964C108.107 509.555 107.975 509.044 107.98 508.43V498.83ZM118.343 511.192C117.384 511.192 116.553 510.981 115.85 510.559C115.147 510.137 114.601 509.547 114.213 508.788C113.83 508.03 113.638 507.143 113.638 506.129C113.638 505.115 113.83 504.227 114.213 503.464C114.601 502.701 115.147 502.109 115.85 501.687C116.553 501.265 117.384 501.054 118.343 501.054C119.301 501.054 120.132 501.265 120.836 501.687C121.539 502.109 122.082 502.701 122.466 503.464C122.853 504.227 123.047 505.115 123.047 506.129C123.047 507.143 122.853 508.03 122.466 508.788C122.082 509.547 121.539 510.137 120.836 510.559C120.132 510.981 119.301 511.192 118.343 511.192ZM118.355 509.338C118.875 509.338 119.31 509.195 119.659 508.91C120.009 508.62 120.269 508.232 120.439 507.746C120.614 507.261 120.701 506.719 120.701 506.123C120.701 505.522 120.614 504.979 120.439 504.493C120.269 504.003 120.009 503.613 119.659 503.323C119.31 503.033 118.875 502.888 118.355 502.888C117.823 502.888 117.38 503.033 117.026 503.323C116.676 503.613 116.414 504.003 116.24 504.493C116.069 504.979 115.984 505.522 115.984 506.123C115.984 506.719 116.069 507.261 116.24 507.746C116.414 508.232 116.676 508.62 117.026 508.91C117.38 509.195 117.823 509.338 118.355 509.338ZM129.476 511V501.182H131.72V502.818H131.822C132.001 502.251 132.308 501.815 132.742 501.508C133.181 501.197 133.682 501.041 134.244 501.041C134.372 501.041 134.515 501.048 134.673 501.06C134.835 501.069 134.969 501.084 135.075 501.105V503.234C134.977 503.2 134.822 503.17 134.609 503.144C134.4 503.114 134.198 503.099 134.002 503.099C133.58 503.099 133.2 503.191 132.864 503.374C132.531 503.553 132.269 503.803 132.078 504.122C131.886 504.442 131.79 504.81 131.79 505.228V511H129.476ZM140.491 511.192C139.532 511.192 138.701 510.981 137.998 510.559C137.295 510.137 136.75 509.547 136.362 508.788C135.978 508.03 135.787 507.143 135.787 506.129C135.787 505.115 135.978 504.227 136.362 503.464C136.75 502.701 137.295 502.109 137.998 501.687C138.701 501.265 139.532 501.054 140.491 501.054C141.45 501.054 142.281 501.265 142.984 501.687C143.687 502.109 144.23 502.701 144.614 503.464C145.002 504.227 145.196 505.115 145.196 506.129C145.196 507.143 145.002 508.03 144.614 508.788C144.23 509.547 143.687 510.137 142.984 510.559C142.281 510.981 141.45 511.192 140.491 511.192ZM140.504 509.338C141.024 509.338 141.458 509.195 141.808 508.91C142.157 508.62 142.417 508.232 142.588 507.746C142.762 507.261 142.85 506.719 142.85 506.123C142.85 505.522 142.762 504.979 142.588 504.493C142.417 504.003 142.157 503.613 141.808 503.323C141.458 503.033 141.024 502.888 140.504 502.888C139.971 502.888 139.528 503.033 139.174 503.323C138.825 503.613 138.563 504.003 138.388 504.493C138.218 504.979 138.132 505.522 138.132 506.123C138.132 506.719 138.218 507.261 138.388 507.746C138.563 508.232 138.825 508.62 139.174 508.91C139.528 509.195 139.971 509.338 140.504 509.338ZM151.442 511.192C150.462 511.192 149.621 510.977 148.917 510.546C148.219 510.116 147.68 509.521 147.3 508.763C146.925 508 146.738 507.122 146.738 506.129C146.738 505.132 146.93 504.252 147.313 503.489C147.697 502.722 148.238 502.126 148.937 501.7C149.64 501.269 150.471 501.054 151.43 501.054C152.226 501.054 152.932 501.201 153.545 501.495C154.163 501.785 154.655 502.196 155.022 502.729C155.388 503.257 155.597 503.875 155.648 504.582H153.437C153.347 504.109 153.134 503.715 152.797 503.4C152.465 503.08 152.02 502.92 151.461 502.92C150.988 502.92 150.573 503.048 150.215 503.304C149.857 503.555 149.578 503.918 149.378 504.391C149.182 504.864 149.084 505.43 149.084 506.091C149.084 506.76 149.182 507.335 149.378 507.817C149.574 508.294 149.849 508.663 150.202 508.923C150.56 509.178 150.98 509.306 151.461 509.306C151.802 509.306 152.107 509.242 152.376 509.114C152.648 508.982 152.876 508.793 153.059 508.545C153.243 508.298 153.368 507.998 153.437 507.644H155.648C155.593 508.339 155.388 508.955 155.035 509.491C154.681 510.024 154.199 510.442 153.59 510.744C152.981 511.043 152.265 511.192 151.442 511.192ZM159.658 507.919L159.651 505.126H160.022L163.55 501.182H166.254L161.914 506.014H161.435L159.658 507.919ZM157.548 511V497.909H159.862V511H157.548ZM163.71 511L160.514 506.532L162.074 504.902L166.478 511H163.71Z" fill="#2E3A59"/>
<rect x="15" y="538.001" width="184" height="143.767" rx="8" fill="#6D2FFD"/>
<rect x="75.2618" y="624.111" width="64.0095" height="3.08173" rx="1.54086" fill="white"/>
<rect x="58.2593" y="635.711" width="98.0145" height="3.08173" rx="1.54086" fill="white"/>
<rect x="72.7615" y="647.312" width="69.0102" height="3.08173" rx="1.54086" fill="white"/>
<rect x="48.2578" y="658.912" width="118.017" height="3.08173" rx="1.54086" fill="white"/>
<rect x="81.8691" y="555.446" width="51.1111" height="51.1111" rx="25.5556" fill="white"/>
<path d="M107.423 585.263L103.164 581.004M107.423 585.263C109.406 584.509 111.309 583.558 113.102 582.424M107.423 585.263V592.362C107.423 592.362 111.725 591.581 113.102 589.523C114.636 587.223 113.102 582.424 113.102 582.424M103.164 581.004C103.919 579.044 104.871 577.165 106.003 575.396C107.658 572.751 109.961 570.573 112.695 569.07C115.428 567.566 118.501 566.787 121.621 566.807C121.621 570.668 120.513 577.455 113.102 582.424M103.164 581.004H96.0652C96.0652 581.004 96.846 576.702 98.9047 575.325C101.205 573.792 106.003 575.325 106.003 575.325M96.7751 587.393C94.6454 589.182 93.9355 594.492 93.9355 594.492C93.9355 594.492 99.2454 593.782 101.034 591.652C102.042 590.46 102.028 588.628 100.907 587.521C100.355 586.994 99.6278 586.69 98.8653 586.666C98.1027 586.642 97.3584 586.901 96.7751 587.393Z" stroke="#6D2FFD" stroke-width="2.55556" stroke-linecap="round" stroke-linejoin="round"/>
</svg>
