<svg width="1078" height="198" viewBox="0 0 1078 198" fill="none" xmlns="http://www.w3.org/2000/svg">
<rect x="835" width="184" height="144" rx="8" fill="#6D2FFD"/>
<rect x="895" y="86.8574" width="64" height="3.08571" rx="1.54286" fill="white"/>
<rect x="878" y="97.9434" width="98" height="3.08571" rx="1.54286" fill="white"/>
<rect x="892.5" y="109.029" width="69" height="3.08571" rx="1.54286" fill="white"/>
<rect x="868" y="120.114" width="118" height="3.08571" rx="1.54286" fill="white"/>
<rect x="903" y="24" width="48" height="48" rx="24" fill="white"/>
<path d="M926.999 51.9997L922.999 47.9997M926.999 51.9997C928.861 51.2913 930.648 50.398 932.332 49.333M926.999 51.9997V58.6663C926.999 58.6663 931.039 57.933 932.332 55.9997C933.772 53.8397 932.332 49.333 932.332 49.333M922.999 47.9997C923.708 46.1589 924.602 44.3944 925.665 42.733C927.219 40.249 929.382 38.2037 931.949 36.7918C934.517 35.3799 937.402 34.6482 940.332 34.6663C940.332 38.293 939.292 44.6663 932.332 49.333M922.999 47.9997H916.332C916.332 47.9997 917.065 43.9597 918.999 42.6663C921.159 41.2263 925.665 42.6663 925.665 42.6663M916.999 53.9997C914.999 55.6797 914.332 60.6663 914.332 60.6663C914.332 60.6663 919.319 59.9997 920.999 57.9997C921.945 56.8797 921.932 55.1597 920.879 54.1197C920.36 53.625 919.678 53.3392 918.962 53.317C918.246 53.2949 917.547 53.538 916.999 53.9997Z" stroke="#6D2FFD" stroke-width="2.4" stroke-linecap="round" stroke-linejoin="round"/>
<path d="M382 32V32C394.15 32 404 41.8497 404 54V86C404 98.1503 413.85 108 426 108V108" stroke="#D0D5DD" stroke-width="2" stroke-linecap="round" stroke-dasharray="6 8"/>
<path d="M259 32L382 32" stroke="#D0D5DD" stroke-width="2" stroke-linecap="round" stroke-dasharray="6 8"/>
<path d="M429.5 100C429.5 100 432 104.667 438 108C432 111.333 429.5 116 429.5 116" stroke="#D0D5DD" stroke-width="2" stroke-linecap="round" stroke-linejoin="round"/>
<path d="M438 108H426" stroke="#D0D5DD" stroke-width="2" stroke-linecap="round"/>
<path d="M770 108V108C782.15 108 792 98.1503 792 86V54C792 41.8497 801.85 32 814 32V32" stroke="#D0D5DD" stroke-width="2" stroke-linecap="round" stroke-dasharray="6 8"/>
<path d="M647 108L770 108" stroke="#D0D5DD" stroke-width="2" stroke-linecap="round" stroke-dasharray="6 8"/>
<path d="M817.5 40C817.5 40 820 35.3333 826 32C820 28.6667 817.5 24 817.5 24" stroke="#D0D5DD" stroke-width="2" stroke-linecap="round" stroke-linejoin="round"/>
<path d="M826 32H814" stroke="#D0D5DD" stroke-width="2" stroke-linecap="round"/>
<rect x="59" width="184" height="90.5142" rx="8" fill="white"/>
<rect x="59" y="98.7432" width="184" height="45.2571" rx="8" fill="#6D2FFD"/>
<rect x="119" y="20.5713" width="64" height="3.08571" rx="1.54286" fill="#D0D5DD"/>
<rect x="129" y="43.2002" width="44" height="3.08571" rx="1.54286" fill="#D0D5DD"/>
<rect x="117" y="54.5146" width="69" height="3.08571" rx="1.54286" fill="#D0D5DD"/>
<rect x="102" y="31.8857" width="98" height="3.08571" rx="1.54286" fill="#D0D5DD"/>
<rect x="92" y="65.8281" width="118" height="3.08571" rx="1.54286" fill="#D0D5DD"/>
<path d="M129.173 126.972V115.612H131.045V126.972H129.173ZM133.528 126.972V118.972H135.288V120.06C135.789 119.228 136.6 118.812 137.72 118.812C138.648 118.812 139.389 119.116 139.944 119.724C140.498 120.332 140.776 121.142 140.776 122.156V126.972H139.016V122.444C139.016 121.804 138.866 121.308 138.568 120.956C138.269 120.593 137.864 120.412 137.352 120.412C136.744 120.412 136.248 120.641 135.864 121.1C135.48 121.558 135.288 122.204 135.288 123.036V126.972H133.528ZM145.844 127.132C144.894 127.132 144.094 126.897 143.444 126.428C142.804 125.958 142.462 125.329 142.42 124.54H144.244C144.372 125.329 144.921 125.724 145.892 125.724C146.286 125.724 146.601 125.654 146.836 125.516C147.07 125.366 147.188 125.153 147.188 124.876C147.188 124.598 147.097 124.38 146.916 124.22C146.734 124.06 146.43 123.926 146.004 123.82L144.692 123.468C143.326 123.105 142.644 122.3 142.644 121.052C142.644 120.38 142.916 119.841 143.46 119.436C144.004 119.02 144.724 118.812 145.62 118.812C146.484 118.812 147.193 119.03 147.748 119.468C148.302 119.905 148.612 120.486 148.676 121.212H146.916C146.745 120.55 146.308 120.22 145.604 120.22C145.252 120.22 144.969 120.294 144.756 120.444C144.542 120.582 144.436 120.78 144.436 121.036C144.436 121.494 144.793 121.814 145.508 121.996L146.852 122.348C148.27 122.71 148.98 123.516 148.98 124.764C148.98 125.521 148.686 126.108 148.1 126.524C147.524 126.929 146.772 127.132 145.844 127.132ZM154.078 127.052C153.267 127.052 152.606 126.828 152.094 126.38C151.593 125.921 151.342 125.26 151.342 124.396V120.54H149.678V118.972H151.342V116.748H153.102V118.972H155.39V120.54H153.102V124.108C153.102 124.598 153.209 124.95 153.422 125.164C153.635 125.366 153.977 125.468 154.446 125.468C154.83 125.468 155.145 125.414 155.39 125.308V126.876C155.006 126.993 154.569 127.052 154.078 127.052ZM160.23 127.132C159.142 127.132 158.224 126.726 157.478 125.916C156.742 125.105 156.374 124.124 156.374 122.972C156.374 121.82 156.742 120.838 157.478 120.028C158.224 119.217 159.142 118.812 160.23 118.812C160.774 118.812 161.275 118.934 161.734 119.18C162.192 119.414 162.544 119.702 162.79 120.044V118.972H164.55V126.972H162.79V125.9C162.544 126.241 162.192 126.534 161.734 126.78C161.275 127.014 160.774 127.132 160.23 127.132ZM158.838 124.796C159.286 125.286 159.856 125.532 160.55 125.532C161.243 125.532 161.814 125.286 162.262 124.796C162.71 124.305 162.934 123.697 162.934 122.972C162.934 122.246 162.71 121.638 162.262 121.148C161.814 120.657 161.243 120.412 160.55 120.412C159.856 120.412 159.286 120.657 158.838 121.148C158.39 121.638 158.166 122.246 158.166 122.972C158.166 123.697 158.39 124.305 158.838 124.796ZM166.934 126.972V114.972H168.694V126.972H166.934ZM171.059 126.972V114.972H172.819V126.972H171.059Z" fill="white"/>
<path d="M190.481 140.424L190.21 114.171L210.406 131.663L198.799 132.428L190.481 140.424Z" fill="#2E3A59" stroke="#E4E9F2" stroke-width="1.81063" stroke-linecap="square"/>
<rect x="447" width="184" height="144" rx="8" fill="#EBE9FE"/>
<rect x="463" y="16.457" width="152" height="115.2" rx="8" fill="white"/>
<path d="M463 41.1426H615V24.4569C615 20.0386 611.418 16.4569 607 16.4569H471C466.582 16.4569 463 20.0386 463 24.4569V41.1426Z" fill="#6D2FFD"/>
<circle cx="475.002" cy="28.6855" r="4" fill="#FF3D71"/>
<circle cx="491.002" cy="28.6855" r="4" fill="#FFAA00"/>
<circle cx="507.002" cy="28.6855" r="4" fill="#00B887"/>
<path d="M602.502 61.7144C602.502 64.86 600.026 67.3858 597.002 67.3858C593.978 67.3858 591.502 64.86 591.502 61.7144C591.502 58.5688 593.978 56.043 597.002 56.043C600.026 56.043 602.502 58.5688 602.502 61.7144Z" fill="#00D68F" stroke="#00D68F"/>
<path d="M599.669 59.9746L596.003 63.4559L594.336 61.8735" stroke="white" stroke-width="1.5" stroke-linecap="round" stroke-linejoin="round"/>
<path d="M476.776 65.4863V58.2743H475.06L476.068 56.9663H478.096V65.4863H476.776ZM480.732 65.5823C480.452 65.5823 480.208 65.4823 480 65.2823C479.8 65.0743 479.7 64.8263 479.7 64.5383C479.7 64.2583 479.8 64.0143 480 63.8063C480.208 63.5983 480.452 63.4943 480.732 63.4943C481.02 63.4943 481.264 63.5983 481.464 63.8063C481.672 64.0143 481.776 64.2583 481.776 64.5383C481.776 64.8263 481.672 65.0743 481.464 65.2823C481.264 65.4823 481.02 65.5823 480.732 65.5823ZM490.092 65.6303C488.82 65.6303 487.76 65.2103 486.912 64.3703C486.072 63.5223 485.652 62.4743 485.652 61.2263C485.652 59.9783 486.072 58.9343 486.912 58.0943C487.76 57.2463 488.82 56.8223 490.092 56.8223C491.1 56.8223 491.98 57.1103 492.732 57.6863C493.492 58.2543 493.98 58.9663 494.196 59.8223H492.684C492.5 59.3343 492.172 58.9383 491.7 58.6343C491.228 58.3303 490.692 58.1783 490.092 58.1783C489.212 58.1783 488.488 58.4703 487.92 59.0543C487.352 59.6383 487.068 60.3623 487.068 61.2263C487.068 62.0903 487.352 62.8143 487.92 63.3983C488.488 63.9823 489.212 64.2743 490.092 64.2743C490.692 64.2743 491.228 64.1223 491.7 63.8183C492.172 63.5143 492.5 63.1183 492.684 62.6303H494.196C493.98 63.4863 493.492 64.2023 492.732 64.7783C491.98 65.3463 491.1 65.6303 490.092 65.6303ZM500.402 64.7063C499.802 65.3063 499.058 65.6063 498.17 65.6063C497.282 65.6063 496.534 65.3063 495.926 64.7063C495.326 64.0983 495.026 63.3583 495.026 62.4863C495.026 61.6143 495.326 60.8783 495.926 60.2783C496.534 59.6703 497.282 59.3663 498.17 59.3663C499.058 59.3663 499.802 59.6703 500.402 60.2783C501.01 60.8783 501.314 61.6143 501.314 62.4863C501.314 63.3583 501.01 64.0983 500.402 64.7063ZM498.17 64.3823C498.69 64.3823 499.118 64.2023 499.454 63.8423C499.798 63.4743 499.97 63.0223 499.97 62.4863C499.97 61.9503 499.798 61.5023 499.454 61.1423C499.118 60.7743 498.69 60.5903 498.17 60.5903C497.642 60.5903 497.206 60.7743 496.862 61.1423C496.526 61.5023 496.358 61.9503 496.358 62.4863C496.358 63.0223 496.526 63.4743 496.862 63.8423C497.206 64.2023 497.642 64.3823 498.17 64.3823ZM510.286 65.4863V62.1143C510.286 61.6263 510.194 61.2463 510.01 60.9743C509.834 60.7023 509.57 60.5663 509.218 60.5663C508.794 60.5663 508.454 60.7303 508.198 61.0583C507.942 61.3863 507.806 61.8463 507.79 62.4383V65.4863H506.47V62.1143C506.47 61.6263 506.378 61.2463 506.194 60.9743C506.018 60.7023 505.754 60.5663 505.402 60.5663C504.962 60.5663 504.61 60.7383 504.346 61.0823C504.09 61.4263 503.962 61.9103 503.962 62.5343V65.4863H502.642V59.4863H503.962V60.3023C504.33 59.6783 504.898 59.3663 505.666 59.3663C506.57 59.3663 507.19 59.7623 507.526 60.5543C507.694 60.1783 507.95 59.8863 508.294 59.6783C508.646 59.4703 509.03 59.3663 509.446 59.3663C510.118 59.3663 510.646 59.5943 511.03 60.0503C511.414 60.5063 511.606 61.1223 511.606 61.8983V65.4863H510.286ZM514.614 67.9943H513.294V59.4863H514.614V60.2903C514.798 60.0343 515.062 59.8183 515.406 59.6423C515.758 59.4583 516.138 59.3663 516.546 59.3663C517.362 59.3663 518.046 59.6703 518.598 60.2783C519.158 60.8863 519.438 61.6223 519.438 62.4863C519.438 63.3503 519.158 64.0863 518.598 64.6943C518.046 65.3023 517.362 65.6063 516.546 65.6063C516.138 65.6063 515.758 65.5183 515.406 65.3423C515.062 65.1583 514.798 64.9383 514.614 64.6823V67.9943ZM516.306 64.4063C516.826 64.4063 517.254 64.2223 517.59 63.8543C517.926 63.4863 518.094 63.0303 518.094 62.4863C518.094 61.9423 517.926 61.4863 517.59 61.1183C517.254 60.7503 516.826 60.5663 516.306 60.5663C515.778 60.5663 515.346 60.7503 515.01 61.1183C514.674 61.4863 514.506 61.9423 514.506 62.4863C514.506 63.0303 514.674 63.4863 515.01 63.8543C515.346 64.2223 515.778 64.4063 516.306 64.4063ZM523.243 65.6063C522.427 65.6063 521.739 65.3023 521.179 64.6943C520.627 64.0863 520.351 63.3503 520.351 62.4863C520.351 61.6223 520.627 60.8863 521.179 60.2783C521.739 59.6703 522.427 59.3663 523.243 59.3663C523.651 59.3663 524.027 59.4583 524.371 59.6423C524.715 59.8183 524.979 60.0343 525.163 60.2903V59.4863H526.483V65.4863H525.163V64.6823C524.979 64.9383 524.715 65.1583 524.371 65.3423C524.027 65.5183 523.651 65.6063 523.243 65.6063ZM522.199 63.8543C522.535 64.2223 522.963 64.4063 523.483 64.4063C524.003 64.4063 524.431 64.2223 524.767 63.8543C525.103 63.4863 525.271 63.0303 525.271 62.4863C525.271 61.9423 525.103 61.4863 524.767 61.1183C524.431 60.7503 524.003 60.5663 523.483 60.5663C522.963 60.5663 522.535 60.7503 522.199 61.1183C521.863 61.4863 521.695 61.9423 521.695 62.4863C521.695 63.0303 521.863 63.4863 522.199 63.8543ZM528.271 65.4863V59.4863H529.591V60.3023C529.967 59.6783 530.575 59.3663 531.415 59.3663C532.111 59.3663 532.667 59.5943 533.083 60.0503C533.499 60.5063 533.707 61.1143 533.707 61.8743V65.4863H532.387V62.0903C532.387 61.6103 532.275 61.2383 532.051 60.9743C531.827 60.7023 531.523 60.5663 531.139 60.5663C530.683 60.5663 530.311 60.7383 530.023 61.0823C529.735 61.4263 529.591 61.9103 529.591 62.5343V65.4863H528.271ZM537.175 67.9943H535.723L537.007 65.1623L534.427 59.4863H535.879L537.715 63.7343L539.563 59.4863H541.027L537.175 67.9943ZM546.961 65.6063C546.145 65.6063 545.457 65.3023 544.897 64.6943C544.345 64.0863 544.069 63.3503 544.069 62.4863C544.069 61.6223 544.345 60.8863 544.897 60.2783C545.457 59.6703 546.145 59.3663 546.961 59.3663C547.369 59.3663 547.745 59.4583 548.089 59.6423C548.433 59.8183 548.697 60.0343 548.881 60.2903V56.4863H550.201V65.4863H548.881V64.6823C548.697 64.9383 548.433 65.1583 548.089 65.3423C547.745 65.5183 547.369 65.6063 546.961 65.6063ZM545.917 63.8543C546.253 64.2223 546.681 64.4063 547.201 64.4063C547.721 64.4063 548.149 64.2223 548.485 63.8543C548.821 63.4863 548.989 63.0303 548.989 62.4863C548.989 61.9423 548.821 61.4863 548.485 61.1183C548.149 60.7503 547.721 60.5663 547.201 60.5663C546.681 60.5663 546.253 60.7503 545.917 61.1183C545.581 61.4863 545.413 61.9423 545.413 62.4863C545.413 63.0303 545.581 63.4863 545.917 63.8543ZM554.642 65.6063C553.746 65.6063 553.01 65.3143 552.434 64.7303C551.858 64.1383 551.57 63.3903 551.57 62.4863C551.57 61.5823 551.854 60.8383 552.422 60.2543C552.99 59.6623 553.734 59.3663 554.654 59.3663C555.582 59.3663 556.33 59.6903 556.898 60.3383C557.466 60.9783 557.718 61.8023 557.654 62.8103H552.878C552.894 63.2743 553.07 63.6623 553.406 63.9743C553.742 64.2863 554.17 64.4423 554.69 64.4423C555.426 64.4423 555.93 64.1623 556.202 63.6023H557.582C557.398 64.1863 557.046 64.6663 556.526 65.0423C556.006 65.4183 555.378 65.6063 554.642 65.6063ZM554.618 60.4703C554.186 60.4703 553.814 60.5943 553.502 60.8423C553.198 61.0823 553.002 61.4263 552.914 61.8743H556.238C556.142 61.4103 555.946 61.0623 555.65 60.8303C555.354 60.5903 555.01 60.4703 554.618 60.4703ZM561.508 65.5463C560.9 65.5463 560.404 65.3783 560.02 65.0423C559.644 64.6983 559.456 64.2023 559.456 63.5543V60.6623H558.208V59.4863H559.456V57.8183H560.776V59.4863H562.492V60.6623H560.776V63.3383C560.776 63.7063 560.856 63.9703 561.016 64.1303C561.176 64.2823 561.432 64.3583 561.784 64.3583C562.072 64.3583 562.308 64.3183 562.492 64.2383V65.4143C562.204 65.5023 561.876 65.5463 561.508 65.5463ZM566.121 65.6063C565.305 65.6063 564.617 65.3023 564.057 64.6943C563.505 64.0863 563.229 63.3503 563.229 62.4863C563.229 61.6223 563.505 60.8863 564.057 60.2783C564.617 59.6703 565.305 59.3663 566.121 59.3663C566.529 59.3663 566.905 59.4583 567.249 59.6423C567.593 59.8183 567.857 60.0343 568.041 60.2903V59.4863H569.361V65.4863H568.041V64.6823C567.857 64.9383 567.593 65.1583 567.249 65.3423C566.905 65.5183 566.529 65.6063 566.121 65.6063ZM565.077 63.8543C565.413 64.2223 565.841 64.4063 566.361 64.4063C566.881 64.4063 567.309 64.2223 567.645 63.8543C567.981 63.4863 568.149 63.0303 568.149 62.4863C568.149 61.9423 567.981 61.4863 567.645 61.1183C567.309 60.7503 566.881 60.5663 566.361 60.5663C565.841 60.5663 565.413 60.7503 565.077 61.1183C564.741 61.4863 564.573 61.9423 564.573 62.4863C564.573 63.0303 564.741 63.4863 565.077 63.8543ZM571.81 58.1783C571.57 58.1783 571.362 58.0943 571.186 57.9263C571.01 57.7503 570.922 57.5383 570.922 57.2903C570.922 57.0503 571.01 56.8463 571.186 56.6783C571.362 56.5023 571.57 56.4143 571.81 56.4143C572.058 56.4143 572.266 56.5023 572.434 56.6783C572.602 56.8463 572.686 57.0503 572.686 57.2903C572.686 57.5383 572.602 57.7503 572.434 57.9263C572.266 58.0943 572.058 58.1783 571.81 58.1783ZM571.15 65.4863V59.4863H572.47V65.4863H571.15ZM574.243 65.4863V56.4863H575.563V65.4863H574.243ZM579.449 65.6063C578.737 65.6063 578.137 65.4303 577.649 65.0783C577.169 64.7263 576.913 64.2543 576.881 63.6623H578.249C578.345 64.2543 578.757 64.5503 579.485 64.5503C579.781 64.5503 580.017 64.4983 580.193 64.3943C580.369 64.2823 580.457 64.1223 580.457 63.9143C580.457 63.7063 580.389 63.5423 580.253 63.4223C580.117 63.3023 579.889 63.2023 579.569 63.1223L578.585 62.8583C577.561 62.5863 577.049 61.9823 577.049 61.0463C577.049 60.5423 577.253 60.1383 577.661 59.8343C578.069 59.5223 578.609 59.3663 579.281 59.3663C579.929 59.3663 580.461 59.5303 580.877 59.8583C581.293 60.1863 581.525 60.6223 581.573 61.1663H580.253C580.125 60.6703 579.797 60.4223 579.269 60.4223C579.005 60.4223 578.793 60.4783 578.633 60.5903C578.473 60.6943 578.393 60.8423 578.393 61.0343C578.393 61.3783 578.661 61.6183 579.197 61.7543L580.205 62.0183C581.269 62.2903 581.801 62.8943 581.801 63.8303C581.801 64.3983 581.581 64.8383 581.141 65.1503C580.709 65.4543 580.145 65.6063 579.449 65.6063Z" fill="#2E3A59"/>
<path d="M481.192 88.8749V90.1709H475.552V89.6909C475.552 89.3869 475.596 89.0989 475.684 88.8269C475.78 88.5469 475.88 88.3149 475.984 88.1309C476.088 87.9469 476.26 87.7429 476.5 87.5189C476.74 87.2869 476.924 87.1229 477.052 87.0269C477.18 86.9229 477.404 86.7549 477.724 86.5229C478.052 86.2909 478.26 86.1429 478.348 86.0789C478.852 85.7109 479.216 85.3869 479.44 85.1069C479.664 84.8269 479.776 84.4909 479.776 84.0989C479.776 83.7069 479.656 83.3949 479.416 83.1629C479.176 82.9229 478.844 82.8029 478.42 82.8029C477.98 82.8029 477.616 82.9349 477.328 83.1989C477.04 83.4549 476.892 83.8069 476.884 84.2549H475.552C475.552 83.4469 475.824 82.7869 476.368 82.2749C476.92 81.7629 477.608 81.5069 478.432 81.5069C479.192 81.5069 479.828 81.7309 480.34 82.1789C480.852 82.6269 481.108 83.2549 481.108 84.0629C481.108 84.7029 480.96 85.2429 480.664 85.6829C480.376 86.1149 479.896 86.5709 479.224 87.0509C479.12 87.1309 478.928 87.2669 478.648 87.4589C478.368 87.6509 478.16 87.7989 478.024 87.9029C477.896 88.0069 477.756 88.1509 477.604 88.3349C477.452 88.5109 477.348 88.6909 477.292 88.8749H481.192ZM483.369 90.2669C483.089 90.2669 482.845 90.1669 482.637 89.9669C482.437 89.7589 482.337 89.5109 482.337 89.2229C482.337 88.9429 482.437 88.6989 482.637 88.4909C482.845 88.2829 483.089 88.1789 483.369 88.1789C483.657 88.1789 483.901 88.2829 484.101 88.4909C484.309 88.6989 484.413 88.9429 484.413 89.2229C484.413 89.5109 484.309 89.7589 484.101 89.9669C483.901 90.1669 483.657 90.2669 483.369 90.2669ZM488.829 90.1709V81.6509H491.769C492.513 81.6509 493.121 81.8789 493.593 82.3349C494.073 82.7909 494.313 83.3469 494.313 84.0029C494.313 84.7069 494.049 85.2549 493.521 85.6469C494.433 86.0229 494.889 86.6989 494.889 87.6749C494.889 88.3869 494.629 88.9829 494.109 89.4629C493.597 89.9349 492.941 90.1709 492.141 90.1709H488.829ZM490.233 88.8869H492.105C492.553 88.8869 492.901 88.7749 493.149 88.5509C493.397 88.3269 493.521 88.0309 493.521 87.6629C493.521 87.3029 493.397 87.0109 493.149 86.7869C492.901 86.5549 492.553 86.4389 492.105 86.4389H490.233V88.8869ZM490.233 85.2389H491.697C492.073 85.2389 492.373 85.1309 492.597 84.9149C492.821 84.6989 492.933 84.4229 492.933 84.0869C492.933 83.7669 492.821 83.4949 492.597 83.2709C492.373 83.0469 492.073 82.9349 491.697 82.9349H490.233V85.2389ZM498.356 90.2909C497.668 90.2909 497.124 90.0629 496.724 89.6069C496.324 89.1429 496.124 88.5269 496.124 87.7589V84.1709H497.444V87.5429C497.444 88.0229 497.548 88.4029 497.756 88.6829C497.964 88.9549 498.26 89.0909 498.644 89.0909C499.092 89.0909 499.448 88.9229 499.712 88.5869C499.976 88.2429 500.108 87.7549 500.108 87.1229V84.1709H501.428V90.1709H500.108V89.3549C499.756 89.9789 499.172 90.2909 498.356 90.2909ZM505.316 90.2909C504.604 90.2909 504.004 90.1149 503.516 89.7629C503.036 89.4109 502.78 88.9389 502.748 88.3469H504.116C504.212 88.9389 504.624 89.2349 505.352 89.2349C505.648 89.2349 505.884 89.1829 506.06 89.0789C506.236 88.9669 506.324 88.8069 506.324 88.5989C506.324 88.3909 506.256 88.2269 506.12 88.1069C505.984 87.9869 505.756 87.8869 505.436 87.8069L504.452 87.5429C503.428 87.2709 502.916 86.6669 502.916 85.7309C502.916 85.2269 503.12 84.8229 503.528 84.5189C503.936 84.2069 504.476 84.0509 505.148 84.0509C505.796 84.0509 506.328 84.2149 506.744 84.5429C507.16 84.8709 507.392 85.3069 507.44 85.8509H506.12C505.992 85.3549 505.664 85.1069 505.136 85.1069C504.872 85.1069 504.66 85.1629 504.5 85.2749C504.34 85.3789 504.26 85.5269 504.26 85.7189C504.26 86.0629 504.528 86.3029 505.064 86.4389L506.072 86.7029C507.136 86.9749 507.668 87.5789 507.668 88.5149C507.668 89.0829 507.448 89.5229 507.008 89.8349C506.576 90.1389 506.012 90.2909 505.316 90.2909ZM509.665 82.8629C509.425 82.8629 509.217 82.7789 509.041 82.6109C508.865 82.4349 508.777 82.2229 508.777 81.9749C508.777 81.7349 508.865 81.5309 509.041 81.3629C509.217 81.1869 509.425 81.0989 509.665 81.0989C509.913 81.0989 510.121 81.1869 510.289 81.3629C510.457 81.5309 510.541 81.7349 510.541 81.9749C510.541 82.2229 510.457 82.4349 510.289 82.6109C510.121 82.7789 509.913 82.8629 509.665 82.8629ZM509.005 90.1709V84.1709H510.325V90.1709H509.005ZM512.099 90.1709V84.1709H513.419V84.9869C513.795 84.3629 514.403 84.0509 515.243 84.0509C515.939 84.0509 516.495 84.2789 516.911 84.7349C517.327 85.1909 517.535 85.7989 517.535 86.5589V90.1709H516.215V86.7749C516.215 86.2949 516.103 85.9229 515.879 85.6589C515.655 85.3869 515.351 85.2509 514.967 85.2509C514.511 85.2509 514.139 85.4229 513.851 85.7669C513.563 86.1109 513.419 86.5949 513.419 87.2189V90.1709H512.099ZM521.876 90.2909C520.98 90.2909 520.244 89.9989 519.668 89.4149C519.092 88.8229 518.804 88.0749 518.804 87.1709C518.804 86.2669 519.088 85.5229 519.656 84.9389C520.224 84.3469 520.968 84.0509 521.888 84.0509C522.816 84.0509 523.564 84.3749 524.132 85.0229C524.7 85.6629 524.952 86.4869 524.888 87.4949H520.112C520.128 87.9589 520.304 88.3469 520.64 88.6589C520.976 88.9709 521.404 89.1269 521.924 89.1269C522.66 89.1269 523.164 88.8469 523.436 88.2869H524.816C524.632 88.8709 524.28 89.3509 523.76 89.7269C523.24 90.1029 522.612 90.2909 521.876 90.2909ZM521.852 85.1549C521.42 85.1549 521.048 85.2789 520.736 85.5269C520.432 85.7669 520.236 86.1109 520.148 86.5589H523.472C523.376 86.0949 523.18 85.7469 522.884 85.5149C522.588 85.2749 522.244 85.1549 521.852 85.1549ZM528.355 90.2909C527.643 90.2909 527.043 90.1149 526.555 89.7629C526.075 89.4109 525.819 88.9389 525.787 88.3469H527.155C527.251 88.9389 527.663 89.2349 528.391 89.2349C528.687 89.2349 528.923 89.1829 529.099 89.0789C529.275 88.9669 529.363 88.8069 529.363 88.5989C529.363 88.3909 529.295 88.2269 529.159 88.1069C529.023 87.9869 528.795 87.8869 528.475 87.8069L527.491 87.5429C526.467 87.2709 525.955 86.6669 525.955 85.7309C525.955 85.2269 526.159 84.8229 526.567 84.5189C526.975 84.2069 527.515 84.0509 528.187 84.0509C528.835 84.0509 529.367 84.2149 529.783 84.5429C530.199 84.8709 530.431 85.3069 530.479 85.8509H529.159C529.031 85.3549 528.703 85.1069 528.175 85.1069C527.911 85.1069 527.699 85.1629 527.539 85.2749C527.379 85.3789 527.299 85.5269 527.299 85.7189C527.299 86.0629 527.567 86.3029 528.103 86.4389L529.111 86.7029C530.175 86.9749 530.707 87.5789 530.707 88.5149C530.707 89.0829 530.487 89.5229 530.047 89.8349C529.615 90.1389 529.051 90.2909 528.355 90.2909ZM534.156 90.2909C533.444 90.2909 532.844 90.1149 532.356 89.7629C531.876 89.4109 531.62 88.9389 531.588 88.3469H532.956C533.052 88.9389 533.464 89.2349 534.192 89.2349C534.488 89.2349 534.724 89.1829 534.9 89.0789C535.076 88.9669 535.164 88.8069 535.164 88.5989C535.164 88.3909 535.096 88.2269 534.96 88.1069C534.824 87.9869 534.596 87.8869 534.276 87.8069L533.292 87.5429C532.268 87.2709 531.756 86.6669 531.756 85.7309C531.756 85.2269 531.96 84.8229 532.368 84.5189C532.776 84.2069 533.316 84.0509 533.988 84.0509C534.636 84.0509 535.168 84.2149 535.584 84.5429C536 84.8709 536.232 85.3069 536.28 85.8509H534.96C534.832 85.3549 534.504 85.1069 533.976 85.1069C533.712 85.1069 533.5 85.1629 533.34 85.2749C533.18 85.3789 533.1 85.5269 533.1 85.7189C533.1 86.0629 533.368 86.3029 533.904 86.4389L534.912 86.7029C535.976 86.9749 536.508 87.5789 536.508 88.5149C536.508 89.0829 536.288 89.5229 535.848 89.8349C535.416 90.1389 534.852 90.2909 534.156 90.2909ZM541.989 90.1709H540.669V81.1709H541.989V84.9869C542.365 84.3629 542.973 84.0509 543.813 84.0509C544.509 84.0509 545.065 84.2789 545.481 84.7349C545.897 85.1909 546.105 85.7989 546.105 86.5589V90.1709H544.785V86.7749C544.785 86.2949 544.673 85.9229 544.449 85.6589C544.225 85.3869 543.921 85.2509 543.537 85.2509C543.081 85.2509 542.709 85.4229 542.421 85.7669C542.133 86.1109 541.989 86.5949 541.989 87.2189V90.1709ZM552.738 89.3909C552.138 89.9909 551.394 90.2909 550.506 90.2909C549.618 90.2909 548.87 89.9909 548.262 89.3909C547.662 88.7829 547.362 88.0429 547.362 87.1709C547.362 86.2989 547.662 85.5629 548.262 84.9629C548.87 84.3549 549.618 84.0509 550.506 84.0509C551.394 84.0509 552.138 84.3549 552.738 84.9629C553.346 85.5629 553.65 86.2989 553.65 87.1709C553.65 88.0429 553.346 88.7829 552.738 89.3909ZM550.506 89.0669C551.026 89.0669 551.454 88.8869 551.79 88.5269C552.134 88.1589 552.306 87.7069 552.306 87.1709C552.306 86.6349 552.134 86.1869 551.79 85.8269C551.454 85.4589 551.026 85.2749 550.506 85.2749C549.978 85.2749 549.542 85.4589 549.198 85.8269C548.862 86.1869 548.694 86.6349 548.694 87.1709C548.694 87.7069 548.862 88.1589 549.198 88.5269C549.542 88.8869 549.978 89.0669 550.506 89.0669ZM557.126 90.2909C556.438 90.2909 555.894 90.0629 555.494 89.6069C555.094 89.1429 554.894 88.5269 554.894 87.7589V84.1709H556.214V87.5429C556.214 88.0229 556.318 88.4029 556.526 88.6829C556.734 88.9549 557.03 89.0909 557.414 89.0909C557.862 89.0909 558.218 88.9229 558.482 88.5869C558.746 88.2429 558.878 87.7549 558.878 87.1229V84.1709H560.198V90.1709H558.878V89.3549C558.526 89.9789 557.942 90.2909 557.126 90.2909ZM561.974 90.1709V84.1709H563.294V85.2389C563.406 84.9029 563.61 84.6309 563.906 84.4229C564.21 84.2149 564.534 84.1109 564.878 84.1109C565.086 84.1109 565.258 84.1269 565.394 84.1589V85.5149C565.202 85.4429 564.982 85.4069 564.734 85.4069C564.334 85.4069 563.994 85.5709 563.714 85.8989C563.434 86.2189 563.294 86.6669 563.294 87.2429V90.1709H561.974ZM568.539 90.2909C567.827 90.2909 567.227 90.1149 566.739 89.7629C566.259 89.4109 566.003 88.9389 565.971 88.3469H567.339C567.435 88.9389 567.847 89.2349 568.575 89.2349C568.871 89.2349 569.107 89.1829 569.283 89.0789C569.459 88.9669 569.547 88.8069 569.547 88.5989C569.547 88.3909 569.479 88.2269 569.343 88.1069C569.207 87.9869 568.979 87.8869 568.659 87.8069L567.675 87.5429C566.651 87.2709 566.139 86.6669 566.139 85.7309C566.139 85.2269 566.343 84.8229 566.751 84.5189C567.159 84.2069 567.699 84.0509 568.371 84.0509C569.019 84.0509 569.551 84.2149 569.967 84.5429C570.383 84.8709 570.615 85.3069 570.663 85.8509H569.343C569.215 85.3549 568.887 85.1069 568.359 85.1069C568.095 85.1069 567.883 85.1629 567.723 85.2749C567.563 85.3789 567.483 85.5269 567.483 85.7189C567.483 86.0629 567.751 86.3029 568.287 86.4389L569.295 86.7029C570.359 86.9749 570.891 87.5789 570.891 88.5149C570.891 89.0829 570.671 89.5229 570.231 89.8349C569.799 90.1389 569.235 90.2909 568.539 90.2909Z" fill="#2E3A59"/>
<path d="M602.752 86.3999C602.752 89.6769 600.171 92.3214 597.002 92.3214C593.833 92.3214 591.252 89.6769 591.252 86.3999C591.252 83.1229 593.833 80.4785 597.002 80.4785C600.171 80.4785 602.752 83.1229 602.752 86.3999Z" fill="white" stroke="#E4E9F2" stroke-width="0.5"/>
<path d="M599.669 84.6592L596.003 88.1405L594.336 86.5581" stroke="#8F9BB3" stroke-width="0.75" stroke-linecap="round" stroke-linejoin="round"/>
<path d="M478.576 114.976C477.72 114.976 476.992 114.72 476.392 114.208C475.8 113.696 475.496 113.02 475.48 112.18H476.8C476.832 112.636 477.012 113 477.34 113.272C477.676 113.544 478.088 113.68 478.576 113.68C479.016 113.68 479.376 113.564 479.656 113.332C479.944 113.1 480.092 112.78 480.1 112.372C480.1 111.924 479.952 111.588 479.656 111.364C479.368 111.132 478.968 111.016 478.456 111.016H477.784V109.888H478.456C478.88 109.888 479.216 109.776 479.464 109.552C479.72 109.328 479.852 109.036 479.86 108.676C479.86 108.324 479.732 108.04 479.476 107.824C479.22 107.6 478.904 107.488 478.528 107.488C478.08 107.488 477.708 107.62 477.412 107.884C477.116 108.14 476.968 108.492 476.968 108.94H475.636C475.636 108.108 475.916 107.444 476.476 106.948C477.044 106.444 477.728 106.192 478.528 106.192C479.32 106.192 479.96 106.416 480.448 106.864C480.944 107.312 481.192 107.888 481.192 108.592C481.192 108.984 481.092 109.348 480.892 109.684C480.692 110.012 480.444 110.264 480.148 110.44C480.54 110.608 480.852 110.868 481.084 111.22C481.316 111.572 481.432 111.984 481.432 112.456C481.432 113.2 481.164 113.808 480.628 114.28C480.1 114.744 479.416 114.976 478.576 114.976ZM483.592 114.952C483.312 114.952 483.068 114.852 482.86 114.652C482.66 114.444 482.56 114.196 482.56 113.908C482.56 113.628 482.66 113.384 482.86 113.176C483.068 112.968 483.312 112.864 483.592 112.864C483.88 112.864 484.124 112.968 484.324 113.176C484.532 113.384 484.636 113.628 484.636 113.908C484.636 114.196 484.532 114.444 484.324 114.652C484.124 114.852 483.88 114.952 483.592 114.952ZM492.952 115C491.68 115 490.62 114.58 489.772 113.74C488.932 112.892 488.512 111.844 488.512 110.596C488.512 109.348 488.932 108.304 489.772 107.464C490.62 106.616 491.68 106.192 492.952 106.192C493.96 106.192 494.84 106.48 495.592 107.056C496.352 107.624 496.84 108.336 497.056 109.192H495.544C495.36 108.704 495.032 108.308 494.56 108.004C494.088 107.7 493.552 107.548 492.952 107.548C492.072 107.548 491.348 107.84 490.78 108.424C490.212 109.008 489.928 109.732 489.928 110.596C489.928 111.46 490.212 112.184 490.78 112.768C491.348 113.352 492.072 113.644 492.952 113.644C493.552 113.644 494.088 113.492 494.56 113.188C495.032 112.884 495.36 112.488 495.544 112H497.056C496.84 112.856 496.352 113.572 495.592 114.148C494.84 114.716 493.96 115 492.952 115ZM498.318 114.856V108.856H499.638V109.924C499.75 109.588 499.954 109.316 500.25 109.108C500.554 108.9 500.878 108.796 501.222 108.796C501.43 108.796 501.602 108.812 501.738 108.844V110.2C501.546 110.128 501.326 110.092 501.078 110.092C500.678 110.092 500.338 110.256 500.058 110.584C499.778 110.904 499.638 111.352 499.638 111.928V114.856H498.318ZM505.317 114.976C504.421 114.976 503.685 114.684 503.109 114.1C502.533 113.508 502.245 112.76 502.245 111.856C502.245 110.952 502.529 110.208 503.097 109.624C503.665 109.032 504.409 108.736 505.329 108.736C506.257 108.736 507.005 109.06 507.573 109.708C508.141 110.348 508.393 111.172 508.329 112.18H503.553C503.569 112.644 503.745 113.032 504.081 113.344C504.417 113.656 504.845 113.812 505.365 113.812C506.101 113.812 506.605 113.532 506.877 112.972H508.257C508.073 113.556 507.721 114.036 507.201 114.412C506.681 114.788 506.053 114.976 505.317 114.976ZM505.293 109.84C504.861 109.84 504.489 109.964 504.177 110.212C503.873 110.452 503.677 110.796 503.589 111.244H506.913C506.817 110.78 506.621 110.432 506.325 110.2C506.029 109.96 505.685 109.84 505.293 109.84ZM512.145 114.976C511.329 114.976 510.641 114.672 510.081 114.064C509.529 113.456 509.253 112.72 509.253 111.856C509.253 110.992 509.529 110.256 510.081 109.648C510.641 109.04 511.329 108.736 512.145 108.736C512.553 108.736 512.929 108.828 513.273 109.012C513.617 109.188 513.881 109.404 514.065 109.66V108.856H515.385V114.856H514.065V114.052C513.881 114.308 513.617 114.528 513.273 114.712C512.929 114.888 512.553 114.976 512.145 114.976ZM511.101 113.224C511.437 113.592 511.865 113.776 512.385 113.776C512.905 113.776 513.333 113.592 513.669 113.224C514.005 112.856 514.173 112.4 514.173 111.856C514.173 111.312 514.005 110.856 513.669 110.488C513.333 110.12 512.905 109.936 512.385 109.936C511.865 109.936 511.437 110.12 511.101 110.488C510.765 110.856 510.597 111.312 510.597 111.856C510.597 112.4 510.765 112.856 511.101 113.224ZM519.777 114.916C519.169 114.916 518.673 114.748 518.289 114.412C517.913 114.068 517.725 113.572 517.725 112.924V110.032H516.477V108.856H517.725V107.188H519.045V108.856H520.761V110.032H519.045V112.708C519.045 113.076 519.125 113.34 519.285 113.5C519.445 113.652 519.701 113.728 520.053 113.728C520.341 113.728 520.577 113.688 520.761 113.608V114.784C520.473 114.872 520.145 114.916 519.777 114.916ZM524.583 114.976C523.687 114.976 522.951 114.684 522.375 114.1C521.799 113.508 521.511 112.76 521.511 111.856C521.511 110.952 521.795 110.208 522.363 109.624C522.931 109.032 523.675 108.736 524.595 108.736C525.523 108.736 526.271 109.06 526.839 109.708C527.407 110.348 527.659 111.172 527.595 112.18H522.819C522.835 112.644 523.011 113.032 523.347 113.344C523.683 113.656 524.111 113.812 524.631 113.812C525.367 113.812 525.871 113.532 526.143 112.972H527.523C527.339 113.556 526.987 114.036 526.467 114.412C525.947 114.788 525.319 114.976 524.583 114.976ZM524.559 109.84C524.127 109.84 523.755 109.964 523.443 110.212C523.139 110.452 522.943 110.796 522.855 111.244H526.179C526.083 110.78 525.887 110.432 525.591 110.2C525.295 109.96 524.951 109.84 524.559 109.84ZM533.887 114.976C533.175 114.976 532.575 114.8 532.087 114.448C531.607 114.096 531.351 113.624 531.319 113.032H532.687C532.783 113.624 533.195 113.92 533.923 113.92C534.219 113.92 534.455 113.868 534.631 113.764C534.807 113.652 534.895 113.492 534.895 113.284C534.895 113.076 534.827 112.912 534.691 112.792C534.555 112.672 534.327 112.572 534.007 112.492L533.023 112.228C531.999 111.956 531.487 111.352 531.487 110.416C531.487 109.912 531.691 109.508 532.099 109.204C532.507 108.892 533.047 108.736 533.719 108.736C534.367 108.736 534.899 108.9 535.315 109.228C535.731 109.556 535.963 109.992 536.011 110.536H534.691C534.563 110.04 534.235 109.792 533.707 109.792C533.443 109.792 533.231 109.848 533.071 109.96C532.911 110.064 532.831 110.212 532.831 110.404C532.831 110.748 533.099 110.988 533.635 111.124L534.643 111.388C535.707 111.66 536.239 112.264 536.239 113.2C536.239 113.768 536.019 114.208 535.579 114.52C535.147 114.824 534.583 114.976 533.887 114.976ZM540.228 114.976C539.332 114.976 538.596 114.684 538.02 114.1C537.444 113.508 537.156 112.76 537.156 111.856C537.156 110.952 537.44 110.208 538.008 109.624C538.576 109.032 539.32 108.736 540.24 108.736C541.168 108.736 541.916 109.06 542.484 109.708C543.052 110.348 543.304 111.172 543.24 112.18H538.464C538.48 112.644 538.656 113.032 538.992 113.344C539.328 113.656 539.756 113.812 540.276 113.812C541.012 113.812 541.516 113.532 541.788 112.972H543.168C542.984 113.556 542.632 114.036 542.112 114.412C541.592 114.788 540.964 114.976 540.228 114.976ZM540.204 109.84C539.772 109.84 539.4 109.964 539.088 110.212C538.784 110.452 538.588 110.796 538.5 111.244H541.824C541.728 110.78 541.532 110.432 541.236 110.2C540.94 109.96 540.596 109.84 540.204 109.84ZM544.595 114.856V108.856H545.915V109.924C546.027 109.588 546.231 109.316 546.527 109.108C546.831 108.9 547.155 108.796 547.499 108.796C547.707 108.796 547.879 108.812 548.015 108.844V110.2C547.823 110.128 547.603 110.092 547.355 110.092C546.955 110.092 546.615 110.256 546.335 110.584C546.055 110.904 545.915 111.352 545.915 111.928V114.856H544.595ZM551.026 114.856L548.314 108.856H549.778L551.602 113.068L553.438 108.856H554.914L552.19 114.856H551.026ZM556.493 107.548C556.253 107.548 556.045 107.464 555.869 107.296C555.693 107.12 555.605 106.908 555.605 106.66C555.605 106.42 555.693 106.216 555.869 106.048C556.045 105.872 556.253 105.784 556.493 105.784C556.741 105.784 556.949 105.872 557.117 106.048C557.285 106.216 557.369 106.42 557.369 106.66C557.369 106.908 557.285 107.12 557.117 107.296C556.949 107.464 556.741 107.548 556.493 107.548ZM555.833 114.856V108.856H557.153V114.856H555.833ZM561.639 114.976C560.735 114.976 559.983 114.676 559.383 114.076C558.791 113.468 558.495 112.728 558.495 111.856C558.495 110.984 558.791 110.248 559.383 109.648C559.983 109.04 560.735 108.736 561.639 108.736C562.415 108.736 563.075 108.952 563.619 109.384C564.171 109.816 564.527 110.372 564.687 111.052H563.295C563.175 110.716 562.967 110.448 562.671 110.248C562.383 110.04 562.039 109.936 561.639 109.936C561.111 109.936 560.679 110.116 560.343 110.476C560.007 110.836 559.839 111.296 559.839 111.856C559.839 112.416 560.007 112.876 560.343 113.236C560.679 113.596 561.111 113.776 561.639 113.776C562.039 113.776 562.383 113.676 562.671 113.476C562.967 113.268 563.175 112.996 563.295 112.66H564.687C564.527 113.34 564.171 113.896 563.619 114.328C563.075 114.76 562.415 114.976 561.639 114.976ZM568.587 114.976C567.691 114.976 566.955 114.684 566.379 114.1C565.803 113.508 565.515 112.76 565.515 111.856C565.515 110.952 565.799 110.208 566.367 109.624C566.935 109.032 567.679 108.736 568.599 108.736C569.527 108.736 570.275 109.06 570.843 109.708C571.411 110.348 571.663 111.172 571.599 112.18H566.823C566.839 112.644 567.015 113.032 567.351 113.344C567.687 113.656 568.115 113.812 568.635 113.812C569.371 113.812 569.875 113.532 570.147 112.972H571.527C571.343 113.556 570.991 114.036 570.471 114.412C569.951 114.788 569.323 114.976 568.587 114.976ZM568.563 109.84C568.131 109.84 567.759 109.964 567.447 110.212C567.143 110.452 566.947 110.796 566.859 111.244H570.183C570.087 110.78 569.891 110.432 569.595 110.2C569.299 109.96 568.955 109.84 568.563 109.84Z" fill="#2E3A59"/>
<path d="M602.752 111.085C602.752 114.362 600.171 117.007 597.002 117.007C593.833 117.007 591.252 114.362 591.252 111.085C591.252 107.808 593.833 105.164 597.002 105.164C600.171 105.164 602.752 107.808 602.752 111.085Z" fill="white" stroke="#E4E9F2" stroke-width="0.5"/>
<path d="M599.669 109.345L596.003 112.826L594.336 111.244" stroke="#8F9BB3" stroke-width="0.75" stroke-linecap="round" stroke-linejoin="round"/>
<path d="M4.0696 175.455V190H1.43466V175.455H4.0696ZM9.38033 183.608V190H6.8093V179.091H9.26669V180.945H9.39453C9.64548 180.334 10.0456 179.848 10.5948 179.489C11.1488 179.129 11.833 178.949 12.6474 178.949C13.4002 178.949 14.056 179.11 14.6147 179.432C15.1781 179.754 15.6138 180.22 15.9215 180.831C16.234 181.442 16.3879 182.183 16.3832 183.054V190H13.8121V183.452C13.8121 182.723 13.6228 182.152 13.244 181.74C12.8699 181.328 12.3514 181.122 11.6886 181.122C11.2388 181.122 10.8387 181.222 10.4883 181.42C10.1426 181.615 9.87038 181.896 9.67152 182.266C9.47739 182.635 9.38033 183.082 9.38033 183.608ZM27.619 181.974L25.2752 182.23C25.2089 181.993 25.0929 181.771 24.9272 181.562C24.7662 181.354 24.5484 181.186 24.2738 181.058C23.9992 180.93 23.663 180.866 23.2653 180.866C22.7302 180.866 22.2804 180.982 21.9158 181.214C21.556 181.446 21.3784 181.747 21.3832 182.116C21.3784 182.434 21.4944 182.692 21.7312 182.891C21.9727 183.089 22.3704 183.253 22.9244 183.381L24.7852 183.778C25.8174 184.001 26.5844 184.354 27.0863 184.837C27.5929 185.32 27.8486 185.952 27.8533 186.733C27.8486 187.42 27.6474 188.026 27.2496 188.551C26.8567 189.072 26.3098 189.479 25.609 189.773C24.9083 190.066 24.1033 190.213 23.1942 190.213C21.859 190.213 20.7842 189.934 19.9698 189.375C19.1554 188.812 18.6701 188.028 18.5138 187.024L21.021 186.783C21.1346 187.275 21.3761 187.647 21.7454 187.898C22.1147 188.149 22.5953 188.274 23.1871 188.274C23.7979 188.274 24.288 188.149 24.6573 187.898C25.0314 187.647 25.2184 187.337 25.2184 186.967C25.2184 186.655 25.0977 186.397 24.8562 186.193C24.6194 185.99 24.2501 185.833 23.7482 185.724L21.8874 185.334C20.841 185.116 20.0669 184.749 19.565 184.233C19.0631 183.712 18.8145 183.054 18.8192 182.259C18.8145 181.586 18.9968 181.004 19.3661 180.511C19.7402 180.014 20.2586 179.631 20.9215 179.361C21.5891 179.086 22.3585 178.949 23.2298 178.949C24.5082 178.949 25.5143 179.221 26.2482 179.766C26.9869 180.31 27.4438 181.046 27.619 181.974ZM35.4208 179.091V181.08H29.1495V179.091H35.4208ZM30.6978 176.477H33.2688V186.719C33.2688 187.064 33.3209 187.33 33.4251 187.514C33.534 187.694 33.676 187.817 33.8512 187.884C34.0264 187.95 34.2205 187.983 34.4336 187.983C34.5946 187.983 34.7414 187.971 34.8739 187.947C35.0112 187.924 35.1154 187.902 35.1864 187.884L35.6197 189.893C35.4824 189.941 35.2859 189.993 35.0302 190.05C34.7792 190.107 34.4715 190.14 34.1069 190.149C33.4629 190.168 32.8829 190.071 32.3668 189.858C31.8507 189.64 31.4412 189.304 31.1381 188.849C30.8398 188.395 30.6931 187.827 30.6978 187.145V176.477ZM40.7102 190.22C40.0189 190.22 39.3963 190.097 38.8423 189.851C38.2931 189.6 37.8575 189.231 37.5355 188.743C37.2183 188.255 37.0597 187.654 37.0597 186.939C37.0597 186.323 37.1733 185.814 37.4006 185.412C37.6278 185.009 37.938 184.688 38.331 184.446C38.724 184.205 39.1667 184.022 39.6591 183.899C40.1563 183.771 40.67 183.679 41.2003 183.622C41.8395 183.556 42.358 183.497 42.7557 183.445C43.1534 183.388 43.4422 183.303 43.6222 183.189C43.8068 183.071 43.8991 182.888 43.8991 182.642V182.599C43.8991 182.064 43.7405 181.65 43.4233 181.357C43.1061 181.063 42.6491 180.916 42.0526 180.916C41.4228 180.916 40.9233 181.054 40.554 181.328C40.1894 181.603 39.9432 181.927 39.8153 182.301L37.4148 181.96C37.6042 181.297 37.9167 180.743 38.3523 180.298C38.7879 179.848 39.3205 179.512 39.9503 179.29C40.58 179.062 41.276 178.949 42.0384 178.949C42.5639 178.949 43.0871 179.01 43.608 179.134C44.1288 179.257 44.6046 179.46 45.0355 179.744C45.4664 180.024 45.812 180.405 46.0724 180.888C46.3376 181.371 46.4702 181.974 46.4702 182.699V190H43.9986V188.501H43.9134C43.7571 188.804 43.5369 189.089 43.2528 189.354C42.9735 189.614 42.6207 189.825 42.1946 189.986C41.7732 190.142 41.2784 190.22 40.7102 190.22ZM41.3778 188.331C41.8939 188.331 42.3414 188.229 42.7202 188.026C43.099 187.817 43.3902 187.543 43.5938 187.202C43.8021 186.861 43.9062 186.489 43.9062 186.087V184.801C43.8258 184.867 43.6884 184.929 43.4943 184.986C43.3049 185.043 43.0919 185.092 42.8551 185.135C42.6184 185.178 42.384 185.215 42.152 185.249C41.92 185.282 41.7188 185.31 41.5483 185.334C41.1648 185.386 40.8215 185.471 40.5185 185.589C40.2154 185.708 39.9763 185.874 39.8011 186.087C39.6259 186.295 39.5384 186.565 39.5384 186.896C39.5384 187.37 39.7112 187.727 40.0568 187.969C40.4025 188.21 40.8428 188.331 41.3778 188.331ZM51.6264 175.455V190H49.0554V175.455H51.6264ZM56.8413 175.455V190H54.2702V175.455H56.8413ZM64.5597 190V175.455H70.1278C71.179 175.455 72.0526 175.62 72.7486 175.952C73.4493 176.278 73.9725 176.726 74.3182 177.294C74.6686 177.862 74.8438 178.506 74.8438 179.226C74.8438 179.818 74.7301 180.324 74.5028 180.746C74.2756 181.162 73.9702 181.501 73.5866 181.761C73.2031 182.022 72.7746 182.209 72.3011 182.322V182.464C72.8172 182.493 73.312 182.652 73.7855 182.94C74.2637 183.224 74.6544 183.627 74.9574 184.148C75.2604 184.669 75.4119 185.298 75.4119 186.037C75.4119 186.79 75.2296 187.467 74.8651 188.068C74.5005 188.665 73.9512 189.136 73.2173 189.482C72.4834 189.827 71.5601 190 70.4474 190H64.5597ZM67.1946 187.798H70.0284C70.9848 187.798 71.6738 187.616 72.0952 187.251C72.5213 186.882 72.7344 186.409 72.7344 185.831C72.7344 185.4 72.6278 185.012 72.4148 184.666C72.2017 184.316 71.8987 184.041 71.5057 183.842C71.1127 183.639 70.6439 183.537 70.0994 183.537H67.1946V187.798ZM67.1946 181.641H69.8011C70.2557 181.641 70.6652 181.558 71.0298 181.392C71.3944 181.222 71.6809 180.982 71.8892 180.675C72.1023 180.362 72.2088 179.993 72.2088 179.567C72.2088 179.003 72.0099 178.539 71.6122 178.175C71.2192 177.81 70.6345 177.628 69.858 177.628H67.1946V181.641ZM82.3491 190.213C81.2837 190.213 80.3604 189.979 79.5792 189.51C78.7979 189.041 78.1919 188.385 77.761 187.543C77.3349 186.7 77.1218 185.715 77.1218 184.588C77.1218 183.461 77.3349 182.474 77.761 181.626C78.1919 180.779 78.7979 180.121 79.5792 179.652C80.3604 179.183 81.2837 178.949 82.3491 178.949C83.4144 178.949 84.3377 179.183 85.119 179.652C85.9002 180.121 86.5039 180.779 86.93 181.626C87.3609 182.474 87.5763 183.461 87.5763 184.588C87.5763 185.715 87.3609 186.7 86.93 187.543C86.5039 188.385 85.9002 189.041 85.119 189.51C84.3377 189.979 83.4144 190.213 82.3491 190.213ZM82.3633 188.153C82.9409 188.153 83.4239 187.995 83.8121 187.678C84.2004 187.356 84.4892 186.925 84.6786 186.385C84.8728 185.845 84.9698 185.244 84.9698 184.581C84.9698 183.913 84.8728 183.31 84.6786 182.77C84.4892 182.225 84.2004 181.792 83.8121 181.47C83.4239 181.148 82.9409 180.987 82.3633 180.987C81.7714 180.987 81.279 181.148 80.886 181.47C80.4978 181.792 80.2066 182.225 80.0124 182.77C79.823 183.31 79.7283 183.913 79.7283 184.581C79.7283 185.244 79.823 185.845 80.0124 186.385C80.2066 186.925 80.4978 187.356 80.886 187.678C81.279 187.995 81.7714 188.153 82.3633 188.153ZM94.517 190.213C93.4517 190.213 92.5284 189.979 91.7472 189.51C90.9659 189.041 90.3598 188.385 89.929 187.543C89.5028 186.7 89.2898 185.715 89.2898 184.588C89.2898 183.461 89.5028 182.474 89.929 181.626C90.3598 180.779 90.9659 180.121 91.7472 179.652C92.5284 179.183 93.4517 178.949 94.517 178.949C95.5824 178.949 96.5057 179.183 97.2869 179.652C98.0682 180.121 98.6719 180.779 99.098 181.626C99.5289 182.474 99.7443 183.461 99.7443 184.588C99.7443 185.715 99.5289 186.7 99.098 187.543C98.6719 188.385 98.0682 189.041 97.2869 189.51C96.5057 189.979 95.5824 190.213 94.517 190.213ZM94.5312 188.153C95.1089 188.153 95.5919 187.995 95.9801 187.678C96.3684 187.356 96.6572 186.925 96.8466 186.385C97.0407 185.845 97.1378 185.244 97.1378 184.581C97.1378 183.913 97.0407 183.31 96.8466 182.77C96.6572 182.225 96.3684 181.792 95.9801 181.47C95.5919 181.148 95.1089 180.987 94.5312 180.987C93.9394 180.987 93.447 181.148 93.054 181.47C92.6657 181.792 92.3745 182.225 92.1804 182.77C91.991 183.31 91.8963 183.913 91.8963 184.581C91.8963 185.244 91.991 185.845 92.1804 186.385C92.3745 186.925 92.6657 187.356 93.054 187.678C93.447 187.995 93.9394 188.153 94.5312 188.153ZM104.27 186.577L104.263 183.473H104.675L108.596 179.091H111.6L106.777 184.46H106.245L104.27 186.577ZM101.926 190V175.455H104.498V190H101.926ZM108.773 190L105.222 185.036L106.955 183.224L111.848 190H108.773ZM115.884 183.608V190H113.313V179.091H115.771V180.945H115.898C116.149 180.334 116.549 179.848 117.099 179.489C117.653 179.129 118.337 178.949 119.151 178.949C119.904 178.949 120.56 179.11 121.119 179.432C121.682 179.754 122.118 180.22 122.425 180.831C122.738 181.442 122.892 182.183 122.887 183.054V190H120.316V183.452C120.316 182.723 120.127 182.152 119.748 181.74C119.374 181.328 118.855 181.122 118.192 181.122C117.743 181.122 117.343 181.222 116.992 181.42C116.647 181.615 116.374 181.896 116.175 182.266C115.981 182.635 115.884 183.082 115.884 183.608ZM130.33 190.213C129.237 190.213 128.292 189.986 127.496 189.531C126.706 189.072 126.097 188.423 125.671 187.585C125.245 186.742 125.032 185.75 125.032 184.609C125.032 183.487 125.245 182.502 125.671 181.655C126.102 180.803 126.703 180.14 127.475 179.666C128.247 179.188 129.154 178.949 130.195 178.949C130.868 178.949 131.502 179.058 132.099 179.276C132.7 179.489 133.23 179.82 133.69 180.27C134.154 180.72 134.518 181.293 134.783 181.989C135.049 182.68 135.181 183.504 135.181 184.46V185.249H126.239V183.516H132.717C132.712 183.023 132.605 182.585 132.397 182.202C132.189 181.813 131.897 181.508 131.523 181.286C131.154 181.063 130.723 180.952 130.231 180.952C129.705 180.952 129.244 181.08 128.846 181.335C128.448 181.586 128.138 181.918 127.915 182.33C127.698 182.737 127.586 183.184 127.582 183.672V185.185C127.582 185.819 127.698 186.364 127.93 186.818C128.162 187.268 128.486 187.614 128.903 187.855C129.319 188.092 129.807 188.21 130.366 188.21C130.74 188.21 131.078 188.158 131.381 188.054C131.684 187.945 131.947 187.786 132.17 187.578C132.392 187.37 132.56 187.112 132.674 186.804L135.075 187.074C134.923 187.708 134.634 188.262 134.208 188.736C133.787 189.205 133.247 189.569 132.589 189.83C131.931 190.085 131.178 190.213 130.33 190.213ZM142.804 179.091V181.08H136.532V179.091H142.804ZM138.081 176.477H140.652V186.719C140.652 187.064 140.704 187.33 140.808 187.514C140.917 187.694 141.059 187.817 141.234 187.884C141.409 187.95 141.603 187.983 141.816 187.983C141.977 187.983 142.124 187.971 142.257 187.947C142.394 187.924 142.498 187.902 142.569 187.884L143.002 189.893C142.865 189.941 142.669 189.993 142.413 190.05C142.162 190.107 141.854 190.14 141.49 190.149C140.846 190.168 140.266 190.071 139.75 189.858C139.234 189.64 138.824 189.304 138.521 188.849C138.223 188.395 138.076 187.827 138.081 187.145V176.477ZM144.954 190V179.091H147.525V190H144.954ZM146.246 177.543C145.839 177.543 145.489 177.408 145.195 177.138C144.902 176.863 144.755 176.534 144.755 176.151C144.755 175.762 144.902 175.433 145.195 175.163C145.489 174.889 145.839 174.751 146.246 174.751C146.658 174.751 147.009 174.889 147.298 175.163C147.591 175.433 147.738 175.762 147.738 176.151C147.738 176.534 147.591 176.863 147.298 177.138C147.009 177.408 146.658 177.543 146.246 177.543ZM154.927 190.213C153.838 190.213 152.903 189.974 152.122 189.496C151.345 189.018 150.746 188.357 150.325 187.514C149.908 186.667 149.7 185.691 149.7 184.588C149.7 183.48 149.913 182.502 150.339 181.655C150.765 180.803 151.367 180.14 152.143 179.666C152.924 179.188 153.848 178.949 154.913 178.949C155.798 178.949 156.582 179.112 157.264 179.439C157.95 179.761 158.497 180.218 158.904 180.81C159.312 181.397 159.544 182.083 159.6 182.869H157.143C157.044 182.344 156.807 181.906 156.433 181.555C156.064 181.2 155.569 181.023 154.949 181.023C154.423 181.023 153.961 181.165 153.564 181.449C153.166 181.728 152.856 182.131 152.633 182.656C152.415 183.182 152.306 183.812 152.306 184.545C152.306 185.289 152.415 185.928 152.633 186.463C152.851 186.993 153.156 187.403 153.549 187.692C153.947 187.976 154.413 188.118 154.949 188.118C155.327 188.118 155.666 188.047 155.964 187.905C156.267 187.758 156.52 187.547 156.724 187.273C156.928 186.998 157.067 186.664 157.143 186.271H159.6C159.539 187.043 159.312 187.727 158.919 188.324C158.526 188.916 157.991 189.38 157.314 189.716C156.636 190.047 155.841 190.213 154.927 190.213ZM171.431 190.213C170.366 190.213 169.442 189.979 168.661 189.51C167.88 189.041 167.274 188.385 166.843 187.543C166.417 186.7 166.204 185.715 166.204 184.588C166.204 183.461 166.417 182.474 166.843 181.626C167.274 180.779 167.88 180.121 168.661 179.652C169.442 179.183 170.366 178.949 171.431 178.949C172.496 178.949 173.42 179.183 174.201 179.652C174.982 180.121 175.586 180.779 176.012 181.626C176.443 182.474 176.658 183.461 176.658 184.588C176.658 185.715 176.443 186.7 176.012 187.543C175.586 188.385 174.982 189.041 174.201 189.51C173.42 189.979 172.496 190.213 171.431 190.213ZM171.445 188.153C172.023 188.153 172.506 187.995 172.894 187.678C173.282 187.356 173.571 186.925 173.761 186.385C173.955 185.845 174.052 185.244 174.052 184.581C174.052 183.913 173.955 183.31 173.761 182.77C173.571 182.225 173.282 181.792 172.894 181.47C172.506 181.148 172.023 180.987 171.445 180.987C170.853 180.987 170.361 181.148 169.968 181.47C169.58 181.792 169.289 182.225 169.094 182.77C168.905 183.31 168.81 183.913 168.81 184.581C168.81 185.244 168.905 185.845 169.094 186.385C169.289 186.925 169.58 187.356 169.968 187.678C170.361 187.995 170.853 188.153 171.445 188.153ZM181.412 183.608V190H178.841V179.091H181.298V180.945H181.426C181.677 180.334 182.077 179.848 182.626 179.489C183.18 179.129 183.864 178.949 184.679 178.949C185.431 178.949 186.087 179.11 186.646 179.432C187.209 179.754 187.645 180.22 187.953 180.831C188.265 181.442 188.419 182.183 188.414 183.054V190H185.843V183.452C185.843 182.723 185.654 182.152 185.275 181.74C184.901 181.328 184.383 181.122 183.72 181.122C183.27 181.122 182.87 181.222 182.52 181.42C182.174 181.615 181.902 181.896 181.703 182.266C181.509 182.635 181.412 183.082 181.412 183.608ZM199.164 190L195.059 175.455H197.892L200.513 186.143H200.648L203.446 175.455H206.025L208.83 186.151H208.958L211.578 175.455H214.412L210.307 190H207.708L204.796 179.794H204.682L201.763 190H199.164ZM219.771 190.213C218.706 190.213 217.782 189.979 217.001 189.51C216.22 189.041 215.614 188.385 215.183 187.543C214.757 186.7 214.544 185.715 214.544 184.588C214.544 183.461 214.757 182.474 215.183 181.626C215.614 180.779 216.22 180.121 217.001 179.652C217.782 179.183 218.706 178.949 219.771 178.949C220.836 178.949 221.76 179.183 222.541 179.652C223.322 180.121 223.926 180.779 224.352 181.626C224.783 182.474 224.998 183.461 224.998 184.588C224.998 185.715 224.783 186.7 224.352 187.543C223.926 188.385 223.322 189.041 222.541 189.51C221.76 189.979 220.836 190.213 219.771 190.213ZM219.785 188.153C220.363 188.153 220.846 187.995 221.234 187.678C221.622 187.356 221.911 186.925 222.1 186.385C222.295 185.845 222.392 185.244 222.392 184.581C222.392 183.913 222.295 183.31 222.1 182.77C221.911 182.225 221.622 181.792 221.234 181.47C220.846 181.148 220.363 180.987 219.785 180.987C219.193 180.987 218.701 181.148 218.308 181.47C217.92 181.792 217.628 182.225 217.434 182.77C217.245 183.31 217.15 183.913 217.15 184.581C217.15 185.244 217.245 185.845 217.434 186.385C217.628 186.925 217.92 187.356 218.308 187.678C218.701 187.995 219.193 188.153 219.785 188.153ZM227.18 190V179.091H229.673V180.909H229.787C229.986 180.279 230.327 179.794 230.81 179.453C231.297 179.107 231.854 178.935 232.479 178.935C232.621 178.935 232.779 178.942 232.955 178.956C233.134 178.965 233.284 178.982 233.402 179.006V181.371C233.293 181.333 233.12 181.3 232.884 181.271C232.652 181.238 232.427 181.222 232.209 181.222C231.74 181.222 231.319 181.323 230.945 181.527C230.575 181.726 230.284 182.003 230.071 182.358C229.858 182.713 229.751 183.123 229.751 183.587V190H227.18ZM238.709 190.192C237.852 190.192 237.085 189.972 236.408 189.531C235.731 189.091 235.196 188.452 234.803 187.614C234.41 186.776 234.213 185.758 234.213 184.56C234.213 183.348 234.412 182.325 234.81 181.491C235.212 180.653 235.755 180.021 236.436 179.595C237.118 179.164 237.878 178.949 238.716 178.949C239.355 178.949 239.881 179.058 240.293 179.276C240.705 179.489 241.032 179.747 241.273 180.05C241.515 180.348 241.702 180.63 241.834 180.895H241.941V175.455H244.519V190H241.99V188.281H241.834C241.702 188.546 241.51 188.828 241.259 189.126C241.008 189.42 240.676 189.671 240.265 189.879C239.853 190.088 239.334 190.192 238.709 190.192ZM239.426 188.082C239.971 188.082 240.435 187.936 240.819 187.642C241.202 187.344 241.493 186.929 241.692 186.399C241.891 185.869 241.99 185.251 241.99 184.545C241.99 183.84 241.891 183.227 241.692 182.706C241.498 182.185 241.209 181.78 240.826 181.491C240.447 181.203 239.98 181.058 239.426 181.058C238.854 181.058 238.375 181.207 237.992 181.506C237.608 181.804 237.319 182.216 237.125 182.741C236.931 183.267 236.834 183.868 236.834 184.545C236.834 185.227 236.931 185.836 237.125 186.371C237.324 186.901 237.615 187.32 237.999 187.628C238.387 187.931 238.863 188.082 239.426 188.082ZM247.372 190V175.455H252.827C253.944 175.455 254.882 175.663 255.639 176.08C256.402 176.496 256.977 177.069 257.365 177.798C257.758 178.523 257.955 179.347 257.955 180.27C257.955 181.203 257.758 182.031 257.365 182.756C256.972 183.48 256.392 184.051 255.625 184.467C254.858 184.879 253.913 185.085 252.791 185.085H249.176V182.919H252.436C253.089 182.919 253.625 182.805 254.041 182.578C254.458 182.351 254.766 182.038 254.964 181.641C255.168 181.243 255.27 180.786 255.27 180.27C255.27 179.754 255.168 179.299 254.964 178.906C254.766 178.513 254.455 178.208 254.034 177.99C253.617 177.768 253.08 177.656 252.422 177.656H250.007V190H247.372ZM260.13 190V179.091H262.623V180.909H262.736C262.935 180.279 263.276 179.794 263.759 179.453C264.247 179.107 264.803 178.935 265.428 178.935C265.57 178.935 265.729 178.942 265.904 178.956C266.084 178.965 266.233 178.982 266.351 179.006V181.371C266.242 181.333 266.069 181.3 265.833 181.271C265.601 181.238 265.376 181.222 265.158 181.222C264.689 181.222 264.268 181.323 263.894 181.527C263.525 181.726 263.233 182.003 263.02 182.358C262.807 182.713 262.701 183.123 262.701 183.587V190H260.13ZM272.44 190.213C271.346 190.213 270.401 189.986 269.606 189.531C268.815 189.072 268.207 188.423 267.781 187.585C267.354 186.742 267.141 185.75 267.141 184.609C267.141 183.487 267.354 182.502 267.781 181.655C268.211 180.803 268.813 180.14 269.585 179.666C270.356 179.188 271.263 178.949 272.305 178.949C272.977 178.949 273.612 179.058 274.208 179.276C274.809 179.489 275.34 179.82 275.799 180.27C276.263 180.72 276.628 181.293 276.893 181.989C277.158 182.68 277.29 183.504 277.29 184.46V185.249H268.349V183.516H274.826C274.821 183.023 274.715 182.585 274.506 182.202C274.298 181.813 274.007 181.508 273.633 181.286C273.263 181.063 272.833 180.952 272.34 180.952C271.815 180.952 271.353 181.08 270.955 181.335C270.558 181.586 270.247 181.918 270.025 182.33C269.807 182.737 269.696 183.184 269.691 183.672V185.185C269.691 185.819 269.807 186.364 270.039 186.818C270.271 187.268 270.595 187.614 271.012 187.855C271.429 188.092 271.916 188.21 272.475 188.21C272.849 188.21 273.188 188.158 273.491 188.054C273.794 187.945 274.057 187.786 274.279 187.578C274.502 187.37 274.67 187.112 274.783 186.804L277.184 187.074C277.032 187.708 276.744 188.262 276.317 188.736C275.896 189.205 275.356 189.569 274.698 189.83C274.04 190.085 273.287 190.213 272.44 190.213ZM288.088 181.974L285.744 182.23C285.678 181.993 285.562 181.771 285.396 181.562C285.235 181.354 285.017 181.186 284.743 181.058C284.468 180.93 284.132 180.866 283.734 180.866C283.199 180.866 282.749 180.982 282.385 181.214C282.025 181.446 281.847 181.747 281.852 182.116C281.847 182.434 281.963 182.692 282.2 182.891C282.441 183.089 282.839 183.253 283.393 183.381L285.254 183.778C286.286 184.001 287.053 184.354 287.555 184.837C288.062 185.32 288.317 185.952 288.322 186.733C288.317 187.42 288.116 188.026 287.718 188.551C287.325 189.072 286.779 189.479 286.078 189.773C285.377 190.066 284.572 190.213 283.663 190.213C282.328 190.213 281.253 189.934 280.439 189.375C279.624 188.812 279.139 188.028 278.983 187.024L281.49 186.783C281.603 187.275 281.845 187.647 282.214 187.898C282.583 188.149 283.064 188.274 283.656 188.274C284.267 188.274 284.757 188.149 285.126 187.898C285.5 187.647 285.687 187.337 285.687 186.967C285.687 186.655 285.566 186.397 285.325 186.193C285.088 185.99 284.719 185.833 284.217 185.724L282.356 185.334C281.31 185.116 280.536 184.749 280.034 184.233C279.532 183.712 279.283 183.054 279.288 182.259C279.283 181.586 279.466 181.004 279.835 180.511C280.209 180.014 280.727 179.631 281.39 179.361C282.058 179.086 282.827 178.949 283.699 178.949C284.977 178.949 285.983 179.221 286.717 179.766C287.456 180.31 287.913 181.046 288.088 181.974ZM299.064 181.974L296.721 182.23C296.654 181.993 296.538 181.771 296.373 181.562C296.212 181.354 295.994 181.186 295.719 181.058C295.444 180.93 295.108 180.866 294.711 180.866C294.176 180.866 293.726 180.982 293.361 181.214C293.001 181.446 292.824 181.747 292.828 182.116C292.824 182.434 292.94 182.692 293.176 182.891C293.418 183.089 293.816 183.253 294.37 183.381L296.23 183.778C297.263 184.001 298.03 184.354 298.532 184.837C299.038 185.32 299.294 185.952 299.299 186.733C299.294 187.42 299.093 188.026 298.695 188.551C298.302 189.072 297.755 189.479 297.054 189.773C296.354 190.066 295.549 190.213 294.64 190.213C293.304 190.213 292.23 189.934 291.415 189.375C290.601 188.812 290.115 188.028 289.959 187.024L292.466 186.783C292.58 187.275 292.821 187.647 293.191 187.898C293.56 188.149 294.041 188.274 294.632 188.274C295.243 188.274 295.733 188.149 296.103 187.898C296.477 187.647 296.664 187.337 296.664 186.967C296.664 186.655 296.543 186.397 296.301 186.193C296.065 185.99 295.695 185.833 295.194 185.724L293.333 185.334C292.286 185.116 291.512 184.749 291.01 184.233C290.508 183.712 290.26 183.054 290.265 182.259C290.26 181.586 290.442 181.004 290.811 180.511C291.185 180.014 291.704 179.631 292.367 179.361C293.034 179.086 293.804 178.949 294.675 178.949C295.953 178.949 296.96 179.221 297.694 179.766C298.432 180.31 298.889 181.046 299.064 181.974Z" fill="#2E3A59"/>
<path d="M428.339 179.453C428.273 178.833 427.994 178.35 427.501 178.004C427.014 177.659 426.379 177.486 425.598 177.486C425.049 177.486 424.578 177.569 424.185 177.734C423.792 177.9 423.491 178.125 423.283 178.409C423.074 178.693 422.968 179.018 422.963 179.382C422.963 179.685 423.032 179.948 423.169 180.17C423.311 180.393 423.503 180.582 423.744 180.739C423.986 180.89 424.253 181.018 424.547 181.122C424.84 181.226 425.136 181.314 425.435 181.385L426.798 181.726C427.348 181.854 427.875 182.027 428.382 182.244C428.893 182.462 429.35 182.737 429.753 183.068C430.16 183.4 430.482 183.8 430.719 184.268C430.955 184.737 431.074 185.286 431.074 185.916C431.074 186.768 430.856 187.519 430.42 188.168C429.985 188.812 429.355 189.316 428.531 189.68C427.712 190.04 426.72 190.22 425.555 190.22C424.424 190.22 423.441 190.045 422.608 189.695C421.779 189.344 421.131 188.833 420.662 188.161C420.198 187.488 419.947 186.669 419.909 185.703H422.501C422.539 186.21 422.696 186.631 422.97 186.967C423.245 187.304 423.602 187.554 424.043 187.72C424.488 187.886 424.985 187.969 425.534 187.969C426.107 187.969 426.609 187.884 427.04 187.713C427.475 187.538 427.816 187.296 428.062 186.989C428.309 186.676 428.434 186.312 428.439 185.895C428.434 185.516 428.323 185.204 428.105 184.957C427.887 184.706 427.582 184.498 427.189 184.332C426.801 184.162 426.346 184.01 425.825 183.878L424.17 183.452C422.973 183.144 422.026 182.678 421.33 182.053C420.638 181.423 420.293 180.587 420.293 179.545C420.293 178.688 420.525 177.938 420.989 177.294C421.457 176.65 422.094 176.151 422.899 175.795C423.704 175.436 424.616 175.256 425.634 175.256C426.666 175.256 427.57 175.436 428.347 175.795C429.128 176.151 429.741 176.645 430.186 177.28C430.631 177.91 430.861 178.634 430.875 179.453H428.339ZM438.139 190.213C437.045 190.213 436.1 189.986 435.305 189.531C434.514 189.072 433.906 188.423 433.48 187.585C433.054 186.742 432.841 185.75 432.841 184.609C432.841 183.487 433.054 182.502 433.48 181.655C433.911 180.803 434.512 180.14 435.284 179.666C436.056 179.188 436.962 178.949 438.004 178.949C438.676 178.949 439.311 179.058 439.907 179.276C440.509 179.489 441.039 179.82 441.498 180.27C441.962 180.72 442.327 181.293 442.592 181.989C442.857 182.68 442.99 183.504 442.99 184.46V185.249H434.048V183.516H440.525C440.52 183.023 440.414 182.585 440.206 182.202C439.997 181.813 439.706 181.508 439.332 181.286C438.963 181.063 438.532 180.952 438.039 180.952C437.514 180.952 437.052 181.08 436.654 181.335C436.257 181.586 435.947 181.918 435.724 182.33C435.506 182.737 435.395 183.184 435.39 183.672V185.185C435.39 185.819 435.506 186.364 435.738 186.818C435.97 187.268 436.295 187.614 436.711 187.855C437.128 188.092 437.616 188.21 438.174 188.21C438.548 188.21 438.887 188.158 439.19 188.054C439.493 187.945 439.756 187.786 439.978 187.578C440.201 187.37 440.369 187.112 440.483 186.804L442.883 187.074C442.732 187.708 442.443 188.262 442.017 188.736C441.595 189.205 441.056 189.569 440.397 189.83C439.739 190.085 438.986 190.213 438.139 190.213ZM450.612 179.091V181.08H444.341V179.091H450.612ZM445.889 176.477H448.46V186.719C448.46 187.064 448.512 187.33 448.616 187.514C448.725 187.694 448.867 187.817 449.043 187.884C449.218 187.95 449.412 187.983 449.625 187.983C449.786 187.983 449.933 187.971 450.065 187.947C450.203 187.924 450.307 187.902 450.378 187.884L450.811 189.893C450.674 189.941 450.477 189.993 450.222 190.05C449.971 190.107 449.663 190.14 449.298 190.149C448.654 190.168 448.074 190.071 447.558 189.858C447.042 189.64 446.633 189.304 446.33 188.849C446.031 188.395 445.884 187.827 445.889 187.145V176.477ZM459.716 185.412V179.091H462.287V190H459.794V188.061H459.68C459.434 188.672 459.029 189.171 458.466 189.56C457.907 189.948 457.218 190.142 456.399 190.142C455.684 190.142 455.052 189.983 454.502 189.666C453.958 189.344 453.532 188.878 453.224 188.267C452.916 187.652 452.762 186.908 452.762 186.037V179.091H455.333V185.639C455.333 186.33 455.523 186.88 455.902 187.287C456.28 187.694 456.778 187.898 457.393 187.898C457.772 187.898 458.139 187.805 458.494 187.621C458.849 187.436 459.14 187.161 459.368 186.797C459.6 186.428 459.716 185.966 459.716 185.412ZM464.93 194.091V179.091H467.459V180.895H467.608C467.741 180.63 467.928 180.348 468.169 180.05C468.411 179.747 468.737 179.489 469.149 179.276C469.561 179.058 470.087 178.949 470.726 178.949C471.569 178.949 472.329 179.164 473.006 179.595C473.688 180.021 474.227 180.653 474.625 181.491C475.027 182.325 475.229 183.348 475.229 184.56C475.229 185.758 475.032 186.776 474.639 187.614C474.246 188.452 473.711 189.091 473.034 189.531C472.357 189.972 471.59 190.192 470.733 190.192C470.108 190.192 469.589 190.088 469.178 189.879C468.766 189.671 468.434 189.42 468.183 189.126C467.937 188.828 467.745 188.546 467.608 188.281H467.501V194.091H464.93ZM467.452 184.545C467.452 185.251 467.551 185.869 467.75 186.399C467.954 186.929 468.245 187.344 468.624 187.642C469.007 187.936 469.471 188.082 470.016 188.082C470.584 188.082 471.06 187.931 471.443 187.628C471.827 187.32 472.116 186.901 472.31 186.371C472.509 185.836 472.608 185.227 472.608 184.545C472.608 183.868 472.511 183.267 472.317 182.741C472.123 182.216 471.834 181.804 471.45 181.506C471.067 181.207 470.589 181.058 470.016 181.058C469.466 181.058 469 181.203 468.616 181.491C468.233 181.78 467.942 182.185 467.743 182.706C467.549 183.227 467.452 183.84 467.452 184.545ZM484.643 190L481.56 179.091H484.181L486.099 186.761H486.198L488.158 179.091H490.751L492.711 186.719H492.817L494.707 179.091H497.335L494.245 190H491.567L489.522 182.628H489.373L487.327 190H484.643ZM499.13 190V179.091H501.701V190H499.13ZM500.422 177.543C500.015 177.543 499.665 177.408 499.371 177.138C499.078 176.863 498.931 176.534 498.931 176.151C498.931 175.762 499.078 175.433 499.371 175.163C499.665 174.889 500.015 174.751 500.422 174.751C500.834 174.751 501.185 174.889 501.473 175.163C501.767 175.433 501.914 175.762 501.914 176.151C501.914 176.534 501.767 176.863 501.473 177.138C501.185 177.408 500.834 177.543 500.422 177.543ZM509.792 179.091V181.08H503.521V179.091H509.792ZM505.069 176.477H507.64V186.719C507.64 187.064 507.692 187.33 507.796 187.514C507.905 187.694 508.047 187.817 508.222 187.884C508.397 187.95 508.592 187.983 508.805 187.983C508.966 187.983 509.112 187.971 509.245 187.947C509.382 187.924 509.487 187.902 509.558 187.884L509.991 189.893C509.853 189.941 509.657 189.993 509.401 190.05C509.15 190.107 508.843 190.14 508.478 190.149C507.834 190.168 507.254 190.071 506.738 189.858C506.222 189.64 505.812 189.304 505.509 188.849C505.211 188.395 505.064 187.827 505.069 187.145V176.477ZM514.748 183.608V190H512.176V175.455H514.691V180.945H514.819C515.074 180.329 515.47 179.844 516.005 179.489C516.544 179.129 517.231 178.949 518.064 178.949C518.822 178.949 519.482 179.107 520.046 179.425C520.609 179.742 521.045 180.206 521.353 180.817C521.665 181.428 521.821 182.173 521.821 183.054V190H519.25V183.452C519.25 182.718 519.061 182.147 518.682 181.74C518.308 181.328 517.783 181.122 517.105 181.122C516.651 181.122 516.244 181.222 515.884 181.42C515.529 181.615 515.249 181.896 515.046 182.266C514.847 182.635 514.748 183.082 514.748 183.608ZM532.542 190.22C531.851 190.22 531.228 190.097 530.674 189.851C530.125 189.6 529.69 189.231 529.368 188.743C529.05 188.255 528.892 187.654 528.892 186.939C528.892 186.323 529.005 185.814 529.233 185.412C529.46 185.009 529.77 184.688 530.163 184.446C530.556 184.205 530.999 184.022 531.491 183.899C531.988 183.771 532.502 183.679 533.032 183.622C533.672 183.556 534.19 183.497 534.588 183.445C534.985 183.388 535.274 183.303 535.454 183.189C535.639 183.071 535.731 182.888 535.731 182.642V182.599C535.731 182.064 535.573 181.65 535.255 181.357C534.938 181.063 534.481 180.916 533.885 180.916C533.255 180.916 532.755 181.054 532.386 181.328C532.021 181.603 531.775 181.927 531.647 182.301L529.247 181.96C529.436 181.297 529.749 180.743 530.184 180.298C530.62 179.848 531.153 179.512 531.782 179.29C532.412 179.062 533.108 178.949 533.87 178.949C534.396 178.949 534.919 179.01 535.44 179.134C535.961 179.257 536.437 179.46 536.868 179.744C537.298 180.024 537.644 180.405 537.904 180.888C538.17 181.371 538.302 181.974 538.302 182.699V190H535.831V188.501H535.745C535.589 188.804 535.369 189.089 535.085 189.354C534.806 189.614 534.453 189.825 534.027 189.986C533.605 190.142 533.11 190.22 532.542 190.22ZM533.21 188.331C533.726 188.331 534.173 188.229 534.552 188.026C534.931 187.817 535.222 187.543 535.426 187.202C535.634 186.861 535.738 186.489 535.738 186.087V184.801C535.658 184.867 535.52 184.929 535.326 184.986C535.137 185.043 534.924 185.092 534.687 185.135C534.45 185.178 534.216 185.215 533.984 185.249C533.752 185.282 533.551 185.31 533.38 185.334C532.997 185.386 532.654 185.471 532.35 185.589C532.047 185.708 531.808 185.874 531.633 186.087C531.458 186.295 531.37 186.565 531.37 186.896C531.37 187.37 531.543 187.727 531.889 187.969C532.234 188.21 532.675 188.331 533.21 188.331ZM553.128 194.091V188.281H553.022C552.889 188.546 552.697 188.828 552.446 189.126C552.195 189.42 551.864 189.671 551.452 189.879C551.04 190.088 550.522 190.192 549.897 190.192C549.04 190.192 548.273 189.972 547.596 189.531C546.918 189.091 546.383 188.452 545.99 187.614C545.597 186.776 545.401 185.758 545.401 184.56C545.401 183.348 545.6 182.325 545.998 181.491C546.4 180.653 546.942 180.021 547.624 179.595C548.306 179.164 549.066 178.949 549.904 178.949C550.543 178.949 551.069 179.058 551.48 179.276C551.892 179.489 552.219 179.747 552.461 180.05C552.702 180.348 552.889 180.63 553.022 180.895H553.178V179.091H555.706V194.091H553.128ZM550.614 188.082C551.158 188.082 551.623 187.936 552.006 187.642C552.39 187.344 552.681 186.929 552.88 186.399C553.078 185.869 553.178 185.251 553.178 184.545C553.178 183.84 553.078 183.227 552.88 182.706C552.685 182.185 552.397 181.78 552.013 181.491C551.634 181.203 551.168 181.058 550.614 181.058C550.041 181.058 549.563 181.207 549.179 181.506C548.796 181.804 548.507 182.216 548.313 182.741C548.119 183.267 548.022 183.868 548.022 184.545C548.022 185.227 548.119 185.836 548.313 186.371C548.512 186.901 548.803 187.32 549.186 187.628C549.575 187.931 550.051 188.082 550.614 188.082ZM565.301 185.412V179.091H567.873V190H565.38V188.061H565.266C565.02 188.672 564.615 189.171 564.051 189.56C563.493 189.948 562.804 190.142 561.985 190.142C561.27 190.142 560.638 189.983 560.088 189.666C559.544 189.344 559.118 188.878 558.81 188.267C558.502 187.652 558.348 186.908 558.348 186.037V179.091H560.919V185.639C560.919 186.33 561.109 186.88 561.488 187.287C561.866 187.694 562.364 187.898 562.979 187.898C563.358 187.898 563.725 187.805 564.08 187.621C564.435 187.436 564.726 187.161 564.953 186.797C565.185 186.428 565.301 185.966 565.301 185.412ZM570.516 190V179.091H573.087V190H570.516ZM571.809 177.543C571.402 177.543 571.051 177.408 570.758 177.138C570.464 176.863 570.317 176.534 570.317 176.151C570.317 175.762 570.464 175.433 570.758 175.163C571.051 174.889 571.402 174.751 571.809 174.751C572.221 174.751 572.571 174.889 572.86 175.163C573.154 175.433 573.3 175.762 573.3 176.151C573.3 176.534 573.154 176.863 572.86 177.138C572.571 177.408 572.221 177.543 571.809 177.543ZM580.49 190.213C579.401 190.213 578.466 189.974 577.684 189.496C576.908 189.018 576.309 188.357 575.887 187.514C575.471 186.667 575.262 185.691 575.262 184.588C575.262 183.48 575.475 182.502 575.902 181.655C576.328 180.803 576.929 180.14 577.706 179.666C578.487 179.188 579.41 178.949 580.475 178.949C581.361 178.949 582.145 179.112 582.826 179.439C583.513 179.761 584.06 180.218 584.467 180.81C584.874 181.397 585.106 182.083 585.163 182.869H582.706C582.606 182.344 582.369 181.906 581.995 181.555C581.626 181.2 581.131 181.023 580.511 181.023C579.985 181.023 579.524 181.165 579.126 181.449C578.728 181.728 578.418 182.131 578.196 182.656C577.978 183.182 577.869 183.812 577.869 184.545C577.869 185.289 577.978 185.928 578.196 186.463C578.413 186.993 578.719 187.403 579.112 187.692C579.51 187.976 579.976 188.118 580.511 188.118C580.89 188.118 581.228 188.047 581.527 187.905C581.83 187.758 582.083 187.547 582.287 187.273C582.49 186.998 582.63 186.664 582.706 186.271H585.163C585.101 187.043 584.874 187.727 584.481 188.324C584.088 188.916 583.553 189.38 582.876 189.716C582.199 190.047 581.404 190.213 580.49 190.213ZM589.618 186.577L589.611 183.473H590.023L593.943 179.091H596.947L592.125 184.46H591.592L589.618 186.577ZM587.274 190V175.455H589.845V190H587.274ZM594.121 190L590.57 185.036L592.303 183.224L597.196 190H594.121ZM608.366 194.318C607.443 194.318 606.65 194.193 605.987 193.942C605.324 193.696 604.791 193.364 604.389 192.947C603.986 192.531 603.707 192.069 603.551 191.562L605.866 191.001C605.97 191.214 606.122 191.425 606.321 191.634C606.52 191.847 606.787 192.022 607.123 192.159C607.464 192.301 607.893 192.372 608.409 192.372C609.138 192.372 609.742 192.195 610.22 191.839C610.698 191.489 610.937 190.911 610.937 190.107V188.04H610.809C610.677 188.305 610.483 188.577 610.227 188.857C609.976 189.136 609.642 189.37 609.225 189.56C608.814 189.749 608.295 189.844 607.67 189.844C606.832 189.844 606.072 189.647 605.39 189.254C604.713 188.857 604.173 188.265 603.771 187.479C603.373 186.688 603.174 185.698 603.174 184.51C603.174 183.312 603.373 182.301 603.771 181.477C604.173 180.649 604.716 180.021 605.397 179.595C606.079 179.164 606.839 178.949 607.677 178.949C608.316 178.949 608.842 179.058 609.254 179.276C609.671 179.489 610.002 179.747 610.248 180.05C610.494 180.348 610.681 180.63 610.809 180.895H610.951V179.091H613.487V190.178C613.487 191.11 613.264 191.882 612.819 192.493C612.374 193.104 611.766 193.561 610.994 193.864C610.222 194.167 609.346 194.318 608.366 194.318ZM608.387 187.827C608.932 187.827 609.396 187.694 609.779 187.429C610.163 187.164 610.454 186.783 610.653 186.286C610.852 185.788 610.951 185.192 610.951 184.496C610.951 183.809 610.852 183.208 610.653 182.692C610.459 182.176 610.17 181.776 609.787 181.491C609.408 181.203 608.941 181.058 608.387 181.058C607.815 181.058 607.336 181.207 606.953 181.506C606.569 181.804 606.28 182.214 606.086 182.734C605.892 183.25 605.795 183.838 605.795 184.496C605.795 185.163 605.892 185.748 606.086 186.25C606.285 186.747 606.576 187.135 606.96 187.415C607.348 187.689 607.824 187.827 608.387 187.827ZM623.075 185.412V179.091H625.646V190H623.153V188.061H623.039C622.793 188.672 622.388 189.171 621.825 189.56C621.266 189.948 620.577 190.142 619.758 190.142C619.043 190.142 618.411 189.983 617.862 189.666C617.317 189.344 616.891 188.878 616.583 188.267C616.276 187.652 616.122 186.908 616.122 186.037V179.091H618.693V185.639C618.693 186.33 618.882 186.88 619.261 187.287C619.64 187.694 620.137 187.898 620.752 187.898C621.131 187.898 621.498 187.805 621.853 187.621C622.208 187.436 622.5 187.161 622.727 186.797C622.959 186.428 623.075 185.966 623.075 185.412ZM628.29 190V179.091H630.861V190H628.29ZM629.582 177.543C629.175 177.543 628.825 177.408 628.531 177.138C628.238 176.863 628.091 176.534 628.091 176.151C628.091 175.762 628.238 175.433 628.531 175.163C628.825 174.889 629.175 174.751 629.582 174.751C629.994 174.751 630.345 174.889 630.634 175.163C630.927 175.433 631.074 175.762 631.074 176.151C631.074 176.534 630.927 176.863 630.634 177.138C630.345 177.408 629.994 177.543 629.582 177.543ZM637.553 190.192C636.696 190.192 635.929 189.972 635.252 189.531C634.575 189.091 634.04 188.452 633.647 187.614C633.254 186.776 633.057 185.758 633.057 184.56C633.057 183.348 633.256 182.325 633.654 181.491C634.056 180.653 634.598 180.021 635.28 179.595C635.962 179.164 636.722 178.949 637.56 178.949C638.199 178.949 638.725 179.058 639.137 179.276C639.549 179.489 639.875 179.747 640.117 180.05C640.358 180.348 640.545 180.63 640.678 180.895H640.784V175.455H643.363V190H640.834V188.281H640.678C640.545 188.546 640.354 188.828 640.103 189.126C639.852 189.42 639.52 189.671 639.108 189.879C638.696 190.088 638.178 190.192 637.553 190.192ZM638.27 188.082C638.815 188.082 639.279 187.936 639.662 187.642C640.046 187.344 640.337 186.929 640.536 186.399C640.735 185.869 640.834 185.251 640.834 184.545C640.834 183.84 640.735 183.227 640.536 182.706C640.342 182.185 640.053 181.78 639.669 181.491C639.291 181.203 638.824 181.058 638.27 181.058C637.697 181.058 637.219 181.207 636.836 181.506C636.452 181.804 636.163 182.216 635.969 182.741C635.775 183.267 635.678 183.868 635.678 184.545C635.678 185.227 635.775 185.836 635.969 186.371C636.168 186.901 636.459 187.32 636.843 187.628C637.231 187.931 637.707 188.082 638.27 188.082ZM650.932 190.213C649.838 190.213 648.893 189.986 648.098 189.531C647.307 189.072 646.699 188.423 646.273 187.585C645.847 186.742 645.634 185.75 645.634 184.609C645.634 183.487 645.847 182.502 646.273 181.655C646.704 180.803 647.305 180.14 648.077 179.666C648.848 179.188 649.755 178.949 650.797 178.949C651.469 178.949 652.104 179.058 652.7 179.276C653.302 179.489 653.832 179.82 654.291 180.27C654.755 180.72 655.12 181.293 655.385 181.989C655.65 182.68 655.783 183.504 655.783 184.46V185.249H646.841V183.516H653.318C653.313 183.023 653.207 182.585 652.999 182.202C652.79 181.813 652.499 181.508 652.125 181.286C651.756 181.063 651.325 180.952 650.832 180.952C650.307 180.952 649.845 181.08 649.447 181.335C649.05 181.586 648.74 181.918 648.517 182.33C648.299 182.737 648.188 183.184 648.183 183.672V185.185C648.183 185.819 648.299 186.364 648.531 186.818C648.763 187.268 649.088 187.614 649.504 187.855C649.921 188.092 650.409 188.21 650.967 188.21C651.341 188.21 651.68 188.158 651.983 188.054C652.286 187.945 652.549 187.786 652.771 187.578C652.994 187.37 653.162 187.112 653.276 186.804L655.676 187.074C655.525 187.708 655.236 188.262 654.81 188.736C654.388 189.205 653.848 189.569 653.19 189.83C652.532 190.085 651.779 190.213 650.932 190.213Z" fill="#2E3A59"/>
<path d="M862.435 190V175.455H867.889C869.007 175.455 869.944 175.649 870.702 176.037C871.464 176.425 872.039 176.97 872.428 177.67C872.821 178.366 873.017 179.179 873.017 180.107C873.017 181.039 872.818 181.849 872.42 182.536C872.027 183.217 871.447 183.745 870.68 184.119C869.913 184.489 868.971 184.673 867.854 184.673H863.969V182.486H867.499C868.152 182.486 868.687 182.396 869.104 182.216C869.52 182.031 869.828 181.764 870.027 181.413C870.231 181.058 870.332 180.623 870.332 180.107C870.332 179.59 870.231 179.15 870.027 178.786C869.823 178.416 869.513 178.137 869.097 177.947C868.68 177.753 868.143 177.656 867.484 177.656H865.07V190H862.435ZM869.949 183.409L873.55 190H870.609L867.072 183.409H869.949ZM880.002 190.213C878.908 190.213 877.964 189.986 877.168 189.531C876.378 189.072 875.769 188.423 875.343 187.585C874.917 186.742 874.704 185.75 874.704 184.609C874.704 183.487 874.917 182.502 875.343 181.655C875.774 180.803 876.375 180.14 877.147 179.666C877.919 179.188 878.826 178.949 879.867 178.949C880.54 178.949 881.174 179.058 881.771 179.276C882.372 179.489 882.902 179.82 883.362 180.27C883.826 180.72 884.19 181.293 884.455 181.989C884.72 182.68 884.853 183.504 884.853 184.46V185.249H875.911V183.516H882.388C882.384 183.023 882.277 182.585 882.069 182.202C881.861 181.813 881.569 181.508 881.195 181.286C880.826 181.063 880.395 180.952 879.903 180.952C879.377 180.952 878.915 181.08 878.518 181.335C878.12 181.586 877.81 181.918 877.587 182.33C877.37 182.737 877.258 183.184 877.254 183.672V185.185C877.254 185.819 877.37 186.364 877.602 186.818C877.834 187.268 878.158 187.614 878.575 187.855C878.991 188.092 879.479 188.21 880.038 188.21C880.412 188.21 880.75 188.158 881.053 188.054C881.356 187.945 881.619 187.786 881.842 187.578C882.064 187.37 882.232 187.112 882.346 186.804L884.746 187.074C884.595 187.708 884.306 188.262 883.88 188.736C883.459 189.205 882.919 189.569 882.261 189.83C881.603 190.085 880.85 190.213 880.002 190.213ZM890.167 190.22C889.476 190.22 888.853 190.097 888.299 189.851C887.75 189.6 887.315 189.231 886.993 188.743C886.675 188.255 886.517 187.654 886.517 186.939C886.517 186.323 886.63 185.814 886.858 185.412C887.085 185.009 887.395 184.688 887.788 184.446C888.181 184.205 888.624 184.022 889.116 183.899C889.613 183.771 890.127 183.679 890.657 183.622C891.297 183.556 891.815 183.497 892.213 183.445C892.61 183.388 892.899 183.303 893.079 183.189C893.264 183.071 893.356 182.888 893.356 182.642V182.599C893.356 182.064 893.198 181.65 892.88 181.357C892.563 181.063 892.106 180.916 891.51 180.916C890.88 180.916 890.38 181.054 890.011 181.328C889.646 181.603 889.4 181.927 889.272 182.301L886.872 181.96C887.061 181.297 887.374 180.743 887.809 180.298C888.245 179.848 888.778 179.512 889.407 179.29C890.037 179.062 890.733 178.949 891.495 178.949C892.021 178.949 892.544 179.01 893.065 179.134C893.586 179.257 894.062 179.46 894.493 179.744C894.923 180.024 895.269 180.405 895.529 180.888C895.795 181.371 895.927 181.974 895.927 182.699V190H893.456V188.501H893.37C893.214 188.804 892.994 189.089 892.71 189.354C892.431 189.614 892.078 189.825 891.652 189.986C891.23 190.142 890.735 190.22 890.167 190.22ZM890.835 188.331C891.351 188.331 891.798 188.229 892.177 188.026C892.556 187.817 892.847 187.543 893.051 187.202C893.259 186.861 893.363 186.489 893.363 186.087V184.801C893.283 184.867 893.145 184.929 892.951 184.986C892.762 185.043 892.549 185.092 892.312 185.135C892.075 185.178 891.841 185.215 891.609 185.249C891.377 185.282 891.176 185.31 891.005 185.334C890.622 185.386 890.279 185.471 889.975 185.589C889.672 185.708 889.433 185.874 889.258 186.087C889.083 186.295 888.995 186.565 888.995 186.896C888.995 187.37 889.168 187.727 889.514 187.969C889.859 188.21 890.3 188.331 890.835 188.331ZM902.561 190.192C901.704 190.192 900.937 189.972 900.26 189.531C899.583 189.091 899.047 188.452 898.654 187.614C898.261 186.776 898.065 185.758 898.065 184.56C898.065 183.348 898.264 182.325 898.662 181.491C899.064 180.653 899.606 180.021 900.288 179.595C900.97 179.164 901.73 178.949 902.568 178.949C903.207 178.949 903.733 179.058 904.145 179.276C904.556 179.489 904.883 179.747 905.125 180.05C905.366 180.348 905.553 180.63 905.686 180.895H905.792V175.455H908.37V190H905.842V188.281H905.686C905.553 188.546 905.361 188.828 905.11 189.126C904.859 189.42 904.528 189.671 904.116 189.879C903.704 190.088 903.186 190.192 902.561 190.192ZM903.278 188.082C903.823 188.082 904.287 187.936 904.67 187.642C905.054 187.344 905.345 186.929 905.544 186.399C905.743 185.869 905.842 185.251 905.842 184.545C905.842 183.84 905.743 183.227 905.544 182.706C905.35 182.185 905.061 181.78 904.677 181.491C904.298 181.203 903.832 181.058 903.278 181.058C902.705 181.058 902.227 181.207 901.843 181.506C901.46 181.804 901.171 182.216 900.977 182.741C900.783 183.267 900.686 183.868 900.686 184.545C900.686 185.227 900.783 185.836 900.977 186.371C901.176 186.901 901.467 187.32 901.85 187.628C902.239 187.931 902.715 188.082 903.278 188.082ZM912.708 194.091C912.358 194.091 912.033 194.063 911.735 194.006C911.442 193.954 911.207 193.892 911.032 193.821L911.629 191.818C912.003 191.927 912.336 191.979 912.63 191.974C912.924 191.97 913.182 191.877 913.404 191.697C913.631 191.522 913.823 191.229 913.979 190.817L914.2 190.227L910.244 179.091H912.971L915.485 187.33H915.599L918.12 179.091H920.854L916.487 191.321C916.283 191.899 916.013 192.393 915.677 192.805C915.341 193.222 914.929 193.539 914.441 193.757C913.958 193.98 913.38 194.091 912.708 194.091ZM933.042 179.091V181.08H926.771V179.091H933.042ZM928.319 176.477H930.89V186.719C930.89 187.064 930.942 187.33 931.046 187.514C931.155 187.694 931.297 187.817 931.472 187.884C931.647 187.95 931.842 187.983 932.055 187.983C932.216 187.983 932.362 187.971 932.495 187.947C932.632 187.924 932.737 187.902 932.808 187.884L933.241 189.893C933.103 189.941 932.907 189.993 932.651 190.05C932.4 190.107 932.093 190.14 931.728 190.149C931.084 190.168 930.504 190.071 929.988 189.858C929.472 189.64 929.062 189.304 928.759 188.849C928.461 188.395 928.314 187.827 928.319 187.145V176.477ZM939.833 190.213C938.768 190.213 937.845 189.979 937.064 189.51C936.282 189.041 935.676 188.385 935.245 187.543C934.819 186.7 934.606 185.715 934.606 184.588C934.606 183.461 934.819 182.474 935.245 181.626C935.676 180.779 936.282 180.121 937.064 179.652C937.845 179.183 938.768 178.949 939.833 178.949C940.899 178.949 941.822 179.183 942.603 179.652C943.385 180.121 943.988 180.779 944.414 181.626C944.845 182.474 945.061 183.461 945.061 184.588C945.061 185.715 944.845 186.7 944.414 187.543C943.988 188.385 943.385 189.041 942.603 189.51C941.822 189.979 940.899 190.213 939.833 190.213ZM939.848 188.153C940.425 188.153 940.908 187.995 941.297 187.678C941.685 187.356 941.974 186.925 942.163 186.385C942.357 185.845 942.454 185.244 942.454 184.581C942.454 183.913 942.357 183.31 942.163 182.77C941.974 182.225 941.685 181.792 941.297 181.47C940.908 181.148 940.425 180.987 939.848 180.987C939.256 180.987 938.763 181.148 938.37 181.47C937.982 181.792 937.691 182.225 937.497 182.77C937.307 183.31 937.213 183.913 937.213 184.581C937.213 185.244 937.307 185.845 937.497 186.385C937.691 186.925 937.982 187.356 938.37 187.678C938.763 187.995 939.256 188.153 939.848 188.153ZM952.204 190V179.091H954.697V180.909H954.81C955.009 180.279 955.35 179.794 955.833 179.453C956.321 179.107 956.877 178.935 957.502 178.935C957.644 178.935 957.803 178.942 957.978 178.956C958.158 178.965 958.307 178.982 958.425 179.006V181.371C958.317 181.333 958.144 181.3 957.907 181.271C957.675 181.238 957.45 181.222 957.232 181.222C956.763 181.222 956.342 181.323 955.968 181.527C955.599 181.726 955.308 182.003 955.094 182.358C954.881 182.713 954.775 183.123 954.775 183.587V190H952.204ZM964.443 190.213C963.377 190.213 962.454 189.979 961.673 189.51C960.892 189.041 960.286 188.385 959.855 187.543C959.429 186.7 959.216 185.715 959.216 184.588C959.216 183.461 959.429 182.474 959.855 181.626C960.286 180.779 960.892 180.121 961.673 179.652C962.454 179.183 963.377 178.949 964.443 178.949C965.508 178.949 966.431 179.183 967.213 179.652C967.994 180.121 968.598 180.779 969.024 181.626C969.455 182.474 969.67 183.461 969.67 184.588C969.67 185.715 969.455 186.7 969.024 187.543C968.598 188.385 967.994 189.041 967.213 189.51C966.431 189.979 965.508 190.213 964.443 190.213ZM964.457 188.153C965.035 188.153 965.518 187.995 965.906 187.678C966.294 187.356 966.583 186.925 966.772 186.385C966.967 185.845 967.064 185.244 967.064 184.581C967.064 183.913 966.967 183.31 966.772 182.77C966.583 182.225 966.294 181.792 965.906 181.47C965.518 181.148 965.035 180.987 964.457 180.987C963.865 180.987 963.373 181.148 962.98 181.47C962.592 181.792 962.3 182.225 962.106 182.77C961.917 183.31 961.822 183.913 961.822 184.581C961.822 185.244 961.917 185.845 962.106 186.385C962.3 186.925 962.592 187.356 962.98 187.678C963.373 187.995 963.865 188.153 964.457 188.153ZM976.611 190.213C975.522 190.213 974.587 189.974 973.805 189.496C973.029 189.018 972.43 188.357 972.009 187.514C971.592 186.667 971.384 185.691 971.384 184.588C971.384 183.48 971.597 182.502 972.023 181.655C972.449 180.803 973.05 180.14 973.827 179.666C974.608 179.188 975.531 178.949 976.597 178.949C977.482 178.949 978.266 179.112 978.947 179.439C979.634 179.761 980.181 180.218 980.588 180.81C980.995 181.397 981.227 182.083 981.284 182.869H978.827C978.727 182.344 978.491 181.906 978.116 181.555C977.747 181.2 977.252 181.023 976.632 181.023C976.107 181.023 975.645 181.165 975.247 181.449C974.849 181.728 974.539 182.131 974.317 182.656C974.099 183.182 973.99 183.812 973.99 184.545C973.99 185.289 974.099 185.928 974.317 186.463C974.535 186.993 974.84 187.403 975.233 187.692C975.631 187.976 976.097 188.118 976.632 188.118C977.011 188.118 977.349 188.047 977.648 187.905C977.951 187.758 978.204 187.547 978.408 187.273C978.611 186.998 978.751 186.664 978.827 186.271H981.284C981.223 187.043 980.995 187.727 980.602 188.324C980.209 188.916 979.674 189.38 978.997 189.716C978.32 190.047 977.525 190.213 976.611 190.213ZM985.739 186.577L985.732 183.473H986.144L990.064 179.091H993.069L988.246 184.46H987.713L985.739 186.577ZM983.395 190V175.455H985.966V190H983.395ZM990.242 190L986.691 185.036L988.424 183.224L993.317 190H990.242Z" fill="#2E3A59"/>
</svg>
