<svg width="150" height="32" viewBox="0 0 150 32" fill="none" xmlns="http://www.w3.org/2000/svg">
<g clip-path="url(#clip0_1638_13854)">
<path d="M47.1094 8.33301C50.2529 8.33301 52.7339 9.7579 52.7339 12.9993C52.755 14.4557 51.8333 15.7632 50.4427 16.2491C52.09 16.7841 53.2162 18.287 53.2529 19.9988C53.2529 23.5694 50.371 24.6652 47.1094 24.6652H39.5145V8.33301H47.1094ZM42.1474 15.0867H47.1347C49.1178 15.0867 50.1136 14.3159 50.1136 13.0327C50.1136 11.8911 49.0967 10.6745 47.1136 10.6745H42.1474V15.0867ZM42.1474 22.2278H47.1094C48.5735 22.2278 50.6073 21.7612 50.6073 19.9655C50.6073 18.1698 48.6453 17.424 47.1347 17.424H42.1474V22.2278Z" fill="#2E3A59"/>
<path d="M67.2213 18.9114C67.2213 22.3195 64.8332 24.886 61.1707 24.886C57.5083 24.886 55.1707 22.3195 55.1707 18.9114C55.1707 15.5033 57.5589 12.916 61.1792 12.916C64.7994 12.916 67.2213 15.5283 67.2213 18.9114ZM57.6053 18.9114C57.6053 20.9654 58.9513 22.6611 61.1749 22.6611C63.3986 22.6611 64.7657 20.9946 64.7657 18.9114C64.7657 16.8282 63.2889 15.1325 61.1792 15.1325C58.9513 15.1325 57.6053 16.8824 57.6053 18.9114Z" fill="#2E3A59"/>
<path d="M81.112 18.9114C81.112 22.3195 78.7238 24.886 75.0613 24.886C71.3989 24.886 69.0613 22.3195 69.0613 18.9114C69.0613 15.5033 71.4453 12.916 75.0613 12.916C78.6774 12.916 81.112 15.5283 81.112 18.9114ZM71.4959 18.9114C71.4959 20.9654 72.8419 22.6611 75.0656 22.6611C77.2892 22.6611 78.6563 20.9946 78.6563 18.9114C78.6563 16.8282 77.1921 15.1325 75.0656 15.1325C72.8419 15.1325 71.4959 16.8824 71.4959 18.9114Z" fill="#2E3A59"/>
<path fill-rule="evenodd" clip-rule="evenodd" d="M86.144 8.33301V17.8615L90.4689 13.1493H93.4225V13.291L88.3887 18.5614L94.0891 24.4902V24.6527H91.1356L86.144 19.3322V24.6527H83.6883V8.33301H86.144Z" fill="#2E3A59"/>
<path fill-rule="evenodd" clip-rule="evenodd" d="M104.671 24.6521V18.49C104.671 16.5068 103.536 15.1569 101.527 15.1569C99.5904 15.1569 98.2655 16.7193 98.2655 18.6108V24.6521H95.8309V13.1237H98.0503L98.1937 14.7903C99.155 13.6253 100.596 12.9491 102.118 12.9487C104.953 12.9487 107.126 14.9319 107.126 18.4567V24.6521H104.671Z" fill="#2E3A59"/>
<path d="M112.066 19.7994C112.277 21.5493 113.754 22.6909 115.864 22.6909C117.045 22.6909 118.535 22.2493 119.239 21.441L120.822 22.9575C119.615 24.2658 117.606 24.9157 115.813 24.9157C111.986 24.9157 109.526 22.5117 109.526 18.8245C109.526 15.3248 112.007 12.8291 115.644 12.8291C119.4 12.8291 121.973 15.0914 121.505 19.7828L112.066 19.7994ZM119.18 17.7704C119.037 15.9497 117.691 14.9956 115.729 14.9956C113.957 14.9956 112.492 15.9539 112.113 17.7704H119.18Z" fill="#2E3A59"/>
<path fill-rule="evenodd" clip-rule="evenodd" d="M127.755 9.83691V13.17H131.156V15.2532H127.73V20.732C127.73 21.9444 128.274 22.6235 129.418 22.6235C129.939 22.5959 130.448 22.4536 130.907 22.2069L131.616 24.2609C130.884 24.5988 130.086 24.7738 129.278 24.7733C126.747 24.8442 125.308 23.4193 125.308 20.7153V15.249H123.063V13.1658H125.312V10.0911L127.755 9.83691Z" fill="#2E3A59"/>
<path d="M136.354 9.76612C136.354 11.7493 133.329 11.7493 133.329 9.76612C133.329 7.78293 136.354 7.80793 136.354 9.76612ZM133.612 13.0992V24.6525H136.046V13.1034L133.612 13.0992Z" fill="#2E3A59"/>
<path fill-rule="evenodd" clip-rule="evenodd" d="M149.21 23.1559C148.053 24.333 146.454 24.9832 144.793 24.9516C141.417 24.9516 138.649 22.8685 138.649 18.9104C138.649 14.9524 141.413 12.8692 144.793 12.8692C146.379 12.8273 147.91 13.4457 149.012 14.5732L147.451 16.1814C146.742 15.5196 145.802 15.1526 144.826 15.1565C143.815 15.1226 142.835 15.5089 142.125 16.2216C141.416 16.9342 141.041 17.908 141.092 18.9062C141.092 21.3311 142.78 22.6143 144.801 22.6143C145.832 22.6443 146.831 22.2558 147.565 21.5394L149.21 23.1559Z" fill="#2E3A59"/>
<path fill-rule="evenodd" clip-rule="evenodd" d="M19.4371 7.77143C19.4371 12.0633 15.7756 15.5429 11.2636 15.5429H-0.0058345V3.45313C-0.0597844 1.59664 1.56364 0.0514705 3.62218 0H11.2636C13.4531 0.0069124 15.5427 0.826837 17.0408 2.26682C18.5937 3.75613 19.4518 5.72714 19.4371 7.77143Z" fill="#FF3D71"/>
<path fill-rule="evenodd" clip-rule="evenodd" d="M23.1 14.9078C21.3389 13.047 18.878 11.9866 16.2988 11.9768H3.59431C1.55324 11.9209 -0.057048 10.2446 -0.00584598 8.229V11.9768V28.253C-0.0593615 30.2694 1.55223 31.9471 3.59431 32.0008H16.2988C21.6117 32.0008 25.9186 27.5182 25.9186 21.997C25.9347 19.3644 24.9256 16.8264 23.1 14.9078Z" fill="#6D2FFD"/>
</g>
<defs>
<clipPath id="clip0_1638_13854">
<rect width="150" height="32" fill="white"/>
</clipPath>
</defs>
</svg>
