<svg width="119" height="32" viewBox="0 0 119 32" fill="none" xmlns="http://www.w3.org/2000/svg">
<path d="M44.7988 9.65137C47.0526 9.65137 48.8314 10.6774 48.8314 13.0113C48.8465 14.06 48.1856 15.0014 47.1887 15.3513C48.3697 15.7366 49.1772 16.8187 49.2035 18.0513C49.2035 20.6223 47.1373 21.4113 44.7988 21.4113H39.3535V9.65137H44.7988ZM41.2412 14.5143H44.817C46.2388 14.5143 46.9527 13.9593 46.9527 13.0353C46.9527 12.2133 46.2237 11.3374 44.8018 11.3374H41.2412V14.5143ZM41.2412 19.6563H44.7988C45.8485 19.6563 47.3067 19.3203 47.3067 18.0273C47.3067 16.7343 45.9 16.1973 44.817 16.1973H41.2412V19.6563Z" fill="white"/>
<path d="M59.216 17.2686C59.216 19.7226 57.5038 21.5706 54.878 21.5706C52.2521 21.5706 50.5762 19.7226 50.5762 17.2686C50.5762 14.8146 52.2884 12.9517 54.884 12.9517C57.4796 12.9517 59.216 14.8326 59.216 17.2686ZM52.3217 17.2686C52.3217 18.7476 53.2867 19.9686 54.881 19.9686C56.4752 19.9686 57.4554 18.7686 57.4554 17.2686C57.4554 15.7686 56.3966 14.5476 54.884 14.5476C53.2867 14.5476 52.3217 15.8076 52.3217 17.2686Z" fill="white"/>
<path d="M69.1789 17.2686C69.1789 19.7226 67.4667 21.5706 64.8408 21.5706C62.215 21.5706 60.5391 19.7226 60.5391 17.2686C60.5391 14.8146 62.2483 12.9517 64.8408 12.9517C67.4334 12.9517 69.1789 14.8326 69.1789 17.2686ZM62.2846 17.2686C62.2846 18.7476 63.2496 19.9686 64.8439 19.9686C66.4381 19.9686 67.4183 18.7686 67.4183 17.2686C67.4183 15.7686 66.3686 14.5476 64.8439 14.5476C63.2496 14.5476 62.2846 15.8076 62.2846 17.2686Z" fill="white"/>
<path fill-rule="evenodd" clip-rule="evenodd" d="M72.786 9.65137V16.5123L75.8868 13.1193H78.0044V13.2213L74.3954 17.0163L78.4824 21.2853V21.4023H76.3648L72.786 17.5713V21.4023H71.0254V9.65137H72.786Z" fill="white"/>
<path fill-rule="evenodd" clip-rule="evenodd" d="M86.0682 21.4001V16.9631C86.0682 15.5351 85.2544 14.5631 83.8144 14.5631C82.4259 14.5631 81.476 15.6881 81.476 17.0501V21.4001H79.7305V13.0991H81.3217L81.4246 14.2991C82.1138 13.4603 83.1469 12.9734 84.238 12.9731C86.2709 12.9731 87.8288 14.4011 87.8288 16.9391V21.4001H86.0682Z" fill="white"/>
<path d="M91.37 17.9062C91.5212 19.1662 92.58 19.9882 94.0926 19.9882C94.9397 19.9882 96.0076 19.6702 96.5128 19.0882L97.6472 20.1802C96.782 21.1222 95.342 21.5901 94.0563 21.5901C91.3125 21.5901 89.5488 19.8592 89.5488 17.2042C89.5488 14.6842 91.3276 12.8872 93.9353 12.8872C96.6277 12.8872 98.4731 14.5162 98.1373 17.8942L91.37 17.9062ZM96.4704 16.4452C96.3676 15.1342 95.4025 14.4472 93.9958 14.4472C92.7253 14.4472 91.6755 15.1372 91.4033 16.4452H96.4704Z" fill="white"/>
<path fill-rule="evenodd" clip-rule="evenodd" d="M102.62 10.7334V13.1334H105.058V14.6334H102.602V18.5783C102.602 19.4513 102.992 19.9403 103.812 19.9403C104.186 19.9205 104.551 19.818 104.88 19.6403L105.388 21.1193C104.863 21.3627 104.291 21.4886 103.712 21.4883C101.897 21.5393 100.865 20.5133 100.865 18.5663V14.6304H99.2559V13.1304H100.868V10.9164L102.62 10.7334Z" fill="white"/>
<path d="M108.784 10.6824C108.784 12.1104 106.615 12.1104 106.615 10.6824C106.615 9.25443 108.784 9.27243 108.784 10.6824ZM106.818 13.0824V21.4013H108.563V13.0854L106.818 13.0824Z" fill="white"/>
<path fill-rule="evenodd" clip-rule="evenodd" d="M118.004 20.3249C117.174 21.1724 116.027 21.6406 114.836 21.6179C112.416 21.6179 110.432 20.1179 110.432 17.2679C110.432 14.4179 112.413 12.9179 114.836 12.9179C115.974 12.8878 117.071 13.3331 117.861 14.1449L116.742 15.3029C116.234 14.8263 115.56 14.5621 114.86 14.5649C114.135 14.5405 113.433 14.8186 112.924 15.3318C112.415 15.845 112.146 16.5461 112.183 17.2649C112.183 19.0109 113.393 19.9349 114.842 19.9349C115.582 19.9565 116.298 19.6768 116.824 19.1609L118.004 20.3249Z" fill="white"/>
<path fill-rule="evenodd" clip-rule="evenodd" d="M19.3612 7.7715C19.3612 12.0634 15.7153 15.543 11.2226 15.543H0.00130103V3.45316C-0.0524183 1.59666 1.56407 0.051471 3.61381 0H11.2226C13.4027 0.00691246 15.4834 0.826845 16.9751 2.26685C18.5214 3.75616 19.3758 5.72719 19.3612 7.7715Z" fill="#FF3D71"/>
<path fill-rule="evenodd" clip-rule="evenodd" d="M23.0084 14.9059C21.2548 13.0451 18.8045 11.9846 16.2363 11.9749H3.58606C1.55372 11.919 -0.0496937 10.2426 0.0012896 8.22705V11.9749V28.2512C-0.0519973 30.2677 1.55271 31.9454 3.58606 31.9991H16.2363C21.5265 31.9991 25.815 27.5164 25.815 21.9952C25.831 19.3626 24.8263 16.8245 23.0084 14.9059Z" fill="#6D2FFD"/>
</svg>
