<svg width="76" height="77" viewBox="0 0 76 77" fill="none" xmlns="http://www.w3.org/2000/svg">
<g filter="url(#filter0_d_1588_54459)">
<g clip-path="url(#clip0_1588_54459)">
<path d="M61.3067 60.533C63.1643 64.0797 64.0933 76.9997 64.0933 76.9997H11.9066C11.9066 76.9997 12.8356 64.0797 14.6933 60.533C17.48 55.213 38 48.373 38 48.373C38 48.373 58.52 55.213 61.3067 60.533Z" fill="url(#paint0_linear_1588_54459)"/>
<path d="M59.6527 45.4374L18.4969 40.4637C16.4679 29.6923 18.8745 22.9058 25.7169 20.1041C28.88 9.73997 41.1912 10.5831 44.6809 11.4279C56.556 14.3034 61.5466 25.6399 59.6527 45.4374Z" fill="url(#paint1_linear_1588_54459)"/>
<path d="M31.92 51.4135V36.2135C25.5813 36.1187 26.8176 25.1347 33.1867 28.4868C34.3267 28.9935 37.24 27.6001 36.2267 24.1801C43.0667 29.2468 52.5981 20.3548 53.2 25.8268C54.3843 36.5963 52.0927 45.448 46.016 45.4485C45.3684 45.4732 44.72 45.4346 44.08 45.3335V51.4135C42.0964 52.5957 40.1128 53.1868 38.1292 53.1868C36.1456 53.1868 34.0759 52.5957 31.92 51.4135Z" fill="url(#paint2_linear_1588_54459)"/>
<path d="M44.08 45.3331V47.3598C40.28 47.3598 37.3244 45.5442 35.2133 41.9131C37.7466 43.602 40.7022 44.742 44.08 45.3331Z" fill="#DB6F3D"/>
<path d="M37.9916 52.9267C39.7247 52.8439 44.08 51.9471 44.08 50.0096V48.373C44.5446 48.373 45.8748 49.4705 46.5591 50.3997C49.2637 54.073 46.2637 57.3664 43.817 57.3664C40.7299 57.3664 38.684 54.7869 38 53.5461C37.316 54.7874 35.2701 57.3664 32.1829 57.3664C29.7363 57.3664 26.7363 54.073 29.4409 50.3997C30.1251 49.4705 31.4554 48.373 31.92 48.373V50.0096C31.92 51.9471 36.1608 52.8439 37.9916 52.9267Z" fill="white"/>
</g>
</g>
<defs>
<filter id="filter0_d_1588_54459" x="-10" y="-9" width="96" height="96" filterUnits="userSpaceOnUse" color-interpolation-filters="sRGB">
<feFlood flood-opacity="0" result="BackgroundImageFix"/>
<feColorMatrix in="SourceAlpha" type="matrix" values="0 0 0 0 0 0 0 0 0 0 0 0 0 0 0 0 0 0 127 0" result="hardAlpha"/>
<feOffset/>
<feGaussianBlur stdDeviation="5"/>
<feColorMatrix type="matrix" values="0 0 0 0 0 0 0 0 0 0 0 0 0 0 0 0 0 0 0.25 0"/>
<feBlend mode="normal" in2="BackgroundImageFix" result="effect1_dropShadow_1588_54459"/>
<feBlend mode="normal" in="SourceGraphic" in2="effect1_dropShadow_1588_54459" result="shape"/>
</filter>
<linearGradient id="paint0_linear_1588_54459" x1="38" y1="76.9997" x2="38" y2="48.373" gradientUnits="userSpaceOnUse">
<stop stop-color="#FFC9B3"/>
<stop offset="1" stop-color="#FFD2C2"/>
</linearGradient>
<linearGradient id="paint1_linear_1588_54459" x1="38.9221" y1="10.9644" x2="38.9221" y2="45.4374" gradientUnits="userSpaceOnUse">
<stop stop-color="#1D0024"/>
<stop offset="1" stop-color="#100014"/>
</linearGradient>
<linearGradient id="paint2_linear_1588_54459" x1="40.6216" y1="23.9731" x2="40.6216" y2="53.1868" gradientUnits="userSpaceOnUse">
<stop stop-color="#E6864E"/>
<stop offset="1" stop-color="#EB965E"/>
</linearGradient>
<clipPath id="clip0_1588_54459">
<rect y="1" width="76" height="76" rx="38" fill="white"/>
</clipPath>
</defs>
</svg>
