<svg width="76" height="79" viewBox="0 0 76 79" fill="none" xmlns="http://www.w3.org/2000/svg">
<g filter="url(#filter0_d_1588_54427)">
<g clip-path="url(#clip0_1588_54427)">
<path d="M14.6933 64.5604C12.8357 68.1071 11.9067 81.0271 11.9067 81.0271H64.0934C64.0934 81.0271 63.1644 68.1071 61.3067 64.5604C58.52 59.2404 38 52.4004 38 52.4004C38 52.4004 17.48 59.2404 14.6933 64.5604Z" fill="url(#paint0_linear_1588_54427)"/>
<mask id="mask0_1588_54427" style="mask-type:alpha" maskUnits="userSpaceOnUse" x="11" y="52" width="54" height="30">
<path d="M14.6934 64.5604C12.8357 68.1071 11.9067 81.0271 11.9067 81.0271H64.0934C64.0934 81.0271 63.1644 68.1071 61.3067 64.5604C58.52 59.2404 38 52.4004 38 52.4004C38 52.4004 17.48 59.2404 14.6934 64.5604Z" fill="url(#paint1_linear_1588_54427)"/>
</mask>
<g mask="url(#mask0_1588_54427)">
<path opacity="0.4" d="M14.1867 78.7471C14.1867 78.4465 14.0975 78.1526 13.9305 77.9026C13.7635 77.6527 13.5261 77.4579 13.2484 77.3428C12.9706 77.2278 12.665 77.1977 12.3702 77.2563C12.0753 77.315 11.8045 77.4597 11.5919 77.6723C11.3793 77.8849 11.2346 78.1557 11.1759 78.4506C11.1173 78.7454 11.1474 79.051 11.2624 79.3288C11.3774 79.6065 11.5723 79.8439 11.8222 80.0109C12.0722 80.178 12.3661 80.2671 12.6667 80.2671C13.0698 80.2671 13.4564 80.107 13.7415 79.8219C14.0266 79.5369 14.1867 79.1502 14.1867 78.7471ZM24.32 78.7471C24.32 78.4465 24.2309 78.1526 24.0639 77.9026C23.8968 77.6527 23.6595 77.4579 23.3817 77.3428C23.104 77.2278 22.7983 77.1977 22.5035 77.2563C22.2086 77.315 21.9378 77.4597 21.7252 77.6723C21.5126 77.8849 21.3679 78.1557 21.3092 78.4506C21.2506 78.7454 21.2807 79.051 21.3957 79.3288C21.5108 79.6065 21.7056 79.8439 21.9556 80.0109C22.2055 80.178 22.4994 80.2671 22.8 80.2671C23.2032 80.2671 23.5898 80.107 23.8748 79.8219C24.1599 79.5369 24.32 79.1502 24.32 78.7471ZM34.4534 78.7471C34.4534 78.4465 34.3642 78.1526 34.1972 77.9026C34.0302 77.6527 33.7928 77.4579 33.515 77.3428C33.2373 77.2278 32.9317 77.1977 32.6368 77.2563C32.342 77.315 32.0711 77.4597 31.8586 77.6723C31.646 77.8849 31.5012 78.1557 31.4426 78.4506C31.3839 78.7454 31.414 79.051 31.5291 79.3288C31.6441 79.6065 31.8389 79.8439 32.0889 80.0109C32.3389 80.178 32.6327 80.2671 32.9334 80.2671C33.3365 80.2671 33.7231 80.107 34.0082 79.8219C34.2932 79.5369 34.4534 79.1502 34.4534 78.7471ZM44.5867 78.7471C44.5867 78.4465 44.4975 78.1526 44.3305 77.9026C44.1635 77.6527 43.9261 77.4579 43.6484 77.3428C43.3706 77.2278 43.065 77.1977 42.7702 77.2563C42.4753 77.315 42.2045 77.4597 41.9919 77.6723C41.7793 77.8849 41.6346 78.1557 41.5759 78.4506C41.5173 78.7454 41.5474 79.051 41.6624 79.3288C41.7774 79.6065 41.9723 79.8439 42.2222 80.0109C42.4722 80.178 42.7661 80.2671 43.0667 80.2671C43.4698 80.2671 43.8564 80.107 44.1415 79.8219C44.4266 79.5369 44.5867 79.1502 44.5867 78.7471ZM54.72 78.7471C54.72 78.4465 54.6309 78.1526 54.4639 77.9026C54.2968 77.6527 54.0595 77.4579 53.7817 77.3428C53.504 77.2278 53.1983 77.1977 52.9035 77.2563C52.6086 77.315 52.3378 77.4597 52.1252 77.6723C51.9127 77.8849 51.7679 78.1557 51.7092 78.4506C51.6506 78.7454 51.6807 79.051 51.7957 79.3288C51.9108 79.6065 52.1056 79.8439 52.3556 80.0109C52.6055 80.178 52.8994 80.2671 53.2 80.2671C53.6032 80.2671 53.9898 80.107 54.2748 79.8219C54.5599 79.5369 54.72 79.1502 54.72 78.7471ZM64.8534 78.7471C64.8534 78.4465 64.7642 78.1526 64.5972 77.9026C64.4302 77.6527 64.1928 77.4579 63.915 77.3428C63.6373 77.2278 63.3317 77.1977 63.0368 77.2563C62.742 77.315 62.4711 77.4597 62.2586 77.6723C62.046 77.8849 61.9012 78.1557 61.8426 78.4506C61.7839 78.7454 61.814 79.051 61.9291 79.3288C62.0441 79.6065 62.2389 79.8439 62.4889 80.0109C62.7389 80.178 63.0327 80.2671 63.3334 80.2671C63.7365 80.2671 64.1231 80.107 64.4082 79.8219C64.6932 79.5369 64.8534 79.1502 64.8534 78.7471V78.7471ZM19.2534 73.6804C19.2534 73.3798 19.1642 73.0859 18.9972 72.836C18.8302 72.586 18.5928 72.3912 18.315 72.2761C18.0373 72.1611 17.7317 72.131 17.4368 72.1897C17.142 72.2483 16.8711 72.3931 16.6586 72.6056C16.446 72.8182 16.3012 73.0891 16.2426 73.3839C16.1839 73.6788 16.214 73.9844 16.3291 74.2621C16.4441 74.5399 16.6389 74.7773 16.8889 74.9443C17.1389 75.1113 17.4327 75.2004 17.7334 75.2004C18.1365 75.2004 18.5231 75.0403 18.8082 74.7552C19.0932 74.4702 19.2534 74.0836 19.2534 73.6804ZM29.3867 73.6804C29.3867 73.3798 29.2976 73.0859 29.1305 72.836C28.9635 72.586 28.7261 72.3912 28.4484 72.2761C28.1706 72.1611 27.865 72.131 27.5702 72.1897C27.2753 72.2483 27.0045 72.3931 26.7919 72.6056C26.5793 72.8182 26.4346 73.0891 26.3759 73.3839C26.3173 73.6788 26.3474 73.9844 26.4624 74.2621C26.5774 74.5399 26.7723 74.7773 27.0222 74.9443C27.2722 75.1113 27.5661 75.2004 27.8667 75.2004C28.2698 75.2004 28.6564 75.0403 28.9415 74.7552C29.2266 74.4702 29.3867 74.0836 29.3867 73.6804ZM39.52 73.6804C39.52 73.3798 39.4309 73.0859 39.2639 72.836C39.0968 72.586 38.8595 72.3912 38.5817 72.2761C38.304 72.1611 37.9983 72.131 37.7035 72.1897C37.4086 72.2483 37.1378 72.3931 36.9252 72.6056C36.7127 72.8182 36.5679 73.0891 36.5092 73.3839C36.4506 73.6788 36.4807 73.9844 36.5957 74.2621C36.7108 74.5399 36.9056 74.7773 37.1556 74.9443C37.4055 75.1113 37.6994 75.2004 38 75.2004C38.4032 75.2004 38.7898 75.0403 39.0748 74.7552C39.3599 74.4702 39.52 74.0836 39.52 73.6804ZM49.6534 73.6804C49.6534 73.3798 49.5642 73.0859 49.3972 72.836C49.2302 72.586 48.9928 72.3912 48.715 72.2761C48.4373 72.1611 48.1317 72.131 47.8368 72.1897C47.542 72.2483 47.2711 72.3931 47.0586 72.6056C46.846 72.8182 46.7012 73.0891 46.6426 73.3839C46.5839 73.6788 46.614 73.9844 46.7291 74.2621C46.8441 74.5399 47.0389 74.7773 47.2889 74.9443C47.5389 75.1113 47.8327 75.2004 48.1334 75.2004C48.5365 75.2004 48.9231 75.0403 49.2082 74.7552C49.4932 74.4702 49.6534 74.0836 49.6534 73.6804ZM59.7867 73.6804C59.7867 73.3798 59.6975 73.0859 59.5305 72.836C59.3635 72.586 59.1261 72.3912 58.8484 72.2761C58.5706 72.1611 58.265 72.131 57.9702 72.1897C57.6753 72.2483 57.4045 72.3931 57.1919 72.6056C56.9793 72.8182 56.8346 73.0891 56.7759 73.3839C56.7173 73.6788 56.7474 73.9844 56.8624 74.2621C56.9774 74.5399 57.1723 74.7773 57.4222 74.9443C57.6722 75.1113 57.9661 75.2004 58.2667 75.2004C58.6698 75.2004 59.0564 75.0403 59.3415 74.7552C59.6266 74.4702 59.7867 74.0836 59.7867 73.6804ZM14.1867 68.6138C14.1867 68.3132 14.0975 68.0193 13.9305 67.7693C13.7635 67.5194 13.5261 67.3245 13.2484 67.2095C12.9706 67.0944 12.665 67.0643 12.3702 67.123C12.0753 67.1816 11.8045 67.3264 11.5919 67.539C11.3793 67.7516 11.2346 68.0224 11.1759 68.3172C11.1173 68.6121 11.1474 68.9177 11.2624 69.1955C11.3774 69.4732 11.5723 69.7106 11.8222 69.8776C12.0722 70.0446 12.3661 70.1338 12.6667 70.1338C13.0698 70.1338 13.4564 69.9736 13.7415 69.6886C14.0266 69.4035 14.1867 69.0169 14.1867 68.6138ZM24.32 68.6138C24.32 68.3132 24.2309 68.0193 24.0639 67.7693C23.8968 67.5194 23.6595 67.3245 23.3817 67.2095C23.104 67.0944 22.7983 67.0643 22.5035 67.123C22.2086 67.1816 21.9378 67.3264 21.7252 67.539C21.5126 67.7516 21.3679 68.0224 21.3092 68.3172C21.2506 68.6121 21.2807 68.9177 21.3957 69.1955C21.5108 69.4732 21.7056 69.7106 21.9556 69.8776C22.2055 70.0446 22.4994 70.1338 22.8 70.1338C23.2032 70.1338 23.5898 69.9736 23.8748 69.6886C24.1599 69.4035 24.32 69.0169 24.32 68.6138ZM34.4534 68.6138C34.4534 68.3132 34.3642 68.0193 34.1972 67.7693C34.0302 67.5194 33.7928 67.3245 33.515 67.2095C33.2373 67.0944 32.9317 67.0643 32.6368 67.123C32.342 67.1816 32.0711 67.3264 31.8586 67.539C31.646 67.7516 31.5012 68.0224 31.4426 68.3172C31.3839 68.6121 31.414 68.9177 31.5291 69.1955C31.6441 69.4732 31.8389 69.7106 32.0889 69.8776C32.3389 70.0446 32.6327 70.1338 32.9334 70.1338C33.3365 70.1338 33.7231 69.9736 34.0082 69.6886C34.2932 69.4035 34.4534 69.0169 34.4534 68.6138ZM44.5867 68.6138C44.5867 68.3132 44.4975 68.0193 44.3305 67.7693C44.1635 67.5194 43.9261 67.3245 43.6484 67.2095C43.3706 67.0944 43.065 67.0643 42.7702 67.123C42.4753 67.1816 42.2045 67.3264 41.9919 67.539C41.7793 67.7516 41.6346 68.0224 41.5759 68.3172C41.5173 68.6121 41.5474 68.9177 41.6624 69.1955C41.7774 69.4732 41.9723 69.7106 42.2222 69.8776C42.4722 70.0446 42.7661 70.1338 43.0667 70.1338C43.4698 70.1338 43.8564 69.9736 44.1415 69.6886C44.4266 69.4035 44.5867 69.0169 44.5867 68.6138ZM54.72 68.6138C54.72 68.3132 54.6309 68.0193 54.4639 67.7693C54.2968 67.5194 54.0595 67.3245 53.7817 67.2095C53.504 67.0944 53.1983 67.0643 52.9035 67.123C52.6086 67.1816 52.3378 67.3264 52.1252 67.539C51.9127 67.7516 51.7679 68.0224 51.7092 68.3172C51.6506 68.6121 51.6807 68.9177 51.7957 69.1955C51.9108 69.4732 52.1056 69.7106 52.3556 69.8776C52.6055 70.0446 52.8994 70.1338 53.2 70.1338C53.6032 70.1338 53.9898 69.9736 54.2748 69.6886C54.5599 69.4035 54.72 69.0169 54.72 68.6138ZM64.8534 68.6138C64.8534 68.3132 64.7642 68.0193 64.5972 67.7693C64.4302 67.5194 64.1928 67.3245 63.915 67.2095C63.6373 67.0944 63.3317 67.0643 63.0368 67.123C62.742 67.1816 62.4711 67.3264 62.2586 67.539C62.046 67.7516 61.9012 68.0224 61.8426 68.3172C61.7839 68.6121 61.814 68.9177 61.9291 69.1955C62.0441 69.4732 62.2389 69.7106 62.4889 69.8776C62.7389 70.0446 63.0327 70.1338 63.3334 70.1338C63.7365 70.1338 64.1231 69.9736 64.4082 69.6886C64.6932 69.4035 64.8534 69.0169 64.8534 68.6138V68.6138ZM19.2534 63.5471C19.2534 63.2465 19.1642 62.9526 18.9972 62.7026C18.8302 62.4527 18.5928 62.2579 18.315 62.1428C18.0373 62.0278 17.7317 61.9977 17.4368 62.0563C17.142 62.115 16.8711 62.2597 16.6586 62.4723C16.446 62.6849 16.3012 62.9557 16.2426 63.2506C16.1839 63.5454 16.214 63.851 16.3291 64.1288C16.4441 64.4065 16.6389 64.6439 16.8889 64.8109C17.1389 64.978 17.4327 65.0671 17.7334 65.0671C18.1365 65.0671 18.5231 64.907 18.8082 64.6219C19.0932 64.3369 19.2534 63.9502 19.2534 63.5471ZM29.3867 63.5471C29.3867 63.2465 29.2976 62.9526 29.1305 62.7026C28.9635 62.4527 28.7261 62.2579 28.4484 62.1428C28.1706 62.0278 27.865 61.9977 27.5702 62.0563C27.2753 62.115 27.0045 62.2597 26.7919 62.4723C26.5793 62.6849 26.4346 62.9557 26.3759 63.2506C26.3173 63.5454 26.3474 63.851 26.4624 64.1288C26.5774 64.4065 26.7723 64.6439 27.0222 64.8109C27.2722 64.978 27.5661 65.0671 27.8667 65.0671C28.2698 65.0671 28.6564 64.907 28.9415 64.6219C29.2266 64.3369 29.3867 63.9502 29.3867 63.5471ZM39.52 63.5471C39.52 63.2465 39.4309 62.9526 39.2639 62.7026C39.0968 62.4527 38.8595 62.2579 38.5817 62.1428C38.304 62.0278 37.9983 61.9977 37.7035 62.0563C37.4086 62.115 37.1378 62.2597 36.9252 62.4723C36.7127 62.6849 36.5679 62.9557 36.5092 63.2506C36.4506 63.5454 36.4807 63.851 36.5957 64.1288C36.7108 64.4065 36.9056 64.6439 37.1556 64.8109C37.4055 64.978 37.6994 65.0671 38 65.0671C38.4032 65.0671 38.7898 64.907 39.0748 64.6219C39.3599 64.3369 39.52 63.9502 39.52 63.5471ZM49.6534 63.5471C49.6534 63.2465 49.5642 62.9526 49.3972 62.7026C49.2302 62.4527 48.9928 62.2579 48.715 62.1428C48.4373 62.0278 48.1317 61.9977 47.8368 62.0563C47.542 62.115 47.2711 62.2597 47.0586 62.4723C46.846 62.6849 46.7012 62.9557 46.6426 63.2506C46.5839 63.5454 46.614 63.851 46.7291 64.1288C46.8441 64.4065 47.0389 64.6439 47.2889 64.8109C47.5389 64.978 47.8327 65.0671 48.1334 65.0671C48.5365 65.0671 48.9231 64.907 49.2082 64.6219C49.4932 64.3369 49.6534 63.9502 49.6534 63.5471ZM59.7867 63.5471C59.7867 63.2465 59.6975 62.9526 59.5305 62.7026C59.3635 62.4527 59.1261 62.2579 58.8484 62.1428C58.5706 62.0278 58.265 61.9977 57.9702 62.0563C57.6753 62.115 57.4045 62.2597 57.1919 62.4723C56.9793 62.6849 56.8346 62.9557 56.7759 63.2506C56.7173 63.5454 56.7474 63.851 56.8624 64.1288C56.9774 64.4065 57.1723 64.6439 57.4222 64.8109C57.6722 64.978 57.9661 65.0671 58.2667 65.0671C58.6698 65.0671 59.0564 64.907 59.3415 64.6219C59.6266 64.3369 59.7867 63.9502 59.7867 63.5471ZM14.1867 58.4804C14.1867 58.1798 14.0975 57.8859 13.9305 57.636C13.7635 57.386 13.5261 57.1912 13.2484 57.0762C12.9706 56.9611 12.665 56.931 12.3702 56.9897C12.0753 57.0483 11.8045 57.1931 11.5919 57.4056C11.3793 57.6182 11.2346 57.8891 11.1759 58.1839C11.1173 58.4788 11.1474 58.7844 11.2624 59.0621C11.3774 59.3399 11.5723 59.5773 11.8222 59.7443C12.0722 59.9113 12.3661 60.0004 12.6667 60.0004C13.0698 60.0004 13.4564 59.8403 13.7415 59.5553C14.0266 59.2702 14.1867 58.8836 14.1867 58.4804ZM24.32 58.4804C24.32 58.1798 24.2309 57.8859 24.0639 57.636C23.8968 57.386 23.6595 57.1912 23.3817 57.0762C23.104 56.9611 22.7983 56.931 22.5035 56.9897C22.2086 57.0483 21.9378 57.1931 21.7252 57.4056C21.5126 57.6182 21.3679 57.8891 21.3092 58.1839C21.2506 58.4788 21.2807 58.7844 21.3957 59.0621C21.5108 59.3399 21.7056 59.5773 21.9556 59.7443C22.2055 59.9113 22.4994 60.0004 22.8 60.0004C23.2032 60.0004 23.5898 59.8403 23.8748 59.5553C24.1599 59.2702 24.32 58.8836 24.32 58.4804ZM54.72 58.4804C54.72 58.1798 54.6309 57.8859 54.4639 57.636C54.2968 57.386 54.0595 57.1912 53.7817 57.0762C53.504 56.9611 53.1983 56.931 52.9035 56.9897C52.6086 57.0483 52.3378 57.1931 52.1252 57.4056C51.9127 57.6182 51.7679 57.8891 51.7092 58.1839C51.6506 58.4788 51.6807 58.7844 51.7957 59.0621C51.9108 59.3399 52.1056 59.5773 52.3556 59.7443C52.6055 59.9113 52.8994 60.0004 53.2 60.0004C53.6032 60.0004 53.9898 59.8403 54.2748 59.5553C54.5599 59.2702 54.72 58.8836 54.72 58.4804ZM64.8534 58.4804C64.8534 58.1798 64.7642 57.8859 64.5972 57.636C64.4302 57.386 64.1928 57.1912 63.915 57.0762C63.6373 56.9611 63.3317 56.931 63.0368 56.9897C62.742 57.0483 62.4711 57.1931 62.2586 57.4056C62.046 57.6182 61.9012 57.8891 61.8426 58.1839C61.7839 58.4788 61.814 58.7844 61.9291 59.0621C62.0441 59.3399 62.2389 59.5773 62.4889 59.7443C62.7389 59.9113 63.0327 60.0004 63.3334 60.0004C63.7365 60.0004 64.1231 59.8403 64.4082 59.5553C64.6932 59.2702 64.8534 58.8836 64.8534 58.4804V58.4804Z" fill="#13001E"/>
</g>
<path d="M35.2478 16.3508C36.2611 11.9175 31.4561 8.51549 26.5078 10.851C14.8545 16.3508 21.7867 24.0268 26.0933 23.5202C30.4 23.0135 34.2344 20.7842 35.2478 16.3508Z" fill="url(#paint2_linear_1588_54427)"/>
<g style="mix-blend-mode:multiply" opacity="0.6">
<path d="M31.0333 17.0601C31.0333 17.0601 22.42 22.6334 20.2667 19.5934C20.0445 20.8628 21.0662 24.4485 22.6733 24.4067C27.4808 24.2816 31.0333 17.0601 31.0333 17.0601Z" fill="#E0713F"/>
</g>
<path d="M32.4267 44.2934C37.8691 46.9081 38.663 46.768 50.6667 36.9468C68.78 22.1268 51.68 8.57343 33.3134 15.7934C13.4267 24.5334 20.0891 38.3672 32.4267 44.2934Z" fill="url(#paint3_linear_1588_54427)"/>
<path d="M31.9198 54.6802C33.7775 57.7202 42.2221 57.7202 44.0798 54.6802V49.6135C44.0798 49.6135 44.9064 49.6388 45.4731 49.6135C51.3988 49.3602 53.3789 39.828 52.4489 30.2938C51.7679 23.3114 45.8531 32.8935 36.2264 26.1802C36.6064 33.5268 33.4398 32.7668 32.0464 31.8802C25.7131 28.9668 25.6601 40.9095 31.9198 39.9868V54.6802Z" fill="url(#paint4_linear_1588_54427)"/>
<path d="M44.0798 49.6124C40.6611 49.3585 35.563 45.7873 35.563 45.7873C35.563 45.7873 38.0018 51.0044 44.0795 51.8913L44.0798 49.6124Z" fill="#FFBB94"/>
<path d="M31.92 54.0369V52.4004C31.4554 52.4004 30.1252 53.4978 29.4409 54.4271C26.7363 58.1004 29.7363 61.3937 32.183 61.3937C35.2701 61.3937 37.316 58.8143 38 57.5735C38.684 58.8148 40.7299 61.3937 43.8171 61.3937C46.2637 61.3937 49.2637 58.1004 46.5591 54.4271C45.8749 53.4978 44.5446 52.4004 44.08 52.4004V54.0369C44.08 55.9744 39.8392 56.8712 38.0084 56.9541C36.2753 56.8712 31.92 55.9744 31.92 54.0369Z" fill="#FFF9F5"/>
<path d="M34.8106 21.0954C38.8639 31.2287 36.5839 36.1687 33.4172 42.1221C30.2506 48.0754 34.1772 53.6487 34.1772 53.6487C34.1772 53.6487 29.6172 50.7354 29.6172 44.2754C29.6172 37.8154 34.1772 33.7621 30.3772 28.4421C26.5772 23.1221 30.7572 10.9621 34.8106 21.0954Z" fill="url(#paint5_linear_1588_54427)"/>
</g>
</g>
<defs>
<filter id="filter0_d_1588_54427" x="-10" y="-7" width="96" height="96" filterUnits="userSpaceOnUse" color-interpolation-filters="sRGB">
<feFlood flood-opacity="0" result="BackgroundImageFix"/>
<feColorMatrix in="SourceAlpha" type="matrix" values="0 0 0 0 0 0 0 0 0 0 0 0 0 0 0 0 0 0 127 0" result="hardAlpha"/>
<feOffset/>
<feGaussianBlur stdDeviation="5"/>
<feColorMatrix type="matrix" values="0 0 0 0 0 0 0 0 0 0 0 0 0 0 0 0 0 0 0.25 0"/>
<feBlend mode="normal" in2="BackgroundImageFix" result="effect1_dropShadow_1588_54427"/>
<feBlend mode="normal" in="SourceGraphic" in2="effect1_dropShadow_1588_54427" result="shape"/>
</filter>
<linearGradient id="paint0_linear_1588_54427" x1="38" y1="52.4004" x2="38" y2="81.0271" gradientUnits="userSpaceOnUse">
<stop stop-color="#806A6A"/>
<stop offset="1" stop-color="#665654"/>
</linearGradient>
<linearGradient id="paint1_linear_1588_54427" x1="38" y1="52.4004" x2="38" y2="81.0271" gradientUnits="userSpaceOnUse">
<stop stop-color="#806A6A"/>
<stop offset="1" stop-color="#665654"/>
</linearGradient>
<linearGradient id="paint2_linear_1588_54427" x1="27.7346" y1="23.544" x2="27.7346" y2="10.0923" gradientUnits="userSpaceOnUse">
<stop stop-color="#E6864E"/>
<stop offset="1" stop-color="#E67240"/>
</linearGradient>
<linearGradient id="paint3_linear_1588_54427" x1="39.5342" y1="45.7333" x2="39.5342" y2="13.7939" gradientUnits="userSpaceOnUse">
<stop stop-color="#E6864E"/>
<stop offset="1" stop-color="#E67240"/>
</linearGradient>
<linearGradient id="paint4_linear_1588_54427" x1="39.9641" y1="26.1802" x2="39.9641" y2="56.9602" gradientUnits="userSpaceOnUse">
<stop stop-color="#FFD4B3"/>
<stop offset="1" stop-color="#FFDCC2"/>
</linearGradient>
<linearGradient id="paint5_linear_1588_54427" x1="32.9354" y1="53.6487" x2="32.9354" y2="17.187" gradientUnits="userSpaceOnUse">
<stop stop-color="#E6864E"/>
<stop offset="1" stop-color="#E57442"/>
</linearGradient>
<clipPath id="clip0_1588_54427">
<rect width="76" height="76" rx="38" transform="matrix(-1 0 0 1 76 3)" fill="white"/>
</clipPath>
</defs>
</svg>
